<?xml version="1.0" encoding="utf-8"?>
<!-- Generator: Adobe Illustrator 26.4.1, SVG Export Plug-In . SVG Version: 6.00 Build 0)  -->
<svg version="1.1" id="Слой_1" xmlns="http://www.w3.org/2000/svg" xmlns:xlink="http://www.w3.org/1999/xlink" x="0px" y="0px"
	 viewBox="0 0 12 20" style="enable-background:new 0 0 12 20;" xml:space="preserve">

<path class="st0" d="M0.9,19.5c-0.3-0.3-0.4-0.7-0.4-1.1c0-0.4,0.2-0.8,0.4-1.1L8.4,10L0.9,2.6C0.7,2.3,0.5,1.9,0.5,1.5
	c0-0.4,0.2-0.8,0.4-1C1.2,0.2,1.6,0,2,0c0.4,0,0.8,0.1,1.1,0.4l8.5,8.5C11.8,9.2,12,9.6,12,10c0,0.4-0.2,0.8-0.4,1.1l-8.5,8.5
	C2.8,19.8,2.4,20,2,20S1.2,19.8,0.9,19.5z"/>
</svg>
