<?xml version="1.0" encoding="utf-8"?>
<!-- Generator: Adobe Illustrator 26.4.1, SVG Export Plug-In . SVG Version: 6.00 Build 0)  -->
<svg version="1.1" id="Слой_1" xmlns="http://www.w3.org/2000/svg" xmlns:xlink="http://www.w3.org/1999/xlink" x="0px" y="0px"
	 viewBox="0 0 12 20" style="enable-background:new 0 0 12 20;" xml:space="preserve">

<path class="st0" d="M11.1,19.5c0.3-0.3,0.4-0.7,0.4-1.1c0-0.4-0.2-0.8-0.4-1.1L3.6,10l7.4-7.4c0.3-0.3,0.4-0.7,0.4-1.1
	c0-0.4-0.2-0.8-0.4-1C10.8,0.2,10.4,0,10,0C9.6,0,9.2,0.2,8.9,0.5L0.5,8.9C0.2,9.2,0,9.6,0,10c0,0.4,0.2,0.8,0.4,1.1l8.5,8.5
	C9.2,19.8,9.6,20,10,20C10.4,20,10.8,19.8,11.1,19.5z"/>
</svg>
