<?xml version="1.0" encoding="utf-8"?>
<!-- Generator: Adobe Illustrator 26.4.1, SVG Export Plug-In . SVG Version: 6.00 Build 0)  -->
<svg version="1.1" id="Слой_1" xmlns="http://www.w3.org/2000/svg" xmlns:xlink="http://www.w3.org/1999/xlink" x="0px" y="0px"
	 viewBox="0 0 12 12" style="enable-background:new 0 0 12 12;" xml:space="preserve">
<path class="st0" d="M1.2,4c0.1-0.1,0.3-0.2,0.5-0.2C2,3.8,2.1,3.8,2.3,4L6,7.7L9.7,4c0.1-0.1,0.3-0.2,0.5-0.2
	c0.2,0,0.4,0.1,0.5,0.2C10.9,4.1,11,4.3,11,4.5S10.9,4.9,10.8,5L6.5,9.3C6.4,9.4,6.2,9.5,6,9.5c-0.2,0-0.4-0.1-0.5-0.2L1.2,5
	C1.1,4.9,1,4.7,1,4.5S1.1,4.1,1.2,4z"/>
</svg>
