<svg width="56" height="56" viewBox="0 0 56 56" fill="none" xmlns="http://www.w3.org/2000/svg">
<path d="M13.4051 33.9327V41.3991M28.338 22.7331V41.3991M47.004 46.9989H9.67189M43.2708 30.1995V41.3991M16.3917 22.3597C16.0975 21.9675 15.729 21.6371 15.3072 21.3873C14.8853 21.1375 14.4184 20.9733 13.9331 20.904C13.4477 20.8346 12.9535 20.8616 12.4786 20.9832C12.0037 21.1049 11.5574 21.3189 11.1652 21.6131C10.773 21.9072 10.4425 22.2758 10.1928 22.6976C9.94299 23.1195 9.77874 23.5864 9.70941 24.0717C9.56939 25.0519 9.82447 26.0475 10.4185 26.8396C11.0126 27.6317 11.897 28.1553 12.8771 28.2954C13.8573 28.4354 14.8529 28.1803 15.645 27.5862C16.4371 26.9922 16.9608 26.1078 17.1008 25.1276C17.2408 24.1475 16.9857 23.1518 16.3917 22.3597ZM16.3917 22.3597L25.3514 15.6399M25.3514 15.6399C25.733 16.1496 26.2387 16.5531 26.8202 16.8122C27.4018 17.0713 28.04 17.1774 28.6741 17.1204C29.3082 17.0633 29.9172 16.845 30.4432 16.4863C30.9692 16.1275 31.3946 15.6402 31.6792 15.0706M25.3514 15.6399C24.953 15.108 24.7038 14.4792 24.6297 13.8187C24.5555 13.1583 24.659 12.4899 24.9295 11.8828C25.2 11.2757 25.6277 10.7518 26.1683 10.3653C26.709 9.97873 27.3431 9.74352 28.005 9.68397C28.667 9.62441 29.3329 9.74266 29.9339 10.0265C30.5348 10.3103 31.0492 10.7495 31.4237 11.2985C31.7982 11.8476 32.0193 12.4867 32.0642 13.1499C32.1092 13.813 31.9762 14.4761 31.6792 15.0706M31.6792 15.0706L39.9296 19.1958C39.7102 19.6344 39.5793 20.1118 39.5445 20.6009C39.5096 21.09 39.5714 21.5812 39.7264 22.0464C40.0393 22.986 40.7127 23.7627 41.5983 24.2058C42.484 24.6489 43.5094 24.722 44.4489 24.409C45.3885 24.0961 46.1652 23.4227 46.6083 22.5371C47.0423 21.6527 47.1091 20.6327 46.7943 19.6993C46.4794 18.7659 45.8085 17.9948 44.9275 17.5539C44.0466 17.1131 43.0271 17.0383 42.0913 17.3459C41.1555 17.6534 40.3791 18.3184 39.9315 19.1958" stroke="#26599B" stroke-width="3" stroke-linecap="round" stroke-linejoin="round"/>
</svg>
