<svg width="56" height="56" viewBox="0 0 56 56" fill="none" xmlns="http://www.w3.org/2000/svg">
<path d="M9 45.875V9.125C9 7.50055 9.64531 5.94263 10.794 4.79397C11.9426 3.64531 13.5005 3 15.125 3H39.625C41.2494 3 42.8074 3.64531 43.956 4.79397C45.1047 5.94263 45.75 7.50055 45.75 9.125V42.8125C45.75 43.6247 45.4273 44.4037 44.853 44.978C44.2787 45.5523 43.4997 45.875 42.6875 45.875H12.0625C12.0625 46.6872 12.3852 47.4662 12.9595 48.0405C13.5338 48.6148 14.3128 48.9375 15.125 48.9375H44.2187C44.6249 48.9375 45.0143 49.0988 45.3015 49.386C45.5887 49.6732 45.75 50.0626 45.75 50.4688C45.75 50.8749 45.5887 51.2643 45.3015 51.5515C45.0143 51.8387 44.6249 52 44.2187 52H15.125C13.5005 52 11.9426 51.3547 10.794 50.206C9.64531 49.0574 9 47.4995 9 45.875ZM42.6875 9.125C42.6875 8.31277 42.3648 7.53382 41.7905 6.95949C41.2162 6.38516 40.4372 6.0625 39.625 6.0625H15.125C14.3128 6.0625 13.5338 6.38516 12.9595 6.95949C12.3852 7.53382 12.0625 8.31277 12.0625 9.125V42.8125H42.6875V9.125ZM18.3131 21.375H21.2929C21.4307 19.0077 21.8809 16.8272 22.5791 15.0693C21.4581 15.7541 20.497 16.6713 19.7605 17.759C19.0241 18.8468 18.5325 20.0798 18.3131 21.375ZM15.125 22.9062C15.125 19.6573 16.4156 16.5415 18.7129 14.2442C21.0103 11.9469 24.1261 10.6562 27.375 10.6562C30.6239 10.6562 33.7397 11.9469 36.0371 14.2442C38.3344 16.5415 39.625 19.6573 39.625 22.9062C39.625 26.1552 38.3344 29.271 36.0371 31.5683C33.7397 33.8656 30.6239 35.1562 27.375 35.1562C24.1261 35.1562 21.0103 33.8656 18.7129 31.5683C16.4156 29.271 15.125 26.1552 15.125 22.9062ZM36.4369 21.375C36.2182 20.0804 35.7245 18.8477 34.9891 17.7599C34.2538 16.6722 33.2938 15.7547 32.1739 15.0693C32.8691 16.8272 33.3193 19.0077 33.4571 21.375H36.4369ZM33.4571 24.4375C33.3193 26.8048 32.8691 28.9884 32.1709 30.7432C33.2919 30.0584 34.253 29.1412 34.9895 28.0535C35.7259 26.9657 36.2206 25.7327 36.44 24.4375H33.4571ZM30.3885 21.375C30.2476 19.2098 29.8097 17.3203 29.2156 15.9299C28.8481 15.0724 28.4499 14.4783 28.0886 14.1199C27.7302 13.7677 27.4914 13.7188 27.375 13.7188C27.2586 13.7188 27.0197 13.7678 26.6614 14.1169C26.3001 14.4783 25.9019 15.0724 25.5344 15.9299C24.9403 17.3203 24.5024 19.2068 24.3615 21.375H30.3885ZM24.3615 24.4375C24.5024 26.6027 24.9403 28.4923 25.5344 29.8826C25.9019 30.7401 26.3001 31.3343 26.6614 31.6926C27.0197 32.0448 27.2586 32.0938 27.375 32.0938C27.4914 32.0938 27.7302 32.0448 28.0886 31.6956C28.4499 31.3342 28.8481 30.7401 29.2156 29.8826C29.8097 28.4923 30.2446 26.6057 30.3885 24.4375H24.3615ZM21.2929 24.4375H18.3131C18.5318 25.7321 19.0255 26.9648 19.7608 28.0526C20.4962 29.1403 21.4562 30.0578 22.5761 30.7432C21.8809 28.9884 21.4307 26.8048 21.2929 24.4375Z" fill="#26599B"/>
</svg>
