<svg width="24" height="24" viewBox="0 0 24 24" fill="none" xmlns="http://www.w3.org/2000/svg">
<path d="M21.0698 5.22898C21.2743 5.44621 21.384 5.73575 21.375 6.03392C21.366 6.33209 21.239 6.61447 21.0218 6.81898L9.12682 18.03C8.88434 18.2583 8.56212 18.3827 8.2291 18.3766C7.89607 18.3704 7.57868 18.2342 7.34482 17.997L3.32482 13.917C3.21837 13.8124 3.13379 13.6877 3.07601 13.55C3.01823 13.4124 2.98841 13.2647 2.98828 13.1155C2.98815 12.9662 3.01772 12.8185 3.07526 12.6808C3.1328 12.5431 3.21716 12.4182 3.32343 12.3134C3.4297 12.2086 3.55576 12.126 3.69426 12.0705C3.83277 12.0149 3.98094 11.9874 4.13017 11.9896C4.27939 11.9919 4.42668 12.0238 4.56345 12.0835C4.70022 12.1432 4.82374 12.2296 4.92682 12.3375L8.27782 15.738L19.4798 5.18098C19.6971 4.97654 19.9866 4.86676 20.2848 4.87576C20.5829 4.88476 20.8653 5.01181 21.0698 5.22898Z" fill="#26599B"/>
</svg>
