<svg width="48" height="48" viewBox="0 0 48 48" fill="none" xmlns="http://www.w3.org/2000/svg">
<mask id="mask0_1331_2599" style="mask-type:alpha" maskUnits="userSpaceOnUse" x="0" y="0" width="48" height="48">
<rect width="48" height="48" fill="#D9D9D9"/>
</mask>
<g mask="url(#mask0_1331_2599)">
<path d="M21.8513 28.4L18.2013 24.75C17.9013 24.45 17.543 24.3083 17.1263 24.325C16.7096 24.3416 16.3513 24.5008 16.0513 24.8025C15.7513 25.1045 15.6013 25.4628 15.6013 25.8775C15.6013 26.2925 15.7513 26.65 16.0513 26.95L20.8013 31.65C21.1013 31.95 21.4513 32.1 21.8513 32.1C22.2513 32.1 22.6013 31.95 22.9013 31.65L31.9513 22.6C32.2513 22.2976 32.4013 21.9388 32.4013 21.5235C32.4013 21.1078 32.2505 20.75 31.9488 20.45C31.6468 20.15 31.2885 20 30.8738 20C30.4588 20 30.1013 20.15 29.8013 20.45L21.8513 28.4ZM23.9513 43.9C21.4846 43.9 19.1596 43.4333 16.9763 42.5C14.793 41.5666 12.893 40.2916 11.2763 38.675C9.65965 37.0583 8.37632 35.1583 7.42632 32.975C6.47632 30.7916 6.00132 28.4545 6.00132 25.9635C6.00132 23.4721 6.47632 21.1388 7.42632 18.9635C8.37632 16.7878 9.65965 14.8833 11.2763 13.25C12.893 11.6166 14.793 10.3333 16.9763 9.39997C19.1596 8.46664 21.4846 7.99997 23.9513 7.99997C26.418 7.99997 28.743 8.46664 30.9263 9.39997C33.1096 10.3333 35.018 11.6166 36.6513 13.25C38.2847 14.8833 39.568 16.7878 40.5013 18.9635C41.4347 21.1388 41.9013 23.4721 41.9013 25.9635C41.9013 28.4545 41.4347 30.7916 40.5013 32.975C39.568 35.1583 38.2847 37.0583 36.6513 38.675C35.018 40.2916 33.1096 41.5666 30.9263 42.5C28.743 43.4333 26.418 43.9 23.9513 43.9ZM3.55132 13.6C3.25132 13.3 3.10965 12.95 3.12632 12.55C3.14298 12.15 3.30132 11.8 3.60132 11.5L9.65132 5.64997C9.95132 5.3833 10.3096 5.2583 10.7263 5.27497C11.143 5.29164 11.4846 5.4333 11.7513 5.69997C12.0513 5.99997 12.193 6.34997 12.1763 6.74997C12.1596 7.14997 12.0013 7.49997 11.7013 7.79997L5.65132 13.65C5.35132 13.9166 4.99298 14.0416 4.57632 14.025C4.15965 14.0083 3.81798 13.8666 3.55132 13.6ZM44.3513 13.6C44.0846 13.8666 43.743 14.0083 43.3263 14.025C42.9096 14.0416 42.5513 13.9166 42.2513 13.65L36.2013 7.79997C35.9013 7.5333 35.743 7.19164 35.7263 6.77497C35.7096 6.3583 35.8513 5.99997 36.1513 5.69997C36.418 5.4333 36.7596 5.29164 37.1763 5.27497C37.593 5.2583 37.9513 5.3833 38.2513 5.64997L44.3013 11.5C44.6013 11.7666 44.7597 12.1083 44.7763 12.525C44.793 12.9416 44.6513 13.3 44.3513 13.6ZM23.9533 40.9C28.1186 40.9 31.6513 39.4493 34.5513 36.548C37.4513 33.6463 38.9013 30.113 38.9013 25.948C38.9013 21.7826 37.4506 18.25 34.5493 15.35C31.6476 12.45 28.1143 11 23.9493 11C19.784 11 16.2513 12.4506 13.3513 15.352C10.4513 18.2536 9.00132 21.787 9.00132 25.952C9.00132 30.1173 10.452 33.65 13.3533 36.55C16.255 39.45 19.7883 40.9 23.9533 40.9Z" fill="#26599B"/>
</g>
</svg>
