<svg width="24" height="25" viewBox="0 0 24 25" fill="none" xmlns="http://www.w3.org/2000/svg">
<path d="M21.999 11.5C21.991 14.126 21.913 15.544 21.186 16.581C20.8849 17.011 20.511 17.3849 20.081 17.686C18.92 18.5 17.28 18.5 14 18.5H10C6.72 18.5 5.081 18.5 3.919 17.686C3.48904 17.3849 3.11507 17.011 2.814 16.581C2 15.42 2 13.78 2 10.5C2 7.22 2 5.581 2.814 4.419C3.11507 3.98904 3.48904 3.61507 3.919 3.314C5.08 2.5 6.72 2.5 10 2.5H11.5" stroke="#26599B" stroke-width="1.5" stroke-linecap="round" stroke-linejoin="round"/>
<path d="M14 6.5C14 6.5 15 6.5 16 8.5C16 8.5 19.177 3.5 22 2.5M11 15.5H13M12 18.5V22.5M8 22.5H16" stroke="#26599B" stroke-width="1.5" stroke-linecap="round" stroke-linejoin="round"/>
</svg>
