<svg width="24" height="25" viewBox="0 0 24 25" fill="none" xmlns="http://www.w3.org/2000/svg">
<g clip-path="url(#clip0_1467_18728)">
<path d="M11 2.5H10C6.72 2.5 5.081 2.5 3.919 3.314C3.48904 3.61507 3.11507 3.98904 2.814 4.419C2 5.58 2 7.22 2 10.5C2 13.78 2 15.419 2.814 16.581C3.11507 17.011 3.48904 17.3849 3.919 17.686C5.08 18.5 6.72 18.5 10 18.5H14C17.28 18.5 18.919 18.5 20.081 17.686C20.511 17.3849 20.8849 17.011 21.186 16.581C21.866 15.611 21.978 14.309 21.996 12" stroke="#26599B" stroke-width="1.5" stroke-linecap="round" stroke-linejoin="round"/>
<path d="M11 15.5H13M12 18.5V22.5M8 22.5H16" stroke="#26599B" stroke-width="1.5" stroke-linecap="round" stroke-linejoin="round"/>
<path d="M18.1367 5.17969V6.10938C18.1367 6.55469 18.0924 6.9349 18.0039 7.25C17.918 7.5625 17.793 7.81641 17.6289 8.01172C17.4648 8.20703 17.2682 8.35026 17.0391 8.44141C16.8125 8.53255 16.5586 8.57812 16.2773 8.57812C16.0534 8.57812 15.8451 8.54948 15.6523 8.49219C15.4622 8.4349 15.2904 8.34505 15.1367 8.22266C14.9831 8.10026 14.8516 7.94271 14.7422 7.75C14.6354 7.55469 14.5521 7.32161 14.4922 7.05078C14.4349 6.77995 14.4062 6.46615 14.4062 6.10938V5.17969C14.4062 4.73177 14.4505 4.35417 14.5391 4.04688C14.6276 3.73698 14.7539 3.48568 14.918 3.29297C15.082 3.09766 15.2773 2.95573 15.5039 2.86719C15.7331 2.77865 15.9883 2.73438 16.2695 2.73438C16.4961 2.73438 16.7044 2.76302 16.8945 2.82031C17.0872 2.875 17.2591 2.96224 17.4102 3.08203C17.5638 3.20182 17.694 3.35807 17.8008 3.55078C17.9102 3.74089 17.9935 3.97135 18.0508 4.24219C18.1081 4.51042 18.1367 4.82292 18.1367 5.17969ZM17.1953 6.24219V5.03906C17.1953 4.8125 17.1823 4.61328 17.1562 4.44141C17.1302 4.26693 17.0911 4.11979 17.0391 4C16.9896 3.8776 16.9271 3.77865 16.8516 3.70312C16.776 3.625 16.6901 3.56901 16.5938 3.53516C16.4974 3.4987 16.3893 3.48047 16.2695 3.48047C16.1237 3.48047 15.9935 3.50911 15.8789 3.56641C15.7643 3.62109 15.668 3.70964 15.5898 3.83203C15.5117 3.95443 15.4518 4.11589 15.4102 4.31641C15.3711 4.51432 15.3516 4.75521 15.3516 5.03906V6.24219C15.3516 6.47135 15.3646 6.67318 15.3906 6.84766C15.4167 7.02214 15.4557 7.17188 15.5078 7.29688C15.5599 7.41927 15.6224 7.52083 15.6953 7.60156C15.7708 7.67969 15.8568 7.73698 15.9531 7.77344C16.0521 7.8099 16.1602 7.82812 16.2773 7.82812C16.4258 7.82812 16.5573 7.79948 16.6719 7.74219C16.7865 7.6849 16.8828 7.59375 16.9609 7.46875C17.0391 7.34115 17.0977 7.17578 17.1367 6.97266C17.1758 6.76953 17.1953 6.52604 17.1953 6.24219Z" fill="#26599B"/>
<path d="M21.8789 6.37891H18.9219V5.60156H21.8594C22.1224 5.60156 22.3346 5.5612 22.4961 5.48047C22.6576 5.39714 22.776 5.28125 22.8516 5.13281C22.9271 4.98438 22.9648 4.8112 22.9648 4.61328C22.9648 4.4362 22.9271 4.27083 22.8516 4.11719C22.776 3.96354 22.6589 3.83854 22.5 3.74219C22.3411 3.64323 22.1341 3.59375 21.8789 3.59375H20.6992V8.5H19.7188V2.8125H21.8789C22.3164 2.8125 22.6888 2.88932 22.9961 3.04297C23.3034 3.19661 23.5391 3.40885 23.7031 3.67969C23.8672 3.94792 23.9492 4.25651 23.9492 4.60547C23.9492 4.97786 23.8659 5.29688 23.6992 5.5625C23.5352 5.82552 23.2982 6.02734 22.9883 6.16797C22.681 6.30859 22.3112 6.37891 21.8789 6.37891ZM21.9727 6.79688V7.57422H18.9219V6.79688H21.9727Z" fill="#26599B"/>
</g>
<defs>
<clipPath id="clip0_1467_18728">
<rect width="24" height="24" fill="white" transform="translate(0 0.5)"/>
</clipPath>
</defs>
</svg>
