<svg width="56" height="56" viewBox="0 0 56 56" fill="none" xmlns="http://www.w3.org/2000/svg">
<path d="M29.595 29.5714H37.6752C38.0577 31.0527 38.9673 32.3437 40.2335 33.2024C41.4998 34.061 43.0357 34.4284 44.5534 34.2356C46.0711 34.0428 47.4664 33.3032 48.4777 32.1552C49.4891 31.0073 50.0471 29.5299 50.0471 28C50.0471 26.4701 49.4891 24.9927 48.4777 23.8448C47.4664 22.6968 46.0711 21.9572 44.5534 21.7644C43.0357 21.5716 41.4998 21.939 40.2335 22.7976C38.9673 23.6563 38.0577 24.9473 37.6752 26.4286H29.595V13.8572H37.6752C38.0577 15.3385 38.9673 16.6294 40.2335 17.4881C41.4998 18.3467 43.0357 18.7141 44.5534 18.5213C46.0711 18.3286 47.4664 17.5889 48.4777 16.4409C49.4891 15.293 50.0471 13.8156 50.0471 12.2857C50.0471 10.7558 49.4891 9.27844 48.4777 8.13051C47.4664 6.98257 46.0711 6.24289 44.5534 6.05011C43.0357 5.85734 41.4998 6.22471 40.2335 7.08335C38.9673 7.942 38.0577 9.23298 37.6752 10.7143H29.595C28.7614 10.7143 27.962 11.0454 27.3726 11.6348C26.7832 12.2242 26.4521 13.0236 26.4521 13.8572V26.4286H18.3718C17.9893 24.9473 17.0797 23.6563 15.8135 22.7976C14.5473 21.939 13.0114 21.5716 11.4937 21.7644C9.97598 21.9572 8.58068 22.6968 7.56932 23.8448C6.55797 24.9927 6 26.4701 6 28C6 29.5299 6.55797 31.0073 7.56932 32.1552C8.58068 33.3032 9.97598 34.0428 11.4937 34.2356C13.0114 34.4284 14.5473 34.061 15.8135 33.2024C17.0797 32.3437 17.9893 31.0527 18.3718 29.5714H26.4521V42.1428C26.4521 42.9764 26.7832 43.7758 27.3726 44.3652C27.962 44.9546 28.7614 45.2857 29.595 45.2857H37.6752C38.0577 46.767 38.9673 48.058 40.2335 48.9166C41.4998 49.7753 43.0357 50.1427 44.5534 49.9499C46.0711 49.7571 47.4664 49.0174 48.4777 47.8695C49.4891 46.7216 50.0471 45.2442 50.0471 43.7143C50.0471 42.1844 49.4891 40.707 48.4777 39.5591C47.4664 38.4111 46.0711 37.6714 44.5534 37.4787C43.0357 37.2859 41.4998 37.6533 40.2335 38.5119C38.9673 39.3706 38.0577 40.6615 37.6752 42.1428H29.595V29.5714ZM43.7378 24.8571C44.3594 24.8571 44.967 25.0415 45.4839 25.3868C46.0007 25.7322 46.4035 26.223 46.6414 26.7973C46.8793 27.3716 46.9415 28.0035 46.8203 28.6131C46.699 29.2228 46.3997 29.7828 45.9601 30.2223C45.5206 30.6619 44.9606 30.9612 44.3509 31.0825C43.7413 31.2037 43.1094 31.1415 42.5351 30.9036C41.9608 30.6657 41.47 30.2629 41.1246 29.7461C40.7793 29.2292 40.595 28.6216 40.595 28C40.595 27.1665 40.9261 26.3671 41.5155 25.7777C42.1049 25.1883 42.9043 24.8571 43.7378 24.8571ZM43.7378 9.14287C44.3594 9.14287 44.967 9.3272 45.4839 9.67254C46.0007 10.0179 46.4035 10.5087 46.6414 11.083C46.8793 11.6573 46.9415 12.2892 46.8203 12.8989C46.699 13.5085 46.3997 14.0685 45.9601 14.5081C45.5206 14.9476 44.9606 15.2469 44.3509 15.3682C43.7413 15.4895 43.1094 15.4272 42.5351 15.1893C41.9608 14.9515 41.47 14.5486 41.1246 14.0318C40.7793 13.515 40.595 12.9073 40.595 12.2857C40.595 11.4522 40.9261 10.6528 41.5155 10.0634C42.1049 9.47399 42.9043 9.14287 43.7378 9.14287ZM12.3093 31.1429C11.6877 31.1429 11.08 30.9585 10.5632 30.6132C10.0463 30.2678 9.64351 29.777 9.40564 29.2027C9.16776 28.6284 9.10552 27.9965 9.22679 27.3869C9.34806 26.7772 9.64738 26.2172 10.0869 25.7777C10.5265 25.3381 11.0865 25.0388 11.6961 24.9175C12.3058 24.7963 12.9377 24.8585 13.512 25.0964C14.0863 25.3343 14.5771 25.7371 14.9224 26.2539C15.2678 26.7708 15.4521 27.3784 15.4521 28C15.4521 28.8335 15.121 29.6329 14.5316 30.2223C13.9422 30.8117 13.1428 31.1429 12.3093 31.1429ZM43.7378 40.5714C44.3594 40.5714 44.967 40.7557 45.4839 41.1011C46.0007 41.4464 46.4035 41.9373 46.6414 42.5116C46.8793 43.0858 46.9415 43.7178 46.8203 44.3274C46.699 44.9371 46.3997 45.4971 45.9601 45.9366C45.5206 46.3761 44.9606 46.6755 44.3509 46.7967C43.7413 46.918 43.1094 46.8558 42.5351 46.6179C41.9608 46.38 41.47 45.9772 41.1246 45.4604C40.7793 44.9435 40.595 44.3359 40.595 43.7143C40.595 42.8807 40.9261 42.0813 41.5155 41.4919C42.1049 40.9025 42.9043 40.5714 43.7378 40.5714Z" fill="#26599B"/>
</svg>
