<?xml version="1.0" encoding="utf-8"?>
<!-- Generator: Adobe Illustrator 26.4.1, SVG Export Plug-In . SVG Version: 6.00 Build 0)  -->
<svg version="1.1" id="Слой_1" xmlns="http://www.w3.org/2000/svg" xmlns:xlink="http://www.w3.org/1999/xlink" x="0px" y="0px"
	 viewBox="0 0 20 24" style="enable-background:new 0 0 20 24;" xml:space="preserve">

<path class="st0" d="M17.7,23.6H2.3c-0.6,0-1.1-0.2-1.6-0.6c-0.4-0.4-0.6-1-0.6-1.6V2.6C0.1,2,0.3,1.4,0.7,1c0.4-0.4,1-0.6,1.6-0.6
	h11.1c0.1,0,0.3,0.1,0.4,0.1l6,6c0.1,0.1,0.1,0.2,0.1,0.4v14.6c0,0.6-0.2,1.2-0.6,1.6C18.9,23.4,18.3,23.6,17.7,23.6z M2.3,1.4
	C2,1.4,1.7,1.5,1.4,1.7C1.2,1.9,1.1,2.3,1.1,2.6v18.9c0,0.3,0.1,0.6,0.4,0.9c0.2,0.2,0.5,0.4,0.9,0.4h15.4c0.3,0,0.6-0.1,0.9-0.4
	c0.2-0.2,0.4-0.5,0.4-0.9V7.1l-5.7-5.7H2.3z"/>
<path class="st0" d="M11.2,18.2H8.8c-0.7,0-1.2-0.6-1.2-1.2v-1.6H6c-0.7,0-1.2-0.6-1.2-1.2v-2.4c0-0.3,0.1-0.6,0.4-0.9
	c0.2-0.2,0.5-0.4,0.9-0.4h1.6V8.9c0-0.3,0.1-0.6,0.4-0.9c0.2-0.2,0.5-0.4,0.9-0.4h0l2.4,0c0.3,0,0.6,0.1,0.9,0.4
	c0.2,0.2,0.4,0.5,0.4,0.9v1.6H14c0.3,0,0.6,0.1,0.9,0.4c0.2,0.2,0.4,0.6,0.4,0.9v2.4c0,0.3-0.1,0.6-0.4,0.9
	c-0.2,0.2-0.5,0.4-0.9,0.4h-1.6v1.6c0,0.3-0.1,0.6-0.4,0.9C11.8,18,11.5,18.2,11.2,18.2z M6,11.5c-0.1,0-0.1,0-0.2,0.1
	c0,0-0.1,0.1-0.1,0.2v2.4c0,0.1,0.1,0.2,0.2,0.2h2.1c0.3,0,0.5,0.2,0.5,0.5v2.1c0,0.1,0.1,0.2,0.2,0.2h2.4c0.1,0,0.1,0,0.2-0.1
	c0,0,0.1-0.1,0.1-0.2v-2.1c0-0.3,0.2-0.5,0.5-0.5H14c0.1,0,0.1,0,0.2-0.1c0,0,0.1-0.1,0.1-0.2v-2.4c0-0.1,0-0.1-0.1-0.2
	c0,0-0.1-0.1-0.2-0.1h-2.1c-0.3,0-0.5-0.2-0.5-0.5V8.9c0-0.1,0-0.1-0.1-0.2c0,0-0.1-0.1-0.2-0.1l-2.4,0c-0.1,0-0.1,0-0.2,0.1
	c0,0-0.1,0.1-0.1,0.2V11c0,0.3-0.2,0.5-0.5,0.5H6z"/>
</svg>
