<svg width="48" height="48" viewBox="0 0 48 48" fill="none" xmlns="http://www.w3.org/2000/svg">
<mask id="mask0_1331_14899" style="mask-type:alpha" maskUnits="userSpaceOnUse" x="0" y="0" width="48" height="48">
<rect width="48" height="48" fill="#D9D9D9"/>
</mask>
<g mask="url(#mask0_1331_14899)">
<path d="M16.9985 17V41H32.3985V33.9C32.3985 33.475 32.5423 33.1187 32.83 32.831C33.1173 32.5437 33.4735 32.4 33.8985 32.4H40.9985V17H16.9985ZM13.9985 41V17C13.9985 16.1647 14.2901 15.4558 14.8735 14.8735C15.4568 14.2912 16.1651 14 16.9985 14H40.9985C41.8235 14 42.5298 14.2937 43.1175 14.881C43.7048 15.4687 43.9985 16.175 43.9985 17V32.75C43.9985 33.1647 43.9151 33.56 43.7485 33.936C43.5818 34.312 43.3651 34.6333 43.0985 34.9L34.8985 43.1C34.6318 43.3667 34.3105 43.5833 33.9345 43.75C33.5585 43.9167 33.1631 44 32.7485 44H16.9985C16.1735 44 15.4673 43.7062 14.88 43.1185C14.2923 42.5312 13.9985 41.825 13.9985 41ZM4.04848 11.75C3.88181 10.9167 4.04014 10.175 4.52348 9.52499C5.00681 8.87499 5.66514 8.46666 6.49848 8.29999L30.1485 4.09999C30.9485 3.93332 31.6818 4.09166 32.3485 4.57499C33.0151 5.05832 33.4318 5.69999 33.5985 6.49999L34.0985 9.24999C34.1651 9.71666 34.0735 10.1 33.8235 10.4C33.5735 10.7 33.2651 10.8833 32.8985 10.95C32.5318 11.0167 32.1735 10.9583 31.8235 10.775C31.4735 10.5917 31.2651 10.2667 31.1985 9.79999L30.6985 7.04999L7.04848 11.2L10.7485 32.35C10.8151 32.7167 10.7485 33.0667 10.5485 33.4C10.3485 33.7333 10.0651 33.95 9.69848 34.05C9.26514 34.15 8.86514 34.0917 8.49848 33.875C8.13181 33.6583 7.91514 33.3333 7.84848 32.9L4.04848 11.75Z" fill="#26599B"/>
</g>
</svg>
