<?xml version="1.0" encoding="utf-8"?>
<!-- Generator: Adobe Illustrator 26.4.1, SVG Export Plug-In . SVG Version: 6.00 Build 0)  -->
<svg version="1.1" id="Слой_1" xmlns="http://www.w3.org/2000/svg" xmlns:xlink="http://www.w3.org/1999/xlink" x="0px" y="0px"
	 viewBox="0 0 24 24" style="enable-background:new 0 0 24 24;" xml:space="preserve">
<style type="text/css">
	
</style>
<path class="st0" d="M18,22H6c-0.8,0-1.6-0.3-2.1-0.9C3.3,20.6,3,19.8,3,19v-2c0-0.6,0.4-1,1-1s1,0.4,1,1v2c0,0.3,0.1,0.5,0.3,0.7
	C5.5,19.9,5.7,20,6,20h12c0.3,0,0.5-0.1,0.7-0.3S19,19.3,19,19v-2c0-0.6,0.4-1,1-1s1,0.4,1,1v2c0,0.8-0.3,1.6-0.9,2.1S18.8,22,18,22
	z M12,17C12,17,12,17,12,17L12,17c-0.1,0-0.3,0-0.4-0.1c-0.1,0-0.2-0.1-0.3-0.2l-5-5c-0.4-0.4-0.4-1,0-1.4s1-0.4,1.4,0l3.3,3.3V4
	c0-0.6,0.4-1,1-1s1,0.4,1,1v9.6l3.3-3.3c0.4-0.4,1-0.4,1.4,0s0.4,1,0,1.4l-5,5c-0.1,0.1-0.2,0.2-0.3,0.2C12.3,17,12.1,17,12,17
	L12,17C12,17,12,17,12,17z"/>
</svg>
