<svg width="32" height="32" viewBox="0 0 32 32" fill="none" xmlns="http://www.w3.org/2000/svg">
<path d="M29 4.18182V11.2727C29 11.5862 28.8755 11.8868 28.6539 12.1084C28.4322 12.33 28.1316 12.4545 27.8182 12.4545C27.5047 12.4545 27.2041 12.33 26.9825 12.1084C26.7609 11.8868 26.6364 11.5862 26.6364 11.2727V7.03443L20.3816 13.2907C20.1598 13.5124 19.8591 13.637 19.5455 13.637C19.2318 13.637 18.9311 13.5124 18.7093 13.2907C18.4876 13.0689 18.363 12.7682 18.363 12.4545C18.363 12.1409 18.4876 11.8402 18.7093 11.6184L24.9656 5.36364H20.7273C20.4138 5.36364 20.1132 5.23912 19.8916 5.01749C19.67 4.79586 19.5455 4.49526 19.5455 4.18182C19.5455 3.86838 19.67 3.56778 19.8916 3.34615C20.1132 3.12451 20.4138 3 20.7273 3H27.8182C28.1316 3 28.4322 3.12451 28.6539 3.34615C28.8755 3.56778 29 3.86838 29 4.18182ZM11.6184 18.7093L5.36364 24.9656V20.7273C5.36364 20.4138 5.23912 20.1132 5.01749 19.8916C4.79586 19.67 4.49526 19.5455 4.18182 19.5455C3.86838 19.5455 3.56778 19.67 3.34615 19.8916C3.12451 20.1132 3 20.4138 3 20.7273V27.8182C3 28.1316 3.12451 28.4322 3.34615 28.6539C3.56778 28.8755 3.86838 29 4.18182 29H11.2727C11.5862 29 11.8868 28.8755 12.1084 28.6539C12.33 28.4322 12.4545 28.1316 12.4545 27.8182C12.4545 27.5047 12.33 27.2041 12.1084 26.9825C11.8868 26.7609 11.5862 26.6364 11.2727 26.6364H7.03443L13.2907 20.3816C13.5124 20.1598 13.637 19.8591 13.637 19.5455C13.637 19.2318 13.5124 18.9311 13.2907 18.7093C13.0689 18.4876 12.7682 18.363 12.4545 18.363C12.1409 18.363 11.8402 18.4876 11.6184 18.7093ZM27.8182 19.5455C27.5047 19.5455 27.2041 19.67 26.9825 19.8916C26.7609 20.1132 26.6364 20.4138 26.6364 20.7273V24.9656L20.3816 18.7093C20.1598 18.4876 19.8591 18.363 19.5455 18.363C19.2318 18.363 18.9311 18.4876 18.7093 18.7093C18.4876 18.9311 18.363 19.2318 18.363 19.5455C18.363 19.8591 18.4876 20.1598 18.7093 20.3816L24.9656 26.6364H20.7273C20.4138 26.6364 20.1132 26.7609 19.8916 26.9825C19.67 27.2041 19.5455 27.5047 19.5455 27.8182C19.5455 28.1316 19.67 28.4322 19.8916 28.6539C20.1132 28.8755 20.4138 29 20.7273 29H27.8182C28.1316 29 28.4322 28.8755 28.6539 28.6539C28.8755 28.4322 29 28.1316 29 27.8182V20.7273C29 20.4138 28.8755 20.1132 28.6539 19.8916C28.4322 19.67 28.1316 19.5455 27.8182 19.5455ZM7.03443 5.36364H11.2727C11.5862 5.36364 11.8868 5.23912 12.1084 5.01749C12.33 4.79586 12.4545 4.49526 12.4545 4.18182C12.4545 3.86838 12.33 3.56778 12.1084 3.34615C11.8868 3.12451 11.5862 3 11.2727 3H4.18182C3.86838 3 3.56778 3.12451 3.34615 3.34615C3.12451 3.56778 3 3.86838 3 4.18182V11.2727C3 11.5862 3.12451 11.8868 3.34615 12.1084C3.56778 12.33 3.86838 12.4545 4.18182 12.4545C4.49526 12.4545 4.79586 12.33 5.01749 12.1084C5.23912 11.8868 5.36364 11.5862 5.36364 11.2727V7.03443L11.6184 13.2907C11.8402 13.5124 12.1409 13.637 12.4545 13.637C12.7682 13.637 13.0689 13.5124 13.2907 13.2907C13.5124 13.0689 13.637 12.7682 13.637 12.4545C13.637 12.1409 13.5124 11.8402 13.2907 11.6184L7.03443 5.36364Z" fill="#26599B"/>
</svg>
