<?xml version="1.0" encoding="utf-8"?>
<!-- Generator: Adobe Illustrator 26.4.1, SVG Export Plug-In . SVG Version: 6.00 Build 0)  -->
<svg version="1.1" id="Слой_1" xmlns="http://www.w3.org/2000/svg" xmlns:xlink="http://www.w3.org/1999/xlink" x="0px" y="0px"
	 viewBox="0 0 24 24" style="enable-background:new 0 0 24 24;" xml:space="preserve">

<path class="st0" d="M23.7,10.2l-2.4-4.8C21.2,5.3,21.1,5.1,21,5c-0.1-0.1-0.3-0.2-0.4-0.3c-0.2-0.1-0.3-0.1-0.5-0.1
	c-0.2,0-0.3,0.1-0.5,0.1L17.1,6l-5-1.3c-0.1,0-0.2,0-0.3,0L6.9,6L4.5,4.8C4.3,4.7,4.2,4.7,4,4.7c-0.2,0-0.3,0-0.5,0.1
	C3.3,4.8,3.2,4.9,3,5C2.9,5.1,2.8,5.3,2.7,5.4l-2.4,4.8c-0.2,0.3-0.2,0.7-0.1,1c0.1,0.3,0.3,0.6,0.7,0.8l2.5,1.3L8.7,17
	C8.7,17,8.8,17,8.9,17l6,1.5c0,0,0.1,0,0.1,0c0.1,0,0.3-0.1,0.4-0.2l5.2-5.2l2.5-1.3c0.3-0.2,0.5-0.4,0.7-0.8
	C23.9,10.9,23.8,10.5,23.7,10.2z M18.7,13.5l-3.4-2.7c-0.1-0.1-0.2-0.1-0.4-0.1c-0.1,0-0.3,0.1-0.4,0.2c-1.7,1.8-3.7,1.5-4.9,0.7
	c0,0,0,0-0.1-0.1c0,0,0-0.1,0-0.1c0,0,0-0.1,0-0.1c0,0,0,0,0-0.1l4.1-4h3.2l2.7,5.3L18.7,13.5z M1.3,10.8c0,0,0-0.1,0-0.1l2.4-4.8
	c0,0,0-0.1,0.1-0.1c0,0,0.1,0,0.1,0c0,0,0.1,0,0.1,0l2.1,1L3.5,12l-2.1-1C1.4,10.9,1.4,10.9,1.3,10.8C1.3,10.9,1.3,10.9,1.3,10.8z
	 M14.8,17.4L9.2,16l-4.8-3.4l2.7-5.5L12,5.8l1.4,0.4c-0.1,0-0.2,0.1-0.3,0.1l-4.3,4.2c-0.1,0.1-0.2,0.3-0.3,0.5
	c-0.1,0.2-0.1,0.4-0.1,0.6c0,0.2,0.1,0.4,0.2,0.6c0.1,0.2,0.2,0.3,0.4,0.4c1.9,1.2,4.2,1,6-0.6l2.9,2.3L14.8,17.4z M22.7,10.8
	C22.7,10.9,22.7,10.9,22.7,10.8c-0.1,0.1-0.1,0.1-0.1,0.1l-2.1,1l-2.6-5.1l2.1-1c0,0,0,0,0.1,0c0,0,0,0,0.1,0c0,0,0,0,0.1,0
	c0,0,0,0,0,0.1l2.4,4.8C22.7,10.7,22.7,10.8,22.7,10.8z M12.2,20.4c0,0.1-0.1,0.3-0.3,0.3c-0.1,0.1-0.3,0.1-0.4,0.1l-3.9-1
	c-0.1,0-0.1,0-0.2-0.1L4.9,18c-0.1-0.1-0.2-0.2-0.2-0.4c0-0.1,0-0.3,0.1-0.4C4.9,17.1,5,17,5.2,17c0.1,0,0.3,0,0.4,0.1L8,18.8l3.8,1
	c0.1,0,0.1,0,0.2,0.1c0.1,0,0.1,0.1,0.1,0.2c0,0.1,0.1,0.1,0.1,0.2C12.2,20.2,12.2,20.3,12.2,20.4L12.2,20.4z"/>
</svg>
