<svg width="24" height="25" viewBox="0 0 24 25" fill="none" xmlns="http://www.w3.org/2000/svg">
<g clip-path="url(#clip0_1467_18737)">
<path d="M20.566 15.3C19.9593 17.1729 18.7552 18.7952 17.1383 19.9183C15.5214 21.0414 13.5808 21.6033 11.6139 21.518C9.64704 21.4327 7.76241 20.7048 6.24883 19.4458C4.73525 18.1869 3.67621 16.4664 3.234 14.548L4.936 14.212L1.696 10.86L0 15.194L1.794 14.842C2.29467 17.094 3.52307 19.1184 5.28938 20.6024C7.05569 22.0864 9.26157 22.9474 11.5662 23.0524C13.8708 23.1573 16.1458 22.5003 18.0396 21.183C19.9335 19.8656 21.3408 17.9612 22.044 15.764L20.566 15.3ZM22.238 10.22C21.7371 7.9681 20.5085 5.94384 18.742 4.46003C16.9756 2.97622 14.7696 2.11546 12.4651 2.01076C10.1605 1.90606 7.88559 2.56325 5.99187 3.88077C4.09816 5.19828 2.69106 7.1028 1.988 9.3L3.414 9.764C4.02051 7.89107 5.22441 6.26868 6.8412 5.14542C8.45799 4.02217 10.3985 3.46002 12.3653 3.54514C14.3322 3.63025 16.2169 4.35791 17.7306 5.61663C19.2443 6.87535 20.3035 8.59568 20.746 10.514L19.044 10.852L22.284 14.196L24 9.868L22.238 10.22Z" fill="#26599B"/>
<path fill-rule="evenodd" clip-rule="evenodd" d="M18.0983 8.45401L17.6103 12.358C17.4668 13.5054 17.06 14.6042 16.4217 15.5683C15.7833 16.5325 14.9306 17.336 13.9303 17.916L12.0023 19.034L10.0742 17.914C9.07415 17.3342 8.22162 16.531 7.58326 15.5672C6.94489 14.6034 6.53796 13.5051 6.39425 12.358L5.90625 8.45401L6.59425 7.93001L7.50225 9.12401L7.88225 12.172C7.99704 13.0899 8.3225 13.9688 8.83321 14.74C9.34391 15.5113 10.026 16.154 10.8263 16.618L12.0023 17.3L13.1782 16.618C13.9785 16.154 14.6606 15.5113 15.1713 14.74C15.682 13.9688 16.0075 13.0899 16.1223 12.172L16.5023 9.12401L17.4103 7.93001L18.0983 8.45401ZM16.5023 9.12401C16.5023 9.12401 14.6283 7.70001 12.0023 7.70001C9.37625 7.70001 7.50225 9.12401 7.50225 9.12401L6.59425 7.93001L6.59625 7.92801L6.60225 7.92401L6.61225 7.91601L6.64225 7.89601C6.77452 7.8005 6.91064 7.71043 7.05025 7.62601C7.31425 7.46201 7.68825 7.25201 8.15625 7.04401C9.08225 6.62801 10.4223 6.20001 12.0023 6.20001C13.5823 6.20001 14.9202 6.62801 15.8482 7.04401C16.3421 7.2671 16.817 7.52997 17.2683 7.83001L17.3623 7.89601L17.3923 7.91601L17.4023 7.92401L17.4062 7.92801L17.4103 7.93001L16.5023 9.12401Z" fill="#26599B"/>
</g>
<defs>
<clipPath id="clip0_1467_18737">
<rect width="24" height="24" fill="white" transform="translate(0 0.5)"/>
</clipPath>
</defs>
</svg>
