<svg width="38" height="38" viewBox="0 0 38 38" fill="none" xmlns="http://www.w3.org/2000/svg">
<g clip-path="url(#clip0_1959_11862)">
<path d="M36.8901 34.6998L27.6159 25.4183C33.0581 18.7595 32.0745 8.95344 25.4158 3.5113C18.757 -1.93084 8.95821 -0.940031 3.51608 5.71147C-1.92606 12.363 -0.942542 22.1763 5.71624 27.6184C11.4498 32.3029 19.6895 32.3029 25.423 27.6184L34.6973 36.8927C35.3165 37.4901 36.3 37.4755 36.8974 36.8562C37.473 36.2515 37.473 35.2972 36.8901 34.6998ZM15.5879 28.0264C8.7178 28.0264 3.15181 22.4604 3.15181 15.5904C3.15181 8.72031 8.72508 3.16161 15.5879 3.16161C22.4506 3.16161 28.0239 8.72759 28.0239 15.5904C28.0166 22.4531 22.4506 28.0191 15.5879 28.0264Z" fill="#26599B"/>
<mask id="path-2-inside-1_1959_11862" fill="white">
<path d="M12.4375 9.57617C12.4375 9.05403 12.6449 8.55327 13.0141 8.18406C13.3833 7.81484 13.8841 7.60742 14.4062 7.60742H16.5938C17.1159 7.60742 17.6167 7.81484 17.9859 8.18406C18.3551 8.55327 18.5625 9.05403 18.5625 9.57617V11.1249H21.4062C21.9284 11.1249 22.4292 11.3323 22.7984 11.7016C23.1676 12.0708 23.375 12.5715 23.375 13.0937V22.7187C23.375 22.8927 23.3059 23.0596 23.1828 23.1827C23.0597 23.3058 22.8928 23.3749 22.7188 23.3749H8.28125C8.1072 23.3749 7.94028 23.3058 7.81721 23.1827C7.69414 23.0596 7.625 22.8927 7.625 22.7187V15.7187C7.625 15.1965 7.83242 14.6958 8.20163 14.3266C8.57085 13.9573 9.07161 13.7499 9.59375 13.7499H12.4375V9.57617ZM13.75 22.0624H17.25V9.57617C17.25 9.40212 17.1809 9.2352 17.0578 9.11213C16.9347 8.98906 16.7678 8.91992 16.5938 8.91992H14.4062C14.2322 8.91992 14.0653 8.98906 13.9422 9.11213C13.8191 9.2352 13.75 9.40212 13.75 9.57617V22.0624ZM12.4375 15.0624H9.59375C9.4197 15.0624 9.25278 15.1316 9.12971 15.2546C9.00664 15.3777 8.9375 15.5446 8.9375 15.7187V22.0624H12.4375V15.0624ZM18.5625 22.0624H22.0625V13.0937C22.0625 12.9196 21.9934 12.7527 21.8703 12.6296C21.7472 12.5066 21.5803 12.4374 21.4062 12.4374H18.5625V22.0624Z"/>
</mask>
<path d="M12.4375 9.57617C12.4375 9.05403 12.6449 8.55327 13.0141 8.18406C13.3833 7.81484 13.8841 7.60742 14.4062 7.60742H16.5938C17.1159 7.60742 17.6167 7.81484 17.9859 8.18406C18.3551 8.55327 18.5625 9.05403 18.5625 9.57617V11.1249H21.4062C21.9284 11.1249 22.4292 11.3323 22.7984 11.7016C23.1676 12.0708 23.375 12.5715 23.375 13.0937V22.7187C23.375 22.8927 23.3059 23.0596 23.1828 23.1827C23.0597 23.3058 22.8928 23.3749 22.7188 23.3749H8.28125C8.1072 23.3749 7.94028 23.3058 7.81721 23.1827C7.69414 23.0596 7.625 22.8927 7.625 22.7187V15.7187C7.625 15.1965 7.83242 14.6958 8.20163 14.3266C8.57085 13.9573 9.07161 13.7499 9.59375 13.7499H12.4375V9.57617ZM13.75 22.0624H17.25V9.57617C17.25 9.40212 17.1809 9.2352 17.0578 9.11213C16.9347 8.98906 16.7678 8.91992 16.5938 8.91992H14.4062C14.2322 8.91992 14.0653 8.98906 13.9422 9.11213C13.8191 9.2352 13.75 9.40212 13.75 9.57617V22.0624ZM12.4375 15.0624H9.59375C9.4197 15.0624 9.25278 15.1316 9.12971 15.2546C9.00664 15.3777 8.9375 15.5446 8.9375 15.7187V22.0624H12.4375V15.0624ZM18.5625 22.0624H22.0625V13.0937C22.0625 12.9196 21.9934 12.7527 21.8703 12.6296C21.7472 12.5066 21.5803 12.4374 21.4062 12.4374H18.5625V22.0624Z" fill="#26599B"/>
<path d="M14.4062 7.60742V4.60742V7.60742ZM18.5625 11.1249H15.5625V14.1249H18.5625V11.1249ZM21.4062 11.1249V8.12492V11.1249ZM12.4375 13.7499V16.7499H15.4375V13.7499H12.4375ZM13.75 22.0624H10.75V25.0624H13.75V22.0624ZM17.25 22.0624V25.0624H20.25V22.0624H17.25ZM17.25 9.57617H20.25H17.25ZM16.5938 8.91992V5.91992V8.91992ZM14.4062 8.91992V5.91992V8.91992ZM12.4375 15.0624H15.4375V12.0624H12.4375V15.0624ZM8.9375 15.7187H5.9375H8.9375ZM8.9375 22.0624H5.9375V25.0624H8.9375V22.0624ZM12.4375 22.0624V25.0624H15.4375V22.0624H12.4375ZM18.5625 22.0624H15.5625V25.0624H18.5625V22.0624ZM22.0625 22.0624V25.0624H25.0625V22.0624H22.0625ZM18.5625 12.4374V9.43742H15.5625V12.4374H18.5625ZM15.4375 9.57617C15.4375 9.84968 15.3289 10.112 15.1355 10.3054L10.8928 6.06273C9.96099 6.99456 9.4375 8.25838 9.4375 9.57617H15.4375ZM15.1355 10.3054C14.9421 10.4988 14.6798 10.6074 14.4062 10.6074V4.60742C13.0885 4.60742 11.8246 5.13091 10.8928 6.06273L15.1355 10.3054ZM14.4062 10.6074H16.5938V4.60742H14.4062V10.6074ZM16.5938 10.6074C16.3202 10.6074 16.0579 10.4988 15.8645 10.3054L20.1072 6.06273C19.1754 5.13091 17.9115 4.60742 16.5938 4.60742V10.6074ZM15.8645 10.3054C15.6712 10.112 15.5625 9.84968 15.5625 9.57617H21.5625C21.5625 8.25838 21.039 6.99456 20.1072 6.06273L15.8645 10.3054ZM15.5625 9.57617V11.1249H21.5625V9.57617H15.5625ZM18.5625 14.1249H21.4062V8.12492H18.5625V14.1249ZM21.4062 14.1249C21.1327 14.1249 20.8704 14.0163 20.677 13.8229L24.9197 9.58023C23.9879 8.64841 22.724 8.12492 21.4062 8.12492V14.1249ZM20.677 13.8229C20.4836 13.6295 20.375 13.3672 20.375 13.0937H26.375C26.375 11.7759 25.8515 10.5121 24.9197 9.58023L20.677 13.8229ZM20.375 13.0937V22.7187H26.375V13.0937H20.375ZM20.375 22.7187C20.375 22.0971 20.6219 21.5009 21.0615 21.0614L25.3041 25.304C25.9898 24.6183 26.375 23.6884 26.375 22.7187H20.375ZM21.0615 21.0614C21.501 20.6219 22.0972 20.3749 22.7188 20.3749V26.3749C23.6884 26.3749 24.6184 25.9897 25.3041 25.304L21.0615 21.0614ZM22.7188 20.3749H8.28125V26.3749H22.7188V20.3749ZM8.28125 20.3749C8.90286 20.3749 9.499 20.6219 9.93853 21.0614L5.69589 25.304C6.38157 25.9897 7.31155 26.3749 8.28125 26.3749V20.3749ZM9.93853 21.0614C10.3781 21.5009 10.625 22.0971 10.625 22.7187H4.625C4.625 23.6884 5.01021 24.6184 5.69589 25.304L9.93853 21.0614ZM10.625 22.7187V15.7187H4.625V22.7187H10.625ZM10.625 15.7187C10.625 15.9922 10.5164 16.2545 10.323 16.4479L6.08031 12.2052C5.14849 13.1371 4.625 14.4009 4.625 15.7187H10.625ZM10.323 16.4479C10.1296 16.6413 9.86726 16.7499 9.59375 16.7499V10.7499C8.27595 10.7499 7.01213 11.2734 6.08031 12.2052L10.323 16.4479ZM9.59375 16.7499H12.4375V10.7499H9.59375V16.7499ZM15.4375 13.7499V9.57617H9.4375V13.7499H15.4375ZM13.75 25.0624H17.25V19.0624H13.75V25.0624ZM20.25 22.0624V9.57617H14.25V22.0624H20.25ZM20.25 9.57617C20.25 8.60647 19.8648 7.67649 19.1791 6.99081L14.9365 11.2335C14.4969 10.7939 14.25 10.1978 14.25 9.57617H20.25ZM19.1791 6.99081C18.4934 6.30513 17.5634 5.91992 16.5938 5.91992V11.9199C15.9721 11.9199 15.376 11.673 14.9365 11.2335L19.1791 6.99081ZM16.5938 5.91992H14.4062V11.9199H16.5938V5.91992ZM14.4062 5.91992C13.4366 5.91992 12.5066 6.30513 11.8209 6.99081L16.0635 11.2335C15.624 11.673 15.0278 11.9199 14.4062 11.9199V5.91992ZM11.8209 6.99081C11.1352 7.67649 10.75 8.60648 10.75 9.57617H16.75C16.75 10.1978 16.5031 10.7939 16.0635 11.2335L11.8209 6.99081ZM10.75 9.57617V22.0624H16.75V9.57617H10.75ZM12.4375 12.0624H9.59375V18.0624H12.4375V12.0624ZM9.59375 12.0624C8.62405 12.0624 7.69407 12.4476 7.00839 13.1333L11.251 17.376C10.8115 17.8155 10.2154 18.0624 9.59375 18.0624V12.0624ZM7.00839 13.1333C6.32271 13.819 5.9375 14.749 5.9375 15.7187H11.9375C11.9375 16.3403 11.6906 16.9364 11.251 17.376L7.00839 13.1333ZM5.9375 15.7187V22.0624H11.9375V15.7187H5.9375ZM8.9375 25.0624H12.4375V19.0624H8.9375V25.0624ZM15.4375 22.0624V15.0624H9.4375V22.0624H15.4375ZM18.5625 25.0624H22.0625V19.0624H18.5625V25.0624ZM25.0625 22.0624V13.0937H19.0625V22.0624H25.0625ZM25.0625 13.0937C25.0625 12.124 24.6773 11.194 23.9916 10.5083L19.749 14.751C19.3094 14.3114 19.0625 13.7153 19.0625 13.0937H25.0625ZM23.9916 10.5083C23.3059 9.82263 22.3759 9.43742 21.4062 9.43742V15.4374C20.7847 15.4374 20.1885 15.1905 19.749 14.751L23.9916 10.5083ZM21.4062 9.43742H18.5625V15.4374H21.4062V9.43742ZM15.5625 12.4374V22.0624H21.5625V12.4374H15.5625Z" fill="#26599B" mask="url(#path-2-inside-1_1959_11862)"/>
</g>
<defs>
<clipPath id="clip0_1959_11862">
<rect width="37.33" height="37.33" fill="white"/>
</clipPath>
</defs>
</svg>
