<svg width="32" height="32" viewBox="0 0 32 32" fill="none" xmlns="http://www.w3.org/2000/svg">
<path d="M16 16.4211C19.6667 16.4211 22.6667 13.4013 22.6667 9.71053C22.6667 6.01974 19.6667 3 16 3C12.3333 3 9.33333 6.01974 9.33333 9.71053C9.33333 13.4013 12.3333 16.4211 16 16.4211ZM16 4.11842C19.1111 4.11842 21.5556 6.57895 21.5556 9.71053C21.5556 12.8421 19.1111 15.3026 16 15.3026C12.8889 15.3026 10.4444 12.8421 10.4444 9.71053C10.4444 6.57895 12.8889 4.11842 16 4.11842ZM21 18.6579H11C8.22222 18.6579 6 20.8947 6 23.6908V29.8421H7.11111V23.6908C7.11111 21.5658 8.88889 19.7763 11 19.7763H12.7778L14.8889 22.6842L13.2222 29.8421H14.3333L16 22.6842L17.6667 29.8421H18.7778L17.1111 22.6842L19.2222 19.7763H21C23.1111 19.7763 24.8889 21.5658 24.8889 23.6908V29.8421H26V23.6908C26 20.8947 23.7778 18.6579 21 18.6579ZM16 22.3487L14.1111 19.7763H17.8889L16 22.3487Z" fill="#26599B" stroke="#26599B" stroke-miterlimit="10"/>
<path d="M5.5 30H26.5" stroke="#26599B" stroke-width="1.75"/>
</svg>
