<svg width="14" height="20" viewBox="0 0 14 20" fill="none" xmlns="http://www.w3.org/2000/svg">
<path d="M6.83114 9.55292C9.19297 9.55292 11.1076 7.63828 11.1076 5.27646C11.1076 2.91464 9.19297 1 6.83114 1C4.46932 1 2.55469 2.91464 2.55469 5.27646C2.55469 7.63828 4.46932 9.55292 6.83114 9.55292Z" stroke="#35495D" stroke-miterlimit="10"/>
<path d="M6.83056 7.22033C7.90412 7.22033 8.77441 6.35004 8.77441 5.27649C8.77441 4.20293 7.90412 3.33264 6.83056 3.33264C5.75701 3.33264 4.88672 4.20293 4.88672 5.27649C4.88672 6.35004 5.75701 7.22033 6.83056 7.22033Z" stroke="#35495D" stroke-miterlimit="10"/>
<path d="M10.797 10.0972C8.46436 11.8855 5.1987 11.8855 2.86609 10.0972C2.39957 9.70844 1.62203 9.78619 1.23326 10.3305C1.07775 10.5637 1 10.797 1 11.0302C1 11.5745 1.31102 12.1188 1.77754 12.4298C2.47732 12.8963 3.25486 13.2851 4.11015 13.5184C4.49892 13.6739 4.88769 13.7516 5.27646 13.8294L2.16631 16.8618C1.69978 17.3283 1.69978 18.1836 2.16631 18.6501C2.63283 19.1166 3.48812 19.1166 3.95464 18.6501L6.83153 15.54L9.70842 18.4946C10.1749 18.9611 10.9525 19.0389 11.4968 18.4946C11.9633 18.0281 12.041 17.2506 11.4968 16.7063L8.38661 13.6739C8.77538 13.5961 9.16415 13.5184 9.55291 13.3629C10.4082 13.1296 11.1857 12.7408 11.8855 12.2743C12.3521 11.9633 12.6631 11.419 12.6631 10.8747C12.6631 10.2527 12.1188 9.70844 11.4968 9.70844C11.2635 9.78619 11.0302 9.86394 10.797 10.0972Z" stroke="#35495D" stroke-linecap="round" stroke-linejoin="round"/>
</svg>
