<svg width="32" height="32" viewBox="0 0 32 32" fill="none" xmlns="http://www.w3.org/2000/svg">
<path d="M16.3643 16.1641C18.8825 16.1641 20.9239 14.1227 20.9239 11.6045C20.9239 9.08631 18.8825 7.04492 16.3643 7.04492C13.8461 7.05982 11.8047 9.10121 11.8047 11.6194C11.8047 14.1227 13.8461 16.1641 16.3643 16.1641ZM16.3643 7.40254C18.6888 7.40254 20.5812 9.29492 20.5812 11.6194C20.5812 13.9439 18.6888 15.8214 16.3643 15.8214C14.0398 15.8214 12.1474 13.929 12.1474 11.6194C12.1623 9.29492 14.0398 7.40254 16.3643 7.40254Z" fill="#35495D" stroke="#35495D" stroke-width="0.5" stroke-miterlimit="10"/>
<path d="M16.3614 13.9738C17.6727 13.9738 18.7306 12.9158 18.7306 11.6046C18.7306 10.2933 17.6727 9.23535 16.3614 9.23535C15.0501 9.23535 13.9922 10.2933 13.9922 11.6046C13.9922 12.9158 15.065 13.9738 16.3614 13.9738ZM16.3614 9.59297C17.4789 9.59297 18.373 10.5019 18.373 11.6046C18.373 12.7221 17.464 13.6161 16.3614 13.6161C15.2438 13.6161 14.3498 12.7072 14.3498 11.6046C14.3498 10.5019 15.2587 9.59297 16.3614 9.59297Z" fill="#35495D" stroke="#35495D" stroke-width="0.5" stroke-miterlimit="10"/>
<path d="M22.3078 15.7465C22.0694 15.5081 21.7416 15.374 21.4138 15.374C21.0711 15.374 20.7582 15.5081 20.5198 15.7465C19.4171 16.8492 17.9419 17.4601 16.3774 17.4601C14.8128 17.4601 13.3376 16.8492 12.235 15.7465C11.9966 15.5081 11.6688 15.374 11.341 15.374C10.9982 15.374 10.6853 15.5081 10.4469 15.7465C9.95519 16.2383 9.95519 17.0429 10.4469 17.5495C11.7135 18.8161 13.3078 19.6207 15.0661 19.8889L12.1903 22.7648C11.9519 23.0032 11.8178 23.331 11.8178 23.6588C11.8178 24.0015 11.9519 24.3144 12.1903 24.5528C12.4287 24.7912 12.7565 24.9253 13.0843 24.9253C13.427 24.9253 13.74 24.7912 13.9784 24.5528L16.3625 22.1687L18.7466 24.5528C18.985 24.7912 19.3128 24.9253 19.6406 24.9253C19.9833 24.9253 20.2963 24.7912 20.5347 24.5528C20.7731 24.3144 20.9072 23.9866 20.9072 23.6588C20.9072 23.3161 20.7731 23.0032 20.5347 22.7648L17.6737 19.8889C19.4469 19.6207 21.0413 18.8161 22.2929 17.5495C22.7996 17.0578 22.7996 16.2532 22.3078 15.7465ZM17.2863 19.5909C17.2267 19.6058 17.1671 19.6505 17.1373 19.7101C17.1224 19.7697 17.1373 19.8442 17.182 19.8889L20.3112 23.0181C20.49 23.1969 20.5794 23.4204 20.5794 23.6737C20.5794 23.9121 20.49 24.1505 20.3112 24.3293C20.1323 24.5081 19.9088 24.5975 19.6555 24.5975C19.4022 24.5975 19.1787 24.5081 18.9999 24.3293L16.4817 21.8111C16.4072 21.7366 16.3029 21.7366 16.2284 21.8111L13.7251 24.3144C13.5463 24.4932 13.3227 24.5826 13.0694 24.5826C12.8161 24.5826 12.5926 24.4932 12.4138 24.3144C12.235 24.1356 12.1456 23.9121 12.1456 23.6588C12.1456 23.4204 12.235 23.182 12.4138 23.0032L15.5429 19.874C15.5876 19.8293 15.6025 19.7548 15.5876 19.6952C15.5727 19.6356 15.5131 19.5909 15.4386 19.576C13.6059 19.3674 11.9519 18.5777 10.6704 17.2813C10.3128 16.9237 10.3128 16.3426 10.6704 15.97C10.8492 15.7912 11.0727 15.7018 11.3261 15.7018C11.5794 15.7018 11.8029 15.7912 11.9817 15.97C13.1588 17.1323 14.7085 17.7879 16.3774 17.7879C18.0314 17.7879 19.5959 17.1472 20.7582 15.97C20.937 15.7912 21.1605 15.7018 21.4138 15.7018C21.6671 15.7018 21.8906 15.7912 22.0694 15.97C22.427 16.3277 22.427 16.9088 22.0694 17.2664C20.7582 18.5926 19.1191 19.3823 17.2863 19.5909Z" fill="#35495D" stroke="#35495D" stroke-width="0.5" stroke-miterlimit="10"/>
</svg>
