<svg width="14" height="20" viewBox="0 0 14 20" fill="none" xmlns="http://www.w3.org/2000/svg">
<path d="M6.86429 10.1641C9.3825 10.1641 11.4239 8.12274 11.4239 5.60452C11.4239 3.08631 9.3825 1.04492 6.86429 1.04492C4.34608 1.05982 2.30469 3.10121 2.30469 5.61943C2.30469 8.12274 4.34608 10.1641 6.86429 10.1641ZM6.86429 1.40254C9.18879 1.40254 11.0812 3.29492 11.0812 5.61943C11.0812 7.94393 9.18879 9.82141 6.86429 9.82141C4.53979 9.82141 2.6474 7.92903 2.6474 5.61943C2.6623 3.29492 4.53979 1.40254 6.86429 1.40254Z" fill="#35495D" stroke="#35495D" stroke-width="0.7" stroke-miterlimit="10"/>
<path d="M6.86139 7.97376C8.17265 7.97376 9.2306 6.91582 9.2306 5.60456C9.2306 4.2933 8.17265 3.23535 6.86139 3.23535C5.55013 3.23535 4.49219 4.2933 4.49219 5.60456C4.49219 6.91582 5.56504 7.97376 6.86139 7.97376ZM6.86139 3.59297C7.97894 3.59297 8.87298 4.50191 8.87298 5.60456C8.87298 6.72211 7.96404 7.61615 6.86139 7.61615C5.74384 7.61615 4.8498 6.70721 4.8498 5.60456C4.8498 4.50191 5.75874 3.59297 6.86139 3.59297Z" fill="#35495D" stroke="#35495D" stroke-width="0.7" stroke-miterlimit="10"/>
<path d="M12.8078 9.74654C12.5694 9.50813 12.2416 9.37402 11.9138 9.37402C11.5711 9.37402 11.2582 9.50813 11.0198 9.74654C9.91711 10.8492 8.44195 11.4601 6.87738 11.4601C5.31281 11.4601 3.83764 10.8492 2.735 9.74654C2.49659 9.50813 2.16877 9.37402 1.84096 9.37402C1.49824 9.37402 1.18533 9.50813 0.946916 9.74654C0.455195 10.2383 0.455195 11.0429 0.946916 11.5495C2.21347 12.8161 3.80784 13.6207 5.56612 13.8889L2.69029 16.7648C2.45188 17.0032 2.31778 17.331 2.31778 17.6588C2.31778 18.0015 2.45188 18.3144 2.69029 18.5528C2.9287 18.7912 3.25652 18.9253 3.58433 18.9253C3.92705 18.9253 4.23996 18.7912 4.47837 18.5528L6.86248 16.1687L9.24658 18.5528C9.485 18.7912 9.81281 18.9253 10.1406 18.9253C10.4833 18.9253 10.7963 18.7912 11.0347 18.5528C11.2731 18.3144 11.4072 17.9866 11.4072 17.6588C11.4072 17.3161 11.2731 17.0032 11.0347 16.7648L8.17374 13.8889C9.94692 13.6207 11.5413 12.8161 12.7929 11.5495C13.2996 11.0578 13.2996 10.2532 12.8078 9.74654ZM7.78632 13.5909C7.72672 13.6058 7.66711 13.6505 7.63731 13.7101C7.62241 13.7697 7.63731 13.8442 7.68202 13.8889L10.8112 17.0181C10.99 17.1969 11.0794 17.4204 11.0794 17.6737C11.0794 17.9121 10.99 18.1505 10.8112 18.3293C10.6323 18.5081 10.4088 18.5975 10.1555 18.5975C9.90221 18.5975 9.6787 18.5081 9.4999 18.3293L6.98168 15.8111C6.90718 15.7366 6.80288 15.7366 6.72837 15.8111L4.22506 18.3144C4.04625 18.4932 3.82274 18.5826 3.56943 18.5826C3.31612 18.5826 3.09261 18.4932 2.9138 18.3144C2.735 18.1356 2.64559 17.9121 2.64559 17.6588C2.64559 17.4204 2.735 17.182 2.9138 17.0032L6.04294 13.874C6.08764 13.8293 6.10255 13.7548 6.08764 13.6952C6.07274 13.6356 6.01314 13.5909 5.93864 13.576C4.10586 13.3674 2.45188 12.5777 1.17043 11.2813C0.81281 10.9237 0.81281 10.3426 1.17043 9.97005C1.34923 9.79124 1.57274 9.70184 1.82606 9.70184C2.07937 9.70184 2.30288 9.79124 2.48168 9.97005C3.65884 11.1323 5.20851 11.7879 6.87738 11.7879C8.53135 11.7879 10.0959 11.1472 11.2582 9.97005C11.437 9.79124 11.6605 9.70184 11.9138 9.70184C12.1671 9.70184 12.3906 9.79124 12.5694 9.97005C12.927 10.3277 12.927 10.9088 12.5694 11.2664C11.2582 12.5926 9.6191 13.3823 7.78632 13.5909Z" fill="#35495D" stroke="#35495D" stroke-width="0.7" stroke-miterlimit="10"/>
</svg>
