<svg width="32" height="32" viewBox="0 0 32 32" fill="none" xmlns="http://www.w3.org/2000/svg">
<path d="M15.8311 15.5529C18.193 15.5529 20.1076 13.6383 20.1076 11.2765C20.1076 8.91464 18.193 7 15.8311 7C13.4693 7 11.5547 8.91464 11.5547 11.2765C11.5547 13.6383 13.4693 15.5529 15.8311 15.5529Z" stroke="#35495D" stroke-miterlimit="10"/>
<path d="M15.8306 13.2203C16.9041 13.2203 17.7744 12.35 17.7744 11.2765C17.7744 10.2029 16.9041 9.33264 15.8306 9.33264C14.757 9.33264 13.8867 10.2029 13.8867 11.2765C13.8867 12.35 14.757 13.2203 15.8306 13.2203Z" stroke="#35495D" stroke-miterlimit="10"/>
<path d="M19.797 16.0972C17.4644 17.8855 14.1987 17.8855 11.8661 16.0972C11.3996 15.7084 10.622 15.7862 10.2333 16.3305C10.0778 16.5637 10 16.797 10 17.0302C10 17.5745 10.311 18.1188 10.7775 18.4298C11.4773 18.8963 12.2549 19.2851 13.1102 19.5184C13.4989 19.6739 13.8877 19.7516 14.2765 19.8294L11.1663 22.8618C10.6998 23.3283 10.6998 24.1836 11.1663 24.6501C11.6328 25.1166 12.4881 25.1166 12.9546 24.6501L15.8315 21.54L18.7084 24.4946C19.1749 24.9611 19.9525 25.0389 20.4968 24.4946C20.9633 24.0281 21.041 23.2506 20.4968 22.7063L17.3866 19.6739C17.7754 19.5961 18.1641 19.5184 18.5529 19.3629C19.4082 19.1296 20.1857 18.7408 20.8855 18.2743C21.3521 17.9633 21.6631 17.419 21.6631 16.8747C21.6631 16.2527 21.1188 15.7084 20.4968 15.7084C20.2635 15.7862 20.0302 15.8639 19.797 16.0972Z" stroke="#35495D" stroke-linecap="round" stroke-linejoin="round"/>
</svg>
