<svg width="32" height="32" viewBox="0 0 32 32" fill="none" xmlns="http://www.w3.org/2000/svg">
<path d="M5.32812 15.6667V3.44675C5.32812 3.23988 5.4103 3.04148 5.55658 2.8952C5.70286 2.74893 5.90126 2.66675 6.10812 2.66675H21.2557C21.4625 2.66693 21.6608 2.74923 21.8069 2.89555L25.8993 6.98795C25.9721 7.06062 26.0298 7.14696 26.069 7.242C26.1083 7.33704 26.1284 7.43891 26.1281 7.54175V27.8867C26.1281 27.9892 26.108 28.0906 26.0688 28.1852C26.0296 28.2799 25.9721 28.3659 25.8997 28.4383C25.8272 28.5107 25.7413 28.5682 25.6466 28.6074C25.552 28.6466 25.4506 28.6667 25.3481 28.6667H14.4281" stroke="#26599B" stroke-width="2" stroke-linecap="round" stroke-linejoin="round"/>
<path d="M20.9297 2.66675V7.08675C20.9297 7.29362 21.0119 7.49201 21.1581 7.63829C21.3044 7.78457 21.5028 7.86675 21.7097 7.86675H26.1297" stroke="#26599B" stroke-width="2" stroke-linecap="round" stroke-linejoin="round"/>
<path d="M5.33594 24.1396C5.33594 24.0127 5.31641 23.8988 5.27734 23.7979C5.24154 23.6937 5.17318 23.5993 5.07227 23.5146C4.97135 23.4268 4.82975 23.3405 4.64746 23.2559C4.46517 23.1712 4.22917 23.0833 3.93945 22.9922C3.61719 22.888 3.3112 22.7708 3.02148 22.6406C2.73503 22.5104 2.48112 22.359 2.25977 22.1865C2.04167 22.0107 1.86914 21.8073 1.74219 21.5762C1.61849 21.3451 1.55664 21.0765 1.55664 20.7705C1.55664 20.4743 1.62174 20.2057 1.75195 19.9648C1.88216 19.7207 2.06445 19.5124 2.29883 19.3398C2.5332 19.1641 2.8099 19.029 3.12891 18.9346C3.45117 18.8402 3.80436 18.793 4.18848 18.793C4.71257 18.793 5.16992 18.8874 5.56055 19.0762C5.95117 19.265 6.25391 19.5238 6.46875 19.8525C6.68685 20.1813 6.7959 20.5573 6.7959 20.9805H5.34082C5.34082 20.7721 5.29688 20.5898 5.20898 20.4336C5.12435 20.2741 4.99414 20.1488 4.81836 20.0576C4.64583 19.9665 4.42773 19.9209 4.16406 19.9209C3.91016 19.9209 3.69857 19.96 3.5293 20.0381C3.36003 20.113 3.23307 20.2155 3.14844 20.3457C3.0638 20.4727 3.02148 20.6159 3.02148 20.7754C3.02148 20.8958 3.05078 21.0049 3.10938 21.1025C3.17122 21.2002 3.26237 21.2913 3.38281 21.376C3.50326 21.4606 3.65137 21.5404 3.82715 21.6152C4.00293 21.6901 4.20638 21.7633 4.4375 21.835C4.82487 21.9521 5.16504 22.084 5.45801 22.2305C5.75423 22.377 6.00163 22.5413 6.2002 22.7236C6.39876 22.9059 6.5485 23.1126 6.64941 23.3438C6.75033 23.5749 6.80078 23.8369 6.80078 24.1299C6.80078 24.4391 6.74056 24.7158 6.62012 24.96C6.49967 25.2041 6.32552 25.4108 6.09766 25.5801C5.86979 25.7493 5.59798 25.8779 5.28223 25.9658C4.96647 26.0537 4.61328 26.0977 4.22266 26.0977C3.87109 26.0977 3.52441 26.0521 3.18262 25.9609C2.84082 25.8665 2.52995 25.7249 2.25 25.5361C1.97331 25.3473 1.75195 25.1064 1.58594 24.8135C1.41992 24.5205 1.33691 24.1738 1.33691 23.7734H2.80664C2.80664 23.9948 2.84082 24.182 2.90918 24.335C2.97754 24.488 3.07357 24.6117 3.19727 24.7061C3.32422 24.8005 3.47396 24.8688 3.64648 24.9111C3.82227 24.9535 4.01432 24.9746 4.22266 24.9746C4.47656 24.9746 4.6849 24.9388 4.84766 24.8672C5.01367 24.7956 5.13574 24.6963 5.21387 24.5693C5.29525 24.4424 5.33594 24.2992 5.33594 24.1396ZM12.5674 24.8574V26H8.7832V24.8574H12.5674ZM9.26172 18.8906V26H7.79688V18.8906H9.26172ZM12.0742 21.7861V22.8994H8.7832V21.7861H12.0742ZM12.5625 18.8906V20.0381H8.7832V18.8906H12.5625ZM19.2617 22.2793V22.6162C19.2617 23.1566 19.1885 23.6416 19.042 24.0713C18.8955 24.501 18.6888 24.8672 18.4219 25.1699C18.1549 25.4694 17.8359 25.6989 17.4648 25.8584C17.097 26.0179 16.6885 26.0977 16.2393 26.0977C15.7933 26.0977 15.3848 26.0179 15.0137 25.8584C14.6458 25.6989 14.3268 25.4694 14.0566 25.1699C13.7865 24.8672 13.5765 24.501 13.4268 24.0713C13.2803 23.6416 13.207 23.1566 13.207 22.6162V22.2793C13.207 21.7357 13.2803 21.2507 13.4268 20.8242C13.5732 20.3945 13.7799 20.0283 14.0469 19.7256C14.3171 19.4229 14.6361 19.1917 15.0039 19.0322C15.375 18.8727 15.7835 18.793 16.2295 18.793C16.6787 18.793 17.0872 18.8727 17.4551 19.0322C17.8262 19.1917 18.1452 19.4229 18.4121 19.7256C18.6823 20.0283 18.8906 20.3945 19.0371 20.8242C19.1868 21.2507 19.2617 21.7357 19.2617 22.2793ZM17.7822 22.6162V22.2695C17.7822 21.8919 17.748 21.5599 17.6797 21.2734C17.6113 20.987 17.5104 20.7461 17.377 20.5508C17.2435 20.3555 17.0807 20.209 16.8887 20.1113C16.6966 20.0104 16.4769 19.96 16.2295 19.96C15.9821 19.96 15.7624 20.0104 15.5703 20.1113C15.3815 20.209 15.2204 20.3555 15.0869 20.5508C14.9567 20.7461 14.8574 20.987 14.7891 21.2734C14.7207 21.5599 14.6865 21.8919 14.6865 22.2695V22.6162C14.6865 22.9906 14.7207 23.3226 14.7891 23.6123C14.8574 23.8988 14.9583 24.1413 15.0918 24.3398C15.2253 24.5352 15.388 24.6833 15.5801 24.7842C15.7721 24.8851 15.9919 24.9355 16.2393 24.9355C16.4867 24.9355 16.7064 24.8851 16.8984 24.7842C17.0905 24.6833 17.2516 24.5352 17.3818 24.3398C17.512 24.1413 17.6113 23.8988 17.6797 23.6123C17.748 23.3226 17.7822 22.9906 17.7822 22.6162Z" fill="#26599B"/>
</svg>
