<?xml version="1.0" encoding="utf-8"?>
<!-- Generator: Adobe Illustrator 26.4.1, SVG Export Plug-In . SVG Version: 6.00 Build 0)  -->
<svg version="1.1" id="Слой_1" xmlns="http://www.w3.org/2000/svg" xmlns:xlink="http://www.w3.org/1999/xlink" x="0px" y="0px"
	 viewBox="0 0 24 24" style="enable-background:new 0 0 24 24;" xml:space="preserve">
<style type="text/css">

</style>
<path class="st0" d="M8,23c-1.9,0-3.6-0.7-5-2.1C1.7,19.6,1,17.8,1,16c0-1.9,0.7-3.6,2.1-5l8.6-8.6C12.6,1.5,13.8,1,15.2,1
	c0,0,0,0,0,0c1.3,0,2.6,0.5,3.5,1.5c0.9,0.9,1.5,2.2,1.5,3.5s-0.5,2.6-1.5,3.5l-8.6,8.6c-1.1,1.1-3.1,1.1-4.2,0
	C5.3,17.6,5,16.8,5,16c0-0.8,0.3-1.6,0.9-2.1l8.5-8.5c0.4-0.4,1-0.4,1.4,0c0.4,0.4,0.4,1,0,1.4l-8.5,8.5C7.1,15.5,7,15.7,7,16
	c0,0.3,0.1,0.5,0.3,0.7c0.4,0.4,1,0.4,1.4,0l8.6-8.6c0.6-0.6,0.9-1.3,0.9-2.1c0-0.8-0.3-1.6-0.9-2.1C16.7,3.3,16,3,15.2,3
	c0,0,0,0,0,0c-0.8,0-1.6,0.3-2.1,0.9l-8.6,8.6C3.5,13.4,3,14.7,3,16c0,1.3,0.5,2.6,1.5,3.5C5.4,20.5,6.7,21,8,21s2.6-0.5,3.5-1.5
	l9.2-9.2c0.4-0.4,1-0.4,1.4,0s0.4,1,0,1.4L13,21C11.6,22.3,9.9,23,8,23z"/>
</svg>
