<svg width="56" height="56" viewBox="0 0 56 56" fill="none" xmlns="http://www.w3.org/2000/svg">
<path d="M35.0013 34.9998H44.3346L51.3346 51.3332H4.66797L11.668 34.9998H21.0013M30.3346 18.6665C30.3346 19.2853 30.0888 19.8788 29.6512 20.3164C29.2136 20.754 28.6201 20.9998 28.0013 20.9998C27.3825 20.9998 26.789 20.754 26.3514 20.3164C25.9138 19.8788 25.668 19.2853 25.668 18.6665C25.668 18.0477 25.9138 17.4542 26.3514 17.0166C26.789 16.579 27.3825 16.3332 28.0013 16.3332C28.6201 16.3332 29.2136 16.579 29.6512 17.0166C30.0888 17.4542 30.3346 18.0477 30.3346 18.6665ZM14.0013 18.6665C14.0013 30.3332 28.0013 41.9998 28.0013 41.9998C28.0013 41.9998 42.0013 30.3332 42.0013 18.6665C42.0013 10.6935 35.734 4.6665 28.0013 4.6665C20.2686 4.6665 14.0013 10.6935 14.0013 18.6665Z" stroke="#26599B" stroke-width="3"/>
</svg>
