<svg width="48" height="48" viewBox="0 0 48 48" fill="none" xmlns="http://www.w3.org/2000/svg">
<mask id="mask0_1331_29386" style="mask-type:alpha" maskUnits="userSpaceOnUse" x="0" y="0" width="48" height="48">
<rect width="48" height="48" fill="#D9D9D9"/>
</mask>
<g mask="url(#mask0_1331_29386)">
<path d="M24 34C24 32.5 24.3083 31.1167 24.925 29.85C25.5417 28.5833 26.3667 27.4833 27.4 26.55L31.7 34H24ZM29 42.6C27.7667 41.9 26.7333 40.9833 25.9 39.85C25.0667 38.7167 24.5 37.4333 24.2 36H32.85L29 42.6ZM32.85 32L29 25.4C29.7667 24.9667 30.5667 24.625 31.4 24.375C32.2333 24.125 33.1 24 34 24C34.5667 24 35.1083 24.05 35.625 24.15C36.1417 24.25 36.65 24.3833 37.15 24.55L32.85 32ZM34 44C33.4333 44 32.8917 43.95 32.375 43.85C31.8583 43.75 31.35 43.6167 30.85 43.45L35.15 36L39 42.6C38.2333 43.0333 37.4333 43.375 36.6 43.625C35.7667 43.875 34.9 44 34 44ZM35.15 32L39 25.4C40.2333 26.1 41.2667 27.0167 42.1 28.15C42.9333 29.2833 43.5 30.5667 43.8 32H35.15ZM40.6 41.45L36.3 34H44C44 35.5 43.7 36.8833 43.1 38.15C42.5 39.4167 41.6667 40.5167 40.6 41.45ZM24 9C19.8333 9 16.2917 10.4583 13.375 13.375C10.4583 16.2917 9 19.8333 9 24C9 26.7 9.64167 29.1583 10.925 31.375C12.2083 33.5917 13.9 35.3667 16 36.7V32.5C16 32.0667 16.1417 31.7083 16.425 31.425C16.7083 31.1417 17.0667 31 17.5 31C17.9333 31 18.2917 31.1417 18.575 31.425C18.8583 31.7083 19 32.0667 19 32.5V40.5C19 40.9333 18.8583 41.2917 18.575 41.575C18.2917 41.8583 17.9333 42 17.5 42H9.5C9.06667 42 8.70833 41.8583 8.425 41.575C8.14167 41.2917 8 40.9333 8 40.5C8 40.0667 8.14167 39.7083 8.425 39.425C8.70833 39.1417 9.06667 39 9.5 39H14.05C11.6167 37.4 9.66667 35.2833 8.2 32.65C6.73333 30.0167 6 27.1333 6 24C6 21.5 6.475 19.1583 7.425 16.975C8.375 14.7917 9.65833 12.8917 11.275 11.275C12.8917 9.65833 14.7917 8.375 16.975 7.425C19.1583 6.475 21.5 6 24 6C28.3333 6 32.1167 7.30833 35.35 9.925C38.5833 12.5417 40.5333 15.5167 41.2 18.85C41.2667 19.25 41.2083 19.625 41.025 19.975C40.8417 20.325 40.5667 20.5667 40.2 20.7C39.8 20.8333 39.4083 20.8 39.025 20.6C38.6417 20.4 38.4 20.1 38.3 19.7C37.7 16.9667 36.0667 14.5 33.4 12.3C30.7333 10.1 27.6 9 24 9Z" fill="#26599B"/>
</g>
</svg>
