<svg width="56" height="56" viewBox="0 0 56 56" fill="none" xmlns="http://www.w3.org/2000/svg">
<path d="M33.2488 48.9998C33.2488 49.4639 33.0644 49.909 32.7362 50.2372C32.4081 50.5654 31.9629 50.7498 31.4988 50.7498H24.4988C24.0347 50.7498 23.5896 50.5654 23.2614 50.2372C22.9332 49.909 22.7488 49.4639 22.7488 48.9998C22.7488 48.5357 22.9332 48.0905 23.2614 47.7624C23.5896 47.4342 24.0347 47.2498 24.4988 47.2498H31.4988C31.9629 47.2498 32.4081 47.4342 32.7362 47.7624C33.0644 48.0905 33.2488 48.5357 33.2488 48.9998ZM27.9988 24.4998C28.518 24.4998 29.0255 24.3458 29.4572 24.0574C29.8889 23.769 30.2253 23.359 30.424 22.8793C30.6227 22.3997 30.6747 21.8719 30.5734 21.3627C30.4721 20.8535 30.2221 20.3858 29.855 20.0186C29.4878 19.6515 29.0201 19.4015 28.5109 19.3002C28.0017 19.199 27.4739 19.2509 26.9943 19.4496C26.5146 19.6483 26.1046 19.9847 25.8162 20.4164C25.5278 20.8481 25.3738 21.3556 25.3738 21.8748C25.3738 22.571 25.6504 23.2387 26.1426 23.731C26.6349 24.2232 27.3026 24.4998 27.9988 24.4998ZM48.9157 34.0876L46.2119 46.2567C46.0837 46.8345 45.8109 47.3705 45.4192 47.8143C45.0275 48.2581 44.5296 48.5953 43.9722 48.7944C43.4147 48.9934 42.8159 49.0479 42.2317 48.9526C41.6474 48.8573 41.0969 48.6154 40.6316 48.2495L34.6729 43.7498H21.3291L15.366 48.2495C14.9007 48.6154 14.3502 48.8573 13.7659 48.9526C13.1817 49.0479 12.5829 48.9934 12.0254 48.7944C11.468 48.5953 10.9701 48.2581 10.5784 47.8143C10.1867 47.3705 9.91395 46.8345 9.78568 46.2567L7.08193 34.0876C6.96724 33.5654 6.97303 33.0239 7.09887 32.5042C7.22471 31.9846 7.46728 31.5004 7.80818 31.0885L14.0557 23.5942C14.2651 20.8399 14.8974 18.1344 15.9304 15.5726C18.7522 8.49824 23.8054 4.0598 25.8551 2.48042C26.4686 2.00504 27.2227 1.74707 27.9988 1.74707C28.7749 1.74707 29.529 2.00504 30.1426 2.48042C32.1857 4.0598 37.2454 8.49824 40.0672 15.5726C41.1002 18.1344 41.7325 20.8399 41.9419 23.5942L48.1894 31.0885C48.5303 31.5004 48.7729 31.9846 48.8987 32.5042C49.0246 33.0239 49.0304 33.5654 48.9157 34.0876ZM21.7491 40.2498H34.2485C38.8685 32.0379 39.7326 24.176 36.8166 16.8698C34.2441 10.421 29.4185 6.34355 27.9988 5.2498C26.5747 6.34355 21.7491 10.421 19.1766 16.8698C16.2651 24.176 17.1291 32.0379 21.7491 40.2498ZM18.4679 41.5295C16.1127 37.2493 14.6835 33.0427 14.1804 28.9098L10.4988 33.3285L13.2026 45.4998L13.2419 45.4714L18.4679 41.5295ZM45.4988 33.3285L41.8172 28.9098C41.3185 33.034 39.8922 37.2405 37.5385 41.5295L42.7557 45.467L42.7951 45.4954L45.4988 33.3285Z" fill="#26599B"/>
</svg>
