<svg width="48" height="48" viewBox="0 0 48 48" fill="none" xmlns="http://www.w3.org/2000/svg">
<mask id="mask0_1331_14981" style="mask-type:alpha" maskUnits="userSpaceOnUse" x="0" y="0" width="48" height="48">
<rect width="48" height="48" fill="#D9D9D9"/>
</mask>
<g mask="url(#mask0_1331_14981)">
<path d="M15.6 26.8L13.8 25C13.5 24.7 13.15 24.55 12.75 24.55C12.35 24.55 11.9935 24.7 11.6805 25C11.3935 25.3 11.25 25.65 11.25 26.05C11.25 26.45 11.4 26.8 11.7 27.1L14.6 30C14.9 30.3 15.25 30.45 15.65 30.45C16.05 30.45 16.4 30.3 16.7 30L23.8 22.9C24.1 22.591 24.25 22.2303 24.25 21.818C24.25 21.406 24.0992 21.05 23.7975 20.75C23.4955 20.45 23.1372 20.3 22.7225 20.3C22.3075 20.3 21.95 20.45 21.65 20.75L15.6 26.8ZM32 23.65L29.85 21.5C29.55 21.2 29.2 21.05 28.8 21.05C28.4 21.05 28.05 21.2 27.75 21.5C27.45 21.8 27.3 22.15 27.3 22.55C27.3 22.95 27.45 23.3 27.75 23.6L29.9 25.75L27.75 27.9C27.45 28.2 27.3 28.55 27.3 28.95C27.3 29.35 27.45 29.7 27.75 30C28.05 30.3 28.4 30.45 28.8 30.45C29.2 30.45 29.55 30.3 29.85 30L32 27.85L34.15 30C34.45 30.3 34.8 30.45 35.2 30.45C35.6 30.45 35.95 30.3 36.25 30C36.55 29.7 36.7 29.35 36.7 28.95C36.7 28.55 36.55 28.2 36.25 27.9L34.1 25.75L36.25 23.6C36.55 23.3 36.7 22.95 36.7 22.55C36.7 22.15 36.55 21.8 36.25 21.5C35.95 21.2 35.6 21.05 35.2 21.05C34.8 21.05 34.45 21.2 34.15 21.5L32 23.65ZM7 40C6.2 40 5.5 39.6917 4.9 39.075C4.3 38.4583 4 37.7667 4 37V11C4 10.2333 4.3 9.54167 4.9 8.925C5.5 8.30833 6.2 8 7 8H19.8C20.2147 8 20.61 8.08333 20.986 8.25C21.362 8.41667 21.6848 8.63483 21.9545 8.9045L24.05 11H41C41.7667 11 42.4583 11.3083 43.075 11.925C43.6917 12.5417 44 13.2333 44 14V37C44 37.7667 43.6917 38.4583 43.075 39.075C42.4583 39.6917 41.7667 40 41 40H7ZM7 37H41V14H22.8L19.8 11H7V37Z" fill="#26599B"/>
</g>
</svg>
