<svg width="56" height="56" viewBox="0 0 56 56" fill="none" xmlns="http://www.w3.org/2000/svg">
<path d="M6 6V50H50" stroke="#26599B" stroke-width="3" stroke-linecap="round" stroke-linejoin="round"/>
<path d="M15.7812 42.3174L25.559 22.7619L37.7813 33.7619L50.0035 8.09521" stroke="#26599B" stroke-width="3" stroke-linecap="round" stroke-linejoin="round"/>
<path d="M20.0703 13.3955C20.0703 13.2178 20.043 13.0583 19.9883 12.917C19.9382 12.7712 19.8424 12.639 19.7012 12.5205C19.5599 12.3975 19.3617 12.2767 19.1064 12.1582C18.8512 12.0397 18.5208 11.9167 18.1152 11.7891C17.6641 11.6432 17.2357 11.4792 16.8301 11.2969C16.429 11.1146 16.0736 10.9027 15.7637 10.6611C15.4583 10.415 15.2168 10.1302 15.0391 9.80664C14.8659 9.48307 14.7793 9.1071 14.7793 8.67871C14.7793 8.264 14.8704 7.88802 15.0527 7.55078C15.235 7.20898 15.4902 6.91732 15.8184 6.67578C16.1465 6.42969 16.5339 6.24056 16.9805 6.1084C17.4316 5.97624 17.9261 5.91016 18.4639 5.91016C19.1976 5.91016 19.8379 6.04232 20.3848 6.30664C20.9316 6.57096 21.3555 6.93327 21.6562 7.39355C21.9616 7.85384 22.1143 8.38021 22.1143 8.97266H20.0771C20.0771 8.68099 20.0156 8.42578 19.8926 8.20703C19.7741 7.98372 19.5918 7.80827 19.3457 7.68066C19.1042 7.55306 18.7988 7.48926 18.4297 7.48926C18.0742 7.48926 17.778 7.54395 17.541 7.65332C17.304 7.75814 17.1263 7.90169 17.0078 8.08398C16.8893 8.26172 16.8301 8.46224 16.8301 8.68555C16.8301 8.85417 16.8711 9.00684 16.9531 9.14355C17.0397 9.28027 17.1673 9.40788 17.3359 9.52637C17.5046 9.64486 17.7119 9.75651 17.958 9.86133C18.2041 9.96615 18.4889 10.0687 18.8125 10.1689C19.3548 10.333 19.8311 10.5176 20.2412 10.7227C20.6559 10.9277 21.0023 11.1579 21.2803 11.4131C21.5583 11.6683 21.7679 11.9577 21.9092 12.2812C22.0505 12.6048 22.1211 12.9717 22.1211 13.3818C22.1211 13.8148 22.0368 14.2021 21.8682 14.5439C21.6995 14.8857 21.4557 15.1751 21.1367 15.4121C20.8177 15.6491 20.4372 15.8291 19.9951 15.9521C19.5531 16.0752 19.0586 16.1367 18.5117 16.1367C18.0195 16.1367 17.5342 16.0729 17.0557 15.9453C16.5771 15.8132 16.1419 15.6149 15.75 15.3506C15.3626 15.0863 15.0527 14.749 14.8203 14.3389C14.5879 13.9287 14.4717 13.4434 14.4717 12.8828H16.5293C16.5293 13.1927 16.5771 13.4548 16.6729 13.6689C16.7686 13.8831 16.903 14.0563 17.0762 14.1885C17.2539 14.3206 17.4635 14.4163 17.7051 14.4756C17.9512 14.5348 18.2201 14.5645 18.5117 14.5645C18.8672 14.5645 19.1589 14.5143 19.3867 14.4141C19.6191 14.3138 19.79 14.1748 19.8994 13.9971C20.0133 13.8193 20.0703 13.6188 20.0703 13.3955ZM30.1943 14.4004V16H24.8965V14.4004H30.1943ZM25.5664 6.04688V16H23.5156V6.04688H25.5664ZM29.5039 10.1006V11.6592H24.8965V10.1006H29.5039ZM30.1875 6.04688V7.65332H24.8965V6.04688H30.1875ZM39.5664 10.791V11.2627C39.5664 12.0192 39.4639 12.6982 39.2588 13.2998C39.0537 13.9014 38.7643 14.4141 38.3906 14.8379C38.0169 15.2572 37.5703 15.5785 37.0508 15.8018C36.5358 16.0251 35.9639 16.1367 35.335 16.1367C34.7106 16.1367 34.1387 16.0251 33.6191 15.8018C33.1042 15.5785 32.6576 15.2572 32.2793 14.8379C31.901 14.4141 31.6071 13.9014 31.3975 13.2998C31.1924 12.6982 31.0898 12.0192 31.0898 11.2627V10.791C31.0898 10.0299 31.1924 9.35091 31.3975 8.75391C31.6025 8.15234 31.8919 7.63965 32.2656 7.21582C32.6439 6.79199 33.0905 6.46842 33.6055 6.24512C34.125 6.02181 34.6969 5.91016 35.3213 5.91016C35.9502 5.91016 36.5221 6.02181 37.0371 6.24512C37.5566 6.46842 38.0033 6.79199 38.377 7.21582C38.7552 7.63965 39.0469 8.15234 39.252 8.75391C39.4616 9.35091 39.5664 10.0299 39.5664 10.791ZM37.4951 11.2627V10.7773C37.4951 10.2487 37.4473 9.78385 37.3516 9.38281C37.2559 8.98177 37.1146 8.64453 36.9277 8.37109C36.7409 8.09766 36.513 7.89258 36.2441 7.75586C35.9753 7.61458 35.6676 7.54395 35.3213 7.54395C34.9749 7.54395 34.6673 7.61458 34.3984 7.75586C34.1341 7.89258 33.9085 8.09766 33.7217 8.37109C33.5394 8.64453 33.4004 8.98177 33.3047 9.38281C33.209 9.78385 33.1611 10.2487 33.1611 10.7773V11.2627C33.1611 11.7868 33.209 12.2516 33.3047 12.6572C33.4004 13.0583 33.5417 13.3978 33.7285 13.6758C33.9154 13.9492 34.1432 14.1566 34.4121 14.2979C34.681 14.4391 34.9886 14.5098 35.335 14.5098C35.6813 14.5098 35.9889 14.4391 36.2578 14.2979C36.5267 14.1566 36.7523 13.9492 36.9346 13.6758C37.1169 13.3978 37.2559 13.0583 37.3516 12.6572C37.4473 12.2516 37.4951 11.7868 37.4951 11.2627Z" fill="#26599B"/>
</svg>
