<svg width="56" height="56" viewBox="0 0 56 56" fill="none" xmlns="http://www.w3.org/2000/svg">
<path fill-rule="evenodd" clip-rule="evenodd" d="M26.3659 5.91675H30.7667C34.5966 5.91675 37.6305 5.91675 40.0038 6.23556C42.4459 6.56479 44.4234 7.25658 45.9841 8.8152C47.5427 10.3759 48.2345 12.3534 48.5637 14.7955C48.8826 17.1709 48.8826 20.2027 48.8826 24.0326V32.6009C48.8826 36.4308 48.8826 39.4647 48.5637 41.838C48.2345 44.2801 47.5427 46.2576 45.9841 47.8183C44.4234 49.3769 42.4459 50.0687 40.0038 50.3979C37.6284 50.7167 34.5966 50.7167 30.7667 50.7167H26.3659C22.536 50.7167 19.5021 50.7167 17.1287 50.3979C14.6866 50.0687 12.7092 49.3769 11.1485 47.8183C9.58983 46.2576 8.89804 44.2801 8.56881 41.838C8.25 39.4626 8.25 36.4308 8.25 32.6009V24.0326C8.25 20.2027 8.25 17.1688 8.56881 14.7955C8.89804 12.3534 9.58983 10.3759 11.1485 8.8152C12.7092 7.25658 14.6866 6.56479 17.1287 6.23556C19.5042 5.91675 22.536 5.91675 26.3659 5.91675ZM17.5434 9.33405C15.4472 9.61535 14.2386 10.1446 13.3551 11.026C12.4758 11.9074 11.9465 13.116 11.6652 15.2122C11.3777 17.3543 11.3735 20.1757 11.3735 24.1493V32.4842C11.3735 36.4578 11.3777 39.2813 11.6652 41.4234C11.9465 43.5175 12.4758 44.7261 13.3572 45.6075C14.2386 46.4889 15.4472 47.0181 17.5434 47.2994C19.6855 47.587 22.5068 47.5912 26.4805 47.5912H30.6479C34.6216 47.5912 37.445 47.587 39.5871 47.2994C41.6812 47.0181 42.8898 46.4889 43.7712 45.6075C44.6526 44.7261 45.1819 43.5175 45.4632 41.4213C45.7507 39.2813 45.7549 36.4578 45.7549 32.4842V24.1493C45.7549 20.1757 45.7507 17.3543 45.4632 15.2101C45.1819 13.116 44.6526 11.9074 43.7712 11.026C42.8898 10.1446 41.6812 9.61535 39.585 9.33405C37.445 9.0465 34.6216 9.04233 30.6479 9.04233H26.4805C22.5068 9.04233 19.6875 9.0465 17.5434 9.33405ZM28.5663 14.2516C28.9808 14.2516 29.3783 14.4163 29.6713 14.7094C29.9644 15.0024 30.1291 15.3999 30.1291 15.8144V18.4191H32.7337C33.1482 18.4191 33.5457 18.5837 33.8388 18.8768C34.1319 19.1699 34.2965 19.5674 34.2965 19.9819C34.2965 20.3963 34.1319 20.7938 33.8388 21.0869C33.5457 21.38 33.1482 21.5447 32.7337 21.5447H30.1291V24.1493C30.1291 24.5638 29.9644 24.9613 29.6713 25.2544C29.3783 25.5474 28.9808 25.7121 28.5663 25.7121C28.1518 25.7121 27.7543 25.5474 27.4612 25.2544C27.1681 24.9613 27.0035 24.5638 27.0035 24.1493V21.5447H24.3988C23.9844 21.5447 23.5869 21.38 23.2938 21.0869C23.0007 20.7938 22.836 20.3963 22.836 19.9819C22.836 19.5674 23.0007 19.1699 23.2938 18.8768C23.5869 18.5837 23.9844 18.4191 24.3988 18.4191H27.0035V15.8144C27.0035 15.3999 27.1681 15.0024 27.4612 14.7094C27.7543 14.4163 28.1518 14.2516 28.5663 14.2516ZM18.6686 32.4842C18.6686 32.0697 18.8333 31.6722 19.1263 31.3791C19.4194 31.0861 19.8169 30.9214 20.2314 30.9214H36.9012C37.3156 30.9214 37.7131 31.0861 38.0062 31.3791C38.2993 31.6722 38.464 32.0697 38.464 32.4842C38.464 32.8987 38.2993 33.2962 38.0062 33.5892C37.7131 33.8823 37.3156 34.047 36.9012 34.047H20.2314C19.8169 34.047 19.4194 33.8823 19.1263 33.5892C18.8333 33.2962 18.6686 32.8987 18.6686 32.4842ZM20.7523 40.8191C20.7523 40.4046 20.917 40.0071 21.2101 39.714C21.5031 39.4209 21.9006 39.2563 22.3151 39.2563H34.8174C35.2319 39.2563 35.6294 39.4209 35.9225 39.714C36.2156 40.0071 36.3802 40.4046 36.3802 40.8191C36.3802 41.2336 36.2156 41.6311 35.9225 41.9241C35.6294 42.2172 35.2319 42.3819 34.8174 42.3819H22.3151C21.9006 42.3819 21.5031 42.2172 21.2101 41.9241C20.917 41.6311 20.7523 41.2336 20.7523 40.8191Z" fill="#26599B"/>
</svg>
