<svg width="64" height="64" viewBox="0 0 64 64" fill="none" xmlns="http://www.w3.org/2000/svg">
<path d="M32 32.5C38.9667 32.5 44.6667 26.7625 44.6667 19.75C44.6667 12.7375 38.9667 7 32 7C25.0333 7 19.3333 12.7375 19.3333 19.75C19.3333 26.7625 25.0333 32.5 32 32.5ZM32 9.125C37.9111 9.125 42.5556 13.8 42.5556 19.75C42.5556 25.7 37.9111 30.375 32 30.375C26.0889 30.375 21.4444 25.7 21.4444 19.75C21.4444 13.8 26.0889 9.125 32 9.125ZM41.5 36.75H22.5C17.2222 36.75 13 41 13 46.3125V58H15.1111V46.3125C15.1111 42.275 18.4889 38.875 22.5 38.875H25.8778L29.8889 44.4L26.7222 58H28.8333L32 44.4L35.1667 58H37.2778L34.1111 44.4L38.1222 38.875H41.5C45.5111 38.875 48.8889 42.275 48.8889 46.3125V58H51V46.3125C51 41 46.7778 36.75 41.5 36.75ZM32 43.7625L28.4111 38.875H35.5889L32 43.7625Z" fill="#F8FBFF" stroke="#F8FBFF" stroke-miterlimit="10"/>
<path d="M12.5 57.75C12.9052 57.75 39.513 57.75 51.5 57.75" stroke="#F8FBFF" stroke-width="3"/>
</svg>
