<svg width="64" height="64" viewBox="0 0 64 64" fill="none" xmlns="http://www.w3.org/2000/svg">
<path d="M53.06 20.94L39.06 6.94C38.779 6.65862 38.3977 6.50035 38 6.5H14C13.0717 6.5 12.1815 6.86875 11.5251 7.52513C10.8687 8.1815 10.5 9.07174 10.5 10V54C10.5 54.9283 10.8687 55.8185 11.5251 56.4749C12.1815 57.1312 13.0717 57.5 14 57.5H50C50.9283 57.5 51.8185 57.1312 52.4749 56.4749C53.1313 55.8185 53.5 54.9283 53.5 54V22C53.4996 21.6023 53.3414 21.221 53.06 20.94ZM39.5 11.62L48.38 20.5H39.5V11.62ZM50 54.5H14C13.8674 54.5 13.7402 54.4473 13.6464 54.3536C13.5527 54.2598 13.5 54.1326 13.5 54V10C13.5 9.86739 13.5527 9.74021 13.6464 9.64645C13.7402 9.55268 13.8674 9.5 14 9.5H36.5V22C36.5 22.3978 36.658 22.7794 36.9393 23.0607C37.2206 23.342 37.6022 23.5 38 23.5H50.5V54C50.5 54.1326 50.4473 54.2598 50.3536 54.3536C50.2598 54.4473 50.1326 54.5 50 54.5Z" fill="#F8FBFF"/>
<g clip-path="url(#clip0_1959_9637)">
<path d="M27 41.8393H33V50H27V41.8393ZM19 46.7357H25V50H19V46.7357ZM43 43.4714H49V50H43V43.4714ZM35 38.575H41V50H35V38.575ZM49 24L37.64 32.1117L26.7 29.3371L17 35.4739V38.575L27.3 32.0465L38.36 34.8537L49 27.248V24Z" fill="#F8FBFF"/>
</g>
<defs>
<clipPath id="clip0_1959_9637">
<rect width="32" height="31" fill="white" transform="translate(16 19)"/>
</clipPath>
</defs>
</svg>
