<svg width="64" height="64" viewBox="0 0 64 64" fill="none" xmlns="http://www.w3.org/2000/svg">
<path d="M53.06 20.94L39.06 6.94C38.779 6.65862 38.3977 6.50035 38 6.5H14C13.0717 6.5 12.1815 6.86875 11.5251 7.52513C10.8687 8.1815 10.5 9.07174 10.5 10V54C10.5 54.9283 10.8687 55.8185 11.5251 56.4749C12.1815 57.1312 13.0717 57.5 14 57.5H50C50.9283 57.5 51.8185 57.1312 52.4749 56.4749C53.1313 55.8185 53.5 54.9283 53.5 54V22C53.4996 21.6023 53.3414 21.221 53.06 20.94ZM39.5 11.62L48.38 20.5H39.5V11.62ZM50 54.5H14C13.8674 54.5 13.7402 54.4473 13.6464 54.3536C13.5527 54.2598 13.5 54.1326 13.5 54V10C13.5 9.86739 13.5527 9.74021 13.6464 9.64645C13.7402 9.55268 13.8674 9.5 14 9.5H36.5V22C36.5 22.3978 36.658 22.7794 36.9393 23.0607C37.2206 23.342 37.6022 23.5 38 23.5H50.5V54C50.5 54.1326 50.4473 54.2598 50.3536 54.3536C50.2598 54.4473 50.1326 54.5 50 54.5Z" fill="#F8FBFF"/>
<path d="M20.3669 12.9521H33.901V15.7966H20.3669V12.9521ZM20.3669 27.1744L38.0915 27.4283V30.0188H20.3669V27.1744ZM33.901 20.0633H20.3669V22.9077H26.4909H32.6149H33.901V20.0633ZM28.8896 50.0579C29.3676 50.606 29.9742 51.0267 30.655 51.2824C31.3358 51.5381 32.0694 51.6207 32.79 51.5228H46.6638C46.9939 51.5228 47.3104 51.3917 47.5438 51.1583C47.7771 50.9249 47.9083 50.6084 47.9083 50.2784C47.9083 49.9483 47.7771 49.6318 47.5438 49.3984C47.3104 49.165 46.9939 49.0339 46.6638 49.0339H32.79C31.1705 49.0055 31.4585 47.5993 31.686 47.1637C31.9821 46.6522 32.2132 46.1057 32.374 45.537C32.4813 45.0792 32.4316 44.5987 32.2331 44.1725C32.0345 43.7463 31.6984 43.3992 31.2789 43.1868C30.6059 42.8839 29.8522 42.8098 29.133 42.9758C28.4139 43.1417 27.7689 43.5387 27.2967 44.1059C26.6851 44.737 25.8354 45.7024 25.0211 46.641C25.5243 44.6695 26.1767 42.1397 26.8167 39.6721C27.0001 39.1099 26.9636 38.499 26.7145 37.9626C26.4655 37.4262 26.0223 37.0042 25.4745 36.7815C24.8677 36.5733 24.2046 36.603 23.619 36.8647C23.0333 37.1263 22.5687 37.6004 22.3189 38.1913C21.5509 39.6686 15.4709 49.857 15.4105 49.9601C15.3267 50.1005 15.2713 50.2559 15.2476 50.4176C15.2238 50.5793 15.2322 50.7441 15.2721 50.9026C15.3528 51.2226 15.5573 51.4975 15.8407 51.6668C16.1241 51.8361 16.4631 51.8858 16.7831 51.8052C17.1032 51.7245 17.3781 51.52 17.5474 51.2366C17.7749 50.8544 22.6283 42.7246 24.1589 40.0099C23.0069 44.4544 21.7376 49.4001 21.6629 49.8446C21.5792 50.1713 21.6045 50.5165 21.7352 50.8275C21.8658 51.1385 22.0945 51.3983 22.3865 51.5673C22.7119 51.7286 23.0818 51.7771 23.4378 51.705C23.7938 51.6329 24.1157 51.4443 24.3527 51.169C24.5767 50.9664 24.9963 50.4846 26.054 49.2561C27.0395 48.097 28.0489 46.9584 29.0816 45.841C29.4691 45.4321 29.7038 45.6135 29.4763 46.0153C29.031 46.5777 28.7422 47.2478 28.6392 47.9577C28.5361 48.6676 28.6225 49.3921 28.8896 50.0579Z" fill="#F8FBFF"/>
</svg>
