<svg width="64" height="64" viewBox="0 0 64 64" fill="none" xmlns="http://www.w3.org/2000/svg">
<path d="M21.6427 44.1043C22.2241 44.1043 22.7112 43.907 23.1041 43.5123C23.4952 43.1194 23.6907 42.6314 23.6907 42.0483C23.6907 41.4652 23.4934 40.9781 23.0987 40.587C22.7041 40.1959 22.2161 40.0003 21.6347 40.0003C21.0534 40.0003 20.5663 40.1977 20.1734 40.5923C19.7805 40.987 19.585 41.475 19.5867 42.0563C19.5885 42.6377 19.7858 43.1239 20.1787 43.515C20.5716 43.9061 21.0596 44.1043 21.6427 44.1043ZM21.6427 34.051C22.2241 34.051 22.7112 33.8545 23.1041 33.4617C23.4952 33.067 23.6907 32.5781 23.6907 31.995C23.6907 31.4119 23.4934 30.9257 23.0987 30.5363C22.7041 30.147 22.2161 29.9514 21.6347 29.9497C21.0534 29.9479 20.5663 30.1443 20.1734 30.539C19.7805 30.9337 19.585 31.4225 19.5867 32.0057C19.5885 32.5888 19.7858 33.075 20.1787 33.4643C20.5716 33.8537 21.0596 34.0492 21.6427 34.051ZM21.6427 24.0003C22.2241 24.0003 22.7112 23.8039 23.1041 23.411C23.4952 23.0163 23.6907 22.5274 23.6907 21.9443C23.6907 21.3612 23.4934 20.875 23.0987 20.4857C22.7041 20.0963 22.2161 19.9008 21.6347 19.899C21.0534 19.8972 20.5663 20.0937 20.1734 20.4883C19.7823 20.883 19.5867 21.371 19.5867 21.9523C19.5867 22.5337 19.7841 23.0208 20.1787 23.4137C20.5734 23.8065 21.0614 24.0021 21.6427 24.0003ZM29.8427 43.387H44.2027V40.7203H29.8427V43.387ZM29.8427 33.3337H44.2027V30.667H29.8427V33.3337ZM29.8427 23.2803H44.2027V20.6137H29.8427V23.2803ZM14.9734 53.3337C13.745 53.3337 12.7201 52.923 11.8987 52.1017C11.0774 51.2803 10.6658 50.2546 10.6641 49.0243V14.9763C10.6641 13.7479 11.0756 12.723 11.8987 11.9017C12.7218 11.0803 13.7467 10.6688 14.9734 10.667H49.0241C50.2507 10.667 51.2756 11.0785 52.0987 11.9017C52.9218 12.7248 53.3325 13.7497 53.3307 14.9763V49.027C53.3307 50.2537 52.9201 51.2785 52.0987 52.1017C51.2774 52.9248 50.2516 53.3354 49.0214 53.3337H14.9734ZM14.9734 50.667H49.0241C49.433 50.667 49.809 50.4963 50.1521 50.155C50.4952 49.8137 50.6658 49.4368 50.6641 49.0243V14.9763C50.6641 14.5657 50.4934 14.1888 50.1521 13.8457C49.8107 13.5025 49.4338 13.3319 49.0214 13.3337H14.9734C14.5627 13.3337 14.1858 13.5043 13.8427 13.8457C13.4996 14.187 13.329 14.5639 13.3307 14.9763V49.027C13.3307 49.4359 13.5014 49.8119 13.8427 50.155C14.1841 50.4981 14.5601 50.6688 14.9707 50.667" fill="#F8FBFF"/>
</svg>
