<svg width="64" height="64" viewBox="0 0 64 64" fill="none" xmlns="http://www.w3.org/2000/svg">
<path d="M53.06 20.94L39.06 6.94C38.779 6.65862 38.3977 6.50035 38 6.5H14C13.0717 6.5 12.1815 6.86875 11.5251 7.52513C10.8687 8.1815 10.5 9.07174 10.5 10V54C10.5 54.9283 10.8687 55.8185 11.5251 56.4749C12.1815 57.1312 13.0717 57.5 14 57.5H50C50.9283 57.5 51.8185 57.1312 52.4749 56.4749C53.1313 55.8185 53.5 54.9283 53.5 54V22C53.4996 21.6023 53.3414 21.221 53.06 20.94ZM39.5 11.62L48.38 20.5H39.5V11.62ZM50 54.5H14C13.8674 54.5 13.7402 54.4473 13.6464 54.3536C13.5527 54.2598 13.5 54.1326 13.5 54V10C13.5 9.86739 13.5527 9.74021 13.6464 9.64645C13.7402 9.55268 13.8674 9.5 14 9.5H36.5V22C36.5 22.3978 36.658 22.7794 36.9393 23.0607C37.2206 23.342 37.6022 23.5 38 23.5H50.5V54C50.5 54.1326 50.4473 54.2598 50.3536 54.3536C50.2598 54.4473 50.1326 54.5 50 54.5ZM37.9725 41.8525C39.1884 40.1068 39.7065 37.9691 39.4249 35.8604C39.1433 33.7518 38.0823 31.825 36.4509 30.4596C34.8195 29.0941 32.736 28.389 30.6107 28.4832C28.4854 28.5773 26.4724 29.4638 24.9681 30.9681C23.4638 32.4724 22.5773 34.4854 22.4832 36.6107C22.389 38.736 23.0941 40.8195 24.4596 42.4509C25.825 44.0823 27.7518 45.1433 29.8604 45.4249C31.9691 45.7065 34.1068 45.1884 35.8525 43.9725L38.94 47.06C39.2243 47.325 39.6004 47.4692 39.989 47.4623C40.3776 47.4555 40.7484 47.2981 41.0232 47.0232C41.2981 46.7484 41.4555 46.3776 41.4624 45.989C41.4692 45.6004 41.325 45.2243 41.06 44.94L37.9725 41.8525ZM25.5 37C25.5 35.9122 25.8226 34.8488 26.4269 33.9444C27.0313 33.0399 27.8902 32.3349 28.8952 31.9187C29.9002 31.5024 31.0061 31.3935 32.073 31.6057C33.1399 31.8179 34.1199 32.3417 34.8891 33.1109C35.6583 33.8801 36.1821 34.8601 36.3943 35.927C36.6065 36.9939 36.4976 38.0998 36.0813 39.1048C35.6651 40.1098 34.9601 40.9687 34.0556 41.5731C33.1512 42.1774 32.0878 42.5 31 42.5C29.5413 42.5 28.1424 41.9205 27.1109 40.8891C26.0795 39.8576 25.5 38.4587 25.5 37Z" fill="#F8FBFF"/>
</svg>
