<svg width="56" height="56" viewBox="0 0 56 56" fill="none" xmlns="http://www.w3.org/2000/svg">
<path d="M50.2952 14.8653C50.4013 15.121 50.4293 15.4025 50.3754 15.6742C50.3216 15.9458 50.1884 16.1953 49.9928 16.3913L44.3928 21.9913C44.2625 22.1212 44.1079 22.2242 43.9378 22.2943C43.7678 22.3645 43.5855 22.4004 43.4016 22.4001H35.5812L31.7928 26.1885C32.2198 27.0825 32.317 28.0987 32.0673 29.0575C31.8175 30.0163 31.2368 30.8559 30.4279 31.428C29.6189 32 28.6338 32.2677 27.6466 32.1836C26.6594 32.0995 25.7336 31.6692 25.0331 30.9686C24.3325 30.268 23.9021 29.3423 23.8181 28.3551C23.734 27.3679 24.0016 26.3827 24.5737 25.5738C25.1457 24.7648 25.9854 24.1841 26.9441 23.9344C27.9029 23.6846 28.9191 23.7818 29.8132 24.2089L33.6016 20.4205V12.6001C33.6012 12.4161 33.6372 12.2339 33.7073 12.0638C33.7775 11.8937 33.8804 11.7391 34.0104 11.6089L39.6104 6.00889C39.8062 5.81259 40.0558 5.67885 40.3277 5.62462C40.5997 5.57039 40.8815 5.59812 41.1377 5.70429C41.3938 5.81046 41.6126 5.99029 41.7664 6.22098C41.9202 6.45167 42.0021 6.72283 42.0016 7.00009V14.0001H49.0016C49.2786 14.0001 49.5494 14.0824 49.7797 14.2364C50.0099 14.3904 50.1893 14.6093 50.2952 14.8653ZM45.622 16.8001H40.6016C40.2303 16.8001 39.8742 16.6526 39.6116 16.39C39.3491 16.1275 39.2016 15.7714 39.2016 15.4001V10.3797L36.4016 13.1797V19.6001H42.822L45.622 16.8001ZM49.3012 21.0421C50.0152 23.2317 50.4016 25.5725 50.4016 28.0001C50.4005 32.7319 48.9011 37.3419 46.1183 41.1689C43.3354 44.9959 39.4122 47.8434 34.9111 49.3029C30.41 50.7625 25.5623 50.7592 21.0632 49.2935C16.5641 47.8279 12.6447 44.9751 9.86702 41.1443C7.08938 37.3135 5.59619 32.7015 5.60158 27.9697C5.60696 23.2379 7.11065 18.6293 9.89701 14.8049C12.6834 10.9804 16.6093 8.13657 21.1117 6.68114C25.6141 5.22571 30.4618 5.23346 34.9596 6.70329L32.6972 8.96569C28.5408 7.94087 24.1632 8.30498 20.2333 10.0024C16.3034 11.6998 13.0373 14.6371 10.9339 18.3656C8.83063 22.0941 8.00582 26.4086 8.58554 30.65C9.16526 34.8914 11.1176 38.8264 14.1443 41.8537C17.171 44.881 21.1056 46.8341 25.3469 47.4147C29.5882 47.9952 33.9029 47.1713 37.6318 45.0687C41.3607 42.9661 44.2987 39.7005 45.9968 35.7709C47.695 31.8413 48.06 27.4638 47.036 23.3073L49.3012 21.0421ZM41.7216 25.2001C41.9082 26.1073 42.0016 27.0406 42.0016 28.0001C42.001 30.8891 41.1067 33.7071 39.4413 36.0677C37.7759 38.4284 35.421 40.216 32.6995 41.1855C29.978 42.1549 27.0233 42.2587 24.2405 41.4826C21.4578 40.7065 18.9832 39.0885 17.1563 36.8505C15.3294 34.6125 14.2396 31.8642 14.0363 28.9824C13.833 26.1005 14.5262 23.2264 16.0209 20.7541C17.5155 18.2818 19.7384 16.3325 22.3847 15.1734C25.0309 14.0143 27.971 13.7023 30.8016 14.2801V17.1529C28.4229 16.5392 25.9084 16.7247 23.6455 17.6806C21.3826 18.6365 19.4967 20.31 18.2783 22.4431C17.06 24.5763 16.5768 27.0508 16.9031 29.4856C17.2294 31.9204 18.3472 34.1804 20.0842 35.9174C21.8213 37.6545 24.0812 38.7722 26.516 39.0986C28.9508 39.4249 31.4254 38.9417 33.5585 37.7233C35.6917 36.505 37.3651 34.6191 38.321 32.3562C39.277 30.0932 39.4624 27.5788 38.8488 25.2001H41.7216Z" fill="#26599B"/>
</svg>
