<svg width="56" height="56" viewBox="0 0 56 56" fill="none" xmlns="http://www.w3.org/2000/svg">
<path d="M23.6961 35.4644L23.6751 35.4155C23.3596 35.3292 23.0468 35.2335 22.7371 35.1285L22.7137 35.1192C19.4904 34.0165 16.6925 31.9338 14.7119 29.1624C12.7312 26.391 11.6668 23.0698 11.6677 19.6636C11.6667 15.4833 13.2691 11.4617 16.1449 8.42725C19.0207 5.3928 22.9509 3.57654 27.126 3.35257C31.3011 3.12861 35.4031 4.51399 38.5871 7.22337C41.7712 9.93275 43.7947 13.7598 44.2411 17.9162C44.3437 18.8774 43.5504 19.6636 42.5844 19.6636C41.6184 19.6636 40.8461 18.8751 40.7178 17.9186C40.4074 15.6609 39.5014 13.5267 38.0928 11.7351C36.6842 9.94346 34.8239 8.55918 32.703 7.72449C30.5821 6.8898 28.2772 6.63481 26.0251 6.98572C23.7731 7.33662 21.6551 8.28078 19.8888 9.72114C18.1225 11.1615 16.7717 13.0461 15.9752 15.1813C15.1787 17.3165 14.9652 19.6252 15.3567 21.8702C15.7482 24.1152 16.7305 26.2155 18.2027 27.9552C19.6749 29.6949 21.5839 31.0113 23.7334 31.7691C24.1664 30.7905 24.9227 29.9905 25.8756 29.5031C26.8284 29.0157 27.9198 28.8706 28.9669 29.092C30.014 29.3135 30.9532 29.8881 31.6269 30.7195C32.3007 31.5509 32.6682 32.5887 32.6677 33.6588C32.6677 35.0538 32.0564 36.3043 31.0881 37.1581C30.2359 37.9107 29.1381 38.3264 28.0011 38.3269C27.0805 38.3302 26.1798 38.0598 25.4133 37.5502C24.6467 37.0405 24.049 36.3145 23.6961 35.4644ZM18.6607 37.1605C16.941 36.2417 15.3662 35.0743 13.9871 33.6961C12.7087 33.8448 11.5296 34.4578 10.6735 35.4186C9.81751 36.3794 9.34428 37.6211 9.34375 38.9078V40.2563C9.34375 42.3372 10.0857 44.3529 11.4391 45.9369C15.0931 50.2155 20.6604 52.3291 28.0011 52.3291C35.3417 52.3291 40.9114 50.2155 44.5724 45.9369C45.9289 44.3522 46.6745 42.3351 46.6748 40.2493V38.9078C46.6748 37.5165 46.1223 36.1821 45.1387 35.1978C44.1552 34.2136 42.821 33.66 41.4294 33.6588H36.1677C36.1677 34.9139 35.8877 36.099 35.3814 37.1581H41.4294C41.8927 37.1594 42.3367 37.3443 42.6638 37.6723C42.991 38.0003 43.1748 38.4446 43.1748 38.9078V40.2493C43.1751 41.5007 42.7283 42.7112 41.9147 43.6623C38.9817 47.087 34.3921 48.8274 28.0011 48.8274C21.6101 48.8274 17.0251 47.087 14.1014 43.6646C13.2884 42.7141 12.8416 41.5046 12.8414 40.2539V38.9078C12.8414 38.4438 13.0258 37.9987 13.354 37.6706C13.6822 37.3425 14.1273 37.1581 14.5914 37.1581L18.6607 37.1605ZM18.6677 19.6636C18.6682 18.054 19.085 16.4719 19.8777 15.071C20.6705 13.67 21.8122 12.4979 23.1919 11.6686C24.5716 10.8392 26.1424 10.3807 27.7517 10.3377C29.361 10.2947 30.9541 10.6687 32.3762 11.4232C33.7982 12.1777 35.0009 13.2871 35.8673 14.6437C36.7338 16.0003 37.2345 17.5579 37.321 19.1652C37.4074 20.7724 37.0765 22.3747 36.3605 23.8164C35.6445 25.258 34.5677 26.49 33.2348 27.3925C31.7662 26.167 29.914 25.4958 28.0011 25.4959C29.5482 25.4959 31.0319 24.8814 32.1259 23.7876C33.2198 22.6939 33.8344 21.2104 33.8344 19.6636C33.8344 18.1168 33.2198 16.6333 32.1259 15.5395C31.0319 14.4458 29.5482 13.8313 28.0011 13.8313C26.454 13.8313 24.9703 14.4458 23.8763 15.5395C22.7823 16.6333 22.1677 18.1168 22.1677 19.6636C22.1677 21.2104 22.7823 22.6939 23.8763 23.7876C24.9703 24.8814 26.454 25.4959 28.0011 25.4959C26.0084 25.4959 24.1837 26.2098 22.7697 27.3925C21.5048 26.539 20.4691 25.3878 19.7538 24.04C19.0385 22.6922 18.6656 21.1893 18.6677 19.6636Z" fill="#26599B"/>
</svg>
