<?xml version="1.0" encoding="utf-8"?>
<!-- Generator: Adobe Illustrator 26.4.1, SVG Export Plug-In . SVG Version: 6.00 Build 0)  -->
<svg version="1.1" id="Слой_1" xmlns="http://www.w3.org/2000/svg" xmlns:xlink="http://www.w3.org/1999/xlink" x="0px" y="0px"
	 viewBox="0 0 16 16" style="enable-background:new 0 0 16 16;" xml:space="preserve">
<style type="text/css">
	.st0{clip-path:url(#SVGID_00000170265092246059909200000013127156481369424801_);}
	.st1{fill-rule:evenodd;clip-rule:evenodd;fill:#26599B;}
</style>
<g>
	<defs>
		<rect id="SVGID_1_" width="16" height="16"/>
	</defs>
	<clipPath id="SVGID_00000169554480072795585430000009615906776135921564_">
		<use xlink:href="#SVGID_1_"  style="overflow:visible;"/>
	</clipPath>
	<g style="clip-path:url(#SVGID_00000169554480072795585430000009615906776135921564_);">
		<path class="st1" d="M1.9,0.5c0.2-0.2,0.4-0.3,0.6-0.4C2.7,0,3,0,3.2,0c0.2,0,0.5,0.1,0.7,0.2c0.2,0.1,0.4,0.3,0.6,0.5L6.3,3
			c0.3,0.4,0.4,1,0.3,1.5L6.1,6.7c0,0.1,0,0.2,0,0.3c0,0.1,0.1,0.2,0.2,0.3l2.5,2.5C8.8,9.8,8.9,9.9,9,9.9c0.1,0,0.2,0,0.3,0
			l2.2-0.5c0.3-0.1,0.5-0.1,0.8,0c0.3,0.1,0.5,0.2,0.7,0.3l2.3,1.8c0.8,0.6,0.9,1.9,0.2,2.6l-1,1c-0.7,0.7-1.8,1.1-2.9,0.7
			c-2.6-0.9-5-2.4-7-4.4c-2-2-3.5-4.4-4.4-7c-0.4-1,0-2.1,0.7-2.9L1.9,0.5z"/>
	</g>
</g>
</svg>
