<svg width="20" height="20" viewBox="0 0 20 20" fill="none" xmlns="http://www.w3.org/2000/svg">
<path d="M18.3258 1C18.9011 1 19.335 1.56803 19.1029 2.62456L16.2873 17.5637C16.0905 18.6259 15.5203 18.8815 14.7332 18.3873L8.01714 12.8036C7.9911 12.7826 7.96988 12.7549 7.95524 12.7228C7.9406 12.6907 7.93297 12.6551 7.93297 12.619C7.93297 12.5829 7.9406 12.5474 7.95524 12.5153C7.96988 12.4832 7.9911 12.4554 8.01714 12.4344L15.7726 4.55018C16.1258 4.198 15.6969 4.02759 15.2327 4.34569L5.49926 11.2586C5.46974 11.2803 5.43622 11.2941 5.40125 11.299C5.36628 11.3039 5.33078 11.2998 5.29743 11.287L1.16487 9.8158C0.24652 9.51474 0.24652 8.80471 1.37175 8.29916L17.907 1.11929C18.0383 1.04903 18.1806 1.0085 18.3258 1Z" stroke="#35495D" stroke-linecap="round" stroke-linejoin="round"/>
</svg>
