<svg width="56" height="56" viewBox="0 0 56 56" fill="none" xmlns="http://www.w3.org/2000/svg">
<path d="M27.6596 3.50106C28.4632 3.50106 29.2544 3.5532 29.9904 3.67587C30.7156 3.76928 31.431 3.92734 32.128 4.14816C32.8232 4.35671 33.5122 4.62557 34.1951 4.95474C34.8606 5.27063 35.5445 5.65705 36.2284 6.07721C37.3846 6.81325 38.5224 7.40822 39.6817 7.88358C41.9633 8.79885 44.3768 9.34244 46.8305 9.49367C48.0715 9.58568 49.3565 9.6327 50.6855 9.63475V21.9021C50.6855 24.2309 50.388 26.4451 49.793 28.5449C49.2214 30.6187 48.4093 32.6186 47.3733 34.5038C46.3418 36.3864 45.121 38.159 43.7299 39.7941C42.3184 41.4671 40.7893 43.0372 39.1542 44.4925C37.4961 45.9502 35.752 47.3072 33.9313 48.556C32.1076 49.8237 30.2736 50.9921 28.4294 52.0614L27.6934 52.5L26.9573 52.0614C25.0656 50.9665 23.2179 49.7971 21.4186 48.556C19.5882 47.3206 17.8433 45.963 16.1958 44.4925C14.5618 43.0371 13.0337 41.467 11.6231 39.7941C10.2368 38.1513 9.01059 36.3798 7.96132 34.5038C6.94393 32.6097 6.1327 30.612 5.54158 28.5449C4.9468 26.3812 4.65168 24.1461 4.66446 21.9021V9.63475C5.99343 9.6327 7.27945 9.58568 8.52255 9.49367C9.74844 9.41034 10.9663 9.23504 12.166 8.96924C13.3406 8.70549 14.5152 8.35587 15.6714 7.88358C16.8708 7.39873 18.021 6.8 19.1062 6.09561C20.4556 5.21849 21.8234 4.57139 23.1729 4.1451C24.6262 3.70007 26.1398 3.48281 27.6596 3.50106ZM47.6003 12.6495C45.2788 12.5358 42.9791 12.1477 40.7489 11.4933C38.5314 10.83 36.4189 9.85638 34.4742 8.60122C33.4652 7.94064 32.3703 7.4216 31.2202 7.0586C30.0707 6.71192 28.8756 6.5403 27.675 6.5495C26.4654 6.54213 25.2615 6.71368 24.1021 7.0586C22.9507 7.41078 21.8574 7.93056 20.8574 8.60122C18.9086 9.86197 16.7908 10.8398 14.5673 11.5055C12.3939 12.1373 10.1153 12.5237 7.7313 12.6648V21.9174C7.7313 23.9477 7.99505 25.8982 8.52255 27.769C9.06041 29.6264 9.8009 31.419 10.7307 33.1145C11.672 34.8275 12.7815 36.4425 14.0429 37.9356C15.3217 39.4414 16.6865 40.8429 18.1586 42.1739C19.6307 43.5049 21.1733 44.7378 22.7864 45.8726C24.4159 47.0093 26.0455 48.049 27.675 48.9915C29.3432 48.022 30.9691 46.9814 32.5482 45.8726C34.1739 44.7409 35.7249 43.5055 37.1914 42.1739C38.6635 40.8429 40.0313 39.4414 41.3102 37.9356C42.5715 36.4425 43.6811 34.8275 44.6223 33.1145C45.5474 31.4208 46.2769 29.6275 46.7967 27.769C47.3408 25.8665 47.6114 23.8962 47.6003 21.9174V12.6495Z" fill="#26599B"/>
<path fill-rule="evenodd" clip-rule="evenodd" d="M39.2395 18.6359L37.9173 17.5L36.6973 17.6052L23.5952 33.0752L19.1327 26.7045L17.9307 26.5001L16.5394 27.4948L16.332 28.6968L22.0687 36.8886L22.7208 37.2492L24.0941 37.3333L24.7973 37.0268L39.3267 19.853L39.2395 18.6359Z" fill="#26599B"/>
</svg>
