<svg width="50" height="50" viewBox="0 0 50 50" fill="none" xmlns="http://www.w3.org/2000/svg">
<path d="M14.8898 1.20892C14.075 1.63721 13.7721 2.37889 13.7617 3.89358V4.76061H13.4692C12.9991 4.76061 12.2574 5.30381 11.9963 5.82611C11.7769 6.28574 11.7769 6.30664 11.7769 15.1545C11.7769 23.9711 11.7769 24.0233 11.9963 24.4829C12.2365 24.9739 12.7797 25.4022 13.3229 25.5066C13.6676 25.5798 13.6781 25.5902 13.8139 26.4259C14.0019 27.5541 14.9839 28.6405 16.1329 28.9956C16.509 29.1106 16.9895 29.2046 17.1984 29.2046C17.7207 29.2046 18.6087 28.933 19.0892 28.63C19.9458 28.0868 20.6561 26.8855 20.6561 25.9767C20.6561 25.5902 20.6666 25.5693 21.074 25.5066C21.5649 25.4335 22.2857 24.8276 22.5051 24.3262C22.5991 24.0755 22.6409 23.3861 22.6409 21.7042V19.4061L23.6124 19.3643C24.2391 19.333 24.6883 19.2598 24.9077 19.1449C25.1897 18.9987 25.5762 18.9674 27.3207 18.9674C28.9399 18.9674 29.4309 18.9987 29.598 19.1136C29.786 19.2598 29.7965 19.4792 29.8174 27.5019L29.8383 35.7334L29.3368 36.1513C27.9788 37.3108 26.9656 39.0553 26.7358 40.6744L26.6626 41.1654L24.2809 41.1967L21.9096 41.2176V39.5985V37.9793H22.4215C23.0796 37.9793 23.4766 37.6868 23.4766 37.2063C23.4766 36.9869 23.393 36.7885 23.2363 36.6422L22.996 36.4124H16.2269C10.4084 36.4124 9.42651 36.3915 9.16536 36.2557C8.55948 35.9423 8.46547 35.2633 8.94599 34.7201L9.24893 34.3754L18.0446 34.3232C26.6 34.2709 26.8402 34.2605 26.9865 34.0725C27.1954 33.78 27.164 33.3517 26.9342 33.0592L26.7358 32.8085L18.1804 32.7771C12.2992 32.7563 9.4683 32.7876 9.08179 32.8712C7.61933 33.1741 6.7523 34.7201 7.20148 36.2139C7.46264 37.1018 8.60127 37.9793 9.51008 37.9793H9.89659V39.588V41.1967L7.92227 41.2385L5.94795 41.2699L5.13315 41.6877C4.1721 42.1787 3.57667 42.8368 3.21106 43.7978C2.87678 44.6753 2.94991 46.0437 3.3573 46.8376C3.75426 47.6211 4.34969 48.227 5.11226 48.6448L5.77036 49H24.6256H43.4809L44.139 48.6448C44.8911 48.2374 45.4866 47.6211 45.9044 46.8376C46.1656 46.3362 46.1969 46.19 46.1969 45.1872C46.1969 44.2157 46.1656 44.0172 45.9149 43.4949C45.3508 42.2831 44.045 41.3848 42.6766 41.249L41.9871 41.1863L41.9349 40.6849C41.7677 39.2851 40.8485 37.6033 39.6158 36.4229L38.8324 35.6812V26.3005C38.8324 17.2646 38.8219 16.8781 38.6235 16.0842C38.0907 13.9846 36.7014 12.2609 34.8002 11.3312C33.4317 10.6731 32.993 10.6104 28.9503 10.6104C25.618 10.6104 25.3569 10.6 24.9181 10.4015C24.6361 10.2762 24.0824 10.1717 23.5497 10.1299L22.6513 10.0568L22.62 8.05114C22.5886 6.06638 22.5886 6.04548 22.3066 5.63808C21.9723 5.16801 21.4918 4.85463 20.9695 4.76061L20.6039 4.70838L20.5516 3.50707C20.489 1.99238 20.3009 1.60588 19.4339 1.16714C19.1623 1.03134 18.7549 1 17.188 1C15.4957 1.01044 15.2346 1.03134 14.8898 1.20892ZM18.8594 2.69228C18.9429 2.77584 18.9847 3.16235 18.9847 3.73689V4.65615H17.2089H15.433V3.68466C15.433 3.14146 15.4644 2.67138 15.5062 2.64005C15.6315 2.50425 18.7236 2.55648 18.8594 2.69228ZM20.9486 6.45288C21.1262 6.63047 21.1262 23.6786 20.9486 23.8561C20.771 24.0337 13.6468 24.0337 13.4692 23.8561C13.3752 23.7621 13.3438 22.5086 13.3438 18.842V13.9532H15.1092C16.7284 13.9532 16.8851 13.9323 17.1462 13.7338C17.4909 13.4622 17.5118 12.9713 17.188 12.6266C16.9686 12.3967 16.9059 12.3863 15.151 12.3863H13.3438V11.5506V10.7149H15.1719C16.8642 10.7149 17.0209 10.694 17.2089 10.506C17.5223 10.1926 17.4909 9.63895 17.1462 9.36736C16.8851 9.16888 16.7284 9.14799 15.1092 9.14799H13.3438V7.86311C13.3438 7.00653 13.3856 6.53645 13.4692 6.45288C13.6468 6.2753 20.771 6.2753 20.9486 6.45288ZM24.4898 11.9789C25.1375 12.3863 25.2002 12.6266 25.2002 14.8098C25.2002 16.6274 25.1897 16.7737 24.9808 17.0557C24.563 17.6198 24.1451 17.8183 23.3617 17.8183H22.6409V14.7889V11.7595H23.3825C23.9571 11.7595 24.2078 11.8118 24.4898 11.9789ZM32.9721 12.3341C34.5181 12.6997 35.9806 13.8801 36.67 15.3112C36.8685 15.7395 37.0879 16.3767 37.1506 16.711C37.2237 17.1288 37.2655 20.294 37.2655 26.1021C37.2655 34.4067 37.255 34.8664 37.0879 34.7933C36.9834 34.7515 36.5238 34.6157 36.0642 34.5112C34.7584 34.1874 32.805 34.3127 31.6037 34.7933C31.4261 34.8664 31.4156 34.5112 31.4156 28.2226V21.5789H32.5125H33.6093V26.1543C33.6093 31.3147 33.5884 31.1893 34.3405 31.1893C34.6539 31.1893 34.7897 31.1267 34.9673 30.9073C35.1762 30.6357 35.1867 30.573 35.1553 25.5171L35.124 20.4089L34.8733 20.2104C34.6539 20.0329 34.445 20.012 33.0243 20.012H31.4156V19.6881C31.4156 18.8211 30.862 17.9332 30.1203 17.5989C29.7651 17.4422 29.4204 17.4004 28.1564 17.4004H26.6208L26.694 17.0557C26.7358 16.8781 26.7671 15.8544 26.7671 14.7889C26.7671 13.7234 26.7358 12.6997 26.694 12.5116L26.6208 12.1774H29.4622C31.6245 12.1774 32.4602 12.2192 32.9721 12.3341ZM19.0892 25.8827C19.0892 26.3423 18.64 27.0527 18.1804 27.3347C17.5954 27.7003 16.7597 27.6794 16.1852 27.2929C15.7046 26.9795 15.3286 26.3528 15.3286 25.8618V25.5484H17.2089H19.0892V25.8827ZM35.615 36.005C35.9179 36.0677 36.5656 36.3079 37.0565 36.5482C38.5399 37.2794 39.6472 38.5434 40.1799 40.1417C40.5873 41.343 41.2872 41.2176 34.3405 41.2176C27.4565 41.2176 28.1355 41.3221 28.4489 40.267C29.0339 38.2927 30.862 36.5378 32.8363 36.0572C33.5884 35.8797 34.8733 35.8483 35.615 36.005ZM20.3427 39.5985V41.2176H15.9031H11.4635V39.5985V37.9793H15.9031H20.3427V39.5985ZM42.9586 42.8995C43.5749 43.0561 44.3062 43.7038 44.5255 44.2992C44.9329 45.3439 44.5464 46.5243 43.6167 47.1406L43.178 47.4331H24.6256H6.0733L5.63456 47.1406C4.70486 46.5243 4.31835 45.3439 4.72575 44.2992C4.93467 43.7351 5.6659 43.0561 6.21955 42.9099C6.79408 42.7532 42.3527 42.7428 42.9586 42.8995Z" fill="#35495D"/>
</svg>
