<svg width="50" height="50" viewBox="0 0 50 50" fill="none" xmlns="http://www.w3.org/2000/svg">
<path d="M42.2341 1.20993C42.0878 1.37456 42.0146 1.61237 41.9506 2.16115C41.7677 3.82578 40.8622 5.14285 39.4354 5.84712C38.8866 6.12151 37.8439 6.3959 37.3226 6.3959C36.7555 6.3959 36.4354 7.12761 36.8104 7.58493C36.9384 7.74041 37.1213 7.80444 37.6884 7.86846C38.9415 8.00566 39.6457 8.32578 40.5146 9.1398C41.3378 9.9081 41.9506 11.152 41.9506 12.0666C41.9506 12.5148 42.1152 12.963 42.3165 13.0727C42.5908 13.2191 43.039 13.1733 43.2219 12.9904C43.3408 12.8715 43.4232 12.6246 43.4506 12.277C43.6244 10.6672 44.2372 9.5331 45.3805 8.73737C46.1396 8.19773 46.7433 7.96907 47.6305 7.86846C48.289 7.79529 48.4262 7.74956 48.6 7.5392C48.8561 7.24651 48.8652 6.95383 48.6274 6.652C48.4811 6.45993 48.3256 6.40505 47.6854 6.32273C46.7067 6.19468 46.0207 5.93859 45.3347 5.42639C44.2921 4.6581 43.6793 3.56968 43.4963 2.152C43.4232 1.63066 43.3408 1.34712 43.2037 1.20078C42.9476 0.92639 42.4994 0.935536 42.2341 1.20993ZM42.9658 4.99651C43.2768 5.49956 44.2006 6.44163 44.7128 6.7709C44.9506 6.92639 45.1518 7.06359 45.1518 7.08188C45.1518 7.09102 44.978 7.21907 44.7677 7.35627C44.1915 7.74041 43.4689 8.44468 43.0756 9.0209L42.728 9.52395L42.5908 9.31359C42.2067 8.72822 41.4933 7.97822 40.9354 7.56663C40.5878 7.31054 40.3043 7.09102 40.3043 7.08188C40.3043 7.06359 40.4597 6.95383 40.6518 6.84407C41.1457 6.5331 42.0878 5.60932 42.4171 5.09712C42.5726 4.85932 42.7097 4.6581 42.728 4.6581C42.7463 4.6581 42.8561 4.81359 42.9658 4.99651Z" fill="#35495D"/>
<path d="M27.1337 6.89881L26.5446 5.57331C25.4109 6.08091 24.4535 6.48722 24.4081 6.48722C24.3947 6.48722 24.2979 6.44975 24.1375 6.38348C24.2165 6.55116 24.2772 6.74066 24.3076 6.95162C24.3834 7.47619 24.2383 7.90094 24.1074 8.15765C24.0962 8.17956 24.0848 8.20096 24.0731 8.22186C24.1799 8.17841 24.2913 8.1325 24.4081 8.08384C25.0897 7.79994 25.9539 7.42276 27.1337 6.89881ZM27.1337 6.89881L26.545 5.57314C26.5522 5.56992 26.5594 5.56668 26.5666 5.56344M27.1337 6.89881C27.1409 6.89564 27.148 6.89247 27.1551 6.88931L26.5666 5.56344M26.5666 5.56344C29.2632 4.36668 30.9979 3.67451 32.4172 3.2961C32.4197 3.29544 32.4221 3.29478 32.4246 3.29412C33.5727 2.98867 34.5149 2.88862 35.5941 2.89271M26.5666 5.56344L27.1597 6.88726C30.1057 5.57841 31.5641 5.01375 32.777 4.70369C33.8318 4.43998 34.7437 4.31313 35.5828 4.31612L35.5941 2.89271M35.5941 2.89271C36.0677 2.89647 36.5382 2.92958 36.9542 2.98442C36.6939 3.23481 36.5781 3.55564 36.5587 3.81275C36.5457 3.98324 36.5705 4.19009 36.6541 4.39488C36.309 4.34416 35.9558 4.31772 35.5887 4.31615L35.5941 2.89271ZM15.5727 3.09393L15.2768 4.52905C16.1074 4.69338 16.9909 4.95374 17.9416 5.30734C18.2899 5.43713 18.9032 5.69074 19.563 5.97259C19.6493 5.95872 19.7262 5.94532 19.7893 5.93297L19.8049 5.92993L19.8205 5.92714C20.2113 5.85709 20.6921 5.73461 21.0537 5.62181C21.1407 5.59468 21.2134 5.57037 21.2704 5.55004C21.2986 5.53997 21.3206 5.53169 21.337 5.52532C21.3429 5.523 21.3476 5.52111 21.3512 5.51966C21.3577 5.51703 21.3603 5.51586 21.3596 5.51617L21.3469 5.52208C21.3396 5.52557 21.327 5.53171 21.3103 5.54052C21.2867 5.55302 21.2097 5.59431 21.1128 5.6657L21.1085 5.66883C21.0533 5.70914 20.7547 5.92746 20.5443 6.33982C20.5365 6.35506 20.5287 6.37094 20.5208 6.38743C20.8973 6.55266 21.2543 6.71204 21.55 6.84733C21.5503 6.84747 21.5506 6.84761 21.5509 6.84774C21.6203 6.87947 21.6863 6.90987 21.7483 6.93871C22.1 6.83279 22.4609 6.70884 22.9501 6.51704C22.9599 6.5132 22.9698 6.50933 22.9797 6.50543C23.1965 6.4201 23.4385 6.32152 23.7157 6.20549C23.6132 6.16167 23.5017 6.11368 23.3826 6.06219C23.3751 6.05895 23.3676 6.0557 23.3601 6.05243C23.0046 5.89859 22.5842 5.71444 22.1398 5.51771C20.5649 4.81911 19.3972 4.32415 18.4434 3.96106C18.4431 3.96093 18.4428 3.96082 18.4425 3.96069C17.2864 3.52063 16.4447 3.27433 15.5727 3.09393ZM15.5727 3.09393L15.2759 4.52885C14.2523 4.32642 13.3091 4.26987 12.4195 4.36445L12.2252 2.88356M15.5727 3.09393C14.6855 2.911 12.8837 2.80125 12.2252 2.88356M12.2252 2.88356L12.4104 4.36543C10.9869 4.5185 9.70047 5.05895 8.44119 6.00836C8.43539 6.01274 8.42958 6.01713 8.42377 6.02152C7.94157 6.38658 7.46328 6.81165 6.98272 7.29792C6.98231 7.29834 6.98189 7.29876 6.98147 7.29918C6.92149 7.35989 6.86147 7.42155 6.8014 7.48417M12.2252 2.88356C10.7618 3.07564 8.86847 3.87137 7.56969 4.84088C7.13982 5.15186 6.40811 5.80125 5.94165 6.27686C5.87696 6.34265 5.81307 6.40864 5.74999 6.47482L6.8014 7.48417M6.8014 7.48417C5.70384 8.62746 5.10018 9.46893 4.53311 10.6488M6.8014 7.48417L5.74959 6.47523C4.67932 7.59807 3.83961 8.77656 3.22862 10.0199L4.53311 10.6488M4.53311 10.6488C3.4264 12.9445 3.22518 15.7708 3.95689 18.8348M4.53311 10.6488L3.22786 10.0215C1.89527 12.7343 1.6513 15.756 2.47677 19.1825L3.95689 18.8348M3.95689 18.8348C4.01436 19.0794 4.07563 19.3228 4.14086 19.5654C4.14117 19.5666 4.14149 19.5678 4.14181 19.5689C4.75779 21.8583 5.72705 24.0746 7.19023 26.523L5.94174 27.2219L7.19106 26.5244C7.49654 27.0355 7.82354 27.5567 8.17335 28.0909C8.66577 28.8425 8.76652 29.1126 8.94574 30.4736L7.50567 30.6336M3.95689 18.8348L2.47807 19.1879C2.54103 19.449 2.61019 19.7123 2.68555 19.9781C3.22518 21.8988 4.32274 24.3226 5.94165 27.222C6.35929 27.968 6.66174 28.5153 6.88241 28.9363C6.88246 28.9364 6.88251 28.9365 6.88255 28.9366C7.3625 29.8522 7.45555 30.1699 7.50567 30.6336M7.50567 30.6336L8.9463 30.4778C8.95665 30.5565 8.96726 30.6388 8.97823 30.725C9.08198 31.5374 9.19429 32.335 9.31411 33.1144L7.88982 33.3317M7.50567 30.6336C7.51258 30.6958 7.52439 30.7893 7.54016 30.9079C7.5402 30.9082 7.54023 30.9084 7.54026 30.9087C7.60805 31.4183 7.74893 32.39 7.88982 33.3317M7.88982 33.3317L9.31476 33.1186C10.1246 38.3845 11.2769 42.8146 12.4411 45.3198L11.1734 45.9537M7.88982 33.3317C8.76787 39.0848 9.87457 43.347 11.1734 45.9537M11.1734 45.9537L12.442 45.3216C12.9882 46.4967 13.5371 47.2479 14.0545 47.4628M11.1734 45.9537C11.9327 47.4724 12.6656 48.3973 13.5031 48.786L14.0545 47.4628M14.0545 47.4628C14.4972 47.6473 15.1674 47.4886 15.8759 47.0674L16.588 48.3317M14.0545 47.4628L13.5046 48.7866C14.3716 49.1882 15.3509 49.0154 16.588 48.3317M16.588 48.3317L15.886 47.0614C16.2281 46.8569 16.5789 46.5914 16.9173 46.2738M16.588 48.3317C16.938 48.1346 17.4083 47.7535 17.8806 47.3043L16.9173 46.2738M16.9173 46.2738C17.3979 45.8245 17.837 45.2989 18.2321 44.7033L19.4508 45.4964M16.9173 46.2738L17.8826 47.3024C18.4835 46.7307 19.0874 46.0491 19.4508 45.4964M19.4508 45.4964L18.2359 44.6977C19.5681 42.6871 20.4001 39.8817 20.6398 36.533C20.6682 36.1303 20.6945 35.7826 20.7203 35.4793C20.7205 35.477 20.7207 35.4748 20.7209 35.4726C20.8361 34.1206 20.9423 33.6529 21.1886 33.1305C21.1981 33.1101 21.2079 33.0897 21.2179 33.0692L22.524 33.7067M19.4508 45.4964C20.9317 43.2207 21.785 40.3939 22.1087 36.6381C22.1088 36.6376 22.1088 36.6371 22.1089 36.6366C22.139 36.287 22.1645 35.9294 22.1855 35.5634C22.2564 34.4208 22.293 34.1874 22.5029 33.7501C22.504 33.7479 22.5051 33.7456 22.5062 33.7433C22.512 33.7313 22.5179 33.7191 22.524 33.7067M22.524 33.7067L21.219 33.067C21.5953 32.3019 22.3357 31.5458 23.1368 31.1275C23.7026 30.8263 23.8769 30.7801 24.3956 30.7799C24.3967 30.7799 24.3978 30.7799 24.399 30.7799C24.4051 30.7799 24.4112 30.7799 24.4173 30.7799C24.9072 30.7813 25.1184 30.8377 25.6063 31.0726M22.524 33.7067C22.7826 33.1769 23.3021 32.6602 23.7947 32.3874C23.798 32.3856 23.8013 32.3838 23.8045 32.382C24.0155 32.2665 24.2212 32.196 24.399 32.1889C24.4051 32.1887 24.4112 32.1885 24.4173 32.1884C24.5352 32.1884 24.7378 32.2662 24.9579 32.3847L25.6063 31.0726M25.6063 31.0726C26.0248 31.2794 26.4513 31.6081 26.8144 31.9861L25.7709 32.9842M25.6063 31.0726L24.9711 32.3918C25.2595 32.5486 25.5758 32.7736 25.7709 32.9842M25.7709 32.9842L26.8301 32.0025C27.1347 32.3223 27.3934 32.6762 27.5636 33.0208C27.8399 33.5808 27.9577 34.0677 28.0663 35.2928C28.0664 35.2945 28.0666 35.2962 28.0667 35.298C28.091 35.5721 28.1148 35.8832 28.1398 36.2403M25.7709 32.9842C25.9967 33.2202 26.1573 33.423 26.2745 33.6567L27.5629 33.0211L26.2749 33.6574C26.4709 34.0482 26.546 34.5257 26.6032 35.3897C26.6236 35.714 26.6466 36.03 26.6725 36.3383L28.1398 36.2403M28.1398 36.2403C28.3234 38.9877 28.8788 41.3595 29.7688 43.2588L28.4599 43.8775M28.1398 36.2403L26.6729 36.3431C26.9386 39.5017 27.5021 41.8451 28.4599 43.8775M28.4599 43.8775L29.7694 43.2603C30.2541 44.2942 30.8379 45.188 31.5148 45.9262M28.4599 43.8775C29.0049 45.0304 29.6962 46.0526 30.4728 46.8805L31.5148 45.9262M31.5148 45.9262C32.0893 46.5535 32.9307 47.1236 33.6192 47.3922L33.0788 48.7525M31.5148 45.9262L30.4734 46.8812C31.2737 47.7343 32.1645 48.3812 33.0788 48.7525M33.0788 48.7525L33.6296 47.3962C33.8907 47.4971 34.1295 47.5543 34.3227 47.5543C34.4251 47.5543 34.528 47.5364 34.6314 47.5009C34.6369 47.499 34.6424 47.4971 34.6479 47.4951C36.4594 46.8406 38.3899 40.8059 39.7099 31.5482M33.0788 48.7525C33.4314 48.8925 33.8936 48.9663 34.3227 48.9683C34.7063 48.9702 35.0635 48.9148 35.2923 48.7982C37.7319 47.5919 39.8171 41.5212 41.1554 31.7547L39.7099 31.5482M39.7099 31.5482C39.7319 31.3945 39.7542 31.242 39.7767 31.0923L41.2191 31.283M39.7099 31.5482L41.1555 31.7543C41.1769 31.5981 41.1981 31.441 41.2191 31.283M41.2191 31.283L39.7769 31.0912C39.9415 29.9942 40.112 29.0486 40.1764 28.8958C40.2496 28.722 40.5971 28.1458 40.9355 27.6153M41.2191 31.283C41.2864 30.7737 41.3228 30.449 41.4017 30.1349C41.4519 29.9353 41.5192 29.7401 41.6225 29.5046C41.745 29.2252 41.9183 28.8891 42.1736 28.4218L40.9355 27.6153M40.9355 27.6153C41.3019 27.0529 41.647 26.4895 41.9703 25.9273C41.9706 25.9268 41.9708 25.9263 41.9711 25.9258C44.0949 22.2311 45.2735 18.584 45.3109 15.5803L46.7343 15.5878M40.9355 27.6153L42.1804 28.4094C42.4289 27.9552 42.7544 27.3775 43.1855 26.6092C45.7282 22.0909 46.7069 19.0269 46.7343 15.5878M46.7343 15.5878L45.3109 15.5765C45.3162 15.1359 45.297 14.7092 45.2526 14.2982C45.2423 14.2093 45.2316 14.1191 45.221 14.0294C45.4048 14.1182 45.6153 14.1675 45.8375 14.1619C46.1806 14.1531 46.4655 14.0166 46.6602 13.8416C46.6639 13.8383 46.6676 13.8349 46.6713 13.8315C46.6713 13.8318 46.6714 13.8322 46.6714 13.8325C46.6712 13.8327 46.6709 13.833 46.6707 13.8332M46.7343 15.5878C46.7372 15.0492 46.7242 14.5642 46.6959 14.1423C46.6957 14.1381 46.6954 14.134 46.6951 14.1299C46.6881 14.027 46.6802 13.9278 46.6714 13.8326L46.6707 13.8332M46.6707 13.8332C46.6575 13.8468 46.6531 13.85 46.661 13.8425L46.6707 13.8332ZM18.9863 9.51628C19.2371 9.08651 19.2292 8.51321 18.8938 8.0798C19.0229 8.06524 19.1565 8.04907 19.2888 8.03197C19.4088 8.08403 19.5292 8.1365 19.6487 8.18885C19.8677 8.28477 20.0794 8.37839 20.2756 8.46614L20.4255 9.30272C19.9324 9.39307 19.434 9.46748 18.9863 9.51628ZM20.2858 8.47073L20.4478 9.29862C21.0522 9.18726 21.6474 9.05213 22.1307 8.911C22.6163 8.77109 23.0815 8.61451 23.7146 8.36547C23.6857 8.35538 23.6611 8.34624 23.6436 8.33966C23.5824 8.3167 23.5136 8.28915 23.4473 8.26212C23.3107 8.20638 23.1289 8.1298 22.9195 8.04022C22.6516 7.92561 22.3263 7.78452 21.9697 7.62823L21.8124 7.80646L21.8092 7.81012L20.9995 8.72776C21.1169 8.83131 21.2191 8.89495 21.2352 8.90495L21.2367 8.90587C21.2669 8.92486 21.2871 8.93603 21.2891 8.93713L21.2892 8.93719C21.2929 8.93923 21.2787 8.93137 21.2375 8.91082C21.1584 8.87131 21.0364 8.81304 20.8735 8.73762C20.7048 8.65944 20.5051 8.56881 20.2858 8.47073ZM37.341 4.5299C37.379 4.53993 37.4147 4.54916 37.4484 4.55763C37.4529 4.55876 37.4573 4.55988 37.4618 4.56099C37.8477 4.65709 37.9642 4.64821 38.1642 4.5482C38.6398 4.32869 38.6947 3.61527 38.2557 3.33173L37.341 4.5299Z" fill="#35495D" stroke="#35495D" stroke-width="4"/>
<path d="M14.9653 12.0025C14.6726 12.1488 14.508 12.4781 14.508 12.9354C14.508 14.2525 13.6208 15.7525 12.3769 16.5574C11.7184 16.9872 11.1696 17.1702 10.2641 17.2708C9.42264 17.3714 9.20312 17.5177 9.20312 18.0116C9.20312 18.4232 9.50495 18.7433 9.89825 18.7433C10.9867 18.7433 12.3312 19.3104 13.1178 20.097C13.9409 20.9202 14.508 22.1732 14.508 23.161C14.508 23.5269 14.5537 23.6458 14.7732 23.8744C15.0842 24.1763 15.4043 24.2129 15.697 23.975C15.8617 23.847 15.9257 23.6366 16.0263 22.9507C16.3647 20.6549 17.883 19.1366 20.1787 18.7982C20.8647 18.6976 21.0751 18.6336 21.2031 18.4689C21.4409 18.1763 21.4043 17.8561 21.1025 17.5452C20.8739 17.3257 20.755 17.2799 20.3891 17.2799C18.944 17.2799 17.2336 16.1732 16.5385 14.8013C16.255 14.2342 15.9806 13.2007 15.9714 12.6885C15.9714 12.3226 15.88 12.1671 15.5964 12.0208C15.2854 11.8561 15.258 11.8561 14.9653 12.0025ZM16.2275 16.8409C16.4653 17.097 16.8952 17.4629 17.1879 17.6641L17.7184 18.0299L17.2793 18.3135C16.7031 18.6885 15.9989 19.4019 15.5873 20.0147L15.258 20.4994L15.0019 20.1061C14.6452 19.5391 13.8312 18.7068 13.3098 18.3683C13.0629 18.2129 12.8617 18.0574 12.8617 18.0208C12.8617 17.9933 13.0537 17.847 13.2915 17.6915C13.8495 17.3439 14.5812 16.6031 14.9653 16.0177L15.2671 15.5513L15.5324 15.9629C15.6696 16.1915 15.9897 16.5848 16.2275 16.8409Z" fill="#35495D"/>
<path d="M32.3426 18.4507C32.178 18.5787 32.1139 18.7891 32.0133 19.4751C31.6658 21.8074 30.1109 23.3348 27.8243 23.5909C27.2024 23.6641 27.0469 23.7098 26.8822 23.911C26.7633 24.0391 26.6719 24.2495 26.6719 24.3684C26.6719 24.4873 26.7633 24.6976 26.8822 24.8257C27.0469 25.0269 27.2024 25.0726 27.8243 25.1458C30.1018 25.4019 31.6658 26.9293 32.0133 29.2434C32.1505 30.2037 32.306 30.4507 32.7542 30.4507C33.2664 30.4507 33.4493 30.2129 33.5316 29.4446C33.6414 28.5025 33.8335 27.9263 34.245 27.286C35.0865 26.0056 36.2024 25.3287 37.7847 25.1458C38.6353 25.0452 38.8731 24.8714 38.8731 24.3684C38.8731 23.8653 38.6353 23.6915 37.7847 23.5909C36.2024 23.408 35.0865 22.7312 34.245 21.4507C33.8335 20.8104 33.6414 20.2342 33.5316 19.2921C33.4768 18.7617 33.4127 18.5787 33.2572 18.4507C33.0011 18.2403 32.5987 18.2403 32.3426 18.4507ZM33.0469 22.3013C33.3487 22.8318 34.0896 23.5909 34.7024 24.0025L35.242 24.3592L34.62 24.7982C34.0164 25.219 33.1566 26.1428 32.9554 26.5818C32.8365 26.8562 32.7816 26.847 32.5896 26.5269C32.2054 25.8775 31.1719 24.8623 30.4676 24.4507C30.3213 24.3684 30.3487 24.3318 30.7329 24.1031C31.2725 23.783 32.1139 22.9598 32.4798 22.3836C32.6353 22.1367 32.7725 21.9446 32.7999 21.9446C32.8274 21.9446 32.9371 22.1092 33.0469 22.3013Z" fill="#35495D"/>
</svg>
