<svg width="50" height="50" viewBox="0 0 50 50" fill="none" xmlns="http://www.w3.org/2000/svg">
<path opacity="0.995" fill-rule="evenodd" clip-rule="evenodd" d="M11.8087 2.00766C15.0082 1.98767 18.2078 2.00766 21.4073 2.05766C21.4973 2.09765 21.5873 2.14764 21.6573 2.20763C21.8072 2.52759 21.8372 2.85754 21.7573 3.20749C21.7073 3.38746 21.5873 3.50745 21.4073 3.55744C18.6077 3.60743 15.8081 3.62743 13.0085 3.60743C13.0085 4.13736 13.0085 4.67728 13.0085 5.2072C21.0074 5.2072 29.0062 5.2072 37.005 5.2072C37.005 4.67728 37.005 4.13736 37.005 3.60743C32.6057 3.62743 28.2063 3.60743 23.807 3.55744C23.507 3.40746 23.377 3.1575 23.407 2.80755C23.377 2.4576 23.507 2.20763 23.807 2.05766C28.6063 1.98767 33.4056 1.98767 38.2049 2.05766C38.3848 2.10765 38.5048 2.22763 38.5548 2.40761C38.6248 3.73741 38.6248 5.07722 38.5548 6.40703C38.5048 6.587 38.3848 6.70698 38.2049 6.75698C37.8049 6.80697 37.405 6.82697 37.005 6.80697C37.025 9.60656 37.005 12.4062 36.9551 15.2058C36.8051 15.5057 36.5551 15.6357 36.2052 15.6057C35.8552 15.6357 35.6053 15.5057 35.4553 15.2058C35.4053 12.4062 35.3853 9.60656 35.4053 6.80697C28.4763 6.80697 21.5373 6.80697 14.6083 6.80697C14.6283 15.2058 14.6083 23.6045 14.5583 32.0033C14.4083 32.3033 14.1584 32.4333 13.8084 32.4033C13.4585 32.4333 13.2085 32.3033 13.0585 32.0033C13.0085 23.6045 12.9885 15.2058 13.0085 6.80697C12.6086 6.82697 12.2086 6.80697 11.8087 6.75698C11.6287 6.70698 11.5087 6.587 11.4587 6.40703C11.3888 5.07722 11.3888 3.73741 11.4587 2.40761C11.5287 2.21763 11.6487 2.08765 11.8087 2.00766Z" fill="#35495D"/>
<path opacity="0.977" fill-rule="evenodd" clip-rule="evenodd" d="M23.6029 8.40708C24.5328 8.38708 25.4726 8.40708 26.4025 8.45707C26.8524 8.63704 27.1724 8.957 27.3523 9.40693C27.4023 10.1368 27.4223 10.8767 27.4023 11.6066C28.1322 11.5866 28.8721 11.6066 29.602 11.6566C30.5419 12.1565 30.8718 12.9464 30.6019 14.0063C30.8718 15.0661 30.5419 15.856 29.602 16.3559C28.8721 16.4059 28.1322 16.4259 27.4023 16.4059C27.4223 17.1358 27.4023 17.8757 27.3523 18.6056C26.8524 19.5455 26.0625 19.8754 25.0027 19.6055C23.9428 19.8754 23.153 19.5455 22.653 18.6056C22.603 17.8757 22.583 17.1358 22.603 16.4059C21.8731 16.4259 21.1332 16.4059 20.4034 16.3559C19.4635 15.856 19.1335 15.0661 19.4035 14.0063C19.1335 12.9464 19.4635 12.1565 20.4034 11.6566C21.1332 11.6066 21.8731 11.5866 22.603 11.6066C22.583 10.8767 22.603 10.1368 22.653 9.40693C22.853 8.947 23.173 8.61705 23.6029 8.40708ZM24.2028 10.0068C24.7327 10.0068 25.2726 10.0068 25.8026 10.0068C25.7626 11.0167 25.8126 12.0166 25.9526 13.0064C26.0325 13.0664 26.1125 13.1164 26.2025 13.1564C27.1324 13.2064 28.0722 13.2264 29.0021 13.2064C29.0021 13.7363 29.0021 14.2762 29.0021 14.8062C27.9923 14.7662 26.9924 14.8162 26.0025 14.9561C25.9426 15.0361 25.8926 15.1161 25.8526 15.2061C25.8026 16.136 25.7826 17.0758 25.8026 18.0057C25.2726 18.0057 24.7327 18.0057 24.2028 18.0057C24.2428 16.9958 24.1928 15.996 24.0528 15.0061C23.9728 14.9461 23.8928 14.8961 23.8029 14.8561C22.873 14.8062 21.9331 14.7862 21.0033 14.8062C21.0033 14.2762 21.0033 13.7363 21.0033 13.2064C22.0131 13.2464 23.013 13.1964 24.0028 13.0564C24.0628 12.9764 24.1128 12.8964 24.1528 12.8064C24.2028 11.8666 24.2228 10.9367 24.2028 10.0068Z" fill="#35495D"/>
<path opacity="0.988" fill-rule="evenodd" clip-rule="evenodd" d="M1.40244 10.0067C4.60198 9.98669 7.80152 10.0067 11.0011 10.0567C11.091 10.0967 11.181 10.1467 11.251 10.2067C11.401 10.5266 11.431 10.8566 11.351 11.2065C11.301 11.3865 11.181 11.5065 11.0011 11.5565C8.20146 11.6065 5.40186 11.6265 2.60227 11.6065C2.60227 12.1364 2.60227 12.6763 2.60227 13.2062C5.48185 13.1562 8.34144 13.2062 11.201 13.3562C11.391 13.6862 11.441 14.0361 11.351 14.4061C11.301 14.586 11.181 14.706 11.0011 14.756C8.73138 14.806 6.47171 14.826 4.20204 14.806C4.22203 16.0058 4.20204 17.2056 4.15204 18.4055C4.00207 18.7054 3.7521 18.8354 3.40215 18.8054C3.0522 18.8354 2.80224 18.7054 2.65226 18.4055C2.60227 17.2056 2.58227 16.0058 2.60227 14.806C2.20233 14.826 1.80238 14.806 1.40244 14.756C1.22247 14.706 1.10249 14.586 1.05249 14.4061C0.982503 13.0762 0.982503 11.7364 1.05249 10.4066C1.12248 10.2167 1.24246 10.0867 1.40244 10.0067Z" fill="#35495D"/>
<path opacity="0.991" fill-rule="evenodd" clip-rule="evenodd" d="M38.9979 10.0065C42.2774 9.95655 45.537 10.0065 48.7965 10.1565C48.8565 10.2365 48.9065 10.3165 48.9465 10.4065C49.0165 11.7363 49.0165 13.0761 48.9465 14.4059C48.8965 14.5859 48.7765 14.7059 48.5965 14.7559C48.1966 14.8058 47.7966 14.8258 47.3967 14.8058C47.4167 18.1354 47.3967 21.4749 47.3467 24.8044C47.1967 25.1044 46.9468 25.2343 46.5968 25.2043C46.2469 25.2343 45.9969 25.1044 45.8469 24.8044C45.7969 21.4749 45.7769 18.1354 45.7969 14.8058C43.5272 14.8258 41.2676 14.8058 38.9979 14.7559C38.8179 14.7059 38.6979 14.5859 38.648 14.4059C38.568 14.056 38.598 13.726 38.7479 13.406C38.8279 13.3461 38.9079 13.2961 38.9979 13.2561C41.7975 13.2061 44.5971 13.1861 47.3967 13.2061C47.3967 12.6762 47.3967 12.1362 47.3967 11.6063C44.5971 11.6263 41.7975 11.6063 38.9979 11.5563C38.6979 11.4063 38.568 11.1564 38.598 10.8064C38.578 10.4465 38.7079 10.1765 38.9979 10.0065Z" fill="#35495D"/>
<path opacity="0.994" fill-rule="evenodd" clip-rule="evenodd" d="M35.796 17.2054C36.066 17.1854 36.3359 17.2054 36.5959 17.2554C36.7759 17.3054 36.8958 17.4254 36.9458 17.6054C37.0158 27.7339 37.0158 37.8724 36.9458 48.001C36.8958 48.1809 36.7759 48.3009 36.5959 48.3509C35.526 48.4209 34.4662 48.4209 33.3963 48.3509C33.0964 48.2009 32.9664 47.951 32.9964 47.601C32.9664 47.2511 33.0964 47.0011 33.3963 46.8511C34.0662 46.8011 34.7261 46.7811 35.3961 46.8011C35.3761 37.0725 35.3961 27.334 35.446 17.6054C35.516 17.4154 35.636 17.2854 35.796 17.2054Z" fill="#35495D"/>
<path opacity="0.982" fill-rule="evenodd" clip-rule="evenodd" d="M7.00602 18.0052C8.33583 17.9852 9.67564 18.0052 11.0054 18.0552C11.0954 18.0952 11.1854 18.1452 11.2554 18.2052C11.4054 18.5251 11.4354 18.8551 11.3554 19.205C11.3054 19.385 11.1854 19.505 11.0054 19.555C10.0756 19.605 9.13572 19.625 8.20585 19.605C8.20585 20.6748 8.20585 21.7347 8.20585 22.8045C9.13572 22.7845 10.0756 22.8045 11.0054 22.8545C11.1854 22.9045 11.3054 23.0245 11.3554 23.2045C11.4254 23.4744 11.4254 23.7344 11.3554 24.0044C11.3054 24.1843 11.1854 24.3043 11.0054 24.3543C9.67564 24.4243 8.33583 24.4243 7.00602 24.3543C6.91604 24.3143 6.83605 24.2643 6.75606 24.2043C6.59608 22.2846 6.55609 20.3449 6.65607 18.4052C6.72606 18.2152 6.84605 18.0852 7.00602 18.0052Z" fill="#35495D"/>
<path opacity="0.982" fill-rule="evenodd" clip-rule="evenodd" d="M38.9962 18.0052C40.326 17.9852 41.6658 18.0052 42.9956 18.0552C43.0856 18.0952 43.1756 18.1452 43.2456 18.2052C43.3556 19.195 43.4056 20.1949 43.3956 21.2048C43.4056 22.2146 43.3556 23.2145 43.2456 24.2043C43.1656 24.2643 43.0856 24.3143 42.9956 24.3543C41.6658 24.4243 40.326 24.4243 38.9962 24.3543C38.8162 24.3043 38.6962 24.1843 38.6462 24.0044C38.5763 23.7344 38.5763 23.4744 38.6462 23.2045C38.6962 23.0245 38.8162 22.9045 38.9962 22.8545C39.9261 22.8045 40.8659 22.7845 41.7958 22.8045C41.7958 21.7347 41.7958 20.6748 41.7958 19.605C40.7859 19.645 39.7861 19.595 38.7962 19.455C38.6062 19.1251 38.5563 18.7751 38.6462 18.4052C38.7162 18.2152 38.8362 18.0852 38.9962 18.0052Z" fill="#35495D"/>
<path opacity="0.995" fill-rule="evenodd" clip-rule="evenodd" d="M3.01182 20.4051C3.28178 20.3851 3.55174 20.4051 3.8117 20.4551C3.99168 20.5051 4.11166 20.6251 4.16165 20.8051C4.21164 29.4738 4.23164 38.1326 4.21164 46.8013C6.48132 46.7813 8.74099 46.8013 11.0107 46.8513C11.3106 47.0013 11.4406 47.2512 11.4106 47.6012C11.4406 47.9511 11.3106 48.2011 11.0107 48.3511C8.34105 48.4211 5.68143 48.4211 3.01182 48.3511C2.83184 48.3011 2.71186 48.1811 2.66187 48.0011C2.59188 38.9324 2.59188 29.8738 2.66187 20.8051C2.73186 20.6151 2.85184 20.4851 3.01182 20.4051Z" fill="#35495D"/>
<path opacity="0.96" fill-rule="evenodd" clip-rule="evenodd" d="M17.4042 21.2049C18.474 21.1849 19.5338 21.2049 20.6037 21.2549C20.7837 21.3049 20.9036 21.4249 20.9536 21.6049C21.0236 21.8748 21.0236 22.1348 20.9536 22.4048C20.9036 22.5847 20.7837 22.7047 20.6037 22.7547C19.5338 22.8247 18.474 22.8247 17.4042 22.7547C17.1042 22.6047 16.9742 22.3548 17.0042 22.0048C16.9842 21.6449 17.1142 21.3749 17.4042 21.2049Z" fill="#35495D"/>
<path opacity="0.96" fill-rule="evenodd" clip-rule="evenodd" d="M23.4042 21.2049C24.474 21.1849 25.5338 21.2049 26.6037 21.2549C26.7837 21.3049 26.9036 21.4249 26.9536 21.6049C27.0236 21.8748 27.0236 22.1348 26.9536 22.4048C26.9036 22.5847 26.7837 22.7047 26.6037 22.7547C25.5338 22.8247 24.474 22.8247 23.4042 22.7547C23.1042 22.6047 22.9742 22.3548 23.0042 22.0048C22.9842 21.6449 23.1142 21.3749 23.4042 21.2049Z" fill="#35495D"/>
<path opacity="0.96" fill-rule="evenodd" clip-rule="evenodd" d="M29.4042 21.2049C30.474 21.1849 31.5338 21.2049 32.6037 21.2549C32.7837 21.3049 32.9036 21.4249 32.9536 21.6049C33.0236 21.8748 33.0236 22.1348 32.9536 22.4048C32.9036 22.5847 32.7837 22.7047 32.6037 22.7547C31.5338 22.8247 30.474 22.8247 29.4042 22.7547C29.1042 22.6047 28.9742 22.3548 29.0042 22.0048C28.9842 21.6449 29.1142 21.3749 29.4042 21.2049Z" fill="#35495D"/>
<path opacity="0.96" fill-rule="evenodd" clip-rule="evenodd" d="M17.4042 24.4046C18.474 24.3846 19.5338 24.4046 20.6037 24.4546C20.7837 24.5046 20.9036 24.6246 20.9536 24.8046C21.0236 25.0745 21.0236 25.3345 20.9536 25.6045C20.9036 25.7844 20.7837 25.9044 20.6037 25.9544C19.5338 26.0244 18.474 26.0244 17.4042 25.9544C17.1042 25.8044 16.9742 25.5545 17.0042 25.2045C16.9842 24.8446 17.1142 24.5746 17.4042 24.4046Z" fill="#35495D"/>
<path opacity="0.96" fill-rule="evenodd" clip-rule="evenodd" d="M23.4042 24.4041C24.474 24.3842 25.5338 24.4041 26.6037 24.4541C26.7837 24.5041 26.9036 24.6241 26.9536 24.8041C27.0236 25.0741 27.0236 25.334 26.9536 25.604C26.9036 25.7839 26.7837 25.9039 26.6037 25.9539C25.5338 26.0239 24.474 26.0239 23.4042 25.9539C23.1042 25.8039 22.9742 25.554 23.0042 25.204C22.9842 24.8441 23.1142 24.5741 23.4042 24.4041Z" fill="#35495D"/>
<path opacity="0.96" fill-rule="evenodd" clip-rule="evenodd" d="M29.4042 24.4046C30.474 24.3846 31.5338 24.4046 32.6037 24.4546C32.7837 24.5046 32.9036 24.6246 32.9536 24.8046C33.0236 25.0745 33.0236 25.3345 32.9536 25.6045C32.9036 25.7844 32.7837 25.9044 32.6037 25.9544C31.5338 26.0244 30.474 26.0244 29.4042 25.9544C29.1042 25.8044 28.9742 25.5545 29.0042 25.2045C28.9842 24.8446 29.1142 24.5746 29.4042 24.4046Z" fill="#35495D"/>
<path opacity="0.982" fill-rule="evenodd" clip-rule="evenodd" d="M7.00602 26.0042C8.33583 25.9842 9.67564 26.0042 11.0054 26.0542C11.0954 26.0942 11.1854 26.1442 11.2554 26.2042C11.4054 26.5242 11.4354 26.8541 11.3554 27.2041C11.3054 27.384 11.1854 27.504 11.0054 27.554C10.0756 27.604 9.13572 27.624 8.20585 27.604C8.20585 28.6739 8.20585 29.7337 8.20585 30.8036C9.13572 30.7836 10.0756 30.8036 11.0054 30.8535C11.1854 30.9035 11.3054 31.0235 11.3554 31.2035C11.4254 31.4735 11.4254 31.7334 11.3554 32.0034C11.3054 32.1834 11.1854 32.3033 11.0054 32.3533C9.67564 32.4233 8.33583 32.4233 7.00602 32.3533C6.91604 32.3133 6.83605 32.2633 6.75606 32.2033C6.59608 30.2836 6.55609 28.3439 6.65607 26.4042C6.72606 26.2142 6.84605 26.0842 7.00602 26.0042Z" fill="#35495D"/>
<path opacity="0.982" fill-rule="evenodd" clip-rule="evenodd" d="M38.9962 26.0042C40.326 25.9842 41.6658 26.0042 42.9956 26.0542C43.0856 26.0942 43.1756 26.1442 43.2456 26.2042C43.3556 27.1941 43.4056 28.1939 43.3956 29.2038C43.4056 30.2136 43.3556 31.2135 43.2456 32.2033C43.1656 32.2633 43.0856 32.3133 42.9956 32.3533C41.6658 32.4233 40.326 32.4233 38.9962 32.3533C38.8162 32.3033 38.6962 32.1834 38.6462 32.0034C38.5763 31.7334 38.5763 31.4735 38.6462 31.2035C38.6962 31.0235 38.8162 30.9035 38.9962 30.8535C39.9261 30.8036 40.8659 30.7836 41.7958 30.8036C41.7958 29.7337 41.7958 28.6739 41.7958 27.604C40.7859 27.644 39.7861 27.594 38.7962 27.454C38.6062 27.1241 38.5563 26.7741 38.6462 26.4042C38.7162 26.2142 38.8362 26.0842 38.9962 26.0042Z" fill="#35495D"/>
<path opacity="0.993" fill-rule="evenodd" clip-rule="evenodd" d="M46.1969 26.804C46.4668 26.7841 46.7368 26.804 46.9967 26.854C47.1767 26.904 47.2967 27.024 47.3467 27.204C47.4167 34.133 47.4167 41.072 47.3467 48.001C47.2967 48.181 47.1767 48.3009 46.9967 48.3509C44.3271 48.4209 41.6675 48.4209 38.9979 48.3509C38.6979 48.201 38.568 47.951 38.598 47.601C38.568 47.2511 38.6979 47.0011 38.9979 46.8511C41.2676 46.8012 43.5272 46.7812 45.7969 46.8012C45.7769 40.2721 45.7969 33.733 45.8469 27.204C45.9169 27.014 46.0369 26.884 46.1969 26.804Z" fill="#35495D"/>
<path opacity="0.96" fill-rule="evenodd" clip-rule="evenodd" d="M17.4042 27.6039C18.474 27.5839 19.5338 27.6039 20.6037 27.6538C20.7837 27.7038 20.9036 27.8238 20.9536 28.0038C21.0236 28.2738 21.0236 28.5337 20.9536 28.8037C20.9036 28.9837 20.7837 29.1036 20.6037 29.1536C19.5338 29.2236 18.474 29.2236 17.4042 29.1536C17.1042 29.0037 16.9742 28.7537 17.0042 28.4037C16.9842 28.0438 17.1142 27.7738 17.4042 27.6039Z" fill="#35495D"/>
<path opacity="0.96" fill-rule="evenodd" clip-rule="evenodd" d="M23.4042 27.6039C24.474 27.5839 25.5338 27.6039 26.6037 27.6538C26.7837 27.7038 26.9036 27.8238 26.9536 28.0038C27.0236 28.2738 27.0236 28.5337 26.9536 28.8037C26.9036 28.9837 26.7837 29.1036 26.6037 29.1536C25.5338 29.2236 24.474 29.2236 23.4042 29.1536C23.1042 29.0037 22.9742 28.7537 23.0042 28.4037C22.9842 28.0438 23.1142 27.7738 23.4042 27.6039Z" fill="#35495D"/>
<path opacity="0.96" fill-rule="evenodd" clip-rule="evenodd" d="M29.4042 27.6039C30.474 27.5839 31.5338 27.6039 32.6037 27.6538C32.7837 27.7038 32.9036 27.8238 32.9536 28.0038C33.0236 28.2738 33.0236 28.5337 32.9536 28.8037C32.9036 28.9837 32.7837 29.1036 32.6037 29.1536C31.5338 29.2236 30.474 29.2236 29.4042 29.1536C29.1042 29.0037 28.9742 28.7537 29.0042 28.4037C28.9842 28.0438 29.1142 27.7738 29.4042 27.6039Z" fill="#35495D"/>
<path opacity="0.995" fill-rule="evenodd" clip-rule="evenodd" d="M19.0008 32.4035C23.0802 32.3535 27.1396 32.4035 31.1991 32.5535C31.2591 32.6335 31.309 32.7135 31.349 32.8035C31.419 34.6732 31.419 36.5329 31.349 38.4026C31.299 38.5826 31.1791 38.7026 30.9991 38.7526C30.7291 38.8226 30.4692 38.8226 30.1992 38.7526C30.0192 38.7026 29.8993 38.5826 29.8493 38.4026C29.7993 36.9329 29.7793 35.4731 29.7993 34.0033C28.4695 34.0033 27.1297 34.0033 25.7998 34.0033C25.7998 38.2727 25.7998 42.532 25.7998 46.8014C27.1297 46.8014 28.4695 46.8014 29.7993 46.8014C29.7793 44.8017 29.7993 42.802 29.8493 40.8023C29.8993 40.6223 30.0192 40.5023 30.1992 40.4523C30.4692 40.3824 30.7291 40.3824 30.9991 40.4523C31.1791 40.5023 31.299 40.6223 31.349 40.8023C31.419 43.202 31.419 45.6016 31.349 48.0013C31.309 48.0912 31.2591 48.1812 31.1991 48.2512C29.1394 48.3712 27.0797 48.4212 25 48.4012C23.0002 48.3812 21.0005 48.3712 19.0008 48.3512C18.9108 48.3112 18.8209 48.2612 18.7509 48.2012C18.5809 43.082 18.5509 37.9427 18.6509 32.8035C18.7209 32.6135 18.8408 32.4835 19.0008 32.4035ZM20.2007 34.0033C21.5305 34.0033 22.8703 34.0033 24.2001 34.0033C24.2001 38.2727 24.2001 42.532 24.2001 46.8014C22.8703 46.8014 21.5305 46.8014 20.2007 46.8014C20.2007 42.532 20.2007 38.2627 20.2007 34.0033Z" fill="#35495D"/>
<path opacity="0.982" fill-rule="evenodd" clip-rule="evenodd" d="M7.00602 34.0028C8.33583 33.9828 9.67564 34.0028 11.0054 34.0528C11.0954 34.0928 11.1854 34.1428 11.2554 34.2028C11.4054 34.5227 11.4354 34.8527 11.3554 35.2026C11.3054 35.3826 11.1854 35.5026 11.0054 35.5526C10.0756 35.6025 9.13572 35.6225 8.20585 35.6025C8.20585 36.6724 8.20585 37.7322 8.20585 38.8021C9.13572 38.7821 10.0756 38.8021 11.0054 38.8521C11.1854 38.9021 11.3054 39.0221 11.3554 39.202C11.4254 39.472 11.4254 39.732 11.3554 40.0019C11.3054 40.1819 11.1854 40.3019 11.0054 40.3519C9.67564 40.4219 8.33583 40.4219 7.00602 40.3519C6.91604 40.3119 6.83605 40.2619 6.75606 40.2019C6.59608 38.2822 6.55609 36.3424 6.65607 34.4027C6.72606 34.2127 6.84605 34.0828 7.00602 34.0028Z" fill="#35495D"/>
<path opacity="0.988" fill-rule="evenodd" clip-rule="evenodd" d="M13.4024 34.0028C13.6724 33.9828 13.9424 34.0028 14.2023 34.0528C14.3823 34.1028 14.5023 34.2227 14.5523 34.4027C14.6023 38.5321 14.6223 42.6715 14.6023 46.8009C15.2722 46.7809 15.9321 46.8009 16.602 46.8509C16.9019 47.0009 17.0319 47.2509 17.0019 47.6008C17.0319 47.9508 16.9019 48.2007 16.602 48.3507C15.5321 48.4207 14.4723 48.4207 13.4024 48.3507C13.2225 48.3007 13.1025 48.1807 13.0525 48.0008C12.9825 43.4714 12.9825 38.9321 13.0525 34.4027C13.1225 34.2127 13.2425 34.0828 13.4024 34.0028Z" fill="#35495D"/>
<path opacity="0.982" fill-rule="evenodd" clip-rule="evenodd" d="M38.9962 34.0028C40.326 33.9828 41.6658 34.0028 42.9956 34.0528C43.0856 34.0928 43.1756 34.1428 43.2456 34.2028C43.3556 35.1926 43.4056 36.1925 43.3956 37.2023C43.4056 38.2122 43.3556 39.212 43.2456 40.2019C43.1656 40.2619 43.0856 40.3119 42.9956 40.3519C41.6658 40.4219 40.326 40.4219 38.9962 40.3519C38.8162 40.3019 38.6962 40.1819 38.6462 40.0019C38.5763 39.732 38.5763 39.472 38.6462 39.202C38.6962 39.0221 38.8162 38.9021 38.9962 38.8521C39.9261 38.8021 40.8659 38.7821 41.7958 38.8021C41.7958 37.7322 41.7958 36.6724 41.7958 35.6025C40.7859 35.6425 39.7861 35.5926 38.7962 35.4526C38.6062 35.1226 38.5563 34.7727 38.6462 34.4027C38.7162 34.2127 38.8362 34.0828 38.9962 34.0028Z" fill="#35495D"/>
</svg>
