<svg width="50" height="50" viewBox="0 0 50 50" fill="none" xmlns="http://www.w3.org/2000/svg">
<path d="M23.9002 1.0642C22.1742 1.37376 20.7108 2.13358 19.5289 3.31552C18.9379 3.90649 18.1969 4.93834 17.9624 5.51056L17.8216 5.84825H12.531C7.46558 5.84825 7.23107 5.85763 7.0247 6.02648C6.79956 6.20471 6.79956 6.23285 6.77142 8.30594C6.7339 10.6229 6.79956 11.0544 7.18416 11.1951C7.31549 11.2514 7.92522 11.2889 8.54434 11.2889H9.66062V28.08V44.8711H8.01903C5.85213 44.8711 6.00222 44.7116 6.00222 46.9348C6.00222 48.5014 6.0116 48.6327 6.18983 48.8109C6.37744 48.9985 6.49939 48.9985 25.1384 48.9985C43.7775 48.9985 43.8994 48.9985 44.087 48.8109C44.2653 48.6327 44.2746 48.5014 44.2746 46.9348C44.2746 44.7116 44.4247 44.8711 42.2578 44.8711H40.6163V28.08V11.2889H41.7513C42.83 11.2889 43.1959 11.2139 43.3554 10.97C43.3929 10.9137 43.4304 9.82558 43.4304 8.54045C43.4304 6.34542 43.421 6.21409 43.2428 6.03586C43.0552 5.84825 42.9332 5.84825 37.7646 5.84825H32.4646L32.0612 5.07905C31.1138 3.28738 29.2752 1.84278 27.1834 1.25181C26.4142 1.02668 24.6319 0.923492 23.9002 1.0642ZM26.4329 2.42437C27.2772 2.6026 28.4404 3.12791 29.172 3.67198C30.2883 4.50684 31.2451 5.99834 31.5641 7.39603C32.155 9.90063 31.1513 12.6773 29.1251 14.1781C25.5512 16.8422 20.4576 15.3507 18.9379 11.1951C18.2907 9.41284 18.4032 7.57426 19.2569 5.89516C20.5795 3.26862 23.5344 1.84278 26.4329 2.42437ZM17.287 7.74311C17.2494 8.07143 17.2213 8.69992 17.2307 9.15957L17.2401 9.97567L12.6811 9.95691L8.11283 9.92877L8.08469 8.67178C8.07531 7.97763 8.08469 7.34913 8.10345 7.28347C8.14097 7.18966 9.06964 7.16152 12.7562 7.16152H17.362L17.287 7.74311ZM42.1171 8.5686V9.97567H37.577H33.0368L33.0462 9.10329C33.0556 8.63426 33.0274 7.99639 32.9805 7.69621L32.9149 7.16152H37.5113H42.1171V8.5686ZM17.8498 12.0394C19.5758 15.998 24.1066 17.8553 28.1214 16.2512C30.0257 15.4914 31.6673 13.8686 32.4458 11.9643L32.7085 11.3358L36.001 11.3077L39.303 11.2889V28.08V44.8711H34.9411H30.5791V40.2278C30.5791 35.7064 30.5697 35.575 30.3915 35.3968C30.2039 35.2092 30.082 35.2092 25.1478 35.2092C20.3075 35.2092 20.0823 35.2186 19.876 35.3874L19.6508 35.5657L19.6227 40.2184L19.5946 44.8711H15.2889H10.9739V28.08V11.2889L14.2571 11.3077L17.5496 11.3358L17.8498 12.0394ZM29.2659 37.1322V37.7419H25.0915H20.9172V37.1322V36.5225H25.0915H29.2659V37.1322ZM24.4818 41.9632V44.8711H22.6995H20.9172V42.0288C20.9172 40.4623 20.9454 39.149 20.9829 39.1209C21.011 39.0834 21.8177 39.0552 22.7652 39.0552H24.4818V41.9632ZM29.2659 41.9632V44.8711H27.5305H25.7951V41.9632V39.0552H27.5305H29.2659V41.9632ZM42.9614 46.9348V47.6853H25.1384H7.31549V46.9348V46.1844H25.1384H42.9614V46.9348Z" fill="#46596C"/>
<path d="M23.3179 3.60628L23.074 3.79389V5.29477V6.78627H21.6295C20.3162 6.78627 20.1661 6.80503 19.941 6.98326L19.6971 7.17087V8.90626C19.6971 11.1576 19.5657 11.0075 21.5732 11.0075H23.074V12.5084C23.074 14.5158 22.9333 14.3845 25.1378 14.3845C27.3422 14.3845 27.2015 14.5158 27.2015 12.5084V11.0075H28.7023C30.7098 11.0075 30.5784 11.1576 30.5784 8.90626V7.17087L30.3346 6.98326C30.1094 6.80503 29.9593 6.78627 28.6461 6.78627H27.2015V5.29477V3.79389L26.9576 3.60628C26.7231 3.42805 26.5824 3.40929 25.1378 3.40929C23.6932 3.40929 23.5525 3.42805 23.3179 3.60628ZM25.8882 6.16716C25.8882 7.48042 25.907 7.63051 26.0852 7.85564L26.2728 8.09954H27.7737H29.2652V8.89688V9.69422H27.8112C26.3854 9.69422 26.3478 9.7036 26.1227 9.92873C25.8976 10.1539 25.8882 10.1914 25.8882 11.6172V13.0712H25.1471H24.3967L24.3686 11.5609C24.331 9.59104 24.4342 9.69422 22.4549 9.69422H21.0103V8.89688V8.09954H22.4925C24.4436 8.09954 24.331 8.2121 24.3686 6.21406L24.3967 4.72256H25.1471H25.8882V6.16716Z" fill="#46596C"/>
<path d="M12.8986 17.7803C12.7954 17.8366 12.6829 17.9304 12.6454 17.9867C12.6078 18.043 12.5703 19.4782 12.5703 21.1854C12.5703 22.8833 12.6078 24.3279 12.6454 24.3842C12.8423 24.6844 13.1238 24.7031 18.1329 24.7031C22.9358 24.7031 23.1609 24.6937 23.3673 24.5249L23.5924 24.3467V21.1854V18.0242L23.3673 17.846C23.1609 17.6771 22.9358 17.6678 18.1142 17.6678C14.5402 17.6771 13.03 17.7053 12.8986 17.7803ZM22.3073 19.5157L22.3354 20.0129H18.1142H13.8836V19.4969V18.981L18.086 18.9998L22.2791 19.0279L22.3073 19.5157ZM22.3073 22.3768L22.3354 23.3899H18.1048H13.8836V22.358V21.3261L18.086 21.3449L22.2791 21.373L22.3073 22.3768Z" fill="#46596C"/>
<path d="M26.9126 17.846L26.6875 18.0242V21.1854V24.3467L26.9126 24.5249C27.119 24.6937 27.3441 24.7031 32.1751 24.7031C37.128 24.7031 37.2218 24.7031 37.4657 24.5061L37.7096 24.3185V21.1854V18.0524L37.4657 17.8647C37.2218 17.6678 37.128 17.6678 32.1751 17.6678C27.3441 17.6678 27.119 17.6771 26.9126 17.846ZM36.3963 19.4969V20.0129H32.1751H27.9539V19.4969V18.981H32.1751H36.3963V19.4969ZM36.3963 22.358V23.3899H32.1751H27.9539V22.358V21.3261H32.1751H36.3963V22.358Z" fill="#46596C"/>
<path d="M12.7298 26.8415C12.5891 27.001 12.5703 27.3668 12.5703 30.1622C12.5703 33.089 12.5797 33.3141 12.7392 33.4548C12.8986 33.5955 13.4052 33.6143 18.0767 33.6143C23.1984 33.6143 23.2359 33.6143 23.4142 33.4173C23.583 33.2297 23.5924 33.0327 23.5924 30.1435C23.5924 27.2543 23.583 27.0573 23.4142 26.8697C23.2359 26.6727 23.1984 26.6727 18.0579 26.6727C13.1613 26.6727 12.8705 26.6821 12.7298 26.8415ZM22.3073 28.4737L22.2791 28.9709L18.086 28.9991L13.8836 29.0178V28.5019V27.986H18.1142H22.3354L22.3073 28.4737ZM22.326 31.316V32.301H18.1048H13.8836V31.316V30.3311H18.1048H22.326V31.316Z" fill="#46596C"/>
<path d="M26.8376 26.9166C26.65 27.1605 26.6406 27.273 26.6406 30.1435C26.6406 33.0139 26.65 33.1265 26.8376 33.3704L27.0252 33.6143H32.222H37.4188L37.5595 33.4079C37.6908 33.2297 37.7096 32.7513 37.7096 30.1435C37.7096 27.5357 37.6908 27.0573 37.5595 26.8791L37.4188 26.6727H32.222H27.0252L26.8376 26.9166ZM36.3963 28.5019V29.0178H32.1751H27.9539V28.5019V27.986H32.1751H36.3963V28.5019ZM36.3963 31.316V32.301H32.1751H27.9539V31.316V30.3311H32.1751H36.3963V31.316Z" fill="#46596C"/>
</svg>
