<svg width="50" height="50" viewBox="0 0 50 50" fill="none" xmlns="http://www.w3.org/2000/svg">
<path d="M7.25007 1.25007C7.04001 1.45013 7 1.59017 7 2.07031C7.01 4.25094 7.91026 6.8417 9.30067 8.69223C10.0309 9.65251 11.3313 10.9829 11.6914 11.1129C11.9914 11.233 12.4616 11.0629 12.6016 10.7928C12.8317 10.3627 12.7217 10.0626 12.0915 9.45245C10.0409 7.43187 9.01058 5.4813 8.66048 2.97057L8.61047 2.59046L9.83082 2.62047L11.0412 2.65048L11.1612 3.31067C11.3112 4.14091 11.7414 5.17121 12.2515 5.96144C12.7417 6.71166 14.5922 8.55219 14.9423 8.64222C15.5125 8.78226 16.1126 8.19209 15.9126 7.67193C15.8626 7.5419 15.3724 6.98174 14.8223 6.44158C14.2721 5.90142 13.772 5.35126 13.7119 5.22122L13.5919 5.00116H17.8031C20.3339 5.00116 22.0043 5.04117 22.0043 5.09119C22.0043 5.25123 20.4039 6.89171 19.6537 7.49188C19.2736 7.81197 18.0732 8.71224 17.0029 9.50247C14.5222 11.333 13.2718 12.3333 12.1715 13.4036C11.4213 14.1338 11.3012 14.3039 11.3012 14.5839C11.3012 14.9641 11.6714 15.4042 12.0014 15.4042C12.3415 15.4042 12.6016 15.2241 13.4019 14.4539C14.4922 13.4036 15.2624 12.7834 17.8932 10.8228C19.1935 9.86257 20.654 8.73224 21.1441 8.31212C23.0847 6.66164 24.235 4.88113 24.4851 3.16063L24.5551 2.65048L25.7854 2.62047L27.0058 2.59046L26.9458 3.02058C26.5957 5.46129 25.6354 7.29183 23.7048 9.20238C22.6345 10.2627 21.9443 10.8228 18.3533 13.4936C15.3024 15.7643 13.992 17.0146 12.8417 18.7652C10.511 22.2962 10.401 27.1176 12.5416 30.7886C13.6719 32.7092 15.5425 34.4897 19.3536 37.2605C21.6743 38.951 22.6745 39.7612 23.7148 40.8015C25.5954 42.6821 26.4656 44.2625 26.8558 46.5032C26.9358 46.9633 27.0058 47.3534 27.0058 47.3834C27.0058 47.4035 26.4556 47.4035 25.7854 47.3935L24.5551 47.3634L24.4851 46.8933C24.255 45.2728 23.2847 43.6424 21.6242 42.1019C21.2041 41.7118 19.6137 40.4614 18.1032 39.3311C15.1324 37.1205 13.982 36.1702 12.7817 34.9398C10.7211 32.8392 9.37069 30.3385 8.83053 27.6277C8.7105 27.0075 8.66048 26.2573 8.66048 25.007C8.66048 22.4862 8.95057 21.1658 9.97086 18.9852C10.551 17.7449 10.571 17.5648 10.1709 17.2047C9.92085 16.9646 9.53073 16.9446 9.22064 17.1647C8.93056 17.3647 8.21035 18.8152 7.82024 19.9655C6.54987 23.7566 6.77994 28.1079 8.45042 31.5789C10.0109 34.8298 11.8814 36.7504 17.503 40.8616C18.9135 41.9019 19.9237 42.7321 20.774 43.5623C21.4542 44.2325 22.0043 44.8227 22.0043 44.8927C22.0043 44.9828 21.0241 45.0128 17.7931 45.0128H13.5919L13.772 44.7027C13.872 44.5326 14.3721 43.9925 14.8823 43.4923C15.3924 42.9922 15.8526 42.482 15.9026 42.352C16.1026 41.8318 15.5725 41.2317 15.0223 41.3517C14.6822 41.4317 13.2618 42.7221 12.6616 43.4923C11.8214 44.5926 11.3913 45.5229 11.1612 46.7133L11.0412 47.3634L9.83082 47.3935L8.62047 47.4235L8.67048 46.9933C8.93056 44.7727 9.90084 42.8821 11.7414 40.9416C12.8117 39.8113 12.9217 39.5212 12.4516 39.061C12.0915 38.6909 11.7914 38.7409 11.1512 39.2911C8.98057 41.1416 7.49014 43.8924 7.11003 46.7433C6.90997 48.2137 7 48.7038 7.50014 48.9139C7.6802 48.9839 8.51044 49.0139 9.99087 48.9939C12.6216 48.9539 12.5316 49.0039 12.6316 47.7936C12.6716 47.3935 12.7317 46.9633 12.7617 46.8433L12.8217 46.6132H17.8031C23.4748 46.6132 22.8746 46.4932 22.9646 47.6135C23.0346 48.4638 23.1647 48.7739 23.4948 48.9139C23.6848 48.9839 24.4951 49.0139 25.9955 48.9939L28.2262 48.9639L28.4262 48.7138C28.6163 48.4838 28.6263 48.3737 28.5763 47.4635C28.4062 44.5026 27.2659 42.0619 24.9552 39.7512C23.9049 38.6909 22.7246 37.7206 20.704 36.2702C18.5133 34.6898 17.433 33.8395 16.3827 32.8892C15.6125 32.189 14.4021 30.8387 14.4021 30.6686C14.4021 30.6386 15.3324 30.6086 16.4627 30.6086H18.5233L18.8134 30.3185C19.1835 29.9484 19.1835 29.6683 18.8134 29.2982L18.5233 29.0081H15.9726H13.4219L13.2718 28.618C13.0518 28.0779 12.8217 27.1376 12.7217 26.4174L12.6316 25.8072H15.1724H17.7131L17.9532 25.5571C18.2833 25.237 18.2833 24.7769 17.9532 24.4568L17.7131 24.2067H15.1724H12.6316L12.7217 23.5966C12.8217 22.8763 13.0518 21.9361 13.2718 21.3959L13.4219 21.0058H15.9726H18.5233L18.8134 20.7157C19.1835 20.3456 19.1835 20.0655 18.8134 19.6954L18.5233 19.4053H16.4627C15.3324 19.4053 14.4021 19.3753 14.4021 19.3253C14.4021 19.2853 14.7222 18.8852 15.1023 18.4351C15.8626 17.5448 17.303 16.2644 18.8034 15.1441C23.6048 11.5731 24.375 10.9429 25.5854 9.58249C27.2159 7.75196 28.1161 5.87141 28.4562 3.60075C28.6863 2.13033 28.6563 1.54016 28.3562 1.25007L28.1161 1H25.8055C23.5348 1 23.4948 1 23.2647 1.23006C23.0847 1.42012 23.0246 1.61018 22.9746 2.26037C22.9446 2.70049 22.8846 3.14062 22.8446 3.23064C22.7846 3.39069 22.4045 3.4007 17.8031 3.4007C13.2018 3.4007 12.8217 3.39069 12.7617 3.23064C12.7217 3.14062 12.6616 2.70049 12.6316 2.26037C12.5816 1.61018 12.5216 1.42012 12.3415 1.23006C12.1115 1 12.0715 1 9.80081 1H7.49014L7.25007 1.25007Z" fill="#35495D"/>
<path d="M29.2036 13.9538C25.6526 14.544 22.6017 16.8046 20.9612 20.0756C18.8306 24.3268 19.7008 29.5083 23.1018 32.9093C26.5028 36.3003 31.5643 37.1605 35.8555 35.0699C37.1559 34.4297 38.2062 33.6795 38.3462 33.2794C38.5463 32.7192 37.9161 32.0991 37.366 32.3091C37.2159 32.3591 36.8658 32.5892 36.5757 32.8093C35.8355 33.3594 34.3051 34.0596 33.2448 34.3297C31.9244 34.6598 29.9238 34.6398 28.5734 34.2797C21.4613 32.3891 19.0206 23.6066 24.1421 18.3251C28.7335 13.5737 36.6658 14.8341 39.6066 20.7758C40.2768 22.1362 40.5369 23.2965 40.5369 24.957C40.5469 26.7975 40.3168 27.7778 39.4966 29.3883C39.1765 30.0285 38.9064 30.6286 38.9064 30.7187C38.9064 30.8087 38.9964 30.9987 39.1165 31.1488C39.2765 31.3488 39.4066 31.4089 39.6966 31.4089C40.1468 31.4089 40.3468 31.2188 40.847 30.3085C42.5575 27.1676 42.6175 23.3165 41.007 20.0556C39.5466 17.0947 36.9358 14.9741 33.7149 14.1339C32.5046 13.8238 30.484 13.7337 29.2036 13.9538Z" fill="#35495D"/>
<path d="M32.4322 24.0267L29.0012 27.4477L27.5707 26.0273C26.3204 24.7869 26.0903 24.6068 25.8102 24.6068C25.4401 24.6068 25 24.987 25 25.307C25 25.7072 25.2901 26.0673 26.9206 27.6777C28.511 29.2482 28.8511 29.4983 29.2712 29.3682C29.3713 29.3382 31.1518 27.6077 33.2324 25.5271C36.6534 22.1061 37.0035 21.716 37.0035 21.4259C37.0035 20.9858 36.6234 20.6057 36.1832 20.6057C35.8932 20.6057 35.5331 20.9358 32.4322 24.0267Z" fill="#35495D"/>
</svg>
