<svg width="50" height="50" viewBox="0 0 50 50" fill="none" xmlns="http://www.w3.org/2000/svg">
<path d="M22.4665 1.10825C18.9764 1.77436 16.3495 4.33561 15.6458 7.75062C15.5614 8.14466 15.4957 8.57622 15.4957 8.69818C15.4957 8.85768 15.3362 9.03593 14.8672 9.37368C14.5106 9.62699 13.7601 10.3025 13.1972 10.8748C10.8423 13.2296 9.46319 16.0723 8.96595 19.6187C8.76893 21.0541 8.8346 23.9062 9.10668 25.3792C9.29432 26.4018 9.74465 28.2031 9.99796 28.9068L10.1387 29.3008L9.90414 29.2164C9.48195 29.0569 8.78769 29.1038 8.525 29.3102C8.09343 29.6479 7.96209 30.2015 8.009 31.393C8.04653 32.2655 8.1122 32.6126 8.35613 33.3444C9.041 35.3615 10.4014 36.7781 12.0526 37.2003C12.456 37.2942 12.4842 37.3317 12.6812 37.8571L12.8876 38.4106L12.6249 38.6264C11.5553 39.452 10.9924 40.5966 10.9924 41.9288C10.9924 44.9498 14.0509 46.9387 16.7623 45.6909L17.2595 45.4658L17.5785 45.7941C18.132 46.3758 19.3048 47.314 20.121 47.8206C21.9786 48.9934 24.3428 49.3123 26.5194 48.6838C27.5515 48.3929 29.5216 47.436 30.6006 46.7136C33.4996 44.7621 35.7512 41.9476 37.2242 38.4294L37.7214 37.2379L38.2656 37.0408C39.1099 36.75 39.4195 36.553 39.9918 35.9713C40.5923 35.3521 41.1739 34.245 41.5023 33.1098C41.6712 32.5188 41.7087 32.1154 41.7181 31.1866C41.7181 29.9012 41.643 29.6198 41.1739 29.2726C40.8362 29.0287 40.0293 29.01 39.6728 29.2445C39.5321 29.3383 39.4195 29.3946 39.4195 29.3758C39.4195 29.3665 39.4852 28.8411 39.5603 28.2313C40.292 22.3676 39.5603 17.3858 37.4306 13.6987C36.4361 11.9725 34.7004 10.0867 33.1243 9.01717L32.3174 8.46364L32.1767 7.75062C31.6701 5.1706 29.7843 2.81575 27.3638 1.72745C25.9471 1.08948 23.9113 0.836174 22.4665 1.10825ZM26.0034 2.00891C26.3881 2.12149 27.0824 2.40295 27.5514 2.64687C28.2457 3.00339 28.5647 3.24731 29.3434 4.02601C30.1971 4.87038 30.3379 5.0674 30.7694 5.9493C31.2198 6.8781 31.5294 7.77876 31.4262 7.88196C31.398 7.90073 31.0603 7.77876 30.6756 7.60051C27.7485 6.26828 24.3147 5.90239 21.031 6.5685C19.6331 6.85934 17.6254 7.60051 16.6966 8.1728C16.4996 8.29477 16.3307 8.38858 16.3026 8.38858C16.2463 8.38858 16.4245 7.53483 16.584 7.02821C17.4472 4.40129 19.6519 2.45924 22.4383 1.8588C23.3108 1.68054 25.0934 1.7556 26.0034 2.00891ZM26.8666 7.21585C29.8969 7.76938 32.4582 9.09223 34.5503 11.1938C37.0178 13.6706 38.3312 16.579 38.9692 20.9603C39.1005 21.861 39.1099 26.1766 38.9786 26.9084L38.9035 27.3775L38.3688 26.5331C36.9615 24.3096 34.9068 22.3394 31.7264 20.1441C28.5272 17.9393 27.3075 16.9918 25.7501 15.4719L24.8776 14.6275L24.9902 13.6706C25.1122 12.5917 25.0465 12.3946 24.6055 12.4416C24.371 12.4697 24.3616 12.4978 24.249 13.4923C23.9676 16.0817 22.8324 18.3897 21.0498 20.0221C20.7027 20.3411 19.8771 20.9697 19.2016 21.4106C15.5802 23.7842 13.5162 25.7451 11.1332 29.0756L10.9361 29.3383L10.5984 28.2688C9.9229 26.1766 9.60392 24.4879 9.51948 22.5083C9.37875 19.0276 10.2888 15.7346 12.137 13.1264C12.897 12.0475 14.3605 10.5839 15.4957 9.76772C16.5465 9.02655 18.2915 8.14466 19.5112 7.74123C20.2805 7.48792 21.8097 7.15018 22.7198 7.03759C23.3953 6.95316 26.0785 7.06574 26.8666 7.21585ZM26.951 17.5359C28.0393 18.446 29.5686 19.5812 30.9289 20.4912C34.0625 22.5834 36.1453 24.516 37.5994 26.6926C37.9278 27.1805 38.3218 27.8654 38.4813 28.2125L38.7628 28.8411L38.6314 29.7136C38.5564 30.1827 38.4063 31.1396 38.2937 31.8151C37.637 35.9525 36.1922 39.6678 34.1751 42.351C32.2987 44.8653 29.4841 46.9293 26.632 47.9051C25.8909 48.1584 25.6 48.2053 24.5962 48.2428C22.307 48.3179 20.6464 47.6142 18.6574 45.7285L17.8881 45.0061L18.254 44.6026C19.4361 43.2986 19.5769 41.1689 18.5918 39.649C17.7192 38.298 16.0305 37.5475 14.4919 37.8289C14.1354 37.8946 13.7976 37.9603 13.7319 37.9696C13.4786 38.0072 12.3434 34.7141 11.6773 32.0122L11.2457 30.2577L11.6023 29.7136C13.4974 26.8427 15.9179 24.4973 19.3986 22.1799C22.3445 20.2098 23.5735 18.6711 24.6337 15.6689C24.6806 15.5188 24.7932 15.5939 25.3749 16.1474C25.7595 16.5133 26.4632 17.1325 26.951 17.5359ZM10.0918 30.117L10.5046 30.3797L10.9268 32.1154C11.1707 33.0723 11.5366 34.4045 11.743 35.0613C11.9588 35.7274 12.1089 36.2903 12.0807 36.3184C11.9869 36.4123 11.3677 36.1402 10.8705 35.7837C10.0542 35.202 9.35999 34.1137 8.96595 32.8284C8.75017 32.0966 8.71264 30.1733 8.92842 29.9294C9.10668 29.7042 9.56639 29.7793 10.0918 30.117ZM40.8643 29.9857C41.0989 30.3234 41.0614 31.6369 40.7799 32.7346C40.3483 34.4327 39.5415 35.6711 38.5282 36.1589C38.2937 36.2715 38.0779 36.356 38.0685 36.3372C38.0498 36.3184 38.2186 35.5773 38.4344 34.7048C38.6596 33.8229 38.941 32.4812 39.063 31.7119L39.2694 30.3234L39.7479 30.0513C40.3202 29.723 40.6673 29.7042 40.8643 29.9857ZM16.4715 38.814C17.9819 39.5083 18.8075 41.2345 18.3572 42.7826C18.0476 43.8615 17.4472 44.5557 16.3683 45.0436C15.9273 45.25 15.6928 45.2969 15.1205 45.2875C14.1635 45.2875 13.4505 45.0061 12.7938 44.3775C12.1839 43.8052 11.8837 43.2516 11.7336 42.4167C11.4334 40.7748 12.5874 39.0204 14.2479 38.5982C14.839 38.4481 15.8992 38.5513 16.4715 38.814Z" fill="#35495D" stroke="#35495D" stroke-width="0.7" stroke-miterlimit="10"/>
<path d="M29.9674 26.036C29.3858 26.1299 28.4663 26.4957 28.0629 26.7772C27.8378 26.9367 27.7815 27.0493 27.8002 27.2275C27.8378 27.584 28.0817 27.5934 28.7103 27.2557C29.7892 26.6834 31.1308 26.5427 32.3973 26.8616C33.1573 27.0587 34.2456 27.5653 34.8742 28.0156C35.2025 28.2502 35.2963 28.2783 35.4652 28.1939C35.6998 28.0625 35.7185 27.7904 35.5121 27.584C35.4371 27.4996 35.0899 27.2651 34.7428 27.0587C33.1385 26.1111 31.553 25.7733 29.9674 26.036Z" fill="#35495D" stroke="#35495D" stroke-width="0.7" stroke-miterlimit="10"/>
<path d="M17.9326 26.1764C16.666 26.411 15.3901 26.8519 14.4425 27.3867C14.1048 27.5743 13.9922 27.6963 13.9922 27.8652C13.9922 28.2686 14.2736 28.2967 14.9398 27.959C15.8592 27.4805 17.0976 27.0771 18.0264 26.9457C19.1522 26.7956 20.0716 26.9364 20.9911 27.3961C21.7885 27.7901 22.0137 27.7901 22.0137 27.3961C22.0137 27.1615 21.9386 27.0771 21.4508 26.8144C21.1412 26.6361 20.6533 26.4297 20.3719 26.3453C19.8652 26.1952 18.3829 26.092 17.9326 26.1764Z" fill="#35495D" stroke="#35495D" stroke-width="0.7" stroke-miterlimit="10"/>
<path d="M15.9106 30.9425C15.798 31.2427 15.9388 31.4209 16.5298 31.7118C18.1341 32.528 19.8698 32.4998 21.1551 31.6461C21.5304 31.4022 21.6054 31.3083 21.5773 31.1019C21.5397 30.7361 21.2864 30.7548 20.489 31.1582C19.8041 31.5054 19.7572 31.5147 18.7908 31.5147C17.8339 31.5147 17.7682 31.5054 17.0552 31.1582C16.2671 30.783 15.995 30.7361 15.9106 30.9425Z" fill="#35495D" stroke="#35495D" stroke-width="0.7" stroke-miterlimit="10"/>
<path d="M28.2072 30.9138C27.9914 31.261 28.6012 31.7676 29.6895 32.1335C30.168 32.3024 30.4307 32.3211 31.1812 32.293C31.9974 32.2555 32.1757 32.2085 32.7855 31.9083C33.5455 31.533 33.8457 31.2704 33.7519 31.0452C33.6487 30.7637 33.3953 30.7825 32.7668 31.1202C32.0444 31.5143 31.2469 31.6644 30.4963 31.5612C29.9334 31.4861 29.0703 31.1484 28.9014 30.942C28.7795 30.7919 28.2916 30.7637 28.2072 30.9138Z" fill="#35495D" stroke="#35495D" stroke-width="0.7" stroke-miterlimit="10"/>
<path d="M23.0541 37.6228C22.8571 37.8105 22.8665 37.9043 23.0916 38.1294C23.5044 38.5422 24.0486 38.7393 24.7804 38.7393C25.3902 38.7393 25.5497 38.7017 25.9813 38.4672C26.516 38.167 26.6943 37.9512 26.6005 37.7166C26.4973 37.4539 26.2158 37.4539 25.803 37.726C25.4652 37.9512 25.3058 37.9887 24.7804 37.9887C24.255 37.9887 24.0955 37.9512 23.7671 37.726C23.3168 37.4352 23.2511 37.4258 23.0541 37.6228Z" fill="#35495D" stroke="#35495D" stroke-width="0.7" stroke-miterlimit="10"/>
<path d="M21.051 41.5256C20.807 41.7695 20.929 41.9853 21.4356 42.2198C22.355 42.6326 23.3401 42.839 24.6911 42.8859C25.7888 42.9328 26.0797 42.9047 26.7551 42.7358C27.1867 42.6232 27.8153 42.4075 28.1437 42.2574C28.6878 42.004 28.7347 41.9571 28.7066 41.7226C28.6691 41.3755 28.3125 41.3285 27.7872 41.6006C27.0835 41.9571 26.0609 42.1635 24.982 42.1635C23.8937 42.1635 23.1337 42.0322 22.0736 41.6569C21.2761 41.3755 21.2105 41.3661 21.051 41.5256Z" fill="#35495D" stroke="#35495D" stroke-width="0.7" stroke-miterlimit="10"/>
</svg>
