<svg width="50" height="50" viewBox="0 0 50 50" fill="none" xmlns="http://www.w3.org/2000/svg">
<g clip-path="url(#clip0_1959_5149)">
<path d="M23.2613 1.0001C22.9184 1.13727 22.84 1.41161 22.84 2.45996V3.44954H21.821C20.2828 3.44954 20.3416 3.36136 20.3416 5.70302C20.3416 8.04469 20.2828 7.9565 21.821 7.9565H22.84V8.98527C22.84 10.259 22.938 10.4059 23.7708 10.4059H24.3097V11.0918V11.7776L17.6864 11.7972L11.0631 11.8266L10.8769 12.0618C10.6222 12.3753 10.632 12.8652 10.9161 13.1297C11.0925 13.2963 11.2689 13.3453 11.651 13.3453H12.1604V17.7543V22.1633H6.30139C-0.321894 22.1633 0.0112295 22.1241 0.0112295 22.8883C0.0112295 23.5153 0.22678 23.6623 1.23595 23.7113L2.06876 23.7603V29.9133V36.0761H1.29474C0.667679 36.0761 0.481522 36.1153 0.265971 36.2818C-0.0573548 36.5366 -0.0965458 37.144 0.207185 37.4478C0.40314 37.6437 0.530511 37.6437 8.4471 37.6437C13.5027 37.6437 16.5498 37.6045 16.6674 37.5457C16.9124 37.4184 17.0691 36.9089 16.9613 36.6247C16.785 36.1447 16.5302 36.0761 15.0802 36.0761H13.7281V32.4509C13.7281 29.9721 13.6889 28.7571 13.6203 28.5906C13.4831 28.2869 13.0618 28.1105 12.7091 28.1987C12.1604 28.3358 12.1604 28.3456 12.1604 32.3725V36.0761H7.89842H3.6364V29.9035V23.7309H7.89842H12.1604V24.8086C12.1604 25.759 12.18 25.906 12.3564 26.0824C12.6601 26.3861 13.2676 26.3469 13.5223 26.0236C13.7281 25.7688 13.7281 25.6904 13.7281 19.5571V13.3453H25.0935H36.4589V24.7107V36.0761H32.0009H27.5429V30.1582C27.5429 24.3286 27.5429 24.2404 27.3372 23.9856L27.1412 23.7309H25.0935H23.0458L22.8498 23.9856C22.6441 24.2404 22.6441 24.3286 22.6441 30.1582V36.0761H21.0372C19.5676 36.0761 19.4206 36.0957 19.1756 36.2818C18.8327 36.5464 18.8229 37.1244 19.1462 37.4282C19.3716 37.6339 19.4402 37.6437 21.8406 37.6437H24.3097V39.5543V41.4648H23.0849C21.9092 41.4648 21.8406 41.4746 21.6153 41.7098C21.3801 41.9351 21.3703 42.0037 21.3703 43.1794V44.4042H13.8751H6.36997L6.13483 44.6491C5.75272 45.0214 5.87029 45.6485 6.35038 45.864C6.51694 45.9424 8.77042 45.9718 13.973 45.9718H21.3703V47.1377C21.3703 47.7844 21.3997 48.3821 21.4291 48.4702C21.5859 48.8719 21.8994 48.9111 25.0935 48.9111C28.2876 48.9111 28.6011 48.8719 28.7579 48.4702C28.7872 48.3821 28.8166 47.7844 28.8166 47.1377V45.9718H36.2139C41.4166 45.9718 43.67 45.9424 43.8366 45.864C44.3167 45.6485 44.4343 45.0214 44.0521 44.6491L43.817 44.4042H36.3119H28.8166V43.1892C28.8166 42.1115 28.797 41.9547 28.6109 41.7196C28.4149 41.4648 28.3953 41.4648 27.1412 41.4648H25.8773V39.5543V37.6437H37.8306C49.6565 37.6437 49.7838 37.6437 49.9798 37.4478C50.2835 37.144 50.2443 36.5366 49.921 36.2818C49.7055 36.1153 49.5193 36.0761 48.8922 36.0761H48.1182V34.9493C48.1182 33.8716 48.1084 33.803 47.8733 33.5776C47.6185 33.3131 47.3736 33.2739 47.0111 33.4405C46.6388 33.607 46.5506 33.9304 46.5506 35.0473V36.0761H42.2886H38.0265V29.9035V23.7309H42.2886H46.5408L46.5702 27.4149L46.5996 31.0988L46.8347 31.285C47.1286 31.5299 47.5401 31.5201 47.8635 31.2654L48.1182 31.0694V27.4149V23.7603L48.951 23.7113C49.9602 23.6623 50.1757 23.5153 50.1757 22.8883C50.1757 22.1241 50.5089 22.1633 43.8856 22.1633H38.0265V17.7543V13.3453H38.5458C38.9671 13.3453 39.1141 13.2963 39.2806 13.1199C39.5452 12.8358 39.555 12.3655 39.31 12.0618L39.1239 11.8266L32.5006 11.7972L25.8773 11.7776V11.0918V10.4059H26.4162C27.2392 10.4059 27.347 10.2394 27.347 8.96568V7.9565H28.3757C29.914 7.9565 29.9238 7.93691 29.8748 5.46788C29.8356 3.40055 29.8748 3.44954 28.3659 3.44954H27.347V2.47956C27.347 1.94069 27.3176 1.4312 27.2882 1.34302C27.151 0.980503 26.7297 0.902122 25.0739 0.911919C24.1921 0.911919 23.3789 0.951111 23.2613 1.0001ZM25.7793 3.49853C25.7793 4.46851 25.7989 4.54689 26.0243 4.77224C26.2496 4.99759 26.328 5.01718 27.298 5.01718H28.3267V5.70302V6.38887H27.298C26.328 6.38887 26.2496 6.40846 26.0243 6.63381C25.7989 6.85916 25.7793 6.93754 25.7793 7.90752V8.93628H25.1033H24.4272L24.3881 7.84873C24.3489 6.41826 24.3097 6.38887 22.8792 6.38887H21.8602V5.70302V5.01718H22.7714C23.2613 5.01718 23.7708 4.98779 23.8982 4.95839C24.2705 4.85062 24.4076 4.43911 24.4076 3.40055V2.46976H25.0935H25.7793V3.49853ZM25.9753 25.7884V26.3763H25.0935H24.2117V25.7884V25.2006H25.0935H25.9753V25.7884ZM25.9753 32.01V36.0761H25.0935H24.2117V32.01V27.9439H25.0935H25.9753V32.01ZM27.249 45.188V47.3435H25.0935H22.938V45.188V43.0325H25.0935H27.249V45.188Z" fill="#35495D"/>
<path d="M16.0083 15.2067C15.4988 15.4124 15.4792 15.53 15.5086 18.7829L15.538 21.7908L15.7731 21.9769C15.9789 22.1435 16.1748 22.1631 17.958 22.1631C19.898 22.1631 19.9078 22.1631 20.1429 21.9181L20.3879 21.683V18.7437C20.3879 16.7547 20.3487 15.726 20.2801 15.5594C20.2115 15.4222 20.0351 15.2655 19.8686 15.2067C19.5159 15.0891 16.312 15.0891 16.0083 15.2067ZM18.8202 17.2642V17.8521H17.9384H17.0566V17.2642V16.6763H17.9384H18.8202V17.2642ZM18.8202 20.0076V20.5954H17.9384H17.0566V20.0076V19.4197H17.9384H18.8202V20.0076Z" fill="#35495D"/>
<path d="M23.1645 15.2067C22.655 15.4222 22.6354 15.53 22.6648 18.7829L22.6942 21.7908L22.9294 21.9769C23.1351 22.1435 23.3311 22.1631 25.0947 22.1631C26.8583 22.1631 27.0542 22.1435 27.26 21.9769L27.4951 21.7908L27.5245 18.7535L27.5539 15.7162L27.309 15.4418L27.0738 15.1577L25.222 15.1381C24.2129 15.1283 23.2821 15.1577 23.1645 15.2067ZM25.9765 17.2642V17.8521H25.0947H24.2129V17.2642V16.6763H25.0947H25.9765V17.2642ZM25.9765 20.0076V20.5954H25.0947H24.2129V20.0076V19.4197H25.0947H25.9765V20.0076Z" fill="#35495D"/>
<path d="M30.2966 15.2165C29.8067 15.4124 29.8067 15.4418 29.7969 18.6653V21.683L30.0418 21.9181C30.277 22.1631 30.2868 22.1631 32.2463 22.1631C34.0687 22.1631 34.2157 22.1533 34.4018 21.9671C34.5096 21.8594 34.6174 21.6732 34.6468 21.5556C34.6762 21.4283 34.6958 20.037 34.6762 18.4693C34.6468 15.6378 34.6468 15.5986 34.4214 15.383C34.2059 15.1675 34.1275 15.1577 32.3639 15.1381C31.3155 15.1283 30.4337 15.1577 30.2966 15.2165ZM33.1281 17.2642V17.8521H32.2463H31.3645V17.2642V16.6763H32.2463H33.1281V17.2642ZM33.1281 20.0076V20.5954H32.2463H31.3645V20.0076V19.4197H32.2463H33.1281V20.0076Z" fill="#35495D"/>
<path d="M15.6888 23.9953C15.4928 24.25 15.483 24.3088 15.5124 29.0509L15.5418 33.842L15.7769 34.0282C15.9827 34.1948 16.1787 34.2144 17.9618 34.2144C19.9018 34.2144 19.9116 34.2144 20.1467 33.9694L20.3917 33.7343V28.9922C20.3917 24.3382 20.3917 24.2402 20.1859 23.9855L19.99 23.7308H17.9422H15.8945L15.6888 23.9953ZM18.824 25.7883V26.3762H17.9422H17.0604V25.7883V25.2004H17.9422H18.824V25.7883ZM18.824 30.2953V32.6467H17.9422H17.0604V30.2953V27.9438H17.9422H18.824V30.2953Z" fill="#35495D"/>
<path d="M30.0026 23.9855C29.7969 24.2402 29.7969 24.3382 29.7969 28.9922V33.7343L30.0418 33.9694C30.277 34.2144 30.2868 34.2144 32.2463 34.2144C34.0687 34.2144 34.2157 34.2046 34.4018 34.0184C34.5096 33.9106 34.6174 33.7245 34.6468 33.6069C34.6762 33.4795 34.686 31.3044 34.6762 28.7668C34.6468 24.3774 34.637 24.1325 34.4606 23.9365C34.2842 23.7406 34.1863 23.7308 32.2365 23.7308H30.1986L30.0026 23.9855ZM33.1281 25.7883V26.3762H32.2463H31.3645V25.7883V25.2004H32.2463H33.1281V25.7883ZM33.1281 30.2953V32.6467H32.2463H31.3645V30.2953V27.9438H32.2463H33.1281V30.2953Z" fill="#35495D"/>
<path d="M5.69596 25.7881C5.5098 25.9743 5.5 26.1114 5.5 29.8052V33.6361L5.74494 33.8713C5.98009 34.1162 5.98989 34.1162 7.94944 34.1162C10.1833 34.1162 10.2323 34.0966 10.3499 33.3128C10.3793 33.0776 10.3989 31.3434 10.3793 29.4525C10.3499 26.2192 10.3401 25.9939 10.1637 25.7979C9.98737 25.602 9.8894 25.5922 7.92984 25.5922C6.01928 25.5922 5.88211 25.602 5.69596 25.7881ZM8.83124 27.6497V28.2376H7.94944H7.06764V27.6497V27.0618H7.94944H8.83124V27.6497ZM8.83124 31.1769V32.5486H7.94944H7.06764V31.1769V29.8052H7.94944H8.83124V31.1769Z" fill="#35495D"/>
<path d="M40.0866 25.7881C39.9004 25.9743 39.8906 26.1114 39.8906 29.8052V33.6361L40.1356 33.8713C40.3707 34.1162 40.3805 34.1162 42.3401 34.1162C44.1526 34.1162 44.3094 34.1064 44.4858 33.9301C44.5935 33.8223 44.7111 33.5871 44.7405 33.4108C44.7699 33.2344 44.7895 31.4904 44.7699 29.5505C44.7405 26.229 44.7307 25.9939 44.5544 25.7979C44.378 25.602 44.28 25.5922 42.3205 25.5922C40.4099 25.5922 40.2727 25.602 40.0866 25.7881ZM43.2219 27.6497V28.2376H42.3401H41.4583V27.6497V27.0618H42.3401H43.2219V27.6497ZM43.2219 31.1769V32.5486H42.3401H41.4583V31.1769V29.8052H42.3401H43.2219V31.1769Z" fill="#35495D"/>
<path d="M1.18626 41.9157C0.960916 42.1606 0.617994 42.6995 0.422039 43.111C0.0889156 43.8067 0.0595224 43.9438 0.0301291 44.9138C-0.0188597 46.2071 0.196691 47.0301 0.823747 47.9511C1.35283 48.7251 1.80352 48.9995 2.23462 48.8231C2.52856 48.7055 2.75391 48.3724 2.75391 48.0393C2.75391 47.9511 2.55795 47.6082 2.3326 47.2849C1.75453 46.501 1.57817 46.0112 1.57817 45.1881C1.57817 44.3455 1.83292 43.6401 2.362 42.9934C2.83229 42.435 2.87148 42.0627 2.50896 41.7099C2.11705 41.3082 1.68595 41.3768 1.18626 41.9157Z" fill="#35495D"/>
<path d="M47.6746 41.7099C47.3121 42.0627 47.3513 42.435 47.8216 42.9934C48.3507 43.6401 48.6054 44.3455 48.6054 45.1881C48.6054 46.0112 48.4291 46.501 47.851 47.2849C47.6256 47.6082 47.4297 47.9511 47.4297 48.0393C47.4297 48.3724 47.655 48.7055 47.949 48.8231C48.3801 48.9995 48.8308 48.7251 49.3598 47.9511C49.9869 47.0301 50.2025 46.2071 50.1535 44.9138C50.1241 43.9438 50.0947 43.8067 49.7616 43.111C49.2815 42.1019 48.6936 41.465 48.2429 41.465C48.0176 41.465 47.8314 41.5434 47.6746 41.7099Z" fill="#35495D"/>
<path d="M3.48061 43.5713C2.69679 44.3551 2.6478 45.766 3.37283 46.6086C3.65697 46.932 3.75495 46.9907 4.08807 46.9809C4.76412 46.9614 5.03845 46.2657 4.61715 45.6289C4.37221 45.2565 4.37221 44.9822 4.61715 44.6687C5.2638 43.8555 4.21544 42.8365 3.48061 43.5713Z" fill="#35495D"/>
<path d="M45.5872 43.5517C45.3129 43.8359 45.3031 44.3356 45.5676 44.6687C45.8126 44.9822 45.8126 45.2565 45.5676 45.6289C45.1463 46.2657 45.4207 46.9614 46.0967 46.9809C46.4298 46.9907 46.5278 46.932 46.8119 46.6086C47.537 45.766 47.488 44.3551 46.7042 43.5713C46.3808 43.248 45.8811 43.2382 45.5872 43.5517Z" fill="#35495D"/>
</g>
<defs>
<clipPath id="clip0_1959_5149">
<rect width="50" height="50" fill="white"/>
</clipPath>
</defs>
</svg>
