<?xml version="1.0" encoding="utf-8"?>
<!-- Generator: Adobe Illustrator 26.4.1, SVG Export Plug-In . SVG Version: 6.00 Build 0)  -->
<svg version="1.1" id="Слой_1" xmlns="http://www.w3.org/2000/svg" xmlns:xlink="http://www.w3.org/1999/xlink" x="0px" y="0px"
	 viewBox="0 0 512 525" style="enable-background:new 0 0 512 525;" xml:space="preserve">
<g transform="translate(0.000000,525.000000) scale(0.100000,-0.100000)">
	<path d="M4401,5227c-16-18-24-44-31-104c-20-182-119-326-275-403c-60-30-174-60-231-60c-62,0-97-80-56-130c14-17,34-24,96-31
		c137-15,214-50,309-139c90-84,157-220,157-320c0-49,18-98,40-110c30-16,79-11,99,9c13,13,22,40,25,78c19,176,86,300,211,387
		c83,59,149,84,246,95c72,8,87,13,106,36c28,32,29,64,3,97c-16,21-33,27-103,36c-107,14-182,42-257,98c-114,84-181,203-201,358
		c-8,57-17,88-32,104C4479,5258,4430,5257,4401,5227z M4481,4813c34-55,135-158,191-194c26-17,48-32,48-34c0-1-19-15-42-30
		c-63-42-142-119-185-182l-38-55l-15,23c-42,64-120,146-181,191c-38,28-69,52-69,53c0,2,17,14,38,26c54,34,157,135,193,191
		c17,26,32,48,34,48S4469,4833,4481,4813z"/>
	<path d="M1120,5044c-160-21-367-108-509-214c-47-34-127-105-178-157C24,4257-92,3771,77,3175c59-210,179-475,356-792
		c145-259,163-299,171-373c4-36,23-168,42-295c96-629,217-1095,359-1380C1174-3,1331-72,1597,75c87,49,242,202,313,310
		c177,272,272,616,299,1086c8,129,12,152,37,203c41,84,142,165,207,166c30,0,110-46,148-87c66-69,81-112,91-263
		c25-399,88-684,203-928c121-256,308-453,505-533c73-29,189-32,242-5c271,134,502,817,648,1915c23,174,13,151,215,511
		c278,494,385,829,388,1205c1,190-16,319-49,352c-31,31-78,30-110-3c-22-21-25-32-21-62c3-20,11-86,18-146c43-398-130-931-472-1456
		c-37-58-75-121-83-140s-31-150-51-290C3972,837,3744,160,3536,160c-77,0-220,83-307,178c-210,229-338,595-369,1059
		c-15,214-26,277-63,352c-41,83-129,171-214,213c-54,26-77,32-132,32c-57,0-76-5-138-38c-90-47-173-133-213-219
		c-33-70-43-131-60-372c-34-475-177-850-407-1065c-114-107-241-160-313-130c-195,81-431,859-555,1830c-22,173-31,201-88,288
		c-241,368-383,680-461,1012c-80,335-58,644,63,895c62,129,128,221,248,346c353,368,691,434,1218,238c110-41,462-195,479-210
		c11-10-129-54-235-73c-46-9-131-20-188-25c-90-7-107-11-123-31c-28-34-23-84,10-110c25-21,34-22,118-16c115,8,284,38,397,71
		c118,34,225,77,547,220c324,144,484,206,617,240c200,50,353,55,499,19c53-14,66-14,90-2c52,24,58,102,10,133c-41,27-165,47-291,48
		c-264,1-453-55-987-292c-125-56-231-101-236-101s-117,48-248,106c-381,169-544,229-718,265C1389,5041,1192,5053,1120,5044z"/>
	<path d="M1420,4047c-32-16-50-52-50-102c0-144-97-308-233-396c-72-47-132-67-231-78c-92-11-116-27-116-81c0-45,33-80,76-80
		c119,0,266-62,352-148c90-90,152-227,152-335c0-40,5-53,29-78c34-33,69-37,101-11c18,14,25,37,36,112c37,251,203,417,454,454
		c75,11,98,18,112,36c26,32,22,67-11,101c-25,24-38,29-78,29c-158,0-345,121-421,271c-31,62-61,175-62,231c0,40-10,57-41,73
		C1455,4063,1452,4063,1420,4047z M1558,3518c26-28,73-68,105-90l58-40l-48-31c-63-41-140-119-185-186l-36-53l-28,43
		c-39,62-128,153-185,190c-27,17-49,34-49,38c0,3,21,19,47,36c61,38,141,119,183,183l33,51l29-45C1497,3589,1532,3546,1558,3518z"/>
	<path d="M3320,3342c-18-14-25-37-36-112c-38-255-208-422-458-450c-68-8-85-13-103-35c-13-14-23-37-23-50s10-36,23-50
		c18-22,35-27,103-35c249-28,420-195,458-448c15-105,32-132,81-132c56,0,76,26,85,110c12,103,33,166,78,236c92,140,214,214,387,234
		c93,11,119,30,119,85s-26,74-119,85c-173,20-295,94-387,234c-45,70-66,133-78,236c-6,58-13,78-30,92C3392,3365,3348,3365,3320,3342
		z M3397,2921c33-58,114-141,181-186l59-39l-68-48c-66-46-160-147-182-195c-13-30-19-29-40,6c-42,71-155,182-232,227
		c-16,9-13,13,29,38c59,35,151,125,191,188c17,27,32,48,35,48S3385,2942,3397,2921z"/>
</g>
</svg>
