<svg width="24" height="25" viewBox="0 0 24 25" fill="none" xmlns="http://www.w3.org/2000/svg">
<g clip-path="url(#clip0_1467_18751)">
<path fill-rule="evenodd" clip-rule="evenodd" d="M2.25 3.5H21.75L22.5 4.25V12.5045C22.0355 12.1559 21.5322 11.8624 21 11.63V5H3V18.5H10.5C10.5 20.1228 11.0263 21.7018 12 23H6V21.5H10.5V20H2.25L1.5 19.25V4.25L2.25 3.5Z" fill="#26599B"/>
<path d="M18 12.5C16.4087 12.5 14.8826 13.1321 13.7574 14.2574C12.6321 15.3826 12 16.9087 12 18.5C12 20.0913 12.6321 21.6174 13.7574 22.7426C14.8826 23.8679 16.4087 24.5 18 24.5C19.5913 24.5 21.1174 23.8679 22.2426 22.7426C23.3679 21.6174 24 20.0913 24 18.5C24 16.9087 23.3679 15.3826 22.2426 14.2574C21.1174 13.1321 19.5913 12.5 18 12.5ZM18 23C16.8063 23 15.6615 22.5258 14.8175 21.6818C13.9734 20.8377 13.4993 19.6929 13.4993 18.4993C13.4993 17.3056 13.9734 16.1608 14.8175 15.3167C15.6615 14.4727 16.8063 13.9985 18 13.9985C19.1937 13.9985 20.3385 14.4727 21.1825 15.3167C22.0266 16.1608 22.5007 17.3056 22.5007 18.4993C22.5007 19.6929 22.0266 20.8377 21.1825 21.6818C20.3385 22.5258 19.1937 23 18 23Z" fill="#26599B"/>
<path fill-rule="evenodd" clip-rule="evenodd" d="M18.1995 17.6525L20.3535 19.8065L21 19.16L19.494 17.6525L21 16.1465L20.3535 15.5015L18.1995 17.6525ZM16.506 19.253L15 17.747L15.6465 17.1005L17.8005 19.253L15.6465 21.407L15 20.7605L16.506 19.253Z" fill="#26599B"/>
<path d="M4.95215 6.52344H5.59131L7.22168 10.5806L8.84863 6.52344H9.49121L7.46777 11.5H6.96875L4.95215 6.52344ZM4.74365 6.52344H5.30762L5.3999 9.55859V11.5H4.74365V6.52344ZM9.13232 6.52344H9.69629V11.5H9.04004V9.55859L9.13232 6.52344ZM11.542 10.3584L13.9927 6.52344H14.6523V11.5H13.9927V7.66162L11.542 11.5H10.8857V6.52344H11.542V10.3584ZM18.8564 9.91748H19.5127C19.4785 10.2319 19.3885 10.5133 19.2427 10.7617C19.0968 11.0101 18.8906 11.2072 18.624 11.353C18.3574 11.4966 18.0247 11.5684 17.626 11.5684C17.3343 11.5684 17.0688 11.5137 16.8296 11.4043C16.5926 11.2949 16.3887 11.14 16.2178 10.9395C16.0469 10.7367 15.9147 10.494 15.8213 10.2114C15.7301 9.9266 15.6846 9.60986 15.6846 9.26123V8.76562C15.6846 8.41699 15.7301 8.1014 15.8213 7.81885C15.9147 7.53402 16.048 7.2902 16.2212 7.0874C16.3966 6.8846 16.6074 6.72852 16.8535 6.61914C17.0996 6.50977 17.3765 6.45508 17.6841 6.45508C18.0601 6.45508 18.3779 6.52572 18.6377 6.66699C18.8975 6.80827 19.0991 7.00423 19.2427 7.25488C19.3885 7.50326 19.4785 7.7915 19.5127 8.11963H18.8564C18.8245 7.88721 18.7653 7.68783 18.6787 7.52148C18.5921 7.35286 18.4691 7.22298 18.3096 7.13184C18.1501 7.04069 17.9416 6.99512 17.6841 6.99512C17.4631 6.99512 17.2682 7.03727 17.0996 7.12158C16.9333 7.20589 16.7931 7.32552 16.6792 7.48047C16.5675 7.63542 16.4832 7.82113 16.4263 8.0376C16.3693 8.25407 16.3408 8.49447 16.3408 8.75879V9.26123C16.3408 9.50505 16.3659 9.73405 16.416 9.94824C16.4684 10.1624 16.547 10.3504 16.6519 10.5122C16.7567 10.674 16.89 10.8016 17.0518 10.895C17.2135 10.9862 17.4049 11.0317 17.626 11.0317C17.9062 11.0317 18.1296 10.9873 18.2959 10.8984C18.4622 10.8096 18.5876 10.682 18.6719 10.5156C18.7585 10.3493 18.82 10.1499 18.8564 9.91748Z" fill="#26599B"/>
</g>
<defs>
<clipPath id="clip0_1467_18751">
<rect width="24" height="24" fill="white" transform="translate(0 0.5)"/>
</clipPath>
</defs>
</svg>
