<svg width="50" height="50" viewBox="0 0 50 50" fill="none" xmlns="http://www.w3.org/2000/svg">
<path d="M24.0052 1.03302C21.8839 1.30319 19.7726 2.11369 18.1315 3.26441C17.321 3.83477 17.1509 4.18499 17.4511 4.63527C17.5912 4.85541 17.9614 5.07554 18.1916 5.07554C18.2316 5.07554 18.5718 4.86541 18.952 4.61526C21.5537 2.90419 24.3154 2.26379 27.1572 2.72408C31.9302 3.49456 35.7425 7.33696 36.463 12.0799C36.543 12.6002 36.6131 13.2707 36.6131 13.5608C36.6131 13.9911 36.6631 14.1412 36.8632 14.3313C37.1934 14.6715 37.6437 14.6615 37.9839 14.3213C38.2341 14.0612 38.2441 14.0412 38.1841 13.0405C37.9939 9.93859 36.7832 7.18686 34.6218 4.94546C32.7707 3.02426 30.7194 1.86354 28.1078 1.26316C27.2672 1.07304 24.8057 0.932956 24.0052 1.03302Z" fill="#35495D"/>
<path d="M15.5409 5.77598C15.2507 5.89606 14.3801 7.20688 13.8498 8.31757C13.0993 9.92858 12.7491 11.2694 12.6491 12.9905C12.579 14.0512 12.579 14.0612 12.8392 14.3213C13.1794 14.6615 13.6297 14.6715 13.9599 14.3313C14.17 14.1312 14.21 13.9911 14.21 13.5108C14.21 11.5696 14.9405 9.3182 16.1913 7.43702C16.4714 7.01676 16.6416 6.63652 16.6416 6.45641C16.6416 5.94609 16.0412 5.56585 15.5409 5.77598Z" fill="#35495D"/>
<path d="M26.5317 9.94852C26.4216 10.0486 25.9913 10.5889 25.5811 11.1393C24.7306 12.28 24.2803 12.7002 23.7199 12.8703C23.4598 12.9404 22.169 12.9804 19.8175 12.9804H16.2953L16.0551 13.2306C15.825 13.4507 15.805 13.5508 15.805 14.4313V15.3819H14.8944C13.5836 15.3819 13.1533 15.522 12.5429 16.1224C11.9526 16.7127 11.7424 17.3031 11.8325 18.0836C11.9025 18.684 12.0827 19.0442 12.5229 19.4745C13.0933 20.0448 13.3434 20.1249 14.6142 20.1649L15.775 20.2049L15.835 21.3757C15.9651 24.0073 16.9457 26.1687 18.8169 27.9398C19.1671 28.28 19.5773 28.6402 19.7374 28.7403L20.0076 28.9404L17.9063 32.4426C16.6555 34.5339 15.805 36.0448 15.805 36.1949C15.805 36.6352 16.0651 36.8753 16.8056 37.1055L17.496 37.3356L17.0558 37.8059C16.7656 38.1161 16.6055 38.3763 16.6055 38.5464C16.6055 38.6865 17.7362 41.048 19.107 43.7997C21.0383 47.6621 21.6686 48.8328 21.8488 48.9229C22.1289 49.043 22.5292 48.9729 22.7493 48.7428C23.1696 48.3325 23.1496 48.2925 20.7181 43.4194L18.3966 38.7765L19.047 38.0961C19.7775 37.3456 19.8975 37.0555 19.6674 36.6152C19.5373 36.365 19.3772 36.265 18.6868 36.0448C18.2265 35.8947 17.8463 35.7547 17.8262 35.7446C17.8162 35.7346 18.4166 34.694 19.1771 33.4332L20.558 31.1418L20.628 31.9423C20.708 32.9029 24.6205 48.5526 24.8306 48.7628C25.0908 49.0329 25.5511 49.043 25.8513 48.7828C26.1014 48.5727 26.2815 47.9323 28.1227 40.5977C29.2334 36.1949 30.1539 32.3125 30.194 31.9022L30.264 31.1618L31.5648 33.3431C32.2853 34.5539 32.8757 35.5845 32.8957 35.6546C32.9157 35.7246 32.5955 35.8847 32.1252 36.0448C30.7443 36.5051 30.6543 36.9454 31.7249 38.0461L32.4254 38.7765L30.1239 43.3894C28.8531 45.921 27.8125 48.1124 27.8125 48.2525C27.8125 48.5627 28.2227 49.0029 28.5029 49.0029C29.1033 49.0029 29.1333 48.9629 31.7349 43.7496C33.8262 39.577 34.2365 38.6865 34.1765 38.4563C34.1364 38.3062 33.9363 37.9961 33.7162 37.7559L33.3259 37.3356L34.0164 37.1055C34.7468 36.8753 35.017 36.6352 35.017 36.2149C35.017 36.0849 34.0764 34.4038 32.9157 32.4726C31.765 30.5514 30.8144 28.9504 30.8144 28.9104C30.8144 28.8703 31.0045 28.7002 31.2246 28.5401C32.3553 27.7096 32.6655 27.0392 32.1652 26.5389C31.775 26.1386 31.5248 26.2187 30.5942 26.9892C29.6736 27.7697 28.3128 28.5001 27.3122 28.7603C26.4016 29.0004 24.3003 29.0004 23.4097 28.7603C21.8588 28.33 20.2177 27.2794 19.2171 26.0686C18.6368 25.3582 17.8963 23.9473 17.6361 23.0367C17.496 22.5264 17.466 21.8259 17.426 18.5139L17.396 14.5914L20.678 14.5614L23.9701 14.5314L24.7406 14.1511C25.491 13.7809 25.5911 13.6909 26.6418 12.4301L26.8819 12.1399L27.092 12.5401C27.4022 13.1405 28.4029 14.0211 29.0833 14.2912C29.6036 14.5014 29.8638 14.5314 31.5448 14.5614L33.416 14.6014V17.8335C33.416 21.4257 33.3459 22.2262 32.8957 23.527C32.5655 24.5076 32.5855 24.7378 33.0558 25.048C33.3559 25.2381 33.7262 25.178 34.0064 24.8979C34.4266 24.4776 35.017 22.0461 35.017 20.7052V20.1849H36.0476C36.8581 20.1849 37.1583 20.1349 37.5186 19.9748C38.4792 19.5445 38.9595 18.8041 38.9595 17.7834C38.9595 16.7628 38.4792 16.0223 37.5186 15.592C37.1583 15.4319 36.8581 15.3819 36.0476 15.3819H35.017V14.5214C35.017 13.6708 34.9269 13.3406 34.6267 13.1105C34.5167 13.0204 33.8463 12.9804 32.3153 12.9804C29.3034 12.9704 29.1033 12.8804 28.1727 11.0992C27.6124 10.0186 27.3822 9.77841 26.9219 9.77841C26.8219 9.77841 26.6418 9.85846 26.5317 9.94852ZM15.805 17.7834V18.5839H14.8544C13.9738 18.5839 13.8738 18.5639 13.6536 18.3338C13.4935 18.1837 13.4035 17.9735 13.4035 17.7834C13.4035 17.5933 13.4935 17.3832 13.6536 17.2331C13.8738 17.0029 13.9738 16.9829 14.8544 16.9829H15.805V17.7834ZM37.1683 17.2331C37.3284 17.3832 37.4185 17.5933 37.4185 17.7834C37.4185 17.9735 37.3284 18.1837 37.1683 18.3338C36.9482 18.5639 36.8481 18.5839 35.9676 18.5839H35.017V17.7834V16.9829H35.9676C36.8481 16.9829 36.9482 17.0029 37.1683 17.2331ZM28.0026 34.5139L27.3922 36.9954H25.411H23.4297L22.8194 34.5439C22.269 32.3525 22.209 31.9923 22.209 31.0817C22.209 30.0811 22.209 30.0711 22.4391 30.1311C23.6299 30.4713 24.0601 30.5314 25.361 30.5314C26.6918 30.5414 27.8825 30.3613 28.4129 30.0811C28.5429 30.0211 28.563 30.1511 28.593 31.0217C28.623 31.9823 28.593 32.1724 28.0026 34.5139ZM26.2215 41.6483C25.8112 43.3294 25.441 44.7002 25.411 44.7002C25.381 44.7002 25.0107 43.3294 24.6005 41.6483L23.84 38.5964H25.411H26.982L26.2215 41.6483Z" fill="#35495D"/>
<path d="M12.8517 21.2357L12.6016 21.4759V26.1888V30.9018L12.8517 31.1419C13.0919 31.3921 13.1119 31.3921 15.0031 31.3921C16.8942 31.3921 16.9143 31.3921 17.1544 31.1419C17.3145 30.9918 17.4046 30.7817 17.4046 30.5916C17.4046 30.4015 17.3145 30.1913 17.1544 30.0412C16.9243 29.8011 16.8642 29.7911 15.5534 29.7911H14.2026V25.6385V21.4759L13.9524 21.2357C13.8023 21.0756 13.5922 20.9856 13.4021 20.9856C13.2119 20.9856 13.0018 21.0756 12.8517 21.2357Z" fill="#35495D"/>
<path d="M36.874 21.2357L36.6239 21.4759V25.6385V29.7911H35.273C33.9622 29.7911 33.9022 29.8011 33.672 30.0412C33.5119 30.1913 33.4219 30.4015 33.4219 30.5916C33.4219 30.7817 33.5119 30.9918 33.672 31.1419C33.9122 31.3921 33.9322 31.3921 35.8234 31.3921C37.7146 31.3921 37.7346 31.3921 37.9747 31.1419L38.2249 30.9018V26.1888V21.4759L37.9747 21.2357C37.8246 21.0756 37.6145 20.9856 37.4244 20.9856C37.2343 20.9856 37.0241 21.0756 36.874 21.2357Z" fill="#35495D"/>
<path d="M12.8036 34.5841C12.4434 34.7442 11.5228 35.1744 10.7523 35.5447C9.50156 36.145 9.27142 36.2951 8.65103 36.9355C8.20075 37.3858 7.83052 37.8861 7.63039 38.3064C7.03002 39.5171 7 39.8173 7 44.3802V48.5128L7.25016 48.7529C7.54034 49.0531 7.99062 49.0731 8.31082 48.813L8.55097 48.6228L8.601 44.2801C8.65103 39.9974 8.65103 39.9374 8.89118 39.347C9.07129 38.9068 9.31144 38.5666 9.79174 38.0963C10.3921 37.4959 10.6023 37.3658 12.1532 36.6554C13.8843 35.8649 14.3046 35.5647 14.3046 35.1444C14.3046 34.8642 13.9443 34.434 13.6542 34.3539C13.5441 34.3239 13.1639 34.434 12.8036 34.5841Z" fill="#35495D"/>
<path d="M36.9673 34.414C36.477 34.7041 36.3769 35.2345 36.7472 35.6247C36.8673 35.7648 37.7378 36.2251 38.6684 36.6554C40.2093 37.3658 40.4295 37.4959 41.0299 38.0963C41.5102 38.5666 41.7503 38.9068 41.9304 39.347C42.1706 39.9374 42.1706 39.9874 42.2206 44.2801L42.2706 48.6228L42.5108 48.813C42.831 49.0731 43.2813 49.0531 43.5714 48.7529L43.8216 48.5128V44.3802C43.8216 39.7573 43.7916 39.4871 43.1612 38.2864C42.4107 36.8655 41.7103 36.2951 39.3288 35.1844C37.4476 34.3139 37.2475 34.2439 36.9673 34.414Z" fill="#35495D"/>
<path d="M13.255 40.4477C13.0449 40.6478 13.0049 40.7879 13.0049 41.2482V41.7986H11.8542C10.7535 41.7986 10.6834 41.8086 10.4533 42.0487C10.2031 42.2889 10.2031 42.3089 10.2031 44.2001C10.2031 46.0912 10.2031 46.1113 10.4533 46.3514L10.6934 46.6016H13.8054H16.9173L17.1575 46.3514C17.4076 46.1113 17.4076 46.0912 17.4076 44.2001C17.4076 42.3089 17.4076 42.2889 17.1575 42.0487C16.9273 41.8086 16.8573 41.7986 15.7566 41.7986H14.6059V41.2482C14.6059 40.5778 14.3157 40.1976 13.8054 40.1976C13.6153 40.1976 13.4051 40.2876 13.255 40.4477ZM15.8066 44.2001V45.0006H13.8054H11.8041V44.2001V43.3996H13.8054H15.8066V44.2001Z" fill="#35495D"/>
<path d="M36.8679 40.4477C36.6378 40.6679 36.6177 40.7679 36.6177 41.6485V42.5991H35.6672C34.7866 42.5991 34.6865 42.6191 34.4664 42.8492C34.1362 43.1694 34.1362 43.6297 34.4664 43.9499C34.6865 44.18 34.7866 44.2001 35.6672 44.2001H36.6177V45.1507C36.6177 46.0312 36.6378 46.1313 36.8679 46.3514C37.018 46.5115 37.2281 46.6016 37.4182 46.6016C37.6084 46.6016 37.8185 46.5115 37.9686 46.3514C38.1987 46.1313 38.2187 46.0312 38.2187 45.1507V44.2001H39.1693C40.0499 44.2001 40.15 44.18 40.3701 43.9499C40.5302 43.7998 40.6203 43.5897 40.6203 43.3996C40.6203 43.2094 40.5302 42.9993 40.3701 42.8492C40.15 42.6191 40.0499 42.5991 39.1693 42.5991H38.2187V41.6485C38.2187 40.7679 38.1987 40.6679 37.9686 40.4477C37.8185 40.2876 37.6084 40.1976 37.4182 40.1976C37.2281 40.1976 37.018 40.2876 36.8679 40.4477Z" fill="#35495D"/>
</svg>
