<svg width="184" height="99" viewBox="0 0 184 99" fill="none" xmlns="http://www.w3.org/2000/svg">
<path d="M17.0931 32.5922H11.2026L1 52.1339H6.86229L8.72243 48.4399H19.6015L21.4335 52.1339H27.3239L17.0931 32.5922ZM10.6108 44.633L14.1901 37.4142L17.7413 44.633H10.6108Z" fill="#0B0B0B"/>
<path d="M51.7075 36.5682C51.4257 35.7504 50.9466 35.0455 50.3265 34.4533C49.7065 33.8611 48.8891 33.4099 47.8745 33.0716C46.8599 32.7614 45.648 32.5922 44.2106 32.5922H30.1749V52.1621H35.4453V45.9584H44.2106C45.648 45.9584 46.8599 45.8174 47.8745 45.479C48.8891 45.1406 49.7065 44.6894 50.3265 44.0973C50.9466 43.5051 51.4257 42.8001 51.7075 41.9542C51.9894 41.1364 52.1303 40.234 52.1303 39.2753C52.1303 38.2883 51.9894 37.386 51.7075 36.5682ZM46.6062 40.516C46.4653 40.8262 46.268 41.08 45.958 41.2774C45.6762 41.4466 45.2816 41.5876 44.8024 41.6722C44.3515 41.7568 43.7596 41.8132 43.055 41.8132H35.4453V36.7656H43.055C43.7596 36.7656 44.3515 36.822 44.8024 36.9066C45.2816 37.0194 45.6762 37.1604 45.958 37.386C46.268 37.5834 46.4653 37.8371 46.6062 38.1755C46.719 38.5139 46.8035 38.9087 46.8035 39.3599C46.8035 39.8111 46.719 40.2058 46.6062 40.516Z" fill="#0B0B0B"/>
<path d="M76.4787 36.5682C76.1969 35.7504 75.7177 35.0455 75.0977 34.4533C74.4776 33.8611 73.6603 33.4099 72.6457 33.0716C71.631 32.7614 70.4191 32.5922 68.9817 32.5922H54.9461V52.1621H60.2165V45.9584H68.9817C70.4191 45.9584 71.631 45.8174 72.6457 45.479C73.6603 45.1406 74.4776 44.6894 75.0977 44.0973C75.7177 43.5051 76.1969 42.8001 76.4787 41.9542C76.7605 41.1364 76.9015 40.234 76.9015 39.2753C76.9015 38.2883 76.7605 37.386 76.4787 36.5682ZM71.3774 40.516C71.2365 40.8262 71.0392 41.08 70.7291 41.2774C70.4473 41.4466 70.0527 41.5876 69.5736 41.6722C69.1227 41.7568 68.5308 41.8132 67.8262 41.8132H60.2165V36.7656H67.8262C68.5308 36.7656 69.1227 36.822 69.5736 36.9066C70.0527 37.0194 70.4473 37.1604 70.7291 37.386C71.0392 37.5834 71.2365 37.8371 71.3774 38.1755C71.4901 38.5139 71.5747 38.9087 71.5747 39.3599C71.5747 39.8111 71.4901 40.2058 71.3774 40.516Z" fill="#0B0B0B"/>
<path d="M99.9534 44.3793C99.6715 43.8153 99.277 43.3077 98.7978 42.8565C98.2905 42.4335 97.7268 42.0388 97.0786 41.7286C96.4304 41.3902 95.7258 41.1082 94.993 40.8544C94.2602 40.6288 93.4992 40.4032 92.7101 40.2058C91.9209 40.0366 91.16 39.8675 90.4272 39.6983C89.6944 39.5291 89.018 39.3881 88.3415 39.2471C87.6933 39.1061 87.1296 38.9369 86.6223 38.7677C86.1432 38.5985 85.7486 38.4293 85.4668 38.2037C85.1849 37.9781 85.044 37.7525 85.044 37.4706C85.044 37.386 85.044 37.2732 85.1004 37.1604C85.1286 37.0758 85.1849 36.963 85.2977 36.8502C85.4104 36.7656 85.5795 36.6528 85.805 36.54C86.0023 36.4554 86.3123 36.3708 86.6787 36.2862C87.0169 36.2298 87.496 36.1452 88.0315 36.117C88.567 36.0606 89.2153 36.0324 89.948 36.0324C90.9063 36.0324 91.8364 36.117 92.7383 36.2298C93.6402 36.3708 94.4857 36.54 95.2466 36.7656C96.0076 36.963 96.684 37.1886 97.3041 37.4142C97.9241 37.6398 98.4033 37.8371 98.7697 38.0063V33.4945C98.1496 33.2971 97.4732 33.0998 96.7686 32.9306C96.0358 32.7332 95.2748 32.5922 94.5139 32.4512C93.7247 32.3102 92.9356 32.1974 92.1182 32.1128C91.3291 32.0564 90.5399 32 89.7789 32C89.1025 32 88.3697 32.0282 87.6088 32.0846C86.8478 32.141 86.0868 32.2538 85.3259 32.3948C84.5649 32.564 83.8603 32.7614 83.1839 33.0434C82.5074 33.3253 81.9156 33.6919 81.3801 34.1149C80.8728 34.5661 80.45 35.1019 80.1682 35.7222C79.8581 36.3426 79.7172 37.104 79.7172 37.9499C79.7172 38.6831 79.8581 39.3317 80.14 39.8957C80.4218 40.4314 80.8164 40.939 81.2955 41.362C81.8028 41.785 82.3665 42.1516 83.0148 42.4617C83.663 42.7719 84.3676 43.0257 85.1004 43.2513C85.8332 43.5051 86.5941 43.7025 87.3833 43.8717C88.1443 44.0409 88.9052 44.2101 89.638 44.3511C90.3708 44.492 91.0754 44.633 91.7236 44.774C92.3719 44.9432 92.9637 45.0842 93.4429 45.2534C93.9502 45.4508 94.3166 45.6482 94.5984 45.8738C94.9084 46.0994 95.0494 46.3814 95.0494 46.6916C95.0494 46.8889 94.9648 47.1145 94.8239 47.3119C94.683 47.5375 94.4011 47.7349 94.0065 47.9323C93.612 48.1015 93.0483 48.2707 92.3437 48.3835C91.6391 48.4963 90.7372 48.5527 89.6098 48.5527C87.7215 48.5527 85.9459 48.3553 84.283 47.9605C82.6202 47.5375 81.1264 46.9735 79.83 46.2686V50.9214C81.0982 51.4007 82.5356 51.7955 84.1985 52.1057C85.8332 52.4441 87.6369 52.5851 89.5535 52.5851C90.3144 52.5851 91.0754 52.5569 91.8927 52.5287C92.7101 52.4723 93.5274 52.3595 94.3447 52.2185C95.1339 52.0775 95.8949 51.8519 96.6277 51.5699C97.3605 51.2879 98.0087 50.9214 98.5724 50.4702C99.1079 49.9908 99.5588 49.4268 99.897 48.7501C100.235 48.0733 100.376 47.2555 100.376 46.325C100.376 45.5918 100.235 44.9432 99.9534 44.3793Z" fill="#0B0B0B"/>
<path d="M128.898 37.8371C128.278 36.5682 127.404 35.4966 126.249 34.6225C125.093 33.7765 123.712 33.0998 122.077 32.6768C120.443 32.2256 118.583 32 116.553 32C114.524 32 112.664 32.2256 111.029 32.6768C109.395 33.0998 107.985 33.7765 106.83 34.6225C105.674 35.4966 104.772 36.5682 104.152 37.8371C103.532 39.1343 103.222 40.6288 103.222 42.2925C103.222 43.9845 103.532 45.4508 104.152 46.7479C104.772 48.0451 105.674 49.1166 106.83 49.9626C107.985 50.8368 109.395 51.4853 111.029 51.9365C112.664 52.3595 114.524 52.5851 116.553 52.5851C118.583 52.5851 120.443 52.3595 122.077 51.9365C123.712 51.4853 125.093 50.8368 126.249 49.9626C127.404 49.1166 128.278 48.0451 128.898 46.7479C129.518 45.4508 129.8 43.9845 129.8 42.2925C129.8 40.6288 129.518 39.1343 128.898 37.8371ZM124.135 44.492C123.909 45.2252 123.487 45.8738 122.895 46.4378C122.303 47.0299 121.486 47.4811 120.471 47.8477C119.428 48.2143 118.132 48.3835 116.553 48.3835C115.482 48.3835 114.552 48.2989 113.763 48.1297C112.946 47.9887 112.241 47.7631 111.649 47.4529C111.086 47.1709 110.578 46.8325 110.184 46.4378C109.789 46.043 109.479 45.6482 109.226 45.1688C109 44.7176 108.831 44.2665 108.718 43.7589C108.634 43.2795 108.577 42.7719 108.577 42.2925C108.577 41.8132 108.634 41.3338 108.718 40.8544C108.831 40.375 109 39.8957 109.226 39.4445C109.479 38.9933 109.789 38.5703 110.184 38.1755C110.578 37.7807 111.086 37.4424 111.649 37.1604C112.241 36.8502 112.946 36.6246 113.763 36.4554C114.552 36.2862 115.482 36.2016 116.553 36.2016C118.132 36.2016 119.428 36.399 120.471 36.7374C121.486 37.104 122.303 37.5834 122.895 38.1473C123.487 38.7395 123.909 39.3881 124.135 40.1212C124.36 40.8544 124.473 41.5594 124.473 42.2925C124.473 43.0257 124.36 43.7589 124.135 44.492Z" fill="#0B0B0B"/>
<path d="M138.169 37.9781C138.366 37.6398 138.62 37.3578 138.958 37.1886C139.296 36.9912 139.719 36.8784 140.198 36.822C140.706 36.7938 141.241 36.7656 141.861 36.7656H153.36V32.5922H141.692C139.973 32.5922 138.535 32.7332 137.38 33.0152C136.224 33.3253 135.294 33.7483 134.59 34.2841C133.885 34.8199 133.378 35.4966 133.096 36.2862C132.786 37.104 132.645 38.0063 132.645 38.9933V52.1621H137.915V44.3229H152.656V40.1776H137.915V39.4445C137.915 38.8241 138 38.3447 138.169 37.9781Z" fill="#0B0B0B"/>
<path d="M156.178 32.5922V36.8502H164.464V52.1339H169.734V36.8502H178.048V32.5922H156.178Z" fill="#0B0B0B"/>
<path d="M2.17969 64.5534V58.6323H6.64318V64.5534H6.06026V59.1493H2.76261V64.5534H2.17969Z" fill="#0B0B0B"/>
<path d="M10.7641 64.6368C10.4033 64.6368 10.0785 64.5423 9.78983 64.3532C9.5067 64.1642 9.28186 63.9307 9.11531 63.6527V66.3297H8.54904V60.2084H9.05702V61.0507C9.22912 60.7783 9.45951 60.5587 9.74819 60.3919C10.0369 60.2196 10.345 60.1334 10.6725 60.1334C10.9723 60.1334 11.2471 60.1973 11.4969 60.3252C11.7468 60.4475 11.9633 60.6143 12.1465 60.8256C12.3297 61.0368 12.4713 61.2787 12.5712 61.5511C12.6767 61.818 12.7294 62.096 12.7294 62.3851C12.7294 62.7909 12.6461 63.1662 12.4796 63.5109C12.3186 63.8501 12.091 64.1225 11.7967 64.3282C11.5025 64.5339 11.1583 64.6368 10.7641 64.6368ZM10.6059 64.1364C10.8446 64.1364 11.0584 64.0892 11.2471 63.9946C11.4359 63.8946 11.5969 63.7611 11.7301 63.5943C11.8689 63.4275 11.9744 63.2413 12.0466 63.0356C12.1187 62.8243 12.1548 62.6075 12.1548 62.3851C12.1548 62.1516 12.1132 61.9292 12.0299 61.7179C11.9522 61.5066 11.8384 61.3204 11.6885 61.1592C11.5386 60.9979 11.3665 60.8701 11.1722 60.7755C10.9779 60.681 10.7669 60.6338 10.5393 60.6338C10.395 60.6338 10.2451 60.6616 10.0896 60.7172C9.93417 60.7728 9.78428 60.8534 9.63994 60.959C9.50114 61.0591 9.38456 61.1731 9.29018 61.3009C9.19581 61.4288 9.13752 61.565 9.11531 61.7096V63.0439C9.20413 63.2496 9.32349 63.4359 9.47339 63.6027C9.62328 63.7639 9.79538 63.8946 9.98969 63.9946C10.1895 64.0892 10.395 64.1364 10.6059 64.1364Z" fill="#0B0B0B"/>
<path d="M14.2216 64.5534V60.2168H14.7878V63.7861L17.4276 60.2084H17.9356V64.5534H17.3693V61.0424L14.7712 64.5534H14.2216Z" fill="#0B0B0B"/>
<path d="M19.7072 64.5534V60.2084H20.2735V62.0682H20.923L22.3803 60.2084H23.0299L21.3727 62.3184L23.2381 64.5534H22.5719L20.923 62.5936H20.2735V64.5534H19.7072Z" fill="#0B0B0B"/>
<path d="M24.1668 64.5784V64.0614C24.3167 64.0614 24.45 64.0224 24.5665 63.9446C24.6831 63.8612 24.7858 63.7222 24.8747 63.5276C24.969 63.333 25.044 63.0662 25.0995 62.727C25.155 62.3823 25.1911 61.9459 25.2078 61.4177L25.2577 60.2084H28.0724V64.5534H27.5061V60.7172H25.7574L25.7407 61.4677C25.7185 62.0682 25.6713 62.5713 25.5991 62.9772C25.527 63.3775 25.4243 63.6944 25.291 63.9279C25.1633 64.1614 25.0051 64.3282 24.8164 64.4283C24.6276 64.5284 24.4111 64.5784 24.1668 64.5784Z" fill="#0B0B0B"/>
<path d="M29.5158 63.3024C29.5158 63.03 29.5935 62.7965 29.749 62.6019C29.9044 62.4018 30.1182 62.2489 30.3902 62.1432C30.6678 62.032 30.987 61.9764 31.3478 61.9764C31.5588 61.9764 31.7781 61.9931 32.0057 62.0265C32.2333 62.0598 32.436 62.1099 32.6136 62.1766V61.8097C32.6136 61.4427 32.5054 61.1508 32.2888 60.934C32.0723 60.7172 31.7725 60.6087 31.3895 60.6087C31.1563 60.6087 30.9259 60.6532 30.6983 60.7422C30.4762 60.8256 30.2431 60.9507 29.9988 61.1175L29.7823 60.7172C30.0654 60.5226 30.343 60.378 30.615 60.2835C30.8871 60.1834 31.1646 60.1334 31.4478 60.1334C31.9807 60.1334 32.4027 60.2863 32.7135 60.5921C33.0244 60.8979 33.1799 61.3204 33.1799 61.8597V63.8695C33.1799 63.9474 33.1965 64.0058 33.2298 64.0447C33.2631 64.078 33.3159 64.0975 33.3881 64.1031V64.5534C33.327 64.5589 33.2743 64.5645 33.2298 64.5701C33.1854 64.5756 33.1521 64.5756 33.1299 64.5701C32.9911 64.5645 32.8856 64.52 32.8135 64.4366C32.7413 64.3532 32.7024 64.2643 32.6969 64.1698L32.6886 63.8529C32.4943 64.1031 32.2417 64.2976 31.9308 64.4366C31.6199 64.5701 31.3034 64.6368 30.9814 64.6368C30.7039 64.6368 30.4513 64.5784 30.2236 64.4617C30.0016 64.3393 29.8267 64.1781 29.699 63.978C29.5769 63.7722 29.5158 63.5471 29.5158 63.3024ZM32.4221 63.636C32.4831 63.5582 32.5303 63.4831 32.5636 63.4109C32.597 63.3386 32.6136 63.2746 32.6136 63.2191V62.5852C32.4249 62.513 32.2278 62.4574 32.0224 62.4184C31.8225 62.3795 31.6199 62.3601 31.4145 62.3601C31.0092 62.3601 30.6817 62.4407 30.4318 62.6019C30.182 62.7632 30.0571 62.9828 30.0571 63.2607C30.0571 63.422 30.0987 63.5749 30.182 63.7194C30.2653 63.8584 30.3874 63.9752 30.5484 64.0697C30.7094 64.1586 30.8982 64.2031 31.1147 64.2031C31.3867 64.2031 31.6393 64.1503 31.8725 64.0447C32.1112 63.939 32.2944 63.8028 32.4221 63.636Z" fill="#0B0B0B"/>
<path d="M34.4616 65.5625V64.0447H34.5366C34.6643 64.0447 34.7809 64.0058 34.8863 63.9279C34.9918 63.8501 35.0862 63.7139 35.1695 63.5193C35.2527 63.3247 35.3194 63.0578 35.3693 62.7187C35.4193 62.374 35.4526 61.9403 35.4693 61.4177L35.5109 60.2084H38.3339V64.0447H38.9168V65.5625H38.4088V64.5534H34.9613V65.5625H34.4616ZM35.3943 64.0447H37.7676V60.7172H36.0189L35.9939 61.4677C35.9772 61.9848 35.9411 62.4184 35.8856 62.7687C35.8357 63.1134 35.769 63.3886 35.6858 63.5943C35.6081 63.7945 35.5109 63.9446 35.3943 64.0447Z" fill="#0B0B0B"/>
<path d="M40.3081 64.5534V60.2084H40.8744V62.0765H43.356V60.2084H43.9222V64.5534H43.356V62.5852H40.8744V64.5534H40.3081Z" fill="#0B0B0B"/>
<path d="M47.5614 64.6368C47.2505 64.6368 46.9618 64.5784 46.6953 64.4617C46.4344 64.3393 46.2068 64.1753 46.0125 63.9696C45.8237 63.7583 45.6766 63.5193 45.5711 63.2524C45.4656 62.98 45.4129 62.6937 45.4129 62.3934C45.4129 62.0821 45.4656 61.793 45.5711 61.5261C45.6766 61.2537 45.8265 61.0146 46.0208 60.8089C46.2151 60.5976 46.4427 60.4336 46.7036 60.3169C46.9701 60.1945 47.2588 60.1334 47.5697 60.1334C47.8806 60.1334 48.1665 60.1945 48.4274 60.3169C48.6883 60.4336 48.916 60.5976 49.1103 60.8089C49.3046 61.0146 49.4545 61.2537 49.5599 61.5261C49.6654 61.793 49.7182 62.0821 49.7182 62.3934C49.7182 62.6937 49.6654 62.98 49.5599 63.2524C49.4545 63.5193 49.3046 63.7583 49.1103 63.9696C48.9215 64.1753 48.6939 64.3393 48.4274 64.4617C48.1665 64.5784 47.8778 64.6368 47.5614 64.6368ZM45.9875 62.4018C45.9875 62.7242 46.0569 63.0189 46.1957 63.2858C46.34 63.5471 46.5315 63.7556 46.7703 63.9112C47.009 64.0614 47.2727 64.1364 47.5614 64.1364C47.8501 64.1364 48.1138 64.0586 48.3525 63.9029C48.5912 63.7472 48.7827 63.536 48.9271 63.2691C49.0714 62.9967 49.1436 62.702 49.1436 62.3851C49.1436 62.0626 49.0714 61.768 48.9271 61.5011C48.7827 61.2342 48.5912 61.0229 48.3525 60.8673C48.1138 60.7116 47.8501 60.6338 47.5614 60.6338C47.2727 60.6338 47.009 60.7144 46.7703 60.8756C46.5371 61.0368 46.3483 61.2509 46.204 61.5178C46.0597 61.7791 45.9875 62.0737 45.9875 62.4018Z" fill="#0B0B0B"/>
<path d="M53.0802 64.6368C52.7693 64.6368 52.4806 64.5784 52.2141 64.4617C51.9476 64.3393 51.7172 64.1753 51.5229 63.9696C51.3286 63.7583 51.176 63.5165 51.0649 63.2441C50.9594 62.9716 50.9067 62.6798 50.9067 62.3684C50.9067 61.9625 50.9983 61.59 51.1815 61.2509C51.3703 60.9118 51.6284 60.6421 51.956 60.442C52.2835 60.2362 52.6555 60.1334 53.0718 60.1334C53.4993 60.1334 53.8713 60.2362 54.1877 60.442C54.5097 60.6477 54.7623 60.9201 54.9455 61.2592C55.1287 61.5928 55.2203 61.9598 55.2203 62.3601C55.2203 62.4045 55.2203 62.449 55.2203 62.4935C55.2203 62.5324 55.2175 62.563 55.212 62.5852H51.498C51.5257 62.8966 51.6118 63.1746 51.7561 63.4192C51.906 63.6583 52.0975 63.8501 52.3307 63.9946C52.5694 64.1336 52.8276 64.2031 53.1051 64.2031C53.3883 64.2031 53.6547 64.1308 53.9046 63.9863C54.1599 63.8417 54.3376 63.6527 54.4375 63.4192L54.9288 63.5526C54.84 63.7583 54.704 63.9446 54.5208 64.1114C54.3376 64.2782 54.1211 64.4088 53.8713 64.5034C53.627 64.5923 53.3633 64.6368 53.0802 64.6368ZM51.4813 62.1766H54.6874C54.6651 61.8597 54.5791 61.5817 54.4292 61.3426C54.2849 61.1036 54.0933 60.9173 53.8546 60.7839C53.6214 60.6449 53.3633 60.5754 53.0802 60.5754C52.797 60.5754 52.5389 60.6449 52.3057 60.7839C52.0725 60.9173 51.881 61.1063 51.7311 61.351C51.5868 61.59 51.5035 61.8653 51.4813 62.1766Z" fill="#0B0B0B"/>
<path d="M59.2907 64.5534V60.2084H62.7799V64.5534H62.2136V60.7172H59.857V64.5534H59.2907Z" fill="#0B0B0B"/>
<path d="M66.7884 64.6368C66.4275 64.6368 66.1027 64.5423 65.8141 64.3532C65.5309 64.1642 65.3061 63.9307 65.1395 63.6527V66.3297H64.5733V60.2084H65.0812V61.0507C65.2533 60.7783 65.4837 60.5587 65.7724 60.3919C66.0611 60.2196 66.3692 60.1334 66.6968 60.1334C66.9966 60.1334 67.2714 60.1973 67.5212 60.3252C67.771 60.4475 67.9875 60.6143 68.1707 60.8256C68.3539 61.0368 68.4955 61.2787 68.5954 61.5511C68.7009 61.818 68.7536 62.096 68.7536 62.3851C68.7536 62.7909 68.6704 63.1662 68.5038 63.5109C68.3428 63.8501 68.1152 64.1225 67.821 64.3282C67.5267 64.5339 67.1825 64.6368 66.7884 64.6368ZM66.6301 64.1364C66.8689 64.1364 67.0826 64.0892 67.2714 63.9946C67.4601 63.8946 67.6211 63.7611 67.7543 63.5943C67.8931 63.4275 67.9986 63.2413 68.0708 63.0356C68.143 62.8243 68.179 62.6075 68.179 62.3851C68.179 62.1516 68.1374 61.9292 68.0541 61.7179C67.9764 61.5066 67.8626 61.3204 67.7127 61.1592C67.5628 60.9979 67.3907 60.8701 67.1964 60.7755C67.0021 60.681 66.7911 60.6338 66.5635 60.6338C66.4192 60.6338 66.2693 60.6616 66.1138 60.7172C65.9584 60.7728 65.8085 60.8534 65.6642 60.959C65.5254 61.0591 65.4088 61.1731 65.3144 61.3009C65.22 61.4288 65.1617 61.565 65.1395 61.7096V63.0439C65.2284 63.2496 65.3477 63.4359 65.4976 63.6027C65.6475 63.7639 65.8196 63.8946 66.0139 63.9946C66.2138 64.0892 66.4192 64.1364 66.6301 64.1364Z" fill="#0B0B0B"/>
<path d="M72.1028 64.6368C71.7919 64.6368 71.5032 64.5784 71.2368 64.4617C70.9758 64.3393 70.7482 64.1753 70.5539 63.9696C70.3652 63.7583 70.218 63.5193 70.1126 63.2524C70.0071 62.98 69.9543 62.6937 69.9543 62.3934C69.9543 62.0821 70.0071 61.793 70.1126 61.5261C70.218 61.2537 70.3679 61.0146 70.5622 60.8089C70.7565 60.5976 70.9842 60.4336 71.2451 60.3169C71.5116 60.1945 71.8002 60.1334 72.1111 60.1334C72.422 60.1334 72.7079 60.1945 72.9689 60.3169C73.2298 60.4336 73.4574 60.5976 73.6517 60.8089C73.846 61.0146 73.9959 61.2537 74.1014 61.5261C74.2069 61.793 74.2596 62.0821 74.2596 62.3934C74.2596 62.6937 74.2069 62.98 74.1014 63.2524C73.9959 63.5193 73.846 63.7583 73.6517 63.9696C73.463 64.1753 73.2353 64.3393 72.9689 64.4617C72.7079 64.5784 72.4193 64.6368 72.1028 64.6368ZM70.5289 62.4018C70.5289 62.7242 70.5983 63.0189 70.7371 63.2858C70.8815 63.5471 71.073 63.7556 71.3117 63.9112C71.5504 64.0614 71.8141 64.1364 72.1028 64.1364C72.3915 64.1364 72.6552 64.0586 72.8939 63.9029C73.1326 63.7472 73.3242 63.536 73.4685 63.2691C73.6128 62.9967 73.685 62.702 73.685 62.3851C73.685 62.0626 73.6128 61.768 73.4685 61.5011C73.3242 61.2342 73.1326 61.0229 72.8939 60.8673C72.6552 60.7116 72.3915 60.6338 72.1028 60.6338C71.8141 60.6338 71.5504 60.7144 71.3117 60.8756C71.0785 61.0368 70.8898 61.2509 70.7454 61.5178C70.6011 61.7791 70.5289 62.0737 70.5289 62.4018Z" fill="#0B0B0B"/>
<path d="M75.7396 64.5534V60.2084H78.3294V60.7172H76.3059V64.5534H75.7396Z" fill="#0B0B0B"/>
<path d="M81.8792 64.6368C81.5183 64.6368 81.1936 64.5423 80.9049 64.3532C80.6217 64.1642 80.3969 63.9307 80.2304 63.6527V66.3297H79.6641V60.2084H80.1721V61.0507C80.3442 60.7783 80.5746 60.5587 80.8632 60.3919C81.1519 60.2196 81.46 60.1334 81.7876 60.1334C82.0874 60.1334 82.3622 60.1973 82.612 60.3252C82.8618 60.4475 83.0783 60.6143 83.2615 60.8256C83.4447 61.0368 83.5863 61.2787 83.6862 61.5511C83.7917 61.818 83.8445 62.096 83.8445 62.3851C83.8445 62.7909 83.7612 63.1662 83.5946 63.5109C83.4336 63.8501 83.206 64.1225 82.9118 64.3282C82.6175 64.5339 82.2733 64.6368 81.8792 64.6368ZM81.721 64.1364C81.9597 64.1364 82.1734 64.0892 82.3622 63.9946C82.5509 63.8946 82.7119 63.7611 82.8452 63.5943C82.984 63.4275 83.0894 63.2413 83.1616 63.0356C83.2338 62.8243 83.2699 62.6075 83.2699 62.3851C83.2699 62.1516 83.2282 61.9292 83.1449 61.7179C83.0672 61.5066 82.9534 61.3204 82.8035 61.1592C82.6536 60.9979 82.4815 60.8701 82.2872 60.7755C82.0929 60.681 81.882 60.6338 81.6543 60.6338C81.51 60.6338 81.3601 60.6616 81.2047 60.7172C81.0492 60.7728 80.8993 60.8534 80.755 60.959C80.6162 61.0591 80.4996 61.1731 80.4052 61.3009C80.3109 61.4288 80.2526 61.565 80.2304 61.7096V63.0439C80.3192 63.2496 80.4385 63.4359 80.5884 63.6027C80.7383 63.7639 80.9104 63.8946 81.1047 63.9946C81.3046 64.0892 81.51 64.1364 81.721 64.1364Z" fill="#0B0B0B"/>
<path d="M84.9952 63.3024C84.9952 63.03 85.0729 62.7965 85.2284 62.6019C85.3838 62.4018 85.5975 62.2489 85.8696 62.1432C86.1472 62.032 86.4664 61.9764 86.8272 61.9764C87.0382 61.9764 87.2575 61.9931 87.4851 62.0265C87.7127 62.0598 87.9153 62.1099 88.093 62.1766V61.8097C88.093 61.4427 87.9847 61.1508 87.7682 60.934C87.5517 60.7172 87.2519 60.6087 86.8689 60.6087C86.6357 60.6087 86.4053 60.6532 86.1777 60.7422C85.9556 60.8256 85.7225 60.9507 85.4782 61.1175L85.2617 60.7172C85.5448 60.5226 85.8224 60.378 86.0944 60.2835C86.3664 60.1834 86.644 60.1334 86.9272 60.1334C87.4601 60.1334 87.882 60.2863 88.1929 60.5921C88.5038 60.8979 88.6592 61.3204 88.6592 61.8597V63.8695C88.6592 63.9474 88.6759 64.0058 88.7092 64.0447C88.7425 64.078 88.7953 64.0975 88.8674 64.1031V64.5534C88.8064 64.5589 88.7536 64.5645 88.7092 64.5701C88.6648 64.5756 88.6315 64.5756 88.6093 64.5701C88.4705 64.5645 88.365 64.52 88.2928 64.4366C88.2207 64.3532 88.1818 64.2643 88.1763 64.1698L88.1679 63.8529C87.9736 64.1031 87.721 64.2976 87.4101 64.4366C87.0993 64.5701 86.7828 64.6368 86.4608 64.6368C86.1832 64.6368 85.9306 64.5784 85.703 64.4617C85.481 64.3393 85.3061 64.1781 85.1784 63.978C85.0563 63.7722 84.9952 63.5471 84.9952 63.3024ZM87.9015 63.636C87.9625 63.5582 88.0097 63.4831 88.043 63.4109C88.0763 63.3386 88.093 63.2746 88.093 63.2191V62.5852C87.9042 62.513 87.7071 62.4574 87.5017 62.4184C87.3019 62.3795 87.0993 62.3601 86.8938 62.3601C86.4886 62.3601 86.161 62.4407 85.9112 62.6019C85.6614 62.7632 85.5365 62.9828 85.5365 63.2607C85.5365 63.422 85.5781 63.5749 85.6614 63.7194C85.7447 63.8584 85.8668 63.9752 86.0278 64.0697C86.1888 64.1586 86.3775 64.2031 86.5941 64.2031C86.8661 64.2031 87.1187 64.1503 87.3518 64.0447C87.5906 63.939 87.7738 63.8028 87.9015 63.636Z" fill="#0B0B0B"/>
<path d="M90.4157 64.5534V60.2084H90.9986L92.7224 63.2024L94.4545 60.2084H95.0124V64.5534H94.4711V61.0591L92.9056 63.7778H92.5392L90.957 61.0591V64.5534H90.4157Z" fill="#0B0B0B"/>
<path d="M96.7959 64.5534V60.2084H97.3788L99.1026 63.2024L100.835 60.2084H101.393V64.5534H100.851V61.0591L99.2858 63.7778H98.9194L97.3372 61.0591V64.5534H96.7959Z" fill="#0B0B0B"/>
<path d="M103.176 64.5534V60.2084H103.742V62.0765H106.224V60.2084H106.79V64.5534H106.224V62.5852H103.742V64.5534H103.176Z" fill="#0B0B0B"/>
<path d="M110.429 64.6368C110.118 64.6368 109.83 64.5784 109.563 64.4617C109.302 64.3393 109.075 64.1753 108.88 63.9696C108.692 63.7583 108.545 63.5193 108.439 63.2524C108.334 62.98 108.281 62.6937 108.281 62.3934C108.281 62.0821 108.334 61.793 108.439 61.5261C108.545 61.2537 108.694 61.0146 108.889 60.8089C109.083 60.5976 109.311 60.4336 109.572 60.3169C109.838 60.1945 110.127 60.1334 110.438 60.1334C110.749 60.1334 111.034 60.1945 111.295 60.3169C111.556 60.4336 111.784 60.5976 111.978 60.8089C112.173 61.0146 112.322 61.2537 112.428 61.5261C112.533 61.793 112.586 62.0821 112.586 62.3934C112.586 62.6937 112.533 62.98 112.428 63.2524C112.322 63.5193 112.173 63.7583 111.978 63.9696C111.789 64.1753 111.562 64.3393 111.295 64.4617C111.034 64.5784 110.746 64.6368 110.429 64.6368ZM108.855 62.4018C108.855 62.7242 108.925 63.0189 109.064 63.2858C109.208 63.5471 109.4 63.7556 109.638 63.9112C109.877 64.0614 110.141 64.1364 110.429 64.1364C110.718 64.1364 110.982 64.0586 111.22 63.9029C111.459 63.7472 111.651 63.536 111.795 63.2691C111.939 62.9967 112.012 62.702 112.012 62.3851C112.012 62.0626 111.939 61.768 111.795 61.5011C111.651 61.2342 111.459 61.0229 111.22 60.8673C110.982 60.7116 110.718 60.6338 110.429 60.6338C110.141 60.6338 109.877 60.7144 109.638 60.8756C109.405 61.0368 109.216 61.2509 109.072 61.5178C108.928 61.7791 108.855 62.0737 108.855 62.4018Z" fill="#0B0B0B"/>
<path d="M115.948 64.6368C115.637 64.6368 115.349 64.5784 115.082 64.4617C114.816 64.3393 114.585 64.1753 114.391 63.9696C114.197 63.7583 114.044 63.5165 113.933 63.2441C113.827 62.9716 113.775 62.6798 113.775 62.3684C113.775 61.9625 113.866 61.59 114.049 61.2509C114.238 60.9118 114.496 60.6421 114.824 60.442C115.151 60.2362 115.523 60.1334 115.94 60.1334C116.367 60.1334 116.739 60.2362 117.056 60.442C117.378 60.6477 117.63 60.9201 117.813 61.2592C117.997 61.5928 118.088 61.9598 118.088 62.3601C118.088 62.4045 118.088 62.449 118.088 62.4935C118.088 62.5324 118.086 62.563 118.08 62.5852H114.366C114.394 62.8966 114.48 63.1746 114.624 63.4192C114.774 63.6583 114.966 63.8501 115.199 63.9946C115.437 64.1336 115.696 64.2031 115.973 64.2031C116.256 64.2031 116.523 64.1308 116.773 63.9863C117.028 63.8417 117.206 63.6527 117.306 63.4192L117.797 63.5526C117.708 63.7583 117.572 63.9446 117.389 64.1114C117.206 64.2782 116.989 64.4088 116.739 64.5034C116.495 64.5923 116.231 64.6368 115.948 64.6368ZM114.349 62.1766H117.555C117.533 61.8597 117.447 61.5817 117.297 61.3426C117.153 61.1036 116.961 60.9173 116.723 60.7839C116.489 60.6449 116.231 60.5754 115.948 60.5754C115.665 60.5754 115.407 60.6449 115.174 60.7839C114.941 60.9173 114.749 61.1063 114.599 61.351C114.455 61.59 114.371 61.8653 114.349 62.1766Z" fill="#0B0B0B"/>
<path d="M124.016 64.6368C123.705 64.6368 123.416 64.5784 123.15 64.4617C122.889 64.3393 122.661 64.1753 122.467 63.9696C122.278 63.7583 122.131 63.5193 122.025 63.2524C121.92 62.98 121.867 62.6937 121.867 62.3934C121.867 62.0821 121.92 61.793 122.025 61.5261C122.131 61.2537 122.281 61.0146 122.475 60.8089C122.669 60.5976 122.897 60.4336 123.158 60.3169C123.424 60.1945 123.713 60.1334 124.024 60.1334C124.335 60.1334 124.621 60.1945 124.882 60.3169C125.143 60.4336 125.37 60.5976 125.565 60.8089C125.759 61.0146 125.909 61.2537 126.014 61.5261C126.12 61.793 126.173 62.0821 126.173 62.3934C126.173 62.6937 126.12 62.98 126.014 63.2524C125.909 63.5193 125.759 63.7583 125.565 63.9696C125.376 64.1753 125.148 64.3393 124.882 64.4617C124.621 64.5784 124.332 64.6368 124.016 64.6368ZM122.442 62.4018C122.442 62.7242 122.511 63.0189 122.65 63.2858C122.794 63.5471 122.986 63.7556 123.225 63.9112C123.463 64.0614 123.727 64.1364 124.016 64.1364C124.304 64.1364 124.568 64.0586 124.807 63.9029C125.046 63.7472 125.237 63.536 125.381 63.2691C125.526 62.9967 125.598 62.702 125.598 62.3851C125.598 62.0626 125.526 61.768 125.381 61.5011C125.237 61.2342 125.046 61.0229 124.807 60.8673C124.568 60.7116 124.304 60.6338 124.016 60.6338C123.727 60.6338 123.463 60.7144 123.225 60.8756C122.991 61.0368 122.803 61.2509 122.658 61.5178C122.514 61.7791 122.442 62.0737 122.442 62.4018Z" fill="#0B0B0B"/>
<path d="M129.651 64.6368C128.952 64.6368 128.421 64.4227 128.061 63.9946C127.705 63.561 127.528 62.9633 127.528 62.2016C127.528 61.6623 127.572 61.2064 127.661 60.8339C127.75 60.4614 127.88 60.1556 128.052 59.9166C128.224 59.6719 128.435 59.4718 128.685 59.3161C128.94 59.1604 129.232 59.0326 129.559 58.9325L131.383 58.332L131.433 58.8241L129.676 59.3995C129.343 59.5107 129.065 59.6525 128.843 59.8248C128.621 59.9972 128.446 60.2168 128.319 60.4837C128.197 60.745 128.116 61.0869 128.077 61.5094C128.222 61.187 128.444 60.9396 128.743 60.7672C129.043 60.5893 129.39 60.5003 129.784 60.5003C130.206 60.5003 130.564 60.5865 130.859 60.7589C131.158 60.9312 131.386 61.1703 131.541 61.4761C131.697 61.7819 131.775 62.1349 131.775 62.5352C131.775 62.9577 131.691 63.3275 131.525 63.6444C131.364 63.9557 131.125 64.2003 130.809 64.3783C130.498 64.5506 130.112 64.6368 129.651 64.6368ZM129.651 64.1364C130.145 64.1364 130.525 63.9946 130.792 63.7111C131.064 63.422 131.2 63.0384 131.2 62.5602C131.2 62.0932 131.067 61.7124 130.8 61.4177C130.539 61.123 130.156 60.9757 129.651 60.9757C129.362 60.9757 129.101 61.0368 128.868 61.1592C128.635 61.2815 128.449 61.4594 128.31 61.6929C128.177 61.9264 128.111 62.2155 128.111 62.5602C128.111 62.8604 128.169 63.1301 128.285 63.3692C128.408 63.6082 128.582 63.7973 128.81 63.9363C129.038 64.0697 129.318 64.1364 129.651 64.1364Z" fill="#0B0B0B"/>
<path d="M135.142 64.6368C134.831 64.6368 134.543 64.5784 134.276 64.4617C134.01 64.3393 133.779 64.1753 133.585 63.9696C133.391 63.7583 133.238 63.5165 133.127 63.2441C133.021 62.9716 132.969 62.6798 132.969 62.3684C132.969 61.9625 133.06 61.59 133.244 61.2509C133.432 60.9118 133.69 60.6421 134.018 60.442C134.346 60.2362 134.717 60.1334 135.134 60.1334C135.561 60.1334 135.933 60.2362 136.25 60.442C136.572 60.6477 136.824 60.9201 137.007 61.2592C137.191 61.5928 137.282 61.9598 137.282 62.3601C137.282 62.4045 137.282 62.449 137.282 62.4935C137.282 62.5324 137.28 62.563 137.274 62.5852H133.56C133.588 62.8966 133.674 63.1746 133.818 63.4192C133.968 63.6583 134.16 63.8501 134.393 63.9946C134.631 64.1336 134.89 64.2031 135.167 64.2031C135.45 64.2031 135.717 64.1308 135.967 63.9863C136.222 63.8417 136.4 63.6527 136.5 63.4192L136.991 63.5526C136.902 63.7583 136.766 63.9446 136.583 64.1114C136.4 64.2782 136.183 64.4088 135.933 64.5034C135.689 64.5923 135.425 64.6368 135.142 64.6368ZM133.543 62.1766H136.749C136.727 61.8597 136.641 61.5817 136.491 61.3426C136.347 61.1036 136.155 60.9173 135.917 60.7839C135.683 60.6449 135.425 60.5754 135.142 60.5754C134.859 60.5754 134.601 60.6449 134.368 60.7839C134.135 60.9173 133.943 61.1063 133.793 61.351C133.649 61.59 133.566 61.8653 133.543 62.1766Z" fill="#0B0B0B"/>
<path d="M140.579 64.6368C140.263 64.6368 139.971 64.5784 139.705 64.4617C139.444 64.3393 139.214 64.1725 139.014 63.9613C138.819 63.75 138.667 63.5082 138.556 63.2357C138.45 62.9633 138.397 62.6742 138.397 62.3684C138.397 61.957 138.489 61.5817 138.672 61.2426C138.855 60.9034 139.111 60.6338 139.438 60.4336C139.766 60.2335 140.143 60.1334 140.571 60.1334C140.976 60.1334 141.334 60.2279 141.645 60.4169C141.956 60.6004 142.186 60.8506 142.336 61.1675L141.787 61.3426C141.665 61.1202 141.492 60.9479 141.27 60.8256C141.054 60.6977 140.812 60.6338 140.546 60.6338C140.257 60.6338 139.994 60.7088 139.755 60.8589C139.516 61.0091 139.325 61.2148 139.18 61.4761C139.041 61.7374 138.972 62.0348 138.972 62.3684C138.972 62.6964 139.044 62.9939 139.189 63.2607C139.333 63.5276 139.524 63.7417 139.763 63.9029C140.002 64.0586 140.266 64.1364 140.554 64.1364C140.743 64.1364 140.923 64.1031 141.096 64.0363C141.273 63.9696 141.426 63.8807 141.554 63.7695C141.687 63.6527 141.776 63.5276 141.82 63.3942L142.378 63.561C142.3 63.7667 142.17 63.9529 141.987 64.1197C141.809 64.281 141.598 64.4088 141.354 64.5034C141.115 64.5923 140.857 64.6368 140.579 64.6368Z" fill="#0B0B0B"/>
<path d="M143.801 64.5534V60.2084H147.29V64.5534H146.723V60.7172H144.367V64.5534H143.801Z" fill="#0B0B0B"/>
<path d="M150.957 64.6368C150.646 64.6368 150.357 64.5784 150.091 64.4617C149.824 64.3393 149.594 64.1753 149.4 63.9696C149.205 63.7583 149.053 63.5165 148.942 63.2441C148.836 62.9716 148.783 62.6798 148.783 62.3684C148.783 61.9625 148.875 61.59 149.058 61.2509C149.247 60.9118 149.505 60.6421 149.833 60.442C150.16 60.2362 150.532 60.1334 150.948 60.1334C151.376 60.1334 151.748 60.2362 152.064 60.442C152.386 60.6477 152.639 60.9201 152.822 61.2592C153.005 61.5928 153.097 61.9598 153.097 62.3601C153.097 62.4045 153.097 62.449 153.097 62.4935C153.097 62.5324 153.094 62.563 153.089 62.5852H149.375C149.402 62.8966 149.488 63.1746 149.633 63.4192C149.783 63.6583 149.974 63.8501 150.207 63.9946C150.446 64.1336 150.704 64.2031 150.982 64.2031C151.265 64.2031 151.531 64.1308 151.781 63.9863C152.037 63.8417 152.214 63.6527 152.314 63.4192L152.805 63.5526C152.717 63.7583 152.581 63.9446 152.397 64.1114C152.214 64.2782 151.998 64.4088 151.748 64.5034C151.504 64.5923 151.24 64.6368 150.957 64.6368ZM149.358 62.1766H152.564C152.542 61.8597 152.456 61.5817 152.306 61.3426C152.161 61.1036 151.97 60.9173 151.731 60.7839C151.498 60.6449 151.24 60.5754 150.957 60.5754C150.674 60.5754 150.415 60.6449 150.182 60.7839C149.949 60.9173 149.758 61.1063 149.608 61.351C149.463 61.59 149.38 61.8653 149.358 62.1766Z" fill="#0B0B0B"/>
<path d="M156.993 64.5534V62.7354C156.816 62.8187 156.63 62.8827 156.435 62.9272C156.241 62.9661 156.033 62.9855 155.811 62.9855C155.333 62.9855 154.973 62.8632 154.728 62.6186C154.49 62.374 154.37 61.9987 154.37 61.4927V60.2084H154.937V61.4177C154.937 61.8069 155.014 62.0904 155.17 62.2683C155.331 62.4462 155.586 62.5352 155.936 62.5352C156.13 62.5352 156.324 62.513 156.519 62.4685C156.713 62.424 156.871 62.3656 156.993 62.2934V60.2084H157.56V64.5534H156.993Z" fill="#0B0B0B"/>
<path d="M161.221 64.6368C160.91 64.6368 160.621 64.5784 160.355 64.4617C160.088 64.3393 159.858 64.1753 159.663 63.9696C159.469 63.7583 159.316 63.5165 159.205 63.2441C159.1 62.9716 159.047 62.6798 159.047 62.3684C159.047 61.9625 159.139 61.59 159.322 61.2509C159.511 60.9118 159.769 60.6421 160.096 60.442C160.424 60.2362 160.796 60.1334 161.212 60.1334C161.64 60.1334 162.012 60.2362 162.328 60.442C162.65 60.6477 162.903 60.9201 163.086 61.2592C163.269 61.5928 163.361 61.9598 163.361 62.3601C163.361 62.4045 163.361 62.449 163.361 62.4935C163.361 62.5324 163.358 62.563 163.352 62.5852H159.638C159.666 62.8966 159.752 63.1746 159.897 63.4192C160.046 63.6583 160.238 63.8501 160.471 63.9946C160.71 64.1336 160.968 64.2031 161.246 64.2031C161.529 64.2031 161.795 64.1308 162.045 63.9863C162.3 63.8417 162.478 63.6527 162.578 63.4192L163.069 63.5526C162.98 63.7583 162.844 63.9446 162.661 64.1114C162.478 64.2782 162.262 64.4088 162.012 64.5034C161.767 64.5923 161.504 64.6368 161.221 64.6368ZM159.622 62.1766H162.828C162.806 61.8597 162.72 61.5817 162.57 61.3426C162.425 61.1036 162.234 60.9173 161.995 60.7839C161.762 60.6449 161.504 60.5754 161.221 60.5754C160.937 60.5754 160.679 60.6449 160.446 60.7839C160.213 60.9173 160.021 61.1063 159.872 61.351C159.727 61.59 159.644 61.8653 159.622 62.1766Z" fill="#0B0B0B"/>
<path d="M164.767 64.5534V60.2084H165.334V62.0765H167.815V60.2084H168.381V64.5534H167.815V62.5852H165.334V64.5534H164.767Z" fill="#0B0B0B"/>
<path d="M170.164 64.5534V60.2168H170.73V63.7861L173.37 60.2084H173.878V64.5534H173.311V61.0424L170.713 64.5534H170.164Z" fill="#0B0B0B"/>
<path d="M177.531 64.6368C177.22 64.6368 176.932 64.5784 176.665 64.4617C176.399 64.3393 176.168 64.1753 175.974 63.9696C175.78 63.7583 175.627 63.5165 175.516 63.2441C175.411 62.9716 175.358 62.6798 175.358 62.3684C175.358 61.9625 175.449 61.59 175.633 61.2509C175.821 60.9118 176.079 60.6421 176.407 60.442C176.735 60.2362 177.107 60.1334 177.523 60.1334C177.95 60.1334 178.322 60.2362 178.639 60.442C178.961 60.6477 179.213 60.9201 179.397 61.2592C179.58 61.5928 179.671 61.9598 179.671 62.3601C179.671 62.4045 179.671 62.449 179.671 62.4935C179.671 62.5324 179.669 62.563 179.663 62.5852H175.949C175.977 62.8966 176.063 63.1746 176.207 63.4192C176.357 63.6583 176.549 63.8501 176.782 63.9946C177.02 64.1336 177.279 64.2031 177.556 64.2031C177.839 64.2031 178.106 64.1308 178.356 63.9863C178.611 63.8417 178.789 63.6527 178.889 63.4192L179.38 63.5526C179.291 63.7583 179.155 63.9446 178.972 64.1114C178.789 64.2782 178.572 64.4088 178.322 64.5034C178.078 64.5923 177.814 64.6368 177.531 64.6368ZM175.932 62.1766H179.138C179.116 61.8597 179.03 61.5817 178.88 61.3426C178.736 61.1036 178.544 60.9173 178.306 60.7839C178.073 60.6449 177.814 60.5754 177.531 60.5754C177.248 60.5754 176.99 60.6449 176.757 60.7839C176.524 60.9173 176.332 61.1063 176.182 61.351C176.038 61.59 175.955 61.8653 175.932 62.1766Z" fill="#0B0B0B"/>
</svg>
