<svg width="1016" height="162" viewBox="0 0 1016 162" fill="none" xmlns="http://www.w3.org/2000/svg">
<path d="M1 81C1 80.3415 1.00795 79.6848 1.02377 79.0302L0.024063 79.006C0.0562406 77.6742 0.120566 76.3503 0.216292 75.0351L1.21365 75.1077C1.30914 73.7959 1.43624 72.4929 1.59421 71.1995L0.601588 71.0783C0.76295 69.7571 0.956121 68.4457 1.18031 67.145L2.16578 67.3148C2.38896 66.02 2.64326 64.7358 2.92788 63.4631L1.95198 63.2449C2.24222 61.9471 2.56359 60.661 2.91529 59.3876L3.8792 59.6538C4.22868 58.3884 4.60846 57.1355 5.01773 55.8961L4.06816 55.5826C4.48482 54.3207 4.93165 53.0727 5.40781 51.8392L6.34072 52.1993C6.81314 50.9755 7.31479 49.7662 7.84481 48.5723L6.93083 48.1665C7.46963 46.9528 8.03739 45.7548 8.63323 44.5735L9.5261 45.0238C10.1165 43.8532 10.7348 42.6991 11.3801 41.5623L10.5105 41.0686C11.1657 39.9145 11.8484 38.7781 12.5578 37.6602L13.4021 38.196C14.1042 37.0895 14.8327 36.0015 15.5868 34.9328L14.7697 34.3563C15.5344 33.2725 16.325 32.2082 17.1407 31.1645L17.9286 31.7803C18.7351 30.7483 19.5665 29.7365 20.4217 28.746L19.6648 28.0925C20.5312 27.0889 21.4218 26.1069 22.3358 25.1472L23.0599 25.8369C23.9628 24.8888 24.8888 23.9628 25.8369 23.0599L25.1472 22.3358C26.1069 21.4218 27.0889 20.5312 28.0925 19.6648L28.746 20.4217C29.7365 19.5665 30.7483 18.7352 31.7803 17.9286L31.1645 17.1407C32.2082 16.325 33.2724 15.5344 34.3563 14.7697L34.9328 15.5868C36.0015 14.8328 37.0895 14.1042 38.196 13.4021L37.6602 12.5578C38.778 11.8484 39.9145 11.1657 41.0686 10.5105L41.5623 11.3802C42.699 10.7348 43.8532 10.1165 45.0238 9.5261L44.5734 8.63323C45.7548 8.0374 46.9528 7.46964 48.1665 6.93084L48.5722 7.84482C49.7662 7.31479 50.9754 6.81314 52.1993 6.34072L51.8391 5.40782C53.0726 4.93166 54.3207 4.48482 55.5825 4.06817L55.8961 5.01774C57.1355 4.60847 58.3883 4.22868 59.6537 3.87921L59.3875 2.9153C60.661 2.5636 61.947 2.24222 63.2449 1.95199L63.4631 2.92788C64.7358 2.64326 66.02 2.38897 67.3148 2.16579L67.1449 1.18032C68.4457 0.956127 69.757 0.762955 71.0782 0.601593L71.1995 1.59422C72.4929 1.43625 73.7959 1.30914 75.1077 1.21366L75.0351 0.216294C76.3503 0.120568 77.6741 0.0562421 79.006 0.024064L79.0301 1.02377C79.6848 1.00795 80.3415 1 81 1H82.9953V0H86.986V1H90.9766V0H94.9673V1H98.9579V0H102.949V1H106.939V0H110.93V1H114.921V0H118.911V1H122.902V0H126.893V1H130.883V0H134.874V1H138.864V0H142.855V1H146.846V0H150.836V1H154.827V0H158.818V1H162.808V0H166.799V1H170.79V0H174.78V1H178.771V0H182.762V1H186.752V0H190.743V1H194.734V0H198.724V1H202.715V0H206.706V1H210.696V0H214.687V1H218.678V0H222.668V1H226.659V0H230.65V1H234.64V0H238.631V1H242.622V0H246.612V1H250.603V0H254.594V1H258.584V0H262.575V1H266.566V0H270.556V1H274.547V0H278.538V1H282.528V0H286.519V1H290.509V0H294.5V1H298.491V0H302.481V1H306.472V0H310.463V1H314.453V0H318.444V1H322.435V0H326.425V1H330.416V0H334.407V1H338.397V0H342.388V1H346.379V0H350.369V1H354.36V0H358.351V1H362.341V0H366.332V1H370.323V0H374.313V1H378.304V0H382.295V1H386.285V0H390.276V1H394.267V0H398.257V1H402.248V0H406.239V1H410.229V0H414.22V1H418.211V0H422.201V1H426.192V0H430.183V1H434.173V0H438.164V1H442.155V0H446.145V1H450.136V0H454.127V1H458.117V0H462.108V1H466.099V0H470.089V1H474.08V0H478.071V1H482.061V0H486.052V1H490.043V0H494.033V1H498.024V0H502.015V1H506.005V0H509.996V1H513.987V0H517.977V1H521.968V0H525.958V1H529.949V0H533.94V1H537.93V0H541.921V1H545.912V0H549.902V1H553.893V0H557.884V1H561.875V0H565.865V1H569.856V0H573.846V1H577.837V0H581.828V1H585.818V0H589.809V1H593.8V0H597.79V1H601.781V0H605.772V1H609.762V0H613.753V1H617.744V0H621.734V1H625.725V0H629.716V1H633.706V0H637.697V1H641.688V0H645.678V1H649.669V0H653.66V1H657.65V0H661.641V1H665.632V0H669.622V1H673.613V0H677.604V1H681.594V0H685.585V1H689.576V0H693.566V1H697.557V0H701.548V1H705.538V0H709.529V1H713.52V0H717.51V1H721.501V0H725.492V1H729.482V0H733.473V1H737.464V0H741.454V1H745.445V0H749.436V1H753.426V0H757.417V1H761.408V0H765.398V1H769.389V0H773.38V1H777.37V0H781.361V1H785.352V0H789.342V1H793.333V0H797.323V1H801.314V0H805.305V1H809.295V0H813.286V1H817.277V0H821.267V1H825.258V0H829.249V1H833.239V0H837.23V1H841.221V0H845.211V1H849.202V0H853.193V1H857.183V0H861.174V1H865.165V0H869.155V1H873.146V0H877.137V1H881.127V0H885.118V1H889.109V0H893.099V1H897.09V0H901.081V1H905.071V0H909.062V1H913.053V0H917.043V1H921.034V0H925.025V1H929.015V0H933.006V1H935C935.659 1 936.315 1.00795 936.97 1.02377L936.994 0.0240632C938.326 0.0562407 939.65 0.120566 940.965 0.216292L940.892 1.21365C942.204 1.30914 943.507 1.43624 944.8 1.59421L944.922 0.601587C946.243 0.76295 947.554 0.956124 948.855 1.18032L948.685 2.16578C949.98 2.38896 951.264 2.64326 952.537 2.92788L952.755 1.95199C954.053 2.24222 955.339 2.5636 956.612 2.91529L956.346 3.87921C957.612 4.22868 958.864 4.60846 960.104 5.01773L960.417 4.06816C961.679 4.48482 962.927 4.93165 964.161 5.40781L963.801 6.34072C965.025 6.81314 966.234 7.31479 967.428 7.84481L967.833 6.93083C969.047 7.46963 970.245 8.03739 971.427 8.63322L970.976 9.5261C972.147 10.1165 973.301 10.7348 974.438 11.3802L974.931 10.5105C976.086 11.1657 977.222 11.8484 978.34 12.5578L977.804 13.4021C978.91 14.1042 979.998 14.8327 981.067 15.5868L981.644 14.7697C982.728 15.5344 983.792 16.325 984.835 17.1407L984.22 17.9286C985.252 18.7352 986.263 19.5665 987.254 20.4217L987.908 19.6648C988.911 20.5312 989.893 21.4218 990.853 22.3358L990.163 23.0599C991.111 23.9628 992.037 24.8888 992.94 25.8369L993.664 25.1472C994.578 26.1069 995.469 27.0889 996.335 28.0925L995.578 28.746C996.434 29.7365 997.265 30.7483 998.071 31.7803L998.859 31.1645C999.675 32.2082 1000.47 33.2724 1001.23 34.3563L1000.41 34.9328C1001.17 36.0015 1001.9 37.0895 1002.6 38.196L1003.44 37.6602C1004.15 38.778 1004.83 39.9145 1005.49 41.0686L1004.62 41.5623C1005.27 42.6991 1005.88 43.8532 1006.47 45.0238L1007.37 44.5734C1007.96 45.7548 1008.53 46.9528 1009.07 48.1665L1008.16 48.5722C1008.69 49.7662 1009.19 50.9755 1009.66 52.1993L1010.59 51.8391C1011.07 53.0726 1011.52 54.3207 1011.93 55.5825L1010.98 55.8961C1011.39 57.1355 1011.77 58.3883 1012.12 59.6538L1013.08 59.3875C1013.44 60.661 1013.76 61.9471 1014.05 63.2449L1013.07 63.4631C1013.36 64.7358 1013.61 66.02 1013.83 67.3148L1014.82 67.145C1015.04 68.4457 1015.24 69.757 1015.4 71.0782L1014.41 71.1995C1014.56 72.4929 1014.69 73.7959 1014.79 75.1077L1015.78 75.0351C1015.88 76.3503 1015.94 77.6741 1015.98 79.006L1014.98 79.0301C1014.99 79.6848 1015 80.3415 1015 81C1015 81.6585 1014.99 82.3152 1014.98 82.9698L1015.98 82.994C1015.94 84.3258 1015.88 85.6497 1015.78 86.9649L1014.79 86.8923C1014.69 88.2041 1014.56 89.5071 1014.41 90.8005L1015.4 90.9217C1015.24 92.2429 1015.04 93.5543 1014.82 94.855L1013.83 94.6852C1013.61 95.98 1013.36 97.2642 1013.07 98.5369L1014.05 98.7551C1013.76 100.053 1013.44 101.339 1013.08 102.612L1012.12 102.346C1011.77 103.612 1011.39 104.864 1010.98 106.104L1011.93 106.417C1011.52 107.679 1011.07 108.927 1010.59 110.161L1009.66 109.801C1009.19 111.025 1008.69 112.234 1008.16 113.428L1009.07 113.833C1008.53 115.047 1007.96 116.245 1007.37 117.427L1006.47 116.976C1005.88 118.147 1005.27 119.301 1004.62 120.438L1005.49 120.931C1004.83 122.086 1004.15 123.222 1003.44 124.34L1002.6 123.804C1001.9 124.91 1001.17 125.998 1000.41 127.067L1001.23 127.644C1000.47 128.728 999.675 129.792 998.859 130.835L998.071 130.22C997.265 131.252 996.434 132.263 995.578 133.254L996.335 133.908C995.469 134.911 994.578 135.893 993.664 136.853L992.94 136.163C992.037 137.111 991.111 138.037 990.163 138.94L990.853 139.664C989.893 140.578 988.911 141.469 987.908 142.335L987.254 141.578C986.263 142.434 985.252 143.265 984.22 144.071L984.835 144.859C983.792 145.675 982.728 146.466 981.644 147.23L981.067 146.413C979.998 147.167 978.91 147.896 977.804 148.598L978.34 149.442C977.222 150.152 976.086 150.834 974.931 151.489L974.438 150.62C973.301 151.265 972.147 151.884 970.976 152.474L971.427 153.367C970.245 153.963 969.047 154.53 967.833 155.069L967.428 154.155C966.234 154.685 965.025 155.187 963.801 155.659L964.161 156.592C962.927 157.068 961.679 157.515 960.417 157.932L960.104 156.982C958.865 157.392 957.612 157.771 956.346 158.121L956.612 159.085C955.339 159.436 954.053 159.758 952.755 160.048L952.537 159.072C951.264 159.357 949.98 159.611 948.685 159.834L948.855 160.82C947.554 161.044 946.243 161.237 944.922 161.398L944.801 160.406C943.507 160.564 942.204 160.691 940.892 160.786L940.965 161.784C939.65 161.879 938.326 161.944 936.994 161.976L936.97 160.976C936.315 160.992 935.659 161 935 161H933.005V162H929.014V161H925.023V162H921.033V161H917.042V162H913.051V161H909.061V162H905.07V161H901.079V162H897.089V161H893.098V162H889.107V161H885.117V162H881.126V161H877.135V162H873.145V161H869.154V162H865.164V161H861.173V162H857.182V161H853.192V162H849.201V161H845.21V162H841.22V161H837.229V162H833.238V161H829.248V162H825.257V161H821.266V162H817.276V161H813.285V162H809.294V161H805.304V162H801.313V161H797.322V162H793.332V161H789.341V162H785.35V161H781.36V162H777.369V161H773.378V162H769.388V161H765.397V162H761.406V161H757.416V162H753.425V161H749.435V162H745.444V161H741.453V162H737.463V161H733.472V162H729.481V161H725.491V162H721.5V161H717.509V162H713.519V161H709.528V162H705.537V161H701.547V162H697.556V161H693.565V162H689.575V161H685.584V162H681.593V161H677.603V162H673.612V161H669.621V162H665.631V161H661.64V162H657.649V161H653.659V162H649.668V161H645.677V162H641.687V161H637.696V162H633.705V161H629.715V162H625.724V161H621.733V162H617.743V161H613.752V162H609.761V161H605.771V162H601.78V161H597.789V162H593.799V161H589.808V162H585.817V161H581.827V162H577.836V161H573.845V162H569.855V161H565.864V162H561.873V161H557.883V162H553.892V161H549.901V162H545.911V161H541.92V162H537.929V161H533.939V162H529.948V161H525.957V162H521.967V161H517.976V162H513.985V161H509.995V162H506.004V161H502.013V162H498.023V161H494.032V162H490.042V161H486.051V162H482.06V161H478.07V162H474.079V161H470.088V162H466.098V161H462.107V162H458.116V161H454.126V162H450.135V161H446.144V162H442.154V161H438.163V162H434.172V161H430.182V162H426.191V161H422.2V162H418.21V161H414.219V162H410.228V161H406.238V162H402.247V161H398.256V162H394.266V161H390.275V162H386.284V161H382.294V162H378.303V161H374.312V162H370.322V161H366.331V162H362.34V161H358.35V162H354.359V161H350.368V162H346.378V161H342.387V162H338.396V161H334.406V162H330.415V161H326.424V162H322.434V161H318.443V162H314.452V161H310.462V162H306.471V161H302.48V162H298.49V161H294.499V162H290.508V161H286.518V162H282.527V161H278.536V162H274.546V161H270.555V162H266.564V161H262.574V162H258.583V161H254.593V162H250.602V161H246.611V162H242.62V161H238.63V162H234.639V161H230.648V162H226.658V161H222.667V162H218.677V161H214.686V162H210.695V161H206.705V162H202.714V161H198.723V162H194.733V161H190.742V162H186.751V161H182.761V162H178.77V161H174.779V162H170.789V161H166.798V162H162.807V161H158.817V162H154.826V161H150.835V162H146.845V161H142.854V162H138.863V161H134.873V162H130.882V161H126.891V162H122.901V161H118.91V162H114.919V161H110.929V162H106.938V161H102.947V162H98.9567V161H94.966V162H90.9754V161H86.9847V162H82.994V161H81C80.3415 161 79.6849 160.992 79.0302 160.976L79.006 161.976C77.6742 161.944 76.3503 161.879 75.0351 161.784L75.1077 160.786C73.7959 160.691 72.4929 160.564 71.1995 160.406L71.0783 161.398C69.7571 161.237 68.4457 161.044 67.145 160.82L67.3149 159.834C66.02 159.611 64.7358 159.357 63.4632 159.072L63.2449 160.048C61.9471 159.758 60.6611 159.436 59.3876 159.085L59.6538 158.121C58.3884 157.771 57.1356 157.392 55.8961 156.982L55.5826 157.932C54.3208 157.515 53.0727 157.068 51.8392 156.592L52.1993 155.659C50.9755 155.187 49.7662 154.685 48.5723 154.155L48.1665 155.069C46.9528 154.53 45.7549 153.963 44.5735 153.367L45.0238 152.474C43.8532 151.884 42.6991 151.265 41.5623 150.62L41.0686 151.489C39.9145 150.834 38.7781 150.152 37.6602 149.442L38.196 148.598C37.0896 147.896 36.0015 147.167 34.9328 146.413L34.3563 147.23C33.2725 146.466 32.2083 145.675 31.1646 144.859L31.7803 144.071C30.7483 143.265 29.7365 142.434 28.746 141.578L28.0925 142.335C27.0889 141.469 26.1069 140.578 25.1472 139.664L25.8369 138.94C24.8888 138.037 23.9628 137.111 23.0599 136.163L22.3358 136.853C21.4218 135.893 20.5312 134.911 19.6648 133.908L20.4217 133.254C19.5665 132.263 18.7352 131.252 17.9286 130.22L17.1407 130.835C16.325 129.792 15.5344 128.728 14.7697 127.644L15.5868 127.067C14.8328 125.998 14.1042 124.91 13.4021 123.804L12.5578 124.34C11.8484 123.222 11.1657 122.086 10.5105 120.931L11.3802 120.438C10.7348 119.301 10.1165 118.147 9.5261 116.976L8.63323 117.427C8.0374 116.245 7.46964 115.047 6.93084 113.834L7.84482 113.428C7.31479 112.234 6.81314 111.025 6.34072 109.801L5.40782 110.161C4.93166 108.927 4.48482 107.679 4.06816 106.417L5.01774 106.104C4.60847 104.864 4.22868 103.612 3.87921 102.346L2.9153 102.612C2.5636 101.339 2.24222 100.053 1.95199 98.7551L2.92788 98.5369C2.64326 97.2642 2.38897 95.98 2.16579 94.6852L1.18032 94.855C0.956127 93.5543 0.762954 92.2429 0.601592 90.9218L1.59422 90.8005C1.43625 89.5071 1.30914 88.2041 1.21366 86.8923L0.216294 86.9649C0.120567 85.6497 0.0562419 84.3259 0.0240638 82.994L1.02377 82.9699C1.00795 82.3152 1 81.6585 1 81Z" fill="#F8FBFF" stroke="#26599B" stroke-width="2" stroke-dasharray="4 4"/>
</svg>
