<svg width="832" height="162" viewBox="0 0 832 162" fill="none" xmlns="http://www.w3.org/2000/svg">
<path d="M831 81C831 80.3415 830.992 79.6848 830.976 79.0302L831.976 79.006C831.944 77.6742 831.879 76.3503 831.784 75.0351L830.786 75.1077C830.691 73.7959 830.564 72.4929 830.406 71.1995L831.398 71.0783C831.237 69.7571 831.044 68.4457 830.82 67.145L829.834 67.3148C829.611 66.02 829.357 64.7358 829.072 63.4631L830.048 63.2449C829.758 61.9471 829.436 60.661 829.085 59.3876L828.121 59.6538C827.771 58.3884 827.392 57.1355 826.982 55.8961L827.932 55.5826C827.515 54.3207 827.068 53.0727 826.592 51.8392L825.659 52.1993C825.187 50.9755 824.685 49.7662 824.155 48.5723L825.069 48.1665C824.53 46.9528 823.963 45.7548 823.367 44.5735L822.474 45.0238C821.884 43.8532 821.265 42.6991 820.62 41.5623L821.489 41.0686C820.834 39.9145 820.152 38.7781 819.442 37.6602L818.598 38.196C817.896 37.0895 817.167 36.0015 816.413 34.9328L817.23 34.3563C816.466 33.2725 815.675 32.2082 814.859 31.1645L814.071 31.7803C813.265 30.7483 812.434 29.7365 811.578 28.746L812.335 28.0925C811.469 27.0889 810.578 26.1069 809.664 25.1472L808.94 25.8369C808.037 24.8888 807.111 23.9628 806.163 23.0599L806.853 22.3358C805.893 21.4218 804.911 20.5312 803.908 19.6648L803.254 20.4217C802.263 19.5665 801.252 18.7352 800.22 17.9286L800.835 17.1407C799.792 16.325 798.728 15.5344 797.644 14.7697L797.067 15.5868C795.998 14.8327 794.91 14.1042 793.804 13.4021L794.34 12.5578C793.222 11.8484 792.086 11.1657 790.931 10.5105L790.438 11.3802C789.301 10.7348 788.147 10.1165 786.976 9.5261L787.427 8.63323C786.245 8.0374 785.047 7.46964 783.834 6.93084L783.428 7.84482C782.234 7.31479 781.025 6.81314 779.801 6.34072L780.161 5.40782C778.927 4.93166 777.679 4.48482 776.417 4.06817L776.104 5.01774C774.864 4.60847 773.612 4.22868 772.346 3.87921L772.612 2.9153C771.339 2.5636 770.053 2.24222 768.755 1.95199L768.537 2.92788C767.264 2.64326 765.98 2.38897 764.685 2.16579L764.855 1.18032C763.554 0.956127 762.243 0.762955 760.922 0.601593L760.801 1.59422C759.507 1.43625 758.204 1.30914 756.892 1.21366L756.965 0.216294C755.65 0.120568 754.326 0.0562421 752.994 0.024064L752.97 1.02377C752.315 1.00795 751.659 1 751 1H749.006V0H745.018V1H741.03V0H737.042V1H733.054V0H729.065V1H725.077V0H721.089V1H717.101V0H713.113V1H709.125V0H705.137V1H701.149V0H697.161V1H693.173V0H689.185V1H685.196V0H681.208V1H677.22V0H673.232V1H669.244V0H665.256V1H661.268V0H657.28V1H653.292V0H649.304V1H645.315V0H641.327V1H637.339V0H633.351V1H629.363V0H625.375V1H621.387V0H617.399V1H613.411V0H609.423V1H605.434V0H601.446V1H597.458V0H593.47V1H589.482V0H585.494V1H581.506V0H577.518V1H573.53V0H569.542V1H565.553V0H561.565V1H557.577V0H553.589V1H549.601V0H545.613V1H541.625V0H537.637V1H533.649V0H529.661V1H525.673V0H521.684V1H517.696V0H513.708V1H509.72V0H505.732V1H501.744V0H497.756V1H493.768V0H489.78V1H485.792V0H481.803V1H477.815V0H473.827V1H469.839V0H465.851V1H461.863V0H457.875V1H453.887V0H449.899V1H445.911V0H441.922V1H437.934V0H433.946V1H429.958V0H425.97V1H421.982V0H417.994V1H414.006V0H410.018V1H406.03V0H402.041V1H398.053V0H394.065V1H390.077V0H386.089V1H382.101V0H378.113V1H374.125V0H370.137V1H366.149V0H362.16V1H358.172V0H354.184V1H350.196V0H346.208V1H342.22V0H338.232V1H334.244V0H330.256V1H326.268V0H322.28V1H318.291V0H314.303V1H310.315V0H306.327V1H302.339V0H298.351V1H294.363V0H290.375V1H286.387V0H282.398V1H278.41V0H274.422V1H270.434V0H266.446V1H262.458V0H258.47V1H254.482V0H250.494V1H246.506V0H242.518V1H238.529V0H234.541V1H230.553V0H226.565V1H222.577V0H218.589V1H214.601V0H210.613V1H206.625V0H202.637V1H198.648V0H194.66V1H190.672V0H186.684V1H182.696V0H178.708V1H174.72V0H170.732V1H166.744V0H162.756V1H158.768V0H154.779V1H150.791V0H146.803V1H142.815V0H138.827V1H134.839V0H130.851V1H126.863V0H122.875V1H118.887V0H114.898V1H110.91V0H106.922V1H102.934V0H98.946V1H94.9579V0H90.9698V1H86.9818V0H82.9937V1H81C80.3415 1 79.6848 1.00795 79.0302 1.02377L79.006 0.0240632C77.6742 0.0562407 76.3503 0.120566 75.0351 0.216292L75.1077 1.21365C73.7959 1.30914 72.4929 1.43624 71.1995 1.59421L71.0782 0.601587C69.7571 0.76295 68.4457 0.956123 67.145 1.18032L67.3148 2.16578C66.02 2.38896 64.7358 2.64326 63.4631 2.92788L63.2449 1.95199C61.9471 2.24222 60.661 2.5636 59.3876 2.91529L59.6538 3.87921C58.3884 4.22868 57.1356 4.60846 55.8961 5.01773L55.5826 4.06816C54.3208 4.48482 53.0727 4.93165 51.8392 5.40781L52.1993 6.34072C50.9755 6.81314 49.7662 7.31479 48.5723 7.84481L48.1665 6.93083C46.9528 7.46963 45.7549 8.03739 44.5735 8.63322L45.0238 9.5261C43.8532 10.1165 42.699 10.7348 41.5623 11.3802L41.0686 10.5105C39.9145 11.1657 38.7781 11.8484 37.6602 12.5578L38.196 13.4021C37.0895 14.1042 36.0015 14.8327 34.9328 15.5868L34.3563 14.7697C33.2725 15.5344 32.2083 16.325 31.1646 17.1407L31.7803 17.9286C30.7483 18.7352 29.7365 19.5665 28.746 20.4217L28.0925 19.6648C27.0889 20.5312 26.1069 21.4218 25.1472 22.3358L25.8369 23.0599C24.8888 23.9628 23.9628 24.8888 23.0599 25.8369L22.3358 25.1472C21.4218 26.1069 20.5312 27.0889 19.6648 28.0925L20.4217 28.746C19.5665 29.7365 18.7352 30.7483 17.9286 31.7803L17.1407 31.1645C16.325 32.2082 15.5344 33.2724 14.7697 34.3563L15.5868 34.9328C14.8328 36.0015 14.1042 37.0895 13.4022 38.196L12.5578 37.6602C11.8484 38.778 11.1657 39.9145 10.5105 41.0686L11.3802 41.5623C10.7348 42.699 10.1165 43.8532 9.52612 45.0238L8.63324 44.5734C8.03741 45.7548 7.46967 46.9528 6.93085 48.1665L7.84485 48.5722C7.31482 49.7662 6.81317 50.9754 6.3407 52.1993L5.40784 51.8391C4.9317 53.0726 4.48486 54.3207 4.06818 55.5825L5.01776 55.8961C4.60846 57.1355 4.2287 58.3883 3.87921 59.6537L2.91528 59.3875C2.5636 60.661 2.24219 61.9471 1.95197 63.2449L2.92786 63.4631C2.64325 64.7358 2.38898 66.02 2.16577 67.3148L1.1803 67.145C0.956116 68.4457 0.762939 69.757 0.601562 71.0782L1.59424 71.1995C1.43622 72.4929 1.30914 73.7959 1.21368 75.1077L0.216309 75.0351C0.120605 76.3503 0.0562134 77.6741 0.0240479 79.006L1.02374 79.0301C1.00793 79.6848 1 80.3415 1 81C1 81.6585 1.00793 82.3152 1.02374 82.9698L0.0240479 82.994C0.0562134 84.3258 0.120605 85.6497 0.216309 86.9649L1.21362 86.8923C1.30914 88.2041 1.43622 89.5071 1.59424 90.8005L0.601562 90.9217C0.762939 92.2429 0.956116 93.5543 1.1803 94.855L2.16577 94.6852C2.38898 95.98 2.64325 97.2642 2.92786 98.5369L1.95197 98.7551C2.24219 100.053 2.5636 101.339 2.91528 102.612L3.87921 102.346C4.2287 103.612 4.60846 104.864 5.0177 106.104L4.06818 106.417C4.48486 107.679 4.9317 108.927 5.40784 110.161L6.3407 109.801C6.81311 111.025 7.31476 112.234 7.84479 113.428L6.93085 113.833C7.46967 115.047 8.03741 116.245 8.63324 117.427L9.52606 116.976C10.1165 118.147 10.7348 119.301 11.3801 120.438L10.5105 120.931C11.1657 122.086 11.8484 123.222 12.5578 124.34L13.4021 123.804C14.1042 124.91 14.8328 125.998 15.5868 127.067L14.7697 127.644C15.5344 128.728 16.325 129.792 17.1407 130.835L17.9286 130.22C18.7352 131.252 19.5665 132.263 20.4217 133.254L19.6648 133.908C20.5312 134.911 21.4218 135.893 22.3358 136.853L23.0599 136.163C23.9628 137.111 24.8888 138.037 25.8369 138.94L25.1472 139.664C26.1069 140.578 27.0889 141.469 28.0925 142.335L28.746 141.578C29.7365 142.434 30.7483 143.265 31.7803 144.071L31.1646 144.859C32.2083 145.675 33.2725 146.466 34.3563 147.23L34.9327 146.413C36.0015 147.167 37.0895 147.896 38.196 148.598L37.6602 149.442C38.7781 150.152 39.9145 150.834 41.0686 151.489L41.5623 150.62C42.699 151.265 43.8531 151.884 45.0237 152.474L44.5734 153.367C45.7548 153.963 46.9528 154.53 48.1665 155.069L48.5723 154.155C49.7662 154.685 50.9755 155.187 52.1993 155.659L51.8392 156.592C53.0727 157.068 54.3207 157.515 55.5825 157.932L55.8961 156.982C57.1355 157.392 58.3884 157.771 59.6537 158.121L59.3876 159.085C60.6611 159.436 61.9471 159.758 63.2449 160.048L63.4631 159.072C64.7358 159.357 66.02 159.611 67.3148 159.834L67.145 160.82C68.4457 161.044 69.7571 161.237 71.0782 161.398L71.1995 160.406C72.4929 160.564 73.7959 160.691 75.1077 160.786L75.0351 161.784C76.3503 161.879 77.6741 161.944 79.006 161.976L79.0302 160.976C79.6848 160.992 80.3415 161 81 161H82.994V162H86.9821V161H90.9702V162H94.9583V161H98.9464V162H102.935V161H106.923V162H110.911V161H114.899V162H118.887V161H122.875V162H126.863V161H130.851V162H134.839V161H138.827V162H142.815V161H146.804V162H150.792V161H154.78V162H158.768V161H162.756V162H166.744V161H170.732V162H174.72V161H178.708V162H182.696V161H186.685V162H190.673V161H194.661V162H198.649V161H202.637V162H206.625V161H210.613V162H214.601V161H218.589V162H222.577V161H226.565V162H230.554V161H234.542V162H238.53V161H242.518V162H246.506V161H250.494V162H254.482V161H258.47V162H262.458V161H266.446V162H270.435V161H274.423V162H278.411V161H282.399V162H286.387V161H290.375V162H294.363V161H298.351V162H302.339V161H306.327V162H310.316V161H314.304V162H318.292V161H322.28V162H326.268V161H330.256V162H334.244V161H338.232V162H342.22V161H346.208V162H350.197V161H354.185V162H358.173V161H362.161V162H366.149V161H370.137V162H374.125V161H378.113V162H382.101V161H386.089V162H390.078V161H394.066V162H398.054V161H402.042V162H406.03V161H410.018V162H414.006V161H417.994V162H421.982V161H425.97V162H429.959V161H433.947V162H437.935V161H441.923V162H445.911V161H449.899V162H453.887V161H457.875V162H461.863V161H465.851V162H469.84V161H473.828V162H477.816V161H481.804V162H485.792V161H489.78V162H493.768V161H497.756V162H501.744V161H505.732V162H509.72V161H513.709V162H517.697V161H521.685V162H525.673V161H529.661V162H533.649V161H537.637V162H541.625V161H545.613V162H549.601V161H553.59V162H557.578V161H561.566V162H565.554V161H569.542V162H573.53V161H577.518V162H581.506V161H585.494V162H589.482V161H593.471V162H597.459V161H601.447V162H605.435V161H609.423V162H613.411V161H617.399V162H621.387V161H625.375V162H629.363V161H633.352V162H637.34V161H641.328V162H645.316V161H649.304V162H653.292V161H657.28V162H661.268V161H665.256V162H669.244V161H673.232V162H677.221V161H681.209V162H685.197V161H689.185V162H693.173V161H697.161V162H701.149V161H705.137V162H709.125V161H713.113V162H717.102V161H721.09V162H725.078V161H729.066V162H733.054V161H737.042V162H741.03V161H745.018V162H749.006V161H751C751.659 161 752.315 160.992 752.97 160.976L752.994 161.976C754.326 161.944 755.65 161.879 756.965 161.784L756.892 160.786C758.204 160.691 759.507 160.564 760.8 160.406L760.922 161.398C762.243 161.237 763.554 161.044 764.855 160.82L764.685 159.834C765.98 159.611 767.264 159.357 768.537 159.072L768.755 160.048C770.053 159.758 771.339 159.436 772.612 159.085L772.346 158.121C773.612 157.771 774.864 157.392 776.104 156.982L776.417 157.932C777.679 157.515 778.927 157.068 780.161 156.592L779.801 155.659C781.025 155.187 782.234 154.685 783.428 154.155L783.833 155.069C785.047 154.53 786.245 153.963 787.427 153.367L786.976 152.474C788.147 151.884 789.301 151.265 790.438 150.62L790.931 151.489C792.086 150.834 793.222 150.152 794.34 149.442L793.804 148.598C794.91 147.896 795.998 147.167 797.067 146.413L797.644 147.23C798.728 146.466 799.792 145.675 800.835 144.859L800.22 144.071C801.252 143.265 802.263 142.434 803.254 141.578L803.908 142.335C804.911 141.469 805.893 140.578 806.853 139.664L806.163 138.94C807.111 138.037 808.037 137.111 808.94 136.163L809.664 136.853C810.578 135.893 811.469 134.911 812.335 133.908L811.578 133.254C812.434 132.263 813.265 131.252 814.071 130.22L814.859 130.835C815.675 129.792 816.466 128.728 817.23 127.644L816.413 127.067C817.167 125.998 817.896 124.91 818.598 123.804L819.442 124.34C820.152 123.222 820.834 122.086 821.489 120.931L820.62 120.438C821.265 119.301 821.884 118.147 822.474 116.976L823.367 117.427C823.963 116.245 824.53 115.047 825.069 113.833L824.155 113.428C824.685 112.234 825.187 111.025 825.659 109.801L826.592 110.161C827.068 108.927 827.515 107.679 827.932 106.417L826.982 106.104C827.392 104.864 827.771 103.612 828.121 102.346L829.085 102.612C829.436 101.339 829.758 100.053 830.048 98.7551L829.072 98.5369C829.357 97.2642 829.611 95.98 829.834 94.6852L830.82 94.855C831.044 93.5543 831.237 92.2429 831.398 90.9218L830.406 90.8005C830.564 89.5071 830.691 88.2041 830.786 86.8923L831.784 86.9649C831.879 85.6497 831.944 84.3259 831.976 82.994L830.976 82.9699C830.992 82.3152 831 81.6585 831 81Z" fill="#F8FBFF" stroke="#26599B" stroke-width="2" stroke-dasharray="4 4"/>
</svg>
