<?xml version="1.0" encoding="utf-8"?><svg viewBox="0 0 512 525" xmlns="http://www.w3.org/2000/svg" xmlns:xlink="http://www.w3.org/1999/xlink"><style>:root>svg{display:none}:root>svg:target{display:block}</style><svg viewBox="0 0 12 12" id="arrow-down" xmlns="http://www.w3.org/2000/svg"><path class="aast0" d="M1.2 4c.1-.1.3-.2.5-.2.3 0 .4 0 .6.2L6 7.7 9.7 4c.1-.1.3-.2.5-.2s.4.1.5.2c.2.1.3.3.3.5s-.1.4-.2.5L6.5 9.3c-.1.1-.3.2-.5.2s-.4-.1-.5-.2L1.2 5c-.1-.1-.2-.3-.2-.5s.1-.4.2-.5z"/></svg><svg viewBox="0 0 12 20" id="arrow-left" xmlns="http://www.w3.org/2000/svg"><path class="abst0" d="M11.1 19.5c.3-.3.4-.7.4-1.1 0-.4-.2-.8-.4-1.1L3.6 10 11 2.6c.3-.3.4-.7.4-1.1 0-.4-.2-.8-.4-1-.2-.3-.6-.5-1-.5s-.8.2-1.1.5L.5 8.9c-.3.3-.5.7-.5 1.1 0 .4.2.8.4 1.1l8.5 8.5c.3.2.7.4 1.1.4.4 0 .8-.2 1.1-.5z"/></svg><svg viewBox="0 0 12 20" id="arrow-right" xmlns="http://www.w3.org/2000/svg"><path class="acst0" d="M.9 19.5c-.3-.3-.4-.7-.4-1.1 0-.4.2-.8.4-1.1L8.4 10 .9 2.6C.7 2.3.5 1.9.5 1.5c0-.4.2-.8.4-1C1.2.2 1.6 0 2 0c.4 0 .8.1 1.1.4l8.5 8.5c.2.3.4.7.4 1.1 0 .4-.2.8-.4 1.1l-8.5 8.5c-.3.2-.7.4-1.1.4s-.8-.2-1.1-.5z"/></svg><svg fill="none" viewBox="0 0 56 56" id="bar-line" xmlns="http://www.w3.org/2000/svg"><path d="M13.405 33.933v7.466m14.933-18.666V41.4M47.004 47H9.672m33.599-16.8v11.2M16.39 22.36a3.735 3.735 0 00-6.682 1.713 3.733 3.733 0 106.683-1.712zm0 0l8.96-6.72m0 0a3.732 3.732 0 006.328-.568m-6.328.569a3.732 3.732 0 116.328-.57m0 0l8.25 4.126a3.733 3.733 0 106.68 3.341 3.733 3.733 0 00-6.678-3.341" stroke="#26599B" stroke-width="3" stroke-linecap="round" stroke-linejoin="round"/></svg><svg fill="none" viewBox="0 0 56 56" id="book" xmlns="http://www.w3.org/2000/svg"><path d="M9 45.875V9.125A6.125 6.125 0 0115.125 3h24.5a6.125 6.125 0 016.125 6.125v33.688a3.063 3.063 0 01-3.063 3.062H12.064a3.063 3.063 0 003.062 3.063h29.094a1.531 1.531 0 110 3.062H15.125A6.125 6.125 0 019 45.875zm33.688-36.75a3.063 3.063 0 00-3.063-3.063h-24.5a3.062 3.062 0 00-3.063 3.063v33.688h30.626V9.124zm-24.375 12.25h2.98c.138-2.367.588-4.548 1.286-6.306a9.182 9.182 0 00-4.266 6.306zm-3.188 1.531a12.25 12.25 0 1124.5 0 12.25 12.25 0 01-24.5 0zm21.312-1.531a9.187 9.187 0 00-4.263-6.306c.695 1.758 1.145 3.939 1.283 6.306h2.98zm-2.98 3.063c-.138 2.367-.588 4.55-1.286 6.305a9.19 9.19 0 004.269-6.305h-2.983zm-3.069-3.063c-.14-2.165-.578-4.055-1.172-5.445-.368-.858-.766-1.452-1.127-1.81-.359-.352-.598-.401-.714-.401-.116 0-.355.049-.714.398-.36.361-.76.955-1.127 1.813-.594 1.39-1.032 3.277-1.172 5.445h6.027zm-6.027 3.063c.141 2.165.58 4.054 1.173 5.445.368.857.766 1.451 1.127 1.81.359.352.598.4.714.4.116 0 .355-.048.714-.397.36-.362.76-.956 1.127-1.813.594-1.39 1.029-3.277 1.172-5.445h-6.027zm-3.068 0h-2.98a9.189 9.189 0 004.263 6.305c-.695-1.755-1.145-3.938-1.283-6.305z" fill="#26599B"/></svg><svg fill="none" viewBox="0 0 24 24" id="check" xmlns="http://www.w3.org/2000/svg"><path d="M21.07 5.229a1.125 1.125 0 01-.048 1.59L9.127 18.03a1.276 1.276 0 01-1.782-.033l-4.02-4.08a1.124 1.124 0 111.602-1.58l3.35 3.401L19.48 5.181a1.125 1.125 0 011.59.048z" fill="#26599B"/></svg><svg fill="none" viewBox="0 0 48 48" id="clock" xmlns="http://www.w3.org/2000/svg"><mask id="aga" style="mask-type:alpha" maskUnits="userSpaceOnUse" x="0" y="0" width="48" height="48"><path fill="#D9D9D9" d="M0 0h48v48H0z"/></mask><g mask="url(#aga)"><path d="M21.851 28.4l-3.65-3.65c-.3-.3-.658-.442-1.075-.425a1.555 1.555 0 00-1.075.477c-.3.303-.45.66-.45 1.076 0 .415.15.772.45 1.072l4.75 4.7c.3.3.65.45 1.05.45s.75-.15 1.05-.45l9.05-9.05c.3-.302.45-.661.45-1.077 0-.415-.15-.773-.452-1.073-.302-.3-.66-.45-1.075-.45-.415 0-.773.15-1.073.45l-7.95 7.95zm2.1 15.5c-2.466 0-4.791-.467-6.975-1.4-2.183-.933-4.083-2.208-5.7-3.825-1.616-1.617-2.9-3.517-3.85-5.7-.95-2.183-1.425-4.52-1.425-7.012 0-2.49.475-4.824 1.425-7 .95-2.175 2.234-4.08 3.85-5.713 1.617-1.633 3.517-2.917 5.7-3.85C19.16 8.467 21.485 8 23.951 8c2.467 0 4.792.467 6.975 1.4a18.036 18.036 0 015.725 3.85 18.07 18.07 0 013.85 5.713c.934 2.176 1.4 4.51 1.4 7 0 2.491-.466 4.829-1.4 7.012-.933 2.183-2.216 4.083-3.85 5.7-1.633 1.617-3.541 2.892-5.725 3.825-2.183.933-4.508 1.4-6.975 1.4zm-20.4-30.3c-.3-.3-.441-.65-.425-1.05.017-.4.175-.75.475-1.05l6.05-5.85a1.47 1.47 0 011.075-.375c.417.017.759.158 1.025.425.3.3.442.65.425 1.05-.016.4-.175.75-.475 1.05l-6.05 5.85a1.47 1.47 0 01-1.075.375c-.416-.017-.758-.158-1.025-.425zm40.8 0c-.266.267-.608.408-1.025.425a1.47 1.47 0 01-1.075-.375l-6.05-5.85a1.389 1.389 0 01-.475-1.025 1.383 1.383 0 01.425-1.075c.267-.267.609-.408 1.025-.425a1.47 1.47 0 011.075.375l6.05 5.85c.3.267.459.608.475 1.025.017.417-.125.775-.425 1.075zM23.953 40.9c4.166 0 7.698-1.45 10.598-4.352 2.9-2.902 4.35-6.435 4.35-10.6s-1.45-7.698-4.352-10.598c-2.901-2.9-6.435-4.35-10.6-4.35s-7.698 1.45-10.598 4.352c-2.9 2.902-4.35 6.435-4.35 10.6s1.451 7.698 4.352 10.598c2.902 2.9 6.435 4.35 10.6 4.35z" fill="#26599B"/></g></svg><svg fill="none" viewBox="0 0 56 56" id="comp" xmlns="http://www.w3.org/2000/svg"><path d="M30.333 7H10.5A3.5 3.5 0 007 10.5v25.667a3.5 3.5 0 003.5 3.5h35a3.5 3.5 0 003.5-3.5v-7M28 39.666V49M16.332 49h23.333M37.332 15.166L43.165 21 49 15.166M43.168 7v14" stroke="#26599B" stroke-width="3" stroke-linecap="round" stroke-linejoin="round"/></svg><svg fill="none" viewBox="0 0 24 25" id="computer-check" xmlns="http://www.w3.org/2000/svg"><path d="M21.999 11.5c-.008 2.626-.086 4.044-.813 5.081a4.5 4.5 0 01-1.105 1.105C18.92 18.5 17.28 18.5 14 18.5h-4c-3.28 0-4.919 0-6.081-.814a4.5 4.5 0 01-1.105-1.105C2 15.42 2 13.78 2 10.5c0-3.28 0-4.919.814-6.081a4.5 4.5 0 011.105-1.105C5.08 2.5 6.72 2.5 10 2.5h1.5" stroke="#26599B" stroke-width="1.5" stroke-linecap="round" stroke-linejoin="round"/><path d="M14 6.5s1 0 2 2c0 0 3.177-5 6-6m-11 13h2m-1 3v4m-4 0h8" stroke="#26599B" stroke-width="1.5" stroke-linecap="round" stroke-linejoin="round"/></svg><svg fill="none" viewBox="0 0 24 25" id="computer-cloud" xmlns="http://www.w3.org/2000/svg"><g clip-path="url(#ajclip0_1467_18728)"><path d="M11 2.5h-1c-3.28 0-4.919 0-6.081.814a4.5 4.5 0 00-1.105 1.105C2 5.58 2 7.22 2 10.5c0 3.28 0 4.919.814 6.081a4.5 4.5 0 001.105 1.105C5.08 18.5 6.72 18.5 10 18.5h4c3.28 0 4.919 0 6.081-.814a4.5 4.5 0 001.105-1.105c.68-.97.792-2.272.81-4.581M11 15.5h2m-1 3v4m-4 0h8" stroke="#26599B" stroke-width="1.5" stroke-linecap="round" stroke-linejoin="round"/><path d="M18.137 5.18v.93c0 .445-.045.825-.133 1.14-.086.313-.211.566-.375.762-.164.195-.36.338-.59.43-.227.09-.48.136-.762.136-.224 0-.432-.029-.625-.086a1.527 1.527 0 01-.91-.742 2.646 2.646 0 01-.25-.7 4.585 4.585 0 01-.086-.94v-.93c0-.448.044-.826.133-1.133a1.99 1.99 0 01.379-.754c.164-.195.36-.337.586-.426a2.11 2.11 0 01.766-.133c.226 0 .434.029.625.086a1.464 1.464 0 01.906.73c.11.19.193.421.25.692.057.268.086.58.086.938zm-.942 1.062V5.04c0-.226-.013-.426-.039-.598A1.773 1.773 0 0017.04 4a.88.88 0 00-.187-.297.661.661 0 00-.258-.168.911.911 0 00-.325-.055.862.862 0 00-.39.086.703.703 0 00-.29.266 1.45 1.45 0 00-.179.484c-.039.198-.058.44-.058.723v1.203c0 .23.013.431.039.606.026.174.065.324.117.449.052.122.114.224.187.305a.701.701 0 00.258.171.931.931 0 00.324.055.87.87 0 00.395-.086.723.723 0 00.289-.273c.078-.128.137-.293.176-.496.039-.203.058-.447.058-.73zM21.879 6.379h-2.957v-.777h2.937c.263 0 .476-.04.637-.122.162-.083.28-.199.356-.347.075-.149.113-.322.113-.52a1.11 1.11 0 00-.113-.496.9.9 0 00-.352-.375c-.159-.099-.366-.148-.621-.148h-1.18V8.5h-.98V2.812h2.16c.437 0 .81.077 1.117.231.307.154.543.366.707.637.164.268.246.577.246.925 0 .373-.083.692-.25.957a1.582 1.582 0 01-.71.606c-.308.14-.678.21-1.11.21zm.094.418v.777h-3.051v-.777h3.05z" fill="#26599B"/></g><defs><clipPath id="ajclip0_1467_18728"><path fill="#fff" transform="translate(0 .5)" d="M0 0h24v24H0z"/></clipPath></defs></svg><svg fill="none" viewBox="0 0 56 56" id="connect" xmlns="http://www.w3.org/2000/svg"><path d="M29.595 29.571h8.08a6.286 6.286 0 100-3.142h-8.08V13.857h8.08a6.286 6.286 0 100-3.143h-8.08a3.143 3.143 0 00-3.143 3.143V26.43h-8.08a6.286 6.286 0 100 3.142h8.08v12.572a3.143 3.143 0 003.143 3.143h8.08a6.286 6.286 0 100-3.143h-8.08V29.57zm14.143-4.714a3.143 3.143 0 110 6.287 3.143 3.143 0 010-6.287zm0-15.714a3.143 3.143 0 110 6.286 3.143 3.143 0 010-6.286zm-31.429 22a3.143 3.143 0 110-6.286 3.143 3.143 0 010 6.286zm31.429 9.428a3.143 3.143 0 110 6.286 3.143 3.143 0 010-6.286z" fill="#26599B"/></svg><svg fill="none" viewBox="0 0 32 32" id="cross" xmlns="http://www.w3.org/2000/svg"><path d="M21.82 21.818L10.184 10.182m11.636 0L10.184 21.818" stroke="#35495D" stroke-width="2" stroke-linecap="round"/></svg><svg viewBox="0 0 20 24" id="docPlus" xmlns="http://www.w3.org/2000/svg"><path class="amst0" d="M17.7 23.6H2.3c-.6 0-1.1-.2-1.6-.6-.4-.4-.6-1-.6-1.6V2.6C.1 2 .3 1.4.7 1c.4-.4 1-.6 1.6-.6h11.1c.1 0 .3.1.4.1l6 6c.1.1.1.2.1.4v14.6c0 .6-.2 1.2-.6 1.6-.4.3-1 .5-1.6.5zM2.3 1.4c-.3 0-.6.1-.9.3-.2.2-.3.6-.3.9v18.9c0 .3.1.6.4.9.2.2.5.4.9.4h15.4c.3 0 .6-.1.9-.4.2-.2.4-.5.4-.9V7.1l-5.7-5.7H2.3z"/><path class="amst0" d="M11.2 18.2H8.8c-.7 0-1.2-.6-1.2-1.2v-1.6H6c-.7 0-1.2-.6-1.2-1.2v-2.4c0-.3.1-.6.4-.9.2-.2.5-.4.9-.4h1.6V8.9c0-.3.1-.6.4-.9.2-.2.5-.4.9-.4h2.4c.3 0 .6.1.9.4.2.2.4.5.4.9v1.6H14c.3 0 .6.1.9.4.2.2.4.6.4.9v2.4c0 .3-.1.6-.4.9-.2.2-.5.4-.9.4h-1.6v1.6c0 .3-.1.6-.4.9-.2 0-.5.2-.8.2zM6 11.5c-.1 0-.1 0-.2.1 0 0-.1.1-.1.2v2.4c0 .1.1.2.2.2H8c.3 0 .5.2.5.5V17c0 .1.1.2.2.2h2.4c.1 0 .1 0 .2-.1 0 0 .1-.1.1-.2v-2.1c0-.3.2-.5.5-.5H14c.1 0 .1 0 .2-.1 0 0 .1-.1.1-.2v-2.4c0-.1 0-.1-.1-.2 0 0-.1-.1-.2-.1h-2.1c-.3 0-.5-.2-.5-.5V8.9c0-.1 0-.1-.1-.2 0 0-.1-.1-.2-.1H8.7c-.1 0-.1 0-.2.1 0 0-.1.1-.1.2V11c0 .3-.2.5-.5.5H6z"/></svg><svg fill="none" viewBox="0 0 48 48" id="docs" xmlns="http://www.w3.org/2000/svg"><mask id="ana" style="mask-type:alpha" maskUnits="userSpaceOnUse" x="0" y="0" width="48" height="48"><path fill="#D9D9D9" d="M0 0h48v48H0z"/></mask><g mask="url(#ana)"><path d="M16.998 17v24h15.4v-7.1c0-.425.144-.781.432-1.069a1.451 1.451 0 011.069-.431h7.1V17h-24zm-3 24V17c0-.835.292-1.544.876-2.127A2.896 2.896 0 0116.997 14h24a2.89 2.89 0 012.12.881 2.89 2.89 0 01.88 2.119v15.75c0 .415-.083.81-.25 1.186a3.156 3.156 0 01-.65.964l-8.2 8.2a3.154 3.154 0 01-.964.65c-.375.167-.77.25-1.185.25h-15.75a2.887 2.887 0 01-2.119-.882A2.887 2.887 0 0113.998 41zm-9.95-29.25c-.166-.833-.008-1.575.475-2.225.484-.65 1.142-1.058 1.975-1.225l23.65-4.2c.8-.167 1.534-.008 2.2.475a3.079 3.079 0 011.25 1.925l.5 2.75c.067.467-.024.85-.274 1.15-.25.3-.559.483-.925.55a1.632 1.632 0 01-1.076-.175c-.35-.183-.558-.508-.625-.975l-.5-2.75-23.65 4.15 3.7 21.15c.067.367 0 .717-.2 1.05-.2.333-.483.55-.85.65-.433.1-.833.042-1.2-.175a1.307 1.307 0 01-.65-.975l-3.8-21.15z" fill="#26599B"/></g></svg><svg fill="none" viewBox="0 0 24 24" id="document-close" xmlns="http://www.w3.org/2000/svg"><path d="M8.465 15.539l7.072-7.07m-7.072 0l7.072 7.07" stroke="#35495D" stroke-width="1.5" stroke-linecap="round"/></svg><svg version="1.1" id="download" x="0" y="0" viewBox="0 0 24 24" xml:space="preserve" xmlns="http://www.w3.org/2000/svg"><style/><path class="apst0" d="M18 22H6c-.8 0-1.6-.3-2.1-.9-.6-.5-.9-1.3-.9-2.1v-2c0-.6.4-1 1-1s1 .4 1 1v2c0 .3.1.5.3.7.2.2.4.3.7.3h12c.3 0 .5-.1.7-.3s.3-.4.3-.7v-2c0-.6.4-1 1-1s1 .4 1 1v2c0 .8-.3 1.6-.9 2.1s-1.3.9-2.1.9zm-6-5c-.1 0-.3 0-.4-.1-.1 0-.2-.1-.3-.2l-5-5c-.4-.4-.4-1 0-1.4s1-.4 1.4 0l3.3 3.3V4c0-.6.4-1 1-1s1 .4 1 1v9.6l3.3-3.3c.4-.4 1-.4 1.4 0s.4 1 0 1.4l-5 5c-.1.1-.2.2-.3.2-.1.1-.3.1-.4.1z"/></svg><svg fill="none" viewBox="0 0 32 32" id="flexibility" xmlns="http://www.w3.org/2000/svg"><path d="M29 4.182v7.09a1.182 1.182 0 11-2.364 0V7.035l-6.254 6.257a1.183 1.183 0 01-1.673-1.673l6.257-6.254h-4.239a1.182 1.182 0 110-2.364h7.091A1.182 1.182 0 0129 4.182zM11.618 18.709l-6.254 6.257v-4.239a1.182 1.182 0 10-2.364 0v7.091A1.182 1.182 0 004.182 29h7.09a1.182 1.182 0 100-2.364H7.035l6.257-6.254a1.183 1.183 0 00-1.673-1.673zm16.2.837a1.182 1.182 0 00-1.182 1.181v4.239l-6.254-6.257a1.183 1.183 0 00-1.673 1.673l6.257 6.254h-4.239a1.182 1.182 0 100 2.364h7.091A1.182 1.182 0 0029 27.818v-7.09a1.182 1.182 0 00-1.182-1.183zM7.034 5.364h4.239a1.182 1.182 0 100-2.364H4.182A1.182 1.182 0 003 4.182v7.09a1.182 1.182 0 102.364 0V7.035l6.254 6.257a1.183 1.183 0 001.673-1.673L7.034 5.364z" fill="#26599B"/></svg><svg fill="none" viewBox="0 0 56 56" id="funnel-light" xmlns="http://www.w3.org/2000/svg"><path d="M46.67 9.334H9.335l13.067 17.422c.605.808.933 1.79.933 2.8v17.11L32.669 42V29.556c0-1.01.328-1.992.934-2.8L46.669 9.334z" stroke="#26599B" stroke-width="3" stroke-linejoin="round"/></svg><svg fill="none" viewBox="0 0 32 32" id="hamburger" xmlns="http://www.w3.org/2000/svg"><path d="M5 8h22M5 16h22M5 24h22" stroke="#35495D" stroke-width="2" stroke-linecap="round" stroke-linejoin="round"/></svg><svg viewBox="0 0 24 24" id="hand" xmlns="http://www.w3.org/2000/svg"><path class="atst0" d="M23.7 10.2l-2.4-4.8c-.1-.1-.2-.3-.3-.4-.1-.1-.3-.2-.4-.3-.2-.1-.3-.1-.5-.1s-.3.1-.5.1L17.1 6l-5-1.3h-.3L6.9 6 4.5 4.8c-.2-.1-.3-.1-.5-.1s-.3 0-.5.1c-.2 0-.3.1-.5.2-.1.1-.2.3-.3.4L.3 10.2c-.2.3-.2.7-.1 1 .1.3.3.6.7.8l2.5 1.3L8.7 17h.2l6 1.5h.1c.1 0 .3-.1.4-.2l5.2-5.2 2.5-1.3c.3-.2.5-.4.7-.8.1-.1 0-.5-.1-.8zm-5 3.3l-3.4-2.7c-.1-.1-.2-.1-.4-.1-.1 0-.3.1-.4.2-1.7 1.8-3.7 1.5-4.9.7l-.1-.1v-.1-.1-.1l4.1-4h3.2l2.7 5.3-.8 1zM1.3 10.8v-.1l2.4-4.8s0-.1.1-.1H4l2.1 1L3.5 12l-2.1-1c0-.1 0-.1-.1-.2 0 .1 0 .1 0 0zm13.5 6.6L9.2 16l-4.8-3.4 2.7-5.5L12 5.8l1.4.4c-.1 0-.2.1-.3.1l-4.3 4.2c-.1.1-.2.3-.3.5-.1.2-.1.4-.1.6 0 .2.1.4.2.6.1.2.2.3.4.4 1.9 1.2 4.2 1 6-.6l2.9 2.3-3.1 3.1zm7.9-6.6c0 .1 0 .1 0 0l-.1.1-2.1 1-2.6-5.1 2.1-1H20.3v.1l2.4 4.8v.1zm-10.5 9.6c0 .1-.1.3-.3.3-.1.1-.3.1-.4.1l-3.9-1c-.1 0-.1 0-.2-.1L4.9 18c-.1-.1-.2-.2-.2-.4 0-.1 0-.3.1-.4.1-.1.2-.2.4-.2.1 0 .3 0 .4.1L8 18.8l3.8 1c.1 0 .1 0 .2.1.1 0 .1.1.1.2s.1.1.1.2v.1z"/></svg><svg fill="none" viewBox="0 0 24 25" id="integration-security" xmlns="http://www.w3.org/2000/svg"><g clip-path="url(#auclip0_1467_18737)" fill="#26599B"><path d="M20.566 15.3a9 9 0 01-17.332-.752l1.702-.336-3.24-3.352L0 15.194l1.794-.352a10.5 10.5 0 0020.25.922l-1.478-.464zm1.672-5.08a10.5 10.5 0 00-20.25-.92l1.426.464a9 9 0 0117.332.75l-1.702.338 3.24 3.344L24 9.868l-1.762.352z"/><path fill-rule="evenodd" clip-rule="evenodd" d="M18.098 8.454l-.488 3.904a7.502 7.502 0 01-3.68 5.558l-1.928 1.118-1.928-1.12a7.5 7.5 0 01-3.68-5.556l-.488-3.904.688-.524.908 1.194.38 3.048a6 6 0 002.944 4.446l1.176.682 1.176-.682a6 6 0 002.944-4.446l.38-3.048.908-1.194.688.524zm-1.596.67S14.628 7.7 12.002 7.7s-4.5 1.424-4.5 1.424L6.594 7.93l.002-.002.006-.004.01-.008.03-.02c.133-.095.269-.186.408-.27a9.163 9.163 0 011.106-.582 9.458 9.458 0 013.846-.844c1.58 0 2.918.428 3.846.844a10 10 0 011.42.786l.094.066.03.02.01.008.004.004.004.002-.908 1.194z"/></g><defs><clipPath id="auclip0_1467_18737"><path fill="#fff" transform="translate(0 .5)" d="M0 0h24v24H0z"/></clipPath></defs></svg><svg fill="none" viewBox="0 0 24 24" id="load" xmlns="http://www.w3.org/2000/svg"><path d="M12 2v2M17 3.336l-1 1.732M20.66 7l-1.732 1M22 12h-2M20.66 17l-1.732-1M17 20.662l-1-1.732M12 22v-2M7 20.662l1-1.732M3.34 17l1.732-1M2 12h2M3.34 7l1.732 1M7 3.336l1 1.732" stroke="#26599B" stroke-width="2" stroke-linecap="round" stroke-linejoin="round"/></svg><svg fill="none" viewBox="0 0 38 38" id="magnifier" xmlns="http://www.w3.org/2000/svg"><g clip-path="url(#awclip0_1959_11862)"><path d="M36.89 34.7l-9.274-9.282c5.442-6.659 4.459-16.465-2.2-21.907S8.958-.94 3.516 5.711c-5.442 6.652-4.459 16.465 2.2 21.907a15.574 15.574 0 0019.707 0l9.274 9.275c.62.597 1.603.582 2.2-.037a1.555 1.555 0 00-.007-2.156zm-21.302-6.674c-6.87 0-12.436-5.566-12.436-12.436S8.725 3.162 15.588 3.162c6.863 0 12.436 5.566 12.436 12.428-.007 6.863-5.573 12.43-12.436 12.436z" fill="#26599B"/><mask id="awa" fill="#fff"><path d="M12.438 9.576a1.969 1.969 0 011.968-1.969h2.188a1.969 1.969 0 011.968 1.97v1.548h2.844a1.969 1.969 0 011.969 1.969v9.625a.656.656 0 01-.656.656H8.28a.656.656 0 01-.656-.656v-7a1.969 1.969 0 011.969-1.97h2.844V9.577zm1.312 12.486h3.5V9.576a.656.656 0 00-.656-.656h-2.188a.656.656 0 00-.656.656v12.486zm-1.313-7H9.595a.657.657 0 00-.656.657v6.343h3.5v-7zm6.126 7h3.5v-8.968a.656.656 0 00-.657-.657h-2.843v9.625z"/></mask><path d="M12.438 9.576a1.969 1.969 0 011.968-1.969h2.188a1.969 1.969 0 011.968 1.97v1.548h2.844a1.969 1.969 0 011.969 1.969v9.625a.656.656 0 01-.656.656H8.28a.656.656 0 01-.656-.656v-7a1.969 1.969 0 011.969-1.97h2.844V9.577zm1.312 12.486h3.5V9.576a.656.656 0 00-.656-.656h-2.188a.656.656 0 00-.656.656v12.486zm-1.313-7H9.595a.657.657 0 00-.656.657v6.343h3.5v-7zm6.126 7h3.5v-8.968a.656.656 0 00-.657-.657h-2.843v9.625z" fill="#26599B"/><path d="M14.406 7.607v-3 3zm4.156 3.518h-3v3h3v-3zm2.844 0v-3 3zm-8.968 2.625v3h3v-3h-3zm1.312 8.312h-3v3h3v-3zm3.5 0v3h3v-3h-3zm0-12.486h3-3zm-.656-.656v-3 3zm-2.188 0v-3 3zm-1.969 6.142h3v-3h-3v3zm-3.5.657h-3 3zm0 6.343h-3v3h3v-3zm3.5 0v3h3v-3h-3zm6.126 0h-3v3h3v-3zm3.5 0v3h3v-3h-3zm-3.5-9.625v-3h-3v3h3zm-3.125-2.86c0 .273-.11.535-.303.728l-4.242-4.242a4.969 4.969 0 00-1.456 3.513h6zm-.303.728a1.031 1.031 0 01-.729.302v-6a4.969 4.969 0 00-3.513 1.456l4.242 4.242zm-.729.302h2.188v-6h-2.188v6zm2.188 0c-.274 0-.536-.108-.73-.302l4.243-4.242a4.969 4.969 0 00-3.513-1.456v6zm-.73-.302a1.032 1.032 0 01-.302-.729h6a4.969 4.969 0 00-1.455-3.513l-4.242 4.242zm-.302-.729v1.549h6V9.576h-6zm3 4.549h2.844v-6h-2.843v6zm2.844 0c-.273 0-.536-.109-.729-.302L24.92 9.58a4.969 4.969 0 00-3.514-1.455v6zm-.729-.302a1.031 1.031 0 01-.302-.73h6A4.969 4.969 0 0024.92 9.58l-4.243 4.243zm-.302-.73v9.626h6v-9.625h-6zm0 9.626c0-.622.247-1.218.686-1.658l4.243 4.243a3.656 3.656 0 001.071-2.585h-6zm.686-1.658a2.344 2.344 0 011.658-.686v6c.97 0 1.9-.385 2.585-1.071l-4.242-4.243zm1.658-.686H8.28v6H22.72v-6zm-14.438 0c.622 0 1.218.247 1.658.686l-4.243 4.243a3.656 3.656 0 002.585 1.07v-6zm1.658.686c.44.44.686 1.036.686 1.658h-6c0 .97.385 1.9 1.07 2.585l4.244-4.243zm.686 1.658v-7h-6v7h6zm0-7c0 .273-.109.536-.302.729L6.08 12.205a4.969 4.969 0 00-1.455 3.514h6zm-.302.729a1.031 1.031 0 01-.73.302v-6a4.969 4.969 0 00-3.513 1.455l4.243 4.243zm-.73.302h2.845v-6H9.594v6zm5.845-3V9.576h-6v4.174h6zM13.75 25.062h3.5v-6h-3.5v6zm6.5-3V9.576h-6v12.486h6zm0-12.486c0-.97-.385-1.9-1.07-2.585l-4.243 4.242a2.344 2.344 0 01-.687-1.657h6zm-1.07-2.585a3.656 3.656 0 00-2.586-1.071v6a2.344 2.344 0 01-1.658-.687l4.243-4.242zM16.593 5.92h-2.188v6h2.188v-6zm-2.188 0c-.97 0-1.9.385-2.585 1.07l4.243 4.243c-.44.44-1.036.687-1.658.687v-6zm-2.585 1.07a3.656 3.656 0 00-1.071 2.586h6c0 .622-.247 1.218-.686 1.657L11.82 6.991zM10.75 9.577v12.486h6V9.576h-6zm1.688 2.486H9.594v6h2.844v-6zm-2.844 0c-.97 0-1.9.386-2.586 1.071l4.243 4.243c-.44.44-1.036.686-1.657.686v-6zm-2.586 1.071a3.656 3.656 0 00-1.07 2.586h6c0 .621-.247 1.217-.687 1.657l-4.243-4.243zm-1.07 2.586v6.343h6V15.72h-6zm3 9.343h3.5v-6h-3.5v6zm6.5-3v-7h-6v7h6zm3.124 3h3.5v-6h-3.5v6zm6.5-3v-8.968h-6v8.968h6zm0-8.968c0-.97-.385-1.9-1.07-2.586l-4.243 4.243a2.344 2.344 0 01-.686-1.657h6zm-1.07-2.586a3.656 3.656 0 00-2.586-1.07v6a2.344 2.344 0 01-1.657-.687l4.243-4.243zm-2.586-1.07h-2.843v6h2.843v-6zm-5.843 3v9.624h6v-9.625h-6z" fill="#26599B" mask="url(#awa)"/></g><defs><clipPath id="awclip0_1959_11862"><path fill="#fff" d="M0 0h37.33v37.33H0z"/></clipPath></defs></svg><svg fill="none" viewBox="0 0 32 32" id="manager" xmlns="http://www.w3.org/2000/svg"><path d="M16 16.421c3.667 0 6.667-3.02 6.667-6.71C22.667 6.02 19.667 3 16 3S9.333 6.02 9.333 9.71c0 3.691 3 6.711 6.667 6.711zm0-12.303c3.111 0 5.556 2.46 5.556 5.593 0 3.131-2.445 5.592-5.556 5.592s-5.556-2.46-5.556-5.592c0-3.132 2.445-5.593 5.556-5.593zm5 14.54H11c-2.778 0-5 2.237-5 5.033v6.151h1.111v-6.151c0-2.125 1.778-3.915 3.889-3.915h1.778l2.11 2.908-1.666 7.158h1.111L16 22.684l1.667 7.158h1.11l-1.666-7.158 2.111-2.908H21c2.111 0 3.889 1.79 3.889 3.915v6.151H26v-6.151c0-2.796-2.222-5.033-5-5.033zm-5 3.69l-1.889-2.572h3.778L16 22.35z" fill="#26599B" stroke="#26599B" stroke-miterlimit="10"/><path d="M5.5 30h21" stroke="#26599B" stroke-width="1.75"/></svg><svg fill="none" viewBox="0 0 32 32" id="odnoklassniki" xmlns="http://www.w3.org/2000/svg"><path d="M15.831 15.553a4.276 4.276 0 100-8.553 4.276 4.276 0 000 8.553z" stroke="#35495D" stroke-miterlimit="10"/><path d="M15.83 13.22a1.944 1.944 0 100-3.887 1.944 1.944 0 000 3.887z" stroke="#35495D" stroke-miterlimit="10"/><path d="M19.797 16.097a6.533 6.533 0 01-7.93 0c-.467-.389-1.245-.31-1.634.233a1.254 1.254 0 00-.233.7c0 .544.311 1.089.777 1.4.7.466 1.478.855 2.333 1.088.389.156.778.234 1.167.311l-3.11 3.033c-.467.466-.467 1.322 0 1.788.466.467 1.321.467 1.788 0l2.877-3.11 2.876 2.955c.467.466 1.245.544 1.789 0 .466-.467.544-1.244 0-1.789l-3.11-3.032c.388-.078.777-.156 1.166-.311a8.022 8.022 0 002.332-1.089c.467-.31.778-.855.778-1.4 0-.621-.544-1.166-1.166-1.166-.233.078-.467.156-.7.39z" stroke="#35495D" stroke-linecap="round" stroke-linejoin="round"/></svg><svg fill="none" viewBox="0 0 32 32" id="page-plus" xmlns="http://www.w3.org/2000/svg"><path d="M5.328 15.667V3.447a.78.78 0 01.78-.78h15.148a.78.78 0 01.55.229L25.9 6.988a.778.778 0 01.23.554v20.345a.78.78 0 01-.78.78h-10.92" stroke="#26599B" stroke-width="2" stroke-linecap="round" stroke-linejoin="round"/><path d="M20.93 2.667v4.42a.78.78 0 00.78.78h4.42" stroke="#26599B" stroke-width="2" stroke-linecap="round" stroke-linejoin="round"/><path d="M5.336 24.14a.94.94 0 00-.059-.342.646.646 0 00-.205-.283 1.82 1.82 0 00-.425-.26 5.984 5.984 0 00-.708-.263 8.972 8.972 0 01-.918-.351 3.773 3.773 0 01-.761-.454 2.047 2.047 0 01-.518-.61 1.682 1.682 0 01-.185-.807c0-.296.065-.564.195-.805.13-.244.312-.453.547-.625.234-.176.51-.311.83-.405a3.758 3.758 0 011.06-.142c.524 0 .98.094 1.372.283.39.189.693.448.908.776.218.33.327.705.327 1.128H5.34c0-.208-.044-.39-.132-.546a.892.892 0 00-.39-.376c-.173-.091-.391-.137-.655-.137-.254 0-.465.039-.635.117a.847.847 0 00-.38.308.757.757 0 00-.128.43c0 .12.03.229.088.326a.99.99 0 00.274.274c.12.085.268.164.444.24.176.074.38.147.61.219.388.117.728.249 1.021.395.296.147.544.311.742.494.199.182.348.389.45.62.1.23.15.493.15.786 0 .31-.06.586-.18.83s-.294.45-.522.62c-.228.17-.5.298-.816.386a3.95 3.95 0 01-1.06.132c-.35 0-.698-.046-1.04-.137a3.159 3.159 0 01-.932-.425 2.142 2.142 0 01-.664-.723c-.166-.293-.25-.64-.25-1.04h1.47c0 .222.035.409.103.562a.938.938 0 00.288.371c.127.095.277.163.45.205.175.042.367.064.576.064.254 0 .462-.036.625-.108a.771.771 0 00.366-.298.779.779 0 00.122-.43zm7.231.717V26H8.783v-1.143h3.784zm-3.305-5.966V26H7.797v-7.11h1.465zm2.812 2.895V22.9h-3.29v-1.113h3.29zm.489-2.895v1.147h-3.78v-1.147h3.78zm6.699 3.388v.337c0 .54-.073 1.026-.22 1.455a3.2 3.2 0 01-.62 1.099c-.267.3-.586.529-.957.688-.368.16-.776.24-1.226.24-.446 0-.854-.08-1.225-.24a2.746 2.746 0 01-.957-.688 3.218 3.218 0 01-.63-1.099 4.494 4.494 0 01-.22-1.455v-.337c0-.543.073-1.028.22-1.455.146-.43.353-.796.62-1.098.27-.303.59-.534.957-.694.371-.16.78-.239 1.226-.239.449 0 .857.08 1.225.24.371.159.69.39.957.693.27.302.479.669.625 1.098.15.427.225.912.225 1.455zm-1.48.337v-.346c0-.378-.034-.71-.102-.997a2.161 2.161 0 00-.303-.722 1.308 1.308 0 00-.488-.44 1.396 1.396 0 00-.66-.151c-.247 0-.467.05-.659.151a1.32 1.32 0 00-.483.44c-.13.195-.23.436-.298.722a4.318 4.318 0 00-.102.997v.346c0 .375.034.707.102.996.068.287.17.53.303.728.133.195.296.343.488.444.192.101.412.152.66.152.247 0 .466-.05.658-.152.192-.1.354-.249.484-.444.13-.199.23-.441.298-.728.068-.29.102-.621.102-.996z" fill="#26599B"/></svg><svg version="1.1" id="paperclip" x="0" y="0" viewBox="0 0 24 24" xml:space="preserve" xmlns="http://www.w3.org/2000/svg"><style/><path class="bast0" d="M8 23c-1.9 0-3.6-.7-5-2.1-1.3-1.3-2-3.1-2-4.9 0-1.9.7-3.6 2.1-5l8.6-8.6c.9-.9 2.1-1.4 3.5-1.4 1.3 0 2.6.5 3.5 1.5.9.9 1.5 2.2 1.5 3.5s-.5 2.6-1.5 3.5l-8.6 8.6c-1.1 1.1-3.1 1.1-4.2 0-.6-.5-.9-1.3-.9-2.1s.3-1.6.9-2.1l8.5-8.5c.4-.4 1-.4 1.4 0 .4.4.4 1 0 1.4l-8.5 8.5c-.2.2-.3.4-.3.7 0 .3.1.5.3.7.4.4 1 .4 1.4 0l8.6-8.6c.6-.6.9-1.3.9-2.1s-.3-1.6-.9-2.1c-.6-.6-1.3-.9-2.1-.9s-1.6.3-2.1.9l-8.6 8.6C3.5 13.4 3 14.7 3 16c0 1.3.5 2.6 1.5 3.5.9 1 2.2 1.5 3.5 1.5s2.6-.5 3.5-1.5l9.2-9.2c.4-.4 1-.4 1.4 0s.4 1 0 1.4L13 21c-1.4 1.3-3.1 2-5 2z"/></svg><svg fill="none" viewBox="0 0 56 56" id="pin" xmlns="http://www.w3.org/2000/svg"><path d="M35.001 35h9.334l7 16.333H4.668l7-16.333h9.333m9.334-16.334a2.333 2.333 0 11-4.667 0 2.333 2.333 0 014.667 0zm-16.334 0c0 11.667 14 23.334 14 23.334s14-11.667 14-23.334c0-7.973-6.267-14-14-14-7.732 0-14 6.027-14 14z" stroke="#26599B" stroke-width="3"/></svg><svg fill="none" viewBox="0 0 48 48" id="reset_shutter_speed" xmlns="http://www.w3.org/2000/svg"><mask id="bca" style="mask-type:alpha" maskUnits="userSpaceOnUse" x="0" y="0" width="48" height="48"><path fill="#D9D9D9" d="M0 0h48v48H0z"/></mask><g mask="url(#bca)"><path d="M24 34c0-1.5.308-2.883.925-4.15a10.735 10.735 0 012.475-3.3L31.7 34H24zm5 8.6a9.807 9.807 0 01-4.8-6.6h8.65L29 42.6zM32.85 32L29 25.4a11.695 11.695 0 012.4-1.025A9 9 0 0134 24c.567 0 1.108.05 1.625.15.517.1 1.025.233 1.525.4L32.85 32zM34 44c-.567 0-1.108-.05-1.625-.15-.517-.1-1.025-.233-1.525-.4l4.3-7.45L39 42.6c-.767.433-1.567.775-2.4 1.025A9 9 0 0134 44zm1.15-12L39 25.4a9.807 9.807 0 014.8 6.6h-8.65zm5.45 9.45L36.3 34H44c0 1.5-.3 2.883-.9 4.15a10.073 10.073 0 01-2.5 3.3zM24 9c-4.167 0-7.708 1.458-10.625 4.375S9 19.833 9 24c0 2.7.642 5.158 1.925 7.375C12.208 33.592 13.9 35.367 16 36.7v-4.2c0-.433.142-.792.425-1.075.283-.283.642-.425 1.075-.425.433 0 .792.142 1.075.425.283.283.425.642.425 1.075v8c0 .433-.142.792-.425 1.075-.283.283-.642.425-1.075.425h-8c-.433 0-.792-.142-1.075-.425C8.142 41.292 8 40.933 8 40.5c0-.433.142-.792.425-1.075.283-.283.642-.425 1.075-.425h4.55c-2.433-1.6-4.383-3.717-5.85-6.35C6.733 30.017 6 27.133 6 24c0-2.5.475-4.842 1.425-7.025.95-2.183 2.233-4.083 3.85-5.7s3.517-2.9 5.7-3.85C19.158 6.475 21.5 6 24 6c4.333 0 8.117 1.308 11.35 3.925 3.233 2.617 5.183 5.592 5.85 8.925.067.4.008.775-.175 1.125a1.452 1.452 0 01-2 .625c-.383-.2-.625-.5-.725-.9-.6-2.733-2.233-5.2-4.9-7.4C30.733 10.1 27.6 9 24 9z" fill="#26599B"/></g></svg><svg fill="none" viewBox="0 0 56 56" id="rocket" xmlns="http://www.w3.org/2000/svg"><path d="M33.249 49a1.75 1.75 0 01-1.75 1.75h-7a1.75 1.75 0 010-3.5h7a1.75 1.75 0 011.75 1.75zm-5.25-24.5a2.625 2.625 0 100-5.251 2.625 2.625 0 000 5.25zm20.917 9.588l-2.704 12.169a3.5 3.5 0 01-5.58 1.992l-5.96-4.5H21.33l-5.963 4.5a3.5 3.5 0 01-5.58-1.992l-2.704-12.17a3.52 3.52 0 01.726-2.999l6.248-7.494c.21-2.754.841-5.46 1.874-8.021C18.752 8.498 23.805 4.06 25.855 2.48a3.5 3.5 0 014.288 0c2.043 1.58 7.102 6.018 9.924 13.093a26.903 26.903 0 011.875 8.021l6.247 7.494a3.52 3.52 0 01.727 3zM21.749 40.25h12.5c4.62-8.212 5.484-16.074 2.568-23.38-2.573-6.449-7.398-10.526-8.818-11.62-1.424 1.094-6.25 5.171-8.822 11.62-2.912 7.306-2.048 15.168 2.572 23.38zm-3.281 1.28c-2.355-4.28-3.784-8.487-4.288-12.62L10.5 33.328 13.203 45.5l.039-.029 5.226-3.941zm27.03-8.202l-3.68-4.418c-.5 4.124-1.926 8.33-4.28 12.62l5.218 3.937.04.028 2.703-12.166z" fill="#26599B"/></svg><svg fill="none" viewBox="0 0 48 48" id="rule_folder" xmlns="http://www.w3.org/2000/svg"><mask id="bea" style="mask-type:alpha" maskUnits="userSpaceOnUse" x="0" y="0" width="48" height="48"><path fill="#D9D9D9" d="M0 0h48v48H0z"/></mask><g mask="url(#bea)"><path d="M15.6 26.8L13.8 25c-.3-.3-.65-.45-1.05-.45s-.757.15-1.07.45c-.287.3-.43.65-.43 1.05s.15.75.45 1.05l2.9 2.9c.3.3.65.45 1.05.45s.75-.15 1.05-.45l7.1-7.1c.3-.309.45-.67.45-1.082 0-.412-.15-.768-.453-1.068-.302-.3-.66-.45-1.075-.45-.415 0-.772.15-1.072.45L15.6 26.8zM32 23.65l-2.15-2.15c-.3-.3-.65-.45-1.05-.45s-.75.15-1.05.45c-.3.3-.45.65-.45 1.05s.15.75.45 1.05l2.15 2.15-2.15 2.15c-.3.3-.45.65-.45 1.05s.15.75.45 1.05c.3.3.65.45 1.05.45s.75-.15 1.05-.45L32 27.85 34.15 30c.3.3.65.45 1.05.45s.75-.15 1.05-.45c.3-.3.45-.65.45-1.05s-.15-.75-.45-1.05l-2.15-2.15 2.15-2.15c.3-.3.45-.65.45-1.05s-.15-.75-.45-1.05c-.3-.3-.65-.45-1.05-.45s-.75.15-1.05.45L32 23.65zM7 40c-.8 0-1.5-.308-2.1-.925C4.3 38.458 4 37.767 4 37V11c0-.767.3-1.458.9-2.075C5.5 8.308 6.2 8 7 8h12.8c.415 0 .81.083 1.186.25.376.167.699.385.968.655L24.05 11H41c.767 0 1.458.308 2.075.925.617.617.925 1.308.925 2.075v23c0 .767-.308 1.458-.925 2.075-.617.617-1.308.925-2.075.925H7zm0-3h34V14H22.8l-3-3H7v26z" fill="#26599B"/></g></svg><svg fill="none" viewBox="0 0 56 56" id="seo" xmlns="http://www.w3.org/2000/svg"><path d="M6 6v44h44" stroke="#26599B" stroke-width="3" stroke-linecap="round" stroke-linejoin="round"/><path d="M15.781 42.317l9.778-19.555 12.222 11L50.004 8.095" stroke="#26599B" stroke-width="3" stroke-linecap="round" stroke-linejoin="round"/><path d="M20.07 13.396c0-.178-.027-.338-.082-.479a.904.904 0 00-.287-.396 2.546 2.546 0 00-.595-.363 8.403 8.403 0 00-.99-.369c-.452-.146-.88-.31-1.286-.492a5.276 5.276 0 01-1.066-.636 2.864 2.864 0 01-.725-.854c-.173-.324-.26-.7-.26-1.128 0-.415.091-.791.274-1.128.182-.342.437-.634.765-.875a3.636 3.636 0 011.162-.568 5.26 5.26 0 011.484-.198c.734 0 1.374.132 1.92.397.548.264.971.626 1.272 1.087.306.46.458.986.458 1.579h-2.037c0-.292-.061-.547-.184-.766a1.249 1.249 0 00-.547-.526c-.242-.128-.547-.192-.916-.192-.356 0-.652.055-.889.164a1.185 1.185 0 00-.533.431 1.06 1.06 0 00-.178.602c0 .168.041.32.123.458.087.136.214.264.383.382.169.119.376.23.622.335.246.105.53.208.855.308a9.09 9.09 0 011.428.554c.415.205.761.435 1.04.69.277.255.487.545.628.868.142.324.212.69.212 1.1 0 .434-.084.821-.253 1.163a2.388 2.388 0 01-.731.868 3.44 3.44 0 01-1.142.54 5.527 5.527 0 01-1.483.185c-.492 0-.978-.064-1.456-.192a4.42 4.42 0 01-1.306-.594 2.997 2.997 0 01-.93-1.012c-.232-.41-.348-.896-.348-1.456h2.057c0 .31.048.572.144.786.096.214.23.387.403.52.178.132.387.227.63.287.245.059.514.088.806.088.355 0 .647-.05.875-.15.232-.1.403-.24.512-.417.114-.178.171-.378.171-.601zM30.194 14.4V16h-5.297v-1.6h5.297zm-4.628-8.353V16h-2.05V6.047h2.05zm3.938 4.054v1.558h-4.608v-1.558h4.608zm.683-4.054v1.606h-5.29V6.047h5.29zm9.38 4.744v.472c0 .756-.103 1.435-.308 2.037a4.48 4.48 0 01-.868 1.538c-.374.42-.82.74-1.34.964a4.269 4.269 0 01-1.716.335 4.3 4.3 0 01-1.716-.335 3.846 3.846 0 01-1.34-.964 4.503 4.503 0 01-.882-1.538c-.205-.602-.307-1.28-.307-2.037v-.472c0-.761.102-1.44.308-2.037a4.478 4.478 0 01.868-1.538 3.807 3.807 0 011.34-.97 4.3 4.3 0 011.715-.336c.63 0 1.201.112 1.716.335.52.223.966.547 1.34.97.378.425.67.937.875 1.539.21.597.314 1.276.314 2.037zm-2.072.472v-.486c0-.528-.048-.993-.143-1.394a3.022 3.022 0 00-.424-1.012 1.83 1.83 0 00-.684-.615 1.954 1.954 0 00-.923-.212c-.346 0-.654.07-.923.212-.264.137-.49.342-.676.615-.183.274-.322.61-.417 1.012a6.047 6.047 0 00-.144 1.394v.486c0 .524.048.989.144 1.394.095.401.237.74.423 1.019.187.273.415.48.684.622.269.141.577.212.923.212.346 0 .654-.07.923-.212.269-.141.494-.349.677-.622a3.2 3.2 0 00.417-1.019c.095-.405.143-.87.143-1.394z" fill="#26599B"/></svg><svg fill="none" viewBox="0 0 56 56" id="specialisation" xmlns="http://www.w3.org/2000/svg"><path fill-rule="evenodd" clip-rule="evenodd" d="M26.366 5.917h4.4c3.83 0 6.864 0 9.238.319 2.442.329 4.42 1.02 5.98 2.58 1.559 1.56 2.25 3.537 2.58 5.98.319 2.375.319 5.407.319 9.237V32.6c0 3.83 0 6.864-.32 9.237-.329 2.442-1.02 4.42-2.579 5.98-1.56 1.559-3.538 2.25-5.98 2.58-2.376.319-5.407.319-9.237.319h-4.401c-3.83 0-6.864 0-9.237-.32-2.442-.328-4.42-1.02-5.98-2.579-1.56-1.56-2.251-3.538-2.58-5.98-.319-2.375-.319-5.407-.319-9.237v-8.568c0-3.83 0-6.864.319-9.238.329-2.442 1.02-4.42 2.58-5.98 1.56-1.558 3.538-2.25 5.98-2.58 2.375-.318 5.407-.318 9.237-.318zm-8.823 3.417c-2.096.281-3.304.81-4.188 1.692-.88.881-1.409 2.09-1.69 4.186-.287 2.142-.291 4.964-.291 8.937v8.335c0 3.974.004 6.797.291 8.94.282 2.093.81 3.302 1.692 4.184.882.88 2.09 1.41 4.186 1.691 2.143.288 4.964.292 8.938.292h4.167c3.974 0 6.797-.004 8.94-.292 2.093-.28 3.302-.81 4.183-1.691.882-.882 1.41-2.09 1.692-4.187.288-2.14.292-4.963.292-8.937V24.15c0-3.973-.004-6.795-.292-8.939-.281-2.094-.81-3.303-1.692-4.184-.881-.881-2.09-1.41-4.186-1.692-2.14-.287-4.963-.292-8.937-.292H26.48c-3.973 0-6.793.005-8.937.292zm11.023 4.918a1.562 1.562 0 011.563 1.562v2.605h2.605a1.563 1.563 0 110 3.126h-2.605v2.604a1.563 1.563 0 01-3.126 0v-2.604H24.4a1.563 1.563 0 010-3.126h2.604v-2.605a1.562 1.562 0 011.563-1.562zM18.67 32.484a1.563 1.563 0 011.562-1.563h16.67a1.563 1.563 0 010 3.126h-16.67a1.563 1.563 0 01-1.562-1.563zm2.083 8.335a1.563 1.563 0 011.563-1.563h12.502a1.563 1.563 0 110 3.126H22.315a1.562 1.562 0 01-1.563-1.563z" fill="#26599B"/></svg><svg fill="none" viewBox="0 0 64 64" id="steps1" xmlns="http://www.w3.org/2000/svg"><path d="M53.06 20.94l-14-14A1.5 1.5 0 0038 6.5H14a3.5 3.5 0 00-3.5 3.5v44a3.5 3.5 0 003.5 3.5h36a3.5 3.5 0 003.5-3.5V22a1.5 1.5 0 00-.44-1.06zM39.5 11.62l8.88 8.88H39.5v-8.88zM50 54.5H14a.5.5 0 01-.5-.5V10a.5.5 0 01.5-.5h22.5V22a1.5 1.5 0 001.5 1.5h12.5V54a.5.5 0 01-.5.5zM37.972 41.852a8.513 8.513 0 10-2.12 2.12l3.088 3.088a1.5 1.5 0 002.12-2.12l-3.088-3.087zM25.5 37a5.5 5.5 0 1111 0 5.5 5.5 0 01-11 0z" fill="#F8FBFF"/></svg><svg fill="none" viewBox="0 0 64 64" id="steps2" xmlns="http://www.w3.org/2000/svg"><path d="M21.643 44.104c.581 0 1.068-.197 1.461-.592.391-.393.587-.88.587-1.464 0-.583-.198-1.07-.592-1.461-.395-.391-.883-.587-1.464-.587-.582 0-1.069.198-1.462.592-.392.395-.588.883-.586 1.464.002.582.199 1.068.592 1.459.393.391.88.59 1.464.59zm0-10.053c.581 0 1.068-.197 1.461-.59.391-.394.587-.883.587-1.466s-.198-1.07-.592-1.459c-.395-.389-.883-.585-1.464-.586-.582-.002-1.069.194-1.462.589-.392.395-.588.883-.586 1.467.002.583.199 1.069.592 1.458.393.39.88.585 1.464.587zm0-10.05c.581 0 1.068-.197 1.461-.59.391-.395.587-.884.587-1.467 0-.583-.198-1.069-.592-1.458-.395-.39-.883-.585-1.464-.587-.582-.002-1.069.195-1.462.59-.39.394-.586.882-.586 1.463 0 .582.197 1.069.592 1.462.394.392.882.588 1.464.586zm8.2 19.386h14.36V40.72h-14.36v2.667zm0-10.053h14.36v-2.667h-14.36v2.667zm0-10.054h14.36v-2.666h-14.36v2.666zm-14.87 30.054c-1.228 0-2.253-.411-3.074-1.232-.822-.822-1.233-1.847-1.235-3.078V14.976c0-1.228.412-2.253 1.235-3.074.823-.822 1.848-1.233 3.074-1.235h34.051c1.227 0 2.252.412 3.075 1.235.823.823 1.234 1.848 1.232 3.074v34.051c0 1.227-.41 2.252-1.232 3.075-.822.823-1.847 1.233-3.078 1.232H14.973zm0-2.667h34.051c.409 0 .785-.17 1.128-.512.343-.341.514-.718.512-1.13V14.975c0-.41-.17-.787-.512-1.13-.341-.344-.718-.514-1.13-.512H14.972c-.41 0-.787.17-1.13.512-.343.341-.514.718-.512 1.13v34.051c0 .409.17.785.512 1.128.341.343.717.514 1.128.512" fill="#F8FBFF"/></svg><svg fill="none" viewBox="0 0 64 64" id="steps3" xmlns="http://www.w3.org/2000/svg"><path d="M53.06 20.94l-14-14A1.5 1.5 0 0038 6.5H14a3.5 3.5 0 00-3.5 3.5v44a3.5 3.5 0 003.5 3.5h36a3.5 3.5 0 003.5-3.5V22a1.5 1.5 0 00-.44-1.06zM39.5 11.62l8.88 8.88H39.5v-8.88zM50 54.5H14a.5.5 0 01-.5-.5V10a.5.5 0 01.5-.5h22.5V22a1.5 1.5 0 001.5 1.5h12.5V54a.5.5 0 01-.5.5z" fill="#F8FBFF"/><g clip-path="url(#bjclip0_1959_9637)"><path d="M27 41.84h6V50h-6v-8.16zm-8 4.896h6V50h-6v-3.264zm24-3.265h6V50h-6v-6.529zm-8-4.896h6V50h-6V38.575zM49 24l-11.36 8.112-10.94-2.775-9.7 6.137v3.101l10.3-6.529 11.06 2.808L49 27.248V24z" fill="#F8FBFF"/></g><defs><clipPath id="bjclip0_1959_9637"><path fill="#fff" transform="translate(16 19)" d="M0 0h32v31H0z"/></clipPath></defs></svg><svg fill="none" viewBox="0 0 64 64" id="steps4" xmlns="http://www.w3.org/2000/svg"><path d="M53.06 20.94l-14-14A1.5 1.5 0 0038 6.5H14a3.5 3.5 0 00-3.5 3.5v44a3.5 3.5 0 003.5 3.5h36a3.5 3.5 0 003.5-3.5V22a1.5 1.5 0 00-.44-1.06zM39.5 11.62l8.88 8.88H39.5v-8.88zM50 54.5H14a.5.5 0 01-.5-.5V10a.5.5 0 01.5-.5h22.5V22a1.5 1.5 0 001.5 1.5h12.5V54a.5.5 0 01-.5.5z" fill="#F8FBFF"/><path d="M20.367 12.952H33.9v2.845H20.367v-2.845zm0 14.222l17.725.254v2.59H20.367v-2.844zm13.534-7.11H20.367v2.844H33.9v-2.845zM28.89 50.057a4.39 4.39 0 003.9 1.465h13.874a1.244 1.244 0 100-2.49H32.79c-1.62-.028-1.331-1.434-1.104-1.87a7.106 7.106 0 00.688-1.626 2.098 2.098 0 00-1.095-2.35 3.378 3.378 0 00-3.982.919c-.612.631-1.462 1.596-2.276 2.535.503-1.971 1.156-4.501 1.796-6.969a2.338 2.338 0 00-1.343-2.89 2.533 2.533 0 00-3.155 1.41c-.768 1.477-6.848 11.665-6.908 11.768a1.245 1.245 0 002.136 1.277c.228-.383 5.081-8.512 6.612-11.227-1.152 4.444-2.421 9.39-2.496 9.835a1.546 1.546 0 00.724 1.722 1.636 1.636 0 001.966-.398c.224-.203.643-.684 1.701-1.913.986-1.159 1.995-2.298 3.028-3.415.387-.409.622-.227.394.174a4.07 4.07 0 00-.586 4.043z" fill="#F8FBFF"/></svg><svg fill="none" viewBox="0 0 64 64" id="steps5" xmlns="http://www.w3.org/2000/svg"><path d="M32 32.5c6.967 0 12.667-5.738 12.667-12.75S38.967 7 32 7s-12.667 5.738-12.667 12.75S25.033 32.5 32 32.5zm0-23.375c5.911 0 10.556 4.675 10.556 10.625S37.91 30.375 32 30.375 21.444 25.7 21.444 19.75 26.09 9.125 32 9.125zm9.5 27.625h-19c-5.278 0-9.5 4.25-9.5 9.563V58h2.111V46.312c0-4.037 3.378-7.437 7.389-7.437h3.378l4.01 5.525L26.723 58h2.111L32 44.4 35.167 58h2.11l-3.166-13.6 4.011-5.525H41.5c4.011 0 7.389 3.4 7.389 7.438V58H51V46.312c0-5.312-4.222-9.562-9.5-9.562zM32 43.763l-3.589-4.888h7.178L32 43.763z" fill="#F8FBFF" stroke="#F8FBFF" stroke-miterlimit="10"/><path d="M12.5 57.75h39" stroke="#F8FBFF" stroke-width="3"/></svg><svg fill="none" viewBox="0 0 64 64" id="steps6" xmlns="http://www.w3.org/2000/svg"><path d="M53.06 20.94l-14-14A1.5 1.5 0 0038 6.5H14a3.5 3.5 0 00-3.5 3.5v44a3.5 3.5 0 003.5 3.5h36a3.5 3.5 0 003.5-3.5V22a1.5 1.5 0 00-.44-1.06zM39.5 11.62l8.88 8.88H39.5v-8.88zM50 54.5H14a.5.5 0 01-.5-.5V10a.5.5 0 01.5-.5h22.5V22a1.5 1.5 0 001.5 1.5h12.5V54a.5.5 0 01-.5.5z" fill="#F8FBFF"/><path d="M36 38h-8v12h8V38zm12-8h-8v20h8V30zm-24-8h-8v28h8V22z" fill="#F8FBFF"/></svg><svg fill="none" viewBox="0 0 56 56" id="strategy" xmlns="http://www.w3.org/2000/svg"><path d="M50.295 14.865a1.4 1.4 0 01-.302 1.526l-5.6 5.6a1.4 1.4 0 01-.991.41h-7.82l-3.79 3.788a4.2 4.2 0 11-1.979-1.98l3.789-3.788V12.6a1.4 1.4 0 01.408-.992l5.6-5.6A1.4 1.4 0 0142.002 7v7h7a1.4 1.4 0 011.293.865zM45.622 16.8h-5.02a1.4 1.4 0 01-1.4-1.4v-5.02l-2.8 2.8v6.42h6.42l2.8-2.8zm3.68 4.242c.713 2.19 1.1 4.53 1.1 6.958A22.4 22.4 0 1134.96 6.703l-2.263 2.263a19.6 19.6 0 1014.339 14.341l2.265-2.265zm-7.58 4.158a14 14 0 11-10.92-10.92v2.873a11.2 11.2 0 108.047 8.047h2.873z" fill="#26599B"/></svg><svg fill="none" viewBox="0 0 56 56" id="support" xmlns="http://www.w3.org/2000/svg"><path d="M23.696 35.464l-.02-.048a16.386 16.386 0 01-.939-.287l-.023-.01a16.333 16.333 0 01-6.57-26.692 16.335 16.335 0 0128.097 9.49c.103.96-.69 1.747-1.657 1.747-.966 0-1.738-.789-1.866-1.745A12.832 12.832 0 0026.025 6.986 12.837 12.837 0 0015.357 21.87a12.833 12.833 0 008.376 9.9 4.666 4.666 0 018.935 1.889 4.652 4.652 0 01-1.58 3.5 4.667 4.667 0 01-3.087 1.168 4.644 4.644 0 01-4.305-2.863zm-5.035 1.697a19.834 19.834 0 01-4.674-3.465 5.25 5.25 0 00-4.643 5.212v1.348c0 2.081.742 4.097 2.095 5.68 3.654 4.28 9.221 6.393 16.562 6.393 7.34 0 12.91-2.114 16.571-6.392a8.748 8.748 0 002.103-5.688v-1.341a5.249 5.249 0 00-5.246-5.25h-5.261c0 1.256-.28 2.441-.787 3.5h6.048a1.75 1.75 0 011.746 1.75v1.341a5.249 5.249 0 01-1.26 3.413c-2.933 3.425-7.523 5.165-13.914 5.165-6.39 0-10.976-1.74-13.9-5.162a5.248 5.248 0 01-1.26-3.411v-1.346a1.75 1.75 0 011.75-1.75l4.07.002zm.007-17.497a9.331 9.331 0 0113.708-8.24 9.332 9.332 0 01.859 15.968A8.168 8.168 0 0028 25.496a5.834 5.834 0 004.125-9.956 5.834 5.834 0 00-9.958 4.124A5.831 5.831 0 0028 25.496a8.127 8.127 0 00-5.231 1.896 9.309 9.309 0 01-4.102-7.728z" fill="#26599B"/></svg><svg fill="none" viewBox="0 0 32 32" id="team" xmlns="http://www.w3.org/2000/svg"><path d="M16 5a2 2 0 100 4 2 2 0 000-4zm-4 2a4 4 0 118 0 4 4 0 01-8 0zm13.5-1a1.5 1.5 0 100 3 1.5 1.5 0 000-3zM22 7.5a3.5 3.5 0 117 0 3.5 3.5 0 01-7 0zm-17 0a1.5 1.5 0 113 0 1.5 1.5 0 01-3 0zM6.5 4a3.5 3.5 0 100 7 3.5 3.5 0 000-7zm2.151 20.505A3 3 0 014 22v-6.5a.5.5 0 01.5-.5h4.031a4 4 0 01.846-2H4.5A2.5 2.5 0 002 15.5V22a5 5 0 007.327 4.427 7.5 7.5 0 01-.676-1.922zm14.022 1.922A5 5 0 0030 22v-6.5a2.5 2.5 0 00-2.5-2.5h-4.877a4 4 0 01.846 2H27.5a.5.5 0 01.5.5V22a3 3 0 01-4.651 2.505 7.502 7.502 0 01-.676 1.922zM12.5 13a2.5 2.5 0 00-2.5 2.5V23a6 6 0 1012 0v-7.5a2.5 2.5 0 00-2.5-2.5h-7zm-.5 2.5a.5.5 0 01.5-.5h7a.5.5 0 01.5.5V23a4 4 0 11-8 0v-7.5z" fill="#26599B"/></svg><svg version="1.1" id="telephone-fill" x="0" y="0" viewBox="0 0 16 16" xml:space="preserve" xmlns="http://www.w3.org/2000/svg"><style>.bqst1{fill-rule:evenodd;clip-rule:evenodd;fill:#26599b}</style><defs><path id="bqSVGID_1_" d="M0 0h16v16H0z"/></defs><clipPath id="bqSVGID_00000169554480072795585430000009615906776135921564_"><use xlink:href="#bqSVGID_1_" overflow="visible"/></clipPath><g clip-path="url(#bqSVGID_00000169554480072795585430000009615906776135921564_)"><path class="bqst1" d="M1.9.5c.2-.2.4-.3.6-.4.2-.1.5-.1.7-.1.2 0 .5.1.7.2.2.1.4.3.6.5L6.3 3c.3.4.4 1 .3 1.5l-.5 2.2V7c0 .1.1.2.2.3l2.5 2.5s.1.1.2.1h.3l2.2-.5c.3-.1.5-.1.8 0 .3.1.5.2.7.3l2.3 1.8c.8.6.9 1.9.2 2.6l-1 1c-.7.7-1.8 1.1-2.9.7-2.6-.9-5-2.4-7-4.4-2-2-3.5-4.4-4.4-7-.4-1 0-2.1.7-2.9l1-1z"/></g></svg><svg fill="none" viewBox="0 0 20 20" id="tg" xmlns="http://www.w3.org/2000/svg"><path d="M18.326 1c.575 0 1.009.568.777 1.625l-2.816 14.939c-.197 1.062-.767 1.317-1.554.823l-6.716-5.583a.221.221 0 01-.062-.081.25.25 0 010-.208.222.222 0 01.062-.08l7.756-7.885c.353-.352-.076-.522-.54-.204l-9.734 6.913a.208.208 0 01-.202.028L1.165 9.816c-.918-.301-.918-1.011.207-1.517l16.535-7.18c.131-.07.274-.11.419-.119z" stroke="#35495D" stroke-linecap="round" stroke-linejoin="round"/></svg><svg fill="none" viewBox="0 0 56 56" id="trus" xmlns="http://www.w3.org/2000/svg"><path d="M27.66 3.501c.803 0 1.594.052 2.33.175.726.093 1.441.251 2.138.472.695.209 1.384.478 2.067.807.666.316 1.35.702 2.033 1.122a21.815 21.815 0 003.454 1.807 23.001 23.001 0 007.148 1.61c1.242.092 2.526.139 3.855.14v12.268c0 2.329-.297 4.543-.892 6.643a27.602 27.602 0 01-2.42 5.959 31.588 31.588 0 01-3.643 5.29 46 46 0 01-4.576 4.699 55.19 55.19 0 01-5.223 4.063 79.571 79.571 0 01-5.502 3.505l-.736.439-.736-.439a82.84 82.84 0 01-5.538-3.505 49.06 49.06 0 01-5.223-4.063 46.013 46.013 0 01-4.573-4.699 33.745 33.745 0 01-3.662-5.29 30.057 30.057 0 01-2.42-5.96 24.534 24.534 0 01-.877-6.642V9.635a53.404 53.404 0 003.859-.141 24.536 24.536 0 003.643-.525 21.97 21.97 0 003.505-1.085c1.2-.485 2.35-1.084 3.435-1.788 1.35-.878 2.717-1.525 4.067-1.95A14.72 14.72 0 0127.66 3.5zM47.6 12.65a29.45 29.45 0 01-6.851-1.157 24.538 24.538 0 01-6.275-2.892A13.187 13.187 0 0031.22 7.06a11.96 11.96 0 00-3.545-.51 12.267 12.267 0 00-3.573.51A12.267 12.267 0 0020.857 8.6a24.536 24.536 0 01-6.29 2.904 30.968 30.968 0 01-6.836 1.16v9.252c0 2.03.264 3.981.792 5.852a26.373 26.373 0 002.208 5.346 29.44 29.44 0 003.312 4.82 44.718 44.718 0 004.116 4.239 48.53 48.53 0 004.627 3.699 68.481 68.481 0 004.889 3.119 67.512 67.512 0 004.873-3.12 46.014 46.014 0 004.643-3.698 44.763 44.763 0 004.12-4.238 29.439 29.439 0 003.311-4.822 25.454 25.454 0 002.175-5.345c.544-1.902.814-3.873.803-5.852V12.65z" fill="#26599B"/><path fill-rule="evenodd" clip-rule="evenodd" d="M39.24 18.636L37.916 17.5l-1.22.105-13.102 15.47-4.462-6.37-1.202-.205-1.392.995-.207 1.202 5.737 8.192.652.36 1.373.084.703-.306 14.53-17.174-.087-1.217z" fill="#26599B"/></svg><svg fill="none" viewBox="0 0 50 50" id="type1" xmlns="http://www.w3.org/2000/svg"><path d="M23.9 1.064c-1.726.31-3.19 1.07-4.371 2.252-.591.59-1.332 1.622-1.567 2.195l-.14.337H12.53c-5.065 0-5.3.01-5.506.178-.225.179-.225.207-.254 2.28-.037 2.317.029 2.748.413 2.89.131.055.741.093 1.36.093h1.117V44.87H8.019c-2.167 0-2.017-.16-2.017 2.064 0 1.566.01 1.698.188 1.876.187.188.31.188 18.948.188 18.64 0 18.761 0 18.949-.188.178-.178.188-.31.188-1.876 0-2.223.15-2.064-2.017-2.064h-1.642V11.29h1.135c1.079 0 1.445-.075 1.604-.319.038-.056.075-1.144.075-2.43 0-2.195-.009-2.326-.187-2.504-.188-.188-.31-.188-5.478-.188h-5.3l-.404-.769c-.947-1.792-2.786-3.236-4.878-3.827-.769-.225-2.551-.329-3.283-.188zm2.533 1.36c.844.179 2.007.704 2.739 1.248 1.116.835 2.073 2.326 2.392 3.724.591 2.505-.413 5.281-2.439 6.782-3.574 2.664-8.667 1.173-10.187-2.983-.647-1.782-.535-3.62.319-5.3 1.322-2.626 4.277-4.052 7.176-3.47zm-9.146 5.32c-.038.327-.066.956-.056 1.416l.01.816-4.56-.02-4.568-.027-.028-1.257c-.01-.694 0-1.323.018-1.389.038-.093.967-.121 4.653-.121h4.606l-.075.581zm24.83.825v1.407h-9.08l.01-.873c.009-.469-.02-1.107-.066-1.407l-.066-.534h9.202v1.407zm-24.267 3.47a7.958 7.958 0 0010.271 4.212c1.905-.76 3.546-2.382 4.325-4.287l.263-.628L36 11.308l3.302-.02v33.583h-8.724v-4.643c0-4.522-.01-4.653-.188-4.831-.187-.188-.309-.188-5.243-.188-4.84 0-5.066.01-5.272.178l-.225.179-.028 4.652-.028 4.653h-8.621V11.29l3.283.019 3.293.028.3.703zm11.416 25.093v.61h-8.349v-1.22h8.349v.61zm-4.784 4.831v2.908h-3.565V42.03c0-1.567.028-2.88.066-2.908.028-.038.835-.066 1.782-.066h1.717v2.908zm4.784 0v2.908h-3.471v-5.816h3.471v2.908zm13.695 4.972v.75H7.315v-1.5h35.646v.75z" fill="#46596C"/><path d="M23.318 3.606l-.244.188v2.992h-1.445c-1.313 0-1.463.019-1.688.197l-.244.188v1.735c0 2.252-.131 2.101 1.876 2.101h1.501v1.501c0 2.008-.14 1.877 2.064 1.877s2.063.13 2.063-1.877v-1.5h1.501c2.008 0 1.876.15 1.876-2.102V7.171l-.243-.188c-.226-.178-.376-.197-1.689-.197h-1.445V3.794l-.243-.188c-.235-.178-.376-.197-1.82-.197-1.445 0-1.586.02-1.82.197zm2.57 2.561c0 1.313.019 1.464.197 1.689l.188.244h2.992v1.594h-1.454c-1.426 0-1.463.01-1.688.235-.225.225-.235.262-.235 1.688v1.454h-1.491l-.028-1.51c-.038-1.97.065-1.867-1.914-1.867H21.01V8.1h1.482c1.952 0 1.839.112 1.877-1.886l.028-1.491h1.491v1.444zM12.899 17.78a.853.853 0 00-.254.207c-.037.056-.075 1.491-.075 3.198 0 1.698.038 3.143.075 3.2.197.3.479.318 5.488.318 4.803 0 5.028-.01 5.234-.178l.225-.178v-6.322l-.225-.179c-.206-.169-.431-.178-5.253-.178-3.574.01-5.084.037-5.215.112zm9.408 1.736l.028.497h-8.451V18.98l4.202.019 4.193.028.028.488zm0 2.86l.028 1.014h-8.451v-2.064l4.202.019 4.193.028.028 1.004zM26.913 17.846l-.226.178v6.323l.226.178c.206.169.431.178 5.262.178 4.953 0 5.047 0 5.29-.197l.245-.188v-6.266l-.244-.187c-.244-.197-.338-.197-5.29-.197-4.832 0-5.057.01-5.263.178zm9.483 1.65v.517h-8.442V18.98h8.442v.516zm0 2.862v1.032h-8.442v-2.064h8.442v1.032zM12.73 26.841c-.14.16-.16.526-.16 3.321 0 2.927.01 3.152.17 3.293.159.14.665.16 5.337.16 5.121 0 5.159 0 5.337-.198.169-.187.178-.384.178-3.274 0-2.889-.009-3.086-.178-3.273-.178-.197-.216-.197-5.356-.197-4.897 0-5.188.01-5.328.169zm9.577 1.633l-.028.497-4.193.028-4.202.019v-1.032h8.451l-.028.488zm.019 2.842v.985h-8.442v-1.97h8.442v.985zM26.838 26.917c-.188.243-.197.356-.197 3.226s.009 2.983.197 3.227l.187.244H37.42l.14-.206c.132-.178.15-.657.15-3.265 0-2.607-.018-3.086-.15-3.264l-.14-.206H27.025l-.187.244zm9.558 1.585v.516h-8.442v-1.032h8.442v.516zm0 2.814v.985h-8.442v-1.97h8.442v.985z" fill="#46596C"/></svg><svg fill="none" viewBox="0 0 50 50" id="type2" xmlns="http://www.w3.org/2000/svg"><g clip-path="url(#buclip0_1959_5149)" fill="#35495D"><path d="M23.261 1c-.343.137-.421.412-.421 1.46v.99h-1.019c-1.538 0-1.48-.089-1.48 2.253s-.058 2.253 1.48 2.253h1.019v1.03c0 1.273.098 1.42.93 1.42h.54v1.372l-6.624.02-6.623.029-.186.235c-.255.313-.245.803.04 1.068.175.166.352.215.734.215h.51V22.163H6.3c-6.623 0-6.29-.039-6.29.725 0 .627.216.774 1.225.823l.833.05V36.075h-.774c-.627 0-.813.04-1.029.206-.323.255-.363.862-.059 1.166.196.196.324.196 8.24.196 5.056 0 8.103-.04 8.22-.098.245-.128.402-.637.294-.921-.176-.48-.43-.549-1.88-.549h-1.353v-3.625c0-2.479-.04-3.694-.108-3.86-.137-.304-.558-.48-.91-.392-.55.137-.55.147-.55 4.174v3.703H3.636V23.731h8.524v1.078c0 .95.02 1.097.196 1.273.304.304.912.265 1.166-.058.206-.255.206-.334.206-6.467v-6.212H36.46v22.731h-8.916v-5.918c0-5.83 0-5.918-.206-6.172l-.196-.255H23.046l-.196.255c-.206.254-.206.343-.206 6.172v5.918h-1.607c-1.47 0-1.616.02-1.861.206-.343.264-.353.842-.03 1.146.226.206.294.216 2.695.216h2.469v3.82h-1.225c-1.176 0-1.244.01-1.47.246-.235.225-.245.294-.245 1.47v1.224h-15l-.235.245a.743.743 0 00.215 1.215c.167.078 2.42.108 7.623.108h7.397v1.166c0 .646.03 1.244.06 1.332.156.402.47.441 3.663.441 3.195 0 3.508-.04 3.665-.44.03-.089.059-.687.059-1.333v-1.166h7.397c5.203 0 7.456-.03 7.623-.108a.743.743 0 00.215-1.215l-.235-.245h-15V43.19c0-1.078-.02-1.234-.206-1.47-.196-.254-.216-.254-1.47-.254h-1.264V37.644h11.954c11.825 0 11.953 0 12.149-.196.303-.304.264-.911-.059-1.166-.215-.167-.402-.206-1.029-.206h-.774V34.95c0-1.077-.01-1.146-.245-1.371-.255-.265-.5-.304-.862-.138-.372.167-.46.49-.46 1.607v1.03H38.026V23.73h8.515l.03 3.684.029 3.684.235.186c.294.245.705.235 1.029-.02l.254-.196V23.76l.833-.049c1.01-.049 1.225-.196 1.225-.823 0-.764.333-.725-6.29-.725h-5.86v-8.818h.52c.421 0 .568-.049.735-.225a.828.828 0 00.029-1.058l-.186-.235-6.623-.03-6.624-.02v-1.371h.54c.822 0 .93-.167.93-1.44v-1.01h1.029c1.538 0 1.548-.02 1.499-2.488-.04-2.067 0-2.018-1.51-2.018h-1.018v-.97c0-.54-.03-1.049-.059-1.137-.137-.362-.558-.44-2.214-.431-.882 0-1.695.04-1.813.088zM25.78 3.5c0 .97.02 1.048.245 1.273.226.226.304.245 1.274.245h1.029V6.39h-1.029c-.97 0-1.048.02-1.274.245-.225.225-.245.304-.245 1.274v1.028h-1.352l-.039-1.087c-.04-1.43-.078-1.46-1.509-1.46H21.86V5.017h.911c.49 0 1-.03 1.127-.059.372-.107.51-.519.51-1.557V2.47h1.371v1.029zm.196 22.29v.587h-1.763V25.201h1.763v.587zm0 6.221v4.066h-1.763v-8.132h1.763v4.066zm1.274 13.178v2.155h-4.311v-4.311h4.311v2.156z"/><path d="M16.008 15.207c-.51.205-.529.323-.5 3.576l.03 3.008.235.186c.206.166.402.186 2.185.186 1.94 0 1.95 0 2.185-.245l.245-.235v-2.94c0-1.988-.04-3.017-.108-3.184a.817.817 0 00-.411-.352c-.353-.118-3.557-.118-3.86 0zm2.812 2.057v.588h-1.763v-1.176h1.763v.588zm0 2.744v.587h-1.763V19.42h1.763v.588zM23.165 15.207c-.51.215-.53.323-.5 3.576l.03 3.008.234.186c.206.166.402.186 2.166.186 1.763 0 1.96-.02 2.165-.186l.235-.186.03-3.038.029-3.037-.245-.274-.235-.284-1.852-.02c-1.01-.01-1.94.02-2.058.069zm2.812 2.057v.588h-1.764v-1.176h1.764v.588zm0 2.744v.587h-1.764V19.42h1.764v.588zM30.297 15.216c-.49.196-.49.226-.5 3.45v3.017l.245.235c.235.245.245.245 2.204.245 1.823 0 1.97-.01 2.156-.196.108-.108.215-.294.245-.411.03-.128.049-1.519.03-3.087-.03-2.831-.03-2.87-.256-3.086-.215-.215-.294-.225-2.057-.245-1.048-.01-1.93.02-2.067.079zm2.831 2.048v.588h-1.764v-1.176h1.764v.588zm0 2.744v.587h-1.764V19.42h1.764v.588zM15.689 23.995c-.196.255-.206.314-.177 5.056l.03 4.791.235.186c.206.167.402.186 2.185.186 1.94 0 1.95 0 2.185-.245l.245-.235v-4.742c0-4.654 0-4.752-.206-5.007l-.196-.254H15.895l-.206.264zm3.135 1.793v.588H17.06V25.2h1.764v.588zm0 4.507v2.352H17.06V27.944h1.764v2.351zM30.003 23.985c-.206.255-.206.353-.206 5.007v4.742l.245.235c.235.245.245.245 2.204.245 1.823 0 1.97-.01 2.156-.196.108-.107.215-.294.245-.411.03-.127.039-2.303.03-4.84-.03-4.39-.04-4.634-.216-4.83-.177-.196-.275-.206-2.224-.206h-2.038l-.196.254zm3.125 1.803v.588h-1.764V25.2h1.764v.588zm0 4.507v2.352h-1.764V27.944h1.764v2.351zM5.696 25.788c-.186.186-.196.323-.196 4.017v3.831l.245.235c.235.245.245.245 2.204.245 2.234 0 2.283-.02 2.4-.803.03-.235.05-1.97.03-3.86-.03-3.234-.039-3.46-.215-3.655-.177-.196-.275-.206-2.234-.206-1.91 0-2.048.01-2.234.196zm3.135 1.862v.588H7.068v-1.176H8.83v.588zm0 3.527v1.372H7.068v-2.744H8.83v1.372zM40.087 25.788c-.187.186-.196.323-.196 4.017v3.831l.245.235c.235.245.244.245 2.204.245 1.813 0 1.97-.01 2.146-.186.108-.108.225-.343.255-.52.029-.176.048-1.92.029-3.86-.03-3.321-.04-3.556-.216-3.752-.176-.196-.274-.206-2.233-.206-1.911 0-2.048.01-2.234.196zm3.135 1.862v.588h-1.764v-1.176h1.764v.588zm0 3.527v1.372h-1.764v-2.744h1.764v1.372zM1.186 41.916c-.225.245-.568.784-.764 1.195-.333.696-.362.833-.392 1.803-.049 1.293.167 2.116.794 3.037.529.774.98 1.048 1.41.872a.878.878 0 00.52-.784c0-.088-.196-.43-.421-.754-.578-.784-.755-1.274-.755-2.097 0-.843.255-1.548.784-2.195.47-.558.51-.93.147-1.283-.392-.402-.823-.333-1.323.206zM47.675 41.71c-.363.353-.324.725.147 1.283.529.647.783 1.352.783 2.195 0 .823-.176 1.313-.754 2.097-.225.323-.421.666-.421.754 0 .333.225.666.519.784.431.176.882-.098 1.41-.872.628-.92.843-1.744.794-3.037-.029-.97-.058-1.107-.391-1.803-.48-1.01-1.068-1.646-1.52-1.646a.743.743 0 00-.567.245z"/><path d="M3.48 43.571c-.783.784-.832 2.195-.107 3.038.284.323.382.382.715.372.676-.02.95-.715.53-1.352-.246-.372-.246-.647 0-.96.646-.813-.403-1.832-1.137-1.098zM45.587 43.552c-.274.284-.284.784-.02 1.117.246.313.246.588 0 .96-.42.637-.146 1.332.53 1.352.333.01.43-.049.715-.372.725-.843.676-2.254-.108-3.038-.323-.323-.823-.333-1.117-.02z"/></g><defs><clipPath id="buclip0_1959_5149"><path fill="#fff" d="M0 0h50v50H0z"/></clipPath></defs></svg><svg fill="none" viewBox="0 0 50 50" id="type3" xmlns="http://www.w3.org/2000/svg"><path d="M7.25 1.25c-.21.2-.25.34-.25.82.01 2.18.91 4.772 2.3 6.622.73.96 2.031 2.29 2.391 2.42.3.121.77-.05.91-.32.23-.43.12-.73-.51-1.34-2.05-2.02-3.08-3.97-3.43-6.481l-.05-.38 1.22.03 1.21.03.12.66c.15.83.58 1.86 1.09 2.65.49.75 2.341 2.591 2.691 2.681.57.14 1.17-.45.97-.97-.05-.13-.54-.69-1.09-1.23s-1.05-1.09-1.11-1.22l-.12-.22h4.211c2.53 0 4.201.04 4.201.09 0 .16-1.6 1.8-2.35 2.4-.38.32-1.58 1.22-2.651 2.01-2.48 1.831-3.731 2.831-4.832 3.902-.75.73-.87.9-.87 1.18 0 .38.37.82.7.82.34 0 .6-.18 1.4-.95 1.091-1.05 1.861-1.67 4.492-3.631 1.3-.96 2.761-2.09 3.251-2.51 1.94-1.651 3.091-3.432 3.341-5.152l.07-.51 1.23-.03 1.22-.03-.06.43c-.35 2.44-1.31 4.27-3.24 6.181-1.07 1.06-1.76 1.62-5.352 4.292-3.05 2.27-4.361 3.52-5.511 5.271-2.331 3.531-2.441 8.353-.3 12.024 1.13 1.92 3 3.7 6.812 6.471 2.32 1.691 3.32 2.501 4.36 3.541 1.881 1.881 2.752 3.462 3.142 5.702.08.46.15.85.15.88 0 .02-.55.02-1.22.01l-1.23-.03-.07-.47c-.231-1.62-1.201-3.25-2.862-4.791-.42-.39-2.01-1.64-3.52-2.77-2.972-2.212-4.122-3.162-5.322-4.392-2.06-2.1-3.411-4.601-3.951-7.312-.12-.62-.17-1.37-.17-2.621 0-2.52.29-3.841 1.31-6.022.58-1.24.6-1.42.2-1.78-.25-.24-.64-.26-.95-.04-.29.2-1.01 1.65-1.4 2.8-1.271 3.792-1.041 8.143.63 11.614 1.56 3.25 3.43 5.171 9.052 9.283 1.41 1.04 2.42 1.87 3.271 2.7.68.67 1.23 1.26 1.23 1.33 0 .09-.98.12-4.21.12h-4.202l.18-.31c.1-.17.6-.71 1.11-1.21.51-.5.97-1.01 1.02-1.14.2-.52-.33-1.12-.88-1-.34.08-1.76 1.37-2.36 2.14-.84 1.1-1.27 2.03-1.5 3.221l-.12.65-1.211.03-1.21.03.05-.43c.26-2.22 1.23-4.11 3.07-6.051 1.07-1.13 1.18-1.42.71-1.881-.36-.37-.66-.32-1.3.23-2.17 1.85-3.66 4.601-4.041 7.452-.2 1.47-.11 1.96.39 2.17.18.07 1.01.1 2.49.08 2.632-.04 2.542.01 2.642-1.2.04-.4.1-.83.13-.95l.06-.23h4.981c5.672 0 5.072-.12 5.162 1 .07.85.2 1.16.53 1.3.19.07 1 .1 2.5.08l2.231-.03.2-.25c.19-.23.2-.34.15-1.25-.17-2.96-1.31-5.401-3.62-7.712-1.051-1.06-2.231-2.03-4.252-3.48-2.19-1.581-3.271-2.431-4.321-3.382-.77-.7-1.98-2.05-1.98-2.22 0-.03.93-.06 2.06-.06h2.06l.29-.29c.37-.37.37-.65 0-1.02l-.29-.29h-5.101l-.15-.391c-.22-.54-.45-1.48-.55-2.2l-.09-.61H17.713l.24-.25c.33-.321.33-.781 0-1.101l-.24-.25H12.632l.09-.61c.1-.72.33-1.66.55-2.201l.15-.39h5.101l.29-.29c.37-.37.37-.65 0-1.02l-.29-.29h-2.06c-1.13 0-2.06-.03-2.06-.08 0-.04.32-.44.7-.89.76-.891 2.2-2.172 3.7-3.292 4.802-3.57 5.572-4.201 6.782-5.562 1.63-1.83 2.531-3.71 2.871-5.981.23-1.47.2-2.06-.1-2.35L28.116 1h-2.31c-2.271 0-2.311 0-2.541.23-.18.19-.24.38-.29 1.03-.03.44-.09.88-.13.97-.06.16-.44.17-5.042.17-4.601 0-4.981-.01-5.041-.17-.04-.09-.1-.53-.13-.97-.05-.65-.11-.84-.29-1.03C12.111 1 12.072 1 9.8 1H7.49l-.24.25z" fill="#35495D"/><path d="M29.204 13.954c-3.551.59-6.602 2.85-8.243 6.122-2.13 4.25-1.26 9.432 2.14 12.833 3.402 3.391 8.463 4.252 12.755 2.16 1.3-.64 2.35-1.39 2.49-1.79.2-.56-.43-1.18-.98-.97-.15.05-.5.28-.79.5-.74.55-2.27 1.25-3.331 1.52-1.32.33-3.321.31-4.672-.05-7.112-1.89-9.552-10.672-4.43-15.954 4.59-4.751 12.523-3.49 15.464 2.45.67 1.361.93 2.522.93 4.182.01 1.84-.22 2.82-1.04 4.431-.32.64-.59 1.24-.59 1.33 0 .09.09.28.21.43.16.2.29.26.58.26.45 0 .65-.19 1.15-1.1 1.71-3.14 1.77-6.991.16-10.252-1.46-2.961-4.071-5.082-7.292-5.922-1.21-.31-3.231-.4-4.511-.18z" fill="#35495D"/><path d="M32.432 24.027l-3.43 3.42-1.431-1.42c-1.25-1.24-1.48-1.42-1.76-1.42-.37 0-.811.38-.811.7 0 .4.29.76 1.92 2.37 1.591 1.571 1.931 1.821 2.351 1.691.1-.03 1.88-1.76 3.961-3.84 3.421-3.422 3.772-3.812 3.772-4.102 0-.44-.38-.82-.82-.82-.29 0-.65.33-3.752 3.42z" fill="#35495D"/></svg><svg fill="none" viewBox="0 0 50 50" id="type4" xmlns="http://www.w3.org/2000/svg"><path d="M14.89 1.209c-.815.428-1.118 1.17-1.128 2.685v.867h-.293c-.47 0-1.212.543-1.473 1.065-.22.46-.22.48-.22 9.329 0 8.816 0 8.868.22 9.328.24.49.784.92 1.327 1.024.345.073.355.083.49.919.189 1.128 1.17 2.215 2.32 2.57.376.115.857.209 1.065.209.523 0 1.41-.272 1.891-.575.857-.543 1.567-1.744 1.567-2.653 0-.387.01-.408.418-.47.49-.074 1.212-.68 1.431-1.18.094-.252.136-.94.136-2.623v-2.298l.971-.042c.627-.031 1.076-.104 1.296-.22.282-.145.668-.177 2.413-.177 1.619 0 2.11.032 2.277.147.188.146.199.365.22 8.388l.02 8.231-.501.418c-1.358 1.16-2.371 2.904-2.601 4.523l-.073.491-2.382.032-2.371.02V37.98h.512c.658 0 1.055-.292 1.055-.773a.758.758 0 00-.24-.564l-.241-.23h-6.77c-5.818 0-6.8-.02-7.06-.156-.607-.314-.7-.993-.22-1.536l.303-.345 8.796-.052c8.555-.052 8.795-.063 8.941-.25.21-.293.178-.721-.052-1.014l-.198-.25-8.556-.032c-5.88-.02-8.712.01-9.098.094-1.463.303-2.33 1.85-1.88 3.343.26.888 1.4 1.765 2.308 1.765h.387v3.218l-1.975.041-1.974.032-.815.418c-.96.49-1.556 1.149-1.922 2.11-.334.877-.261 2.246.146 3.04.397.783.993 1.389 1.755 1.807L5.77 49h37.711l.658-.355c.752-.408 1.348-1.024 1.765-1.807.262-.502.293-.648.293-1.65 0-.972-.031-1.17-.282-1.693-.564-1.212-1.87-2.11-3.238-2.246l-.69-.063-.052-.501c-.167-1.4-1.087-3.082-2.32-4.262l-.783-.742v-9.38c0-9.036-.01-9.423-.209-10.217-.532-2.1-1.922-3.823-3.823-4.753-1.368-.658-1.807-.72-5.85-.72-3.332 0-3.593-.011-4.032-.21-.282-.125-.836-.23-1.368-.271l-.899-.073-.031-2.006c-.031-1.985-.031-2.006-.313-2.413a2.12 2.12 0 00-1.337-.877l-.366-.053-.052-1.2c-.063-1.516-.251-1.902-1.118-2.34-.272-.137-.68-.168-2.246-.168-1.692.01-1.953.031-2.298.209zm3.97 1.483c.083.084.125.47.125 1.045v.92h-3.552v-.972c0-.544.031-1.014.073-1.045.126-.136 3.218-.084 3.353.052zm2.089 3.76c.177.178.177 17.227 0 17.404-.178.178-7.302.178-7.48 0-.094-.094-.125-1.347-.125-5.014v-4.889h1.765c1.62 0 1.776-.02 2.037-.22.345-.27.366-.762.042-1.106-.22-.23-.282-.24-2.037-.24h-1.807v-1.672h1.828c1.692 0 1.849-.021 2.037-.209a.781.781 0 00-.063-1.139c-.26-.198-.418-.219-2.037-.219h-1.765V7.863c0-.856.042-1.327.125-1.41.178-.178 7.302-.178 7.48 0zm3.54 5.527c.648.407.711.648.711 2.83 0 1.818-.01 1.965-.22 2.247-.417.564-.835.762-1.618.762h-.721V11.76h.742c.574 0 .825.053 1.107.22zm8.483.355c1.546.366 3.009 1.546 3.698 2.977.198.428.418 1.066.48 1.4.074.418.116 3.583.116 9.391 0 8.305-.011 8.764-.178 8.691a10.384 10.384 0 00-1.024-.282c-1.306-.324-3.259-.198-4.46.282-.178.073-.188-.282-.188-6.57v-6.644h2.193v4.575c0 5.16-.02 5.035.731 5.035.314 0 .45-.062.627-.282.21-.271.22-.334.188-5.39l-.031-5.108-.25-.199c-.22-.177-.429-.198-1.85-.198h-1.608v-.324c0-.867-.554-1.755-1.296-2.09-.355-.156-.7-.198-1.964-.198h-1.535l.073-.344c.042-.178.073-1.202.073-2.267 0-1.066-.031-2.09-.073-2.277l-.073-.335h2.841c2.163 0 2.998.042 3.51.157zM19.09 25.883c0 .46-.449 1.17-.909 1.452-.585.365-1.42.344-1.995-.042-.48-.313-.856-.94-.856-1.431v-.314h3.76v.335zm16.526 10.122c.303.063.95.303 1.441.543a6.115 6.115 0 013.124 3.594c.407 1.201 1.107 1.076-5.84 1.076-6.884 0-6.205.104-5.891-.951.585-1.974 2.413-3.73 4.387-4.21.752-.177 2.037-.209 2.779-.052zm-15.272 3.593v1.62h-8.88v-3.239h8.88v1.62zM42.959 42.9c.616.156 1.347.804 1.566 1.4a2.376 2.376 0 01-.908 2.84l-.439.293H6.073l-.438-.292a2.376 2.376 0 01-.91-2.842c.21-.564.94-1.243 1.495-1.39.574-.156 36.133-.166 36.739-.01z" fill="#35495D"/></svg><svg fill="none" viewBox="0 0 50 50" id="type5" xmlns="http://www.w3.org/2000/svg"><path d="M24.005 1.033c-2.121.27-4.232 1.08-5.873 2.231-.811.57-.981.921-.68 1.371.14.22.51.44.74.44.04 0 .38-.21.76-.46 2.602-1.71 5.363-2.351 8.205-1.89 4.773.77 8.585 4.612 9.306 9.355.08.52.15 1.19.15 1.48 0 .431.05.581.25.771.33.34.78.33 1.12-.01.251-.26.261-.28.201-1.28-.19-3.102-1.4-5.854-3.562-8.096-1.851-1.92-3.903-3.081-6.514-3.682-.84-.19-3.302-.33-4.103-.23zM15.54 5.776c-.29.12-1.16 1.43-1.69 2.542-.75 1.61-1.1 2.951-1.2 4.673-.071 1.06-.071 1.07.19 1.33.34.34.79.35 1.12.01.21-.2.25-.34.25-.82 0-1.941.73-4.193 1.981-6.074.28-.42.45-.8.45-.98 0-.51-.6-.891-1.1-.681z" fill="#35495D"/><path d="M26.532 9.949c-.11.1-.54.64-.95 1.19-.851 1.141-1.302 1.561-1.862 1.731-.26.07-1.551.11-3.902.11h-3.523l-.24.25c-.23.22-.25.32-.25 1.201v.95h-.91c-1.311 0-1.742.141-2.352.741-.59.59-.8 1.181-.71 1.962.07.6.25.96.69 1.39.57.57.82.65 2.091.69l1.161.04.06 1.172c.13 2.631 1.11 4.793 2.982 6.564.35.34.76.7.92.8l.27.2-2.1 3.503c-1.252 2.09-2.102 3.602-2.102 3.752 0 .44.26.68 1 .91l.691.23-.44.47c-.29.311-.45.571-.45.741 0 .14 1.13 2.502 2.501 5.254 1.931 3.862 2.562 5.033 2.742 5.123.28.12.68.05.9-.18.42-.41.4-.45-2.03-5.324l-2.322-4.642.65-.68c.73-.751.85-1.041.62-1.482-.13-.25-.29-.35-.98-.57-.46-.15-.84-.29-.86-.3-.01-.01.59-1.051 1.35-2.312l1.381-2.291.07.8c.08.96 3.992 16.61 4.203 16.82.26.27.72.281 1.02.02.25-.21.43-.85 2.272-8.184 1.11-4.403 2.03-8.285 2.071-8.696l.07-.74 1.3 2.181c.721 1.21 1.312 2.241 1.332 2.312.02.07-.3.23-.77.39-1.382.46-1.472.9-.401 2.001l.7.73-2.301 4.613c-1.27 2.532-2.311 4.723-2.311 4.863 0 .31.41.75.69.75.6 0 .63-.04 3.232-5.252 2.091-4.173 2.502-5.063 2.441-5.294-.04-.15-.24-.46-.46-.7l-.39-.42.69-.23c.73-.23 1.001-.47 1.001-.891 0-.13-.94-1.811-2.101-3.742-1.151-1.922-2.102-3.523-2.102-3.563 0-.04.19-.21.41-.37 1.131-.83 1.442-1.5.941-2.001-.39-.4-.64-.32-1.57.45-.921.78-2.282 1.511-3.283 1.771-.91.24-3.012.24-3.902 0-1.551-.43-3.192-1.48-4.193-2.691-.58-.71-1.32-2.122-1.58-3.032-.141-.51-.171-1.211-.211-4.523l-.03-3.923 3.282-.03 3.292-.03.77-.38c.751-.37.851-.46 1.902-1.72l.24-.291.21.4c.31.6 1.31 1.481 1.991 1.751.52.21.78.24 2.462.27l1.871.04v3.232c0 3.593-.07 4.393-.52 5.694-.33.98-.31 1.21.16 1.521.3.19.67.13.95-.15.42-.42 1.011-2.852 1.011-4.193v-.52h1.03c.811 0 1.111-.05 1.472-.21.96-.43 1.44-1.17 1.44-2.192 0-1.02-.48-1.76-1.44-2.191-.36-.16-.66-.21-1.471-.21h-1.031v-.86c0-.851-.09-1.181-.39-1.412-.11-.09-.78-.13-2.312-.13-3.012-.01-3.212-.1-4.142-1.88-.56-1.081-.79-1.322-1.251-1.322-.1 0-.28.08-.39.17zm-10.727 7.834v.8h-.95c-.881 0-.981-.02-1.201-.25a.78.78 0 01-.25-.55c0-.19.09-.4.25-.55.22-.23.32-.25 1.2-.25h.951v.8zm21.363-.55c.16.15.25.36.25.55 0 .19-.09.4-.25.55-.22.23-.32.25-1.2.25h-.951v-1.6h.95c.881 0 .981.02 1.201.25zm-9.165 17.28l-.61 2.482H23.43l-.61-2.451c-.551-2.191-.611-2.552-.611-3.462 0-1 0-1.01.23-.95 1.19.34 1.621.4 2.922.4 1.33.01 2.521-.17 3.052-.45.13-.06.15.07.18.94.03.96 0 1.15-.59 3.492zm-1.782 7.135c-.41 1.681-.78 3.052-.81 3.052-.03 0-.4-1.37-.81-3.052l-.761-3.052h3.142l-.76 3.052z" fill="#35495D"/><path d="M12.852 21.236l-.25.24v9.426l.25.24c.24.25.26.25 2.151.25 1.891 0 1.911 0 2.151-.25a.78.78 0 00.25-.55c0-.19-.09-.4-.25-.55-.23-.24-.29-.25-1.6-.25h-1.351V21.475l-.25-.24a.78.78 0 00-.55-.25c-.191 0-.401.09-.551.25zM36.874 21.236l-.25.24V29.79h-1.351c-1.31 0-1.37.01-1.601.25a.78.78 0 00-.25.55c0 .19.09.4.25.55.24.251.26.251 2.151.251 1.892 0 1.912 0 2.152-.25l.25-.24v-9.426l-.25-.24a.78.78 0 00-.55-.25c-.19 0-.4.09-.551.25zM12.804 34.584c-.36.16-1.281.59-2.052.96-1.25.601-1.48.751-2.101 1.392-.45.45-.82.95-1.02 1.37C7.03 39.517 7 39.817 7 44.38v4.133l.25.24c.29.3.74.32 1.06.06l.241-.19.05-4.343c.05-4.283.05-4.343.29-4.933.18-.44.42-.78.9-1.25.601-.601.811-.731 2.362-1.442 1.731-.79 2.152-1.09 2.152-1.51 0-.28-.36-.711-.65-.791-.11-.03-.491.08-.851.23zM36.967 34.414c-.49.29-.59.82-.22 1.21.12.14.99.601 1.921 1.031 1.541.71 1.761.84 2.362 1.441.48.47.72.81.9 1.251.24.59.24.64.29 4.933l.05 4.343.24.19c.321.26.771.24 1.061-.06l.25-.24V44.38c0-4.623-.03-4.893-.66-6.094-.75-1.42-1.45-1.99-3.832-3.102-1.881-.87-2.081-.94-2.362-.77z" fill="#35495D"/><path d="M13.255 40.448c-.21.2-.25.34-.25.8v.55h-1.15c-1.101 0-1.172.01-1.402.25-.25.24-.25.26-.25 2.152 0 1.891 0 1.911.25 2.151l.24.25h6.224l.24-.25c.25-.24.25-.26.25-2.15 0-1.892 0-1.912-.25-2.152-.23-.24-.3-.25-1.4-.25h-1.151v-.55c0-.671-.29-1.051-.8-1.051-.19 0-.4.09-.551.25zm2.552 3.752v.8h-4.002v-1.6h4.002v.8zM36.868 40.448c-.23.22-.25.32-.25 1.2v.951h-.95c-.881 0-.981.02-1.202.25-.33.32-.33.78 0 1.1.22.231.32.251 1.201.251h.95v.95c0 .881.02.981.25 1.201.151.16.361.25.551.25.19 0 .4-.09.55-.25.23-.22.25-.32.25-1.2v-.95h.951c.88 0 .981-.021 1.201-.251a.78.78 0 00.25-.55c0-.19-.09-.4-.25-.55-.22-.23-.32-.25-1.2-.25h-.951v-.952c0-.88-.02-.98-.25-1.2a.78.78 0 00-.55-.25c-.19 0-.401.09-.551.25z" fill="#35495D"/></svg><svg viewBox="0 0 512 525" id="type6" xmlns="http://www.w3.org/2000/svg"><path d="M440.1 2.3c-1.6 1.8-2.4 4.4-3.1 10.4-2 18.2-11.9 32.6-27.5 40.3-6 3-17.4 6-23.1 6-6.2 0-9.7 8-5.6 13 1.4 1.7 3.4 2.4 9.6 3.1 13.7 1.5 21.4 5 30.9 13.9 9 8.4 15.7 22 15.7 32 0 4.9 1.8 9.8 4 11 3 1.6 7.9 1.1 9.9-.9 1.3-1.3 2.2-4 2.5-7.8 1.9-17.6 8.6-30 21.1-38.7 8.3-5.9 14.9-8.4 24.6-9.5 7.2-.8 8.7-1.3 10.6-3.6 2.8-3.2 2.9-6.4.3-9.7-1.6-2.1-3.3-2.7-10.3-3.6-10.7-1.4-18.2-4.2-25.7-9.8-11.4-8.4-18.1-20.3-20.1-35.8-.8-5.7-1.7-8.8-3.2-10.4-2.8-3-7.7-2.9-10.6.1zm8 41.4c3.4 5.5 13.5 15.8 19.1 19.4 2.6 1.7 4.8 3.2 4.8 3.4 0 .1-1.9 1.5-4.2 3-6.3 4.2-14.2 11.9-18.5 18.2l-3.8 5.5-1.5-2.3c-4.2-6.4-12-14.6-18.1-19.1-3.8-2.8-6.9-5.2-6.9-5.3 0-.2 1.7-1.4 3.8-2.6 5.4-3.4 15.7-13.5 19.3-19.1 1.7-2.6 3.2-4.8 3.4-4.8s1.4 1.7 2.6 3.7z"/><path d="M112 20.6C96 22.7 75.3 31.4 61.1 42c-4.7 3.4-12.7 10.5-17.8 15.7C2.4 99.3-9.2 147.9 7.7 207.5c5.9 21 17.9 47.5 35.6 79.2 14.5 25.9 16.3 29.9 17.1 37.3.4 3.6 2.3 16.8 4.2 29.5 9.6 62.9 21.7 109.5 35.9 138 16.9 33.8 32.6 40.7 59.2 26 8.7-4.9 24.2-20.2 31.3-31 17.7-27.2 27.2-61.6 29.9-108.6.8-12.9 1.2-15.2 3.7-20.3 4.1-8.4 14.2-16.5 20.7-16.6 3 0 11 4.6 14.8 8.7 6.6 6.9 8.1 11.2 9.1 26.3 2.5 39.9 8.8 68.4 20.3 92.8 12.1 25.6 30.8 45.3 50.5 53.3 7.3 2.9 18.9 3.2 24.2.5 27.1-13.4 50.2-81.7 64.8-191.5 2.3-17.4 1.3-15.1 21.5-51.1 27.8-49.4 38.5-82.9 38.8-120.5.1-19-1.6-31.9-4.9-35.2-3.1-3.1-7.8-3-11 .3-2.2 2.1-2.5 3.2-2.1 6.2.3 2 1.1 8.6 1.8 14.6 4.3 39.8-13 93.1-47.2 145.6-3.7 5.8-7.5 12.1-8.3 14s-3.1 15-5.1 29c-15.3 107.3-38.1 175-58.9 175-7.7 0-22-8.3-30.7-17.8-21-22.9-33.8-59.5-36.9-105.9-1.5-21.4-2.6-27.7-6.3-35.2-4.1-8.3-12.9-17.1-21.4-21.3-5.4-2.6-7.7-3.2-13.2-3.2-5.7 0-7.6.5-13.8 3.8-9 4.7-17.3 13.3-21.3 21.9-3.3 7-4.3 13.1-6 37.2-3.4 47.5-17.7 85-40.7 106.5-11.4 10.7-24.1 16-31.3 13-19.5-8.1-43.1-85.9-55.5-183-2.2-17.3-3.1-20.1-8.8-28.8-24.1-36.8-38.3-68-46.1-101.2-8-33.5-5.8-64.4 6.3-89.5 6.2-12.9 12.8-22.1 24.8-34.6C88 34.1 121.8 27.5 174.5 47.1c11 4.1 46.2 19.5 47.9 21 1.1 1-12.9 5.4-23.5 7.3-4.6.9-13.1 2-18.8 2.5-9 .7-10.7 1.1-12.3 3.1-2.8 3.4-2.3 8.4 1 11 2.5 2.1 3.4 2.2 11.8 1.6 11.5-.8 28.4-3.8 39.7-7.1 11.8-3.4 22.5-7.7 54.7-22 32.4-14.4 48.4-20.6 61.7-24 20-5 35.3-5.5 49.9-1.9 5.3 1.4 6.6 1.4 9 .2 5.2-2.4 5.8-10.2 1-13.3-4.1-2.7-16.5-4.7-29.1-4.8-26.4-.1-45.3 5.5-98.7 29.2-12.5 5.6-23.1 10.1-23.6 10.1s-11.7-4.8-24.8-10.6c-38.1-16.9-54.4-22.9-71.8-26.5-9.7-2-29.4-3.2-36.6-2.3z"/><path d="M142 120.3c-3.2 1.6-5 5.2-5 10.2 0 14.4-9.7 30.8-23.3 39.6-7.2 4.7-13.2 6.7-23.1 7.8C81.4 179 79 180.6 79 186c0 4.5 3.3 8 7.6 8 11.9 0 26.6 6.2 35.2 14.8 9 9 15.2 22.7 15.2 33.5 0 4 .5 5.3 2.9 7.8 3.4 3.3 6.9 3.7 10.1 1.1 1.8-1.4 2.5-3.7 3.6-11.2 3.7-25.1 20.3-41.7 45.4-45.4 7.5-1.1 9.8-1.8 11.2-3.6 2.6-3.2 2.2-6.7-1.1-10.1-2.5-2.4-3.8-2.9-7.8-2.9-15.8 0-34.5-12.1-42.1-27.1-3.1-6.2-6.1-17.5-6.2-23.1 0-4-1-5.7-4.1-7.3-3.4-1.8-3.7-1.8-6.9-.2zm13.8 52.9c2.6 2.8 7.3 6.8 10.5 9l5.8 4-4.8 3.1c-6.3 4.1-14 11.9-18.5 18.6l-3.6 5.3-2.8-4.3c-3.9-6.2-12.8-15.3-18.5-19-2.7-1.7-4.9-3.4-4.9-3.8 0-.3 2.1-1.9 4.7-3.6 6.1-3.8 14.1-11.9 18.3-18.3l3.3-5.1 2.9 4.5c1.5 2.5 5 6.8 7.6 9.6zM332 190.8c-1.8 1.4-2.5 3.7-3.6 11.2-3.8 25.5-20.8 42.2-45.8 45-6.8.8-8.5 1.3-10.3 3.5-1.3 1.4-2.3 3.7-2.3 5s1 3.6 2.3 5c1.8 2.2 3.5 2.7 10.3 3.5 24.9 2.8 42 19.5 45.8 44.8 1.5 10.5 3.2 13.2 8.1 13.2 5.6 0 7.6-2.6 8.5-11 1.2-10.3 3.3-16.6 7.8-23.6 9.2-14 21.4-21.4 38.7-23.4 9.3-1.1 11.9-3 11.9-8.5s-2.6-7.4-11.9-8.5c-17.3-2-29.5-9.4-38.7-23.4-4.5-7-6.6-13.3-7.8-23.6-.6-5.8-1.3-7.8-3-9.2-2.8-2.3-7.2-2.3-10 0zm7.7 42.1c3.3 5.8 11.4 14.1 18.1 18.6l5.9 3.9-6.8 4.8c-6.6 4.6-16 14.7-18.2 19.5-1.3 3-1.9 2.9-4-.6-4.2-7.1-15.5-18.2-23.2-22.7-1.6-.9-1.3-1.3 2.9-3.8 5.9-3.5 15.1-12.5 19.1-18.8 1.7-2.7 3.2-4.8 3.5-4.8s1.5 1.8 2.7 3.9z"/></svg><svg fill="none" viewBox="0 0 50 50" id="type7" xmlns="http://www.w3.org/2000/svg"><path d="M22.466 1.108c-3.49.666-6.117 3.228-6.82 6.643-.085.394-.15.825-.15.947 0 .16-.16.338-.629.676-.356.253-1.107.928-1.67 1.5-2.355 2.356-3.734 5.198-4.231 8.745-.197 1.435-.131 4.287.14 5.76.188 1.023.639 2.824.892 3.528l.14.394-.234-.085c-.422-.16-1.116-.112-1.379.094-.432.338-.563.892-.516 2.083.038.873.103 1.22.347 1.951.685 2.017 2.045 3.434 3.697 3.856.403.094.431.132.628.657l.207.554-.263.215c-1.07.826-1.633 1.97-1.633 3.303 0 3.02 3.059 5.01 5.77 3.762l.497-.225.32.328c.553.582 1.726 1.52 2.542 2.027 1.858 1.172 4.222 1.491 6.398.863 1.033-.291 3.003-1.248 4.082-1.97 2.899-1.952 5.15-4.766 6.623-8.285l.497-1.191.545-.197c.844-.291 1.154-.488 1.726-1.07.6-.619 1.182-1.726 1.51-2.861.17-.591.207-.995.216-1.923 0-1.286-.075-1.567-.544-1.914-.338-.244-1.145-.263-1.501-.029-.14.094-.254.15-.254.132 0-.01.066-.535.141-1.145.732-5.863 0-10.845-2.13-14.532-.994-1.726-2.73-3.612-4.306-4.682l-.807-.553-.14-.713c-.507-2.58-2.393-4.935-4.813-6.024-1.417-.638-3.453-.89-4.898-.619zm3.537.9c.385.113 1.08.395 1.548.639.695.356 1.014.6 1.792 1.379.854.844.995 1.041 1.426 1.923.45.93.76 1.83.657 1.933-.028.019-.366-.103-.75-.281-2.927-1.333-6.361-1.699-9.645-1.032-1.398.29-3.406 1.032-4.334 1.604-.197.122-.366.216-.394.216-.057 0 .121-.854.281-1.36.863-2.628 3.068-4.57 5.854-5.17.873-.178 2.655-.103 3.565.15zm.864 5.208c3.03.553 5.591 1.876 7.683 3.978 2.468 2.477 3.781 5.385 4.42 9.766.13.901.14 5.217.009 5.948l-.075.47-.535-.845c-1.407-2.223-3.462-4.194-6.643-6.389-3.199-2.205-4.418-3.152-5.976-4.672l-.872-.845.112-.956c.122-1.08.057-1.276-.384-1.23-.235.029-.244.057-.357 1.051-.281 2.59-1.417 4.898-3.2 6.53-.346.32-1.172.948-1.847 1.389-3.622 2.373-5.686 4.334-8.069 7.665l-.197.262-.338-1.07c-.675-2.091-.994-3.78-1.079-5.76-.14-3.48.77-6.773 2.618-9.382.76-1.079 2.223-2.542 3.359-3.358 1.05-.741 2.795-1.623 4.015-2.027.77-.253 2.299-.59 3.209-.703.675-.085 3.358.028 4.147.178zm.084 10.32c1.088.91 2.618 2.045 3.978 2.955 3.134 2.092 5.216 4.025 6.67 6.202.329.487.723 1.172.882 1.52l.282.628-.132.873c-.075.469-.225 1.426-.337 2.101-.657 4.137-2.102 7.853-4.119 10.536-1.876 2.514-4.69 4.578-7.543 5.554-.741.253-1.032.3-2.036.338-2.289.075-3.95-.629-5.939-2.515l-.769-.722.366-.403c1.182-1.304 1.323-3.434.338-4.954-.873-1.351-2.561-2.102-4.1-1.82-.357.066-.694.131-.76.14-.253.038-1.389-3.255-2.055-5.957l-.431-1.754.356-.544c1.895-2.871 4.316-5.217 7.797-7.534 2.945-1.97 4.174-3.509 5.235-6.511.047-.15.16-.075.74.478.386.366 1.09.986 1.577 1.389zm-16.86 12.581l.414.263.422 1.735c.244.957.61 2.29.816 2.946.216.666.366 1.23.338 1.257-.094.094-.713-.178-1.21-.534-.817-.582-1.511-1.67-1.905-2.956-.216-.731-.253-2.655-.038-2.899.179-.225.638-.15 1.164.188zm30.773-.131c.235.337.197 1.65-.084 2.749-.432 1.698-1.239 2.936-2.252 3.424-.234.113-.45.197-.46.178-.018-.019.15-.76.366-1.632.226-.882.507-2.224.629-2.993l.206-1.389.479-.272c.572-.328.92-.347 1.116-.065zm-24.392 8.828c1.51.694 2.335 2.42 1.885 3.969-.31 1.078-.91 1.773-1.989 2.26-.44.207-.675.254-1.247.245-.957 0-1.67-.282-2.327-.91-.61-.573-.91-1.126-1.06-1.961-.3-1.642.853-3.397 2.514-3.819.591-.15 1.651-.047 2.223.216z" fill="#35495D" stroke="#35495D" stroke-width=".7" stroke-miterlimit="10"/><path d="M29.967 26.036c-.581.094-1.5.46-1.904.741-.225.16-.281.272-.263.45.038.357.282.366.91.029 1.08-.573 2.42-.713 3.687-.394.76.197 1.849.703 2.477 1.154.328.234.422.262.591.178.235-.131.253-.404.047-.61-.075-.084-.422-.319-.77-.525-1.603-.948-3.189-1.286-4.775-1.023zM17.933 26.176c-1.267.235-2.543.676-3.49 1.21-.338.188-.45.31-.45.48 0 .403.28.43.947.093.92-.479 2.158-.882 3.086-1.013 1.126-.15 2.046-.01 2.965.45.797.394 1.023.394 1.023 0 0-.235-.075-.319-.563-.582a6.166 6.166 0 00-1.08-.469c-.506-.15-1.988-.253-2.438-.169zM15.91 30.942c-.112.3.029.479.62.77 1.604.816 3.34.788 4.625-.066.375-.244.45-.338.422-.544-.037-.366-.29-.347-1.088.056-.685.347-.732.357-1.698.357-.957 0-1.023-.01-1.736-.357-.788-.375-1.06-.422-1.144-.216zM28.207 30.914c-.216.347.394.854 1.482 1.22.479.168.742.187 1.492.159.816-.038.995-.084 1.604-.385.76-.375 1.06-.638.967-.863-.103-.281-.357-.263-.985.075a3.704 3.704 0 01-2.27.441c-.564-.075-1.427-.413-1.596-.619-.122-.15-.61-.178-.694-.028zM23.054 37.623c-.197.188-.188.281.038.506.412.413.957.61 1.688.61.61 0 .77-.037 1.201-.272.535-.3.713-.516.62-.75-.104-.263-.385-.263-.798.009-.338.225-.497.263-1.023.263-.525 0-.684-.038-1.013-.263-.45-.29-.516-.3-.713-.103zM21.051 41.526c-.244.243-.122.46.385.694.919.413 1.904.619 3.255.666 1.098.047 1.389.019 2.064-.15.432-.113 1.06-.328 1.389-.479.544-.253.59-.3.563-.534-.038-.347-.395-.395-.92-.122-.703.356-1.726.563-2.805.563-1.088 0-1.848-.132-2.908-.507-.798-.281-.864-.29-1.023-.131z" fill="#35495D" stroke="#35495D" stroke-width=".7" stroke-miterlimit="10"/></svg><svg fill="none" viewBox="0 0 50 50" id="type8" xmlns="http://www.w3.org/2000/svg"><path opacity=".995" fill-rule="evenodd" clip-rule="evenodd" d="M11.809 2.008c3.2-.02 6.399 0 9.598.05.09.04.18.09.25.15.15.32.18.65.1 1-.05.18-.17.3-.35.35-2.8.05-5.599.07-8.399.05v1.6h23.997v-1.6c-4.4.02-8.799 0-13.198-.05-.3-.15-.43-.4-.4-.75-.03-.35.1-.6.4-.75 4.8-.07 9.599-.07 14.398 0 .18.05.3.17.35.35.07 1.33.07 2.67 0 3.999-.05.18-.17.3-.35.35-.4.05-.8.07-1.2.05.02 2.8 0 5.6-.05 8.399-.15.3-.4.43-.75.4-.35.03-.6-.1-.75-.4-.05-2.8-.07-5.6-.05-8.399H14.608c.02 8.399 0 16.797-.05 25.196-.15.3-.4.43-.75.4-.35.03-.6-.1-.75-.4-.05-8.398-.07-16.797-.05-25.196-.4.02-.8 0-1.2-.05a.479.479 0 01-.35-.35c-.07-1.33-.07-2.67 0-4 .07-.19.19-.32.35-.4z" fill="#35495D"/><path opacity=".977" fill-rule="evenodd" clip-rule="evenodd" d="M23.603 8.407c.93-.02 1.87 0 2.8.05.45.18.77.5.95.95.05.73.07 1.47.05 2.2.73-.02 1.47 0 2.199.05.94.5 1.27 1.29 1 2.35.27 1.06-.06 1.849-1 2.349-.73.05-1.47.07-2.2.05.02.73 0 1.47-.05 2.2-.5.94-1.29 1.27-2.35 1-1.06.27-1.849-.06-2.349-1-.05-.73-.07-1.47-.05-2.2-.73.02-1.47 0-2.2-.05-.94-.5-1.27-1.29-1-2.35-.27-1.06.06-1.85 1-2.35.73-.05 1.47-.07 2.2-.05-.02-.73 0-1.47.05-2.2.2-.459.52-.789.95-.999zm.6 1.6h1.6c-.04 1.01.01 2.01.15 3 .08.06.16.11.25.15.93.05 1.87.07 2.8.05v1.6c-1.01-.04-2.01.01-3 .15-.06.08-.11.16-.15.25-.05.929-.07 1.869-.05 2.799h-1.6c.04-1.01-.01-2.01-.15-3-.08-.06-.16-.11-.25-.15-.93-.05-1.87-.07-2.8-.05v-1.6c1.01.04 2.01-.01 3-.15.06-.08.11-.16.15-.25.05-.94.07-1.87.05-2.8z" fill="#35495D"/><path opacity=".988" fill-rule="evenodd" clip-rule="evenodd" d="M1.402 10.007c3.2-.02 6.4 0 9.6.05.089.04.179.09.249.15.15.32.18.65.1 1-.05.18-.17.3-.35.35-2.8.05-5.6.07-8.399.05v1.6c2.88-.05 5.74 0 8.599.15.19.33.24.68.15 1.05-.05.179-.17.299-.35.349-2.27.05-4.53.07-6.799.05.02 1.2 0 2.4-.05 3.6-.15.3-.4.43-.75.4-.35.03-.6-.1-.75-.4-.05-1.2-.07-2.4-.05-3.6-.4.02-.8 0-1.2-.05a.479.479 0 01-.35-.35c-.07-1.33-.07-2.67 0-4 .07-.19.19-.32.35-.4z" fill="#35495D"/><path opacity=".991" fill-rule="evenodd" clip-rule="evenodd" d="M38.998 10.007c3.28-.05 6.539 0 9.799.15.06.08.11.16.15.25.07 1.33.07 2.67 0 3.999-.05.18-.17.3-.35.35-.4.05-.8.07-1.2.05.02 3.33 0 6.669-.05 9.998-.15.3-.4.43-.75.4-.35.03-.6-.1-.75-.4-.05-3.33-.07-6.669-.05-9.998-2.27.02-4.53 0-6.8-.05a.478.478 0 01-.349-.35c-.08-.35-.05-.68.1-1 .08-.06.16-.11.25-.15 2.8-.05 5.6-.07 8.399-.05v-1.6c-2.8.02-5.6 0-8.4-.05-.3-.15-.429-.4-.399-.75-.02-.36.11-.63.4-.8z" fill="#35495D"/><path opacity=".994" fill-rule="evenodd" clip-rule="evenodd" d="M35.796 17.205c.27-.02.54 0 .8.05.18.05.3.17.35.35.07 10.129.07 20.267 0 30.396-.05.18-.17.3-.35.35-1.07.07-2.13.07-3.2 0-.3-.15-.43-.4-.4-.75-.03-.35.1-.6.4-.75.67-.05 1.33-.07 2-.05-.02-9.729 0-19.467.05-29.196.07-.19.19-.32.35-.4z" fill="#35495D"/><path opacity=".982" fill-rule="evenodd" clip-rule="evenodd" d="M7.006 18.005c1.33-.02 2.67 0 4 .05.09.04.18.09.25.15.15.32.18.65.1 1-.05.18-.17.3-.35.35-.93.05-1.87.07-2.8.05v3.2c.93-.02 1.87 0 2.8.05.18.05.3.17.35.35.07.27.07.53 0 .8-.05.18-.17.3-.35.35-1.33.07-2.67.07-4 0-.09-.04-.17-.09-.25-.15-.16-1.92-.2-3.86-.1-5.8.07-.19.19-.32.35-.4zM38.996 18.005c1.33-.02 2.67 0 4 .05.09.04.18.09.25.15.11.99.16 1.99.15 3a24.9 24.9 0 01-.15 3c-.08.06-.16.11-.25.15-1.33.07-2.67.07-4 0a.479.479 0 01-.35-.35c-.07-.27-.07-.53 0-.8.05-.18.17-.3.35-.35.93-.05 1.87-.07 2.8-.05v-3.2c-1.01.04-2.01-.01-3-.15-.19-.33-.24-.68-.15-1.05.07-.19.19-.32.35-.4z" fill="#35495D"/><path opacity=".995" fill-rule="evenodd" clip-rule="evenodd" d="M3.012 20.405c.27-.02.54 0 .8.05.18.05.3.17.35.35.05 8.669.07 17.328.05 25.996 2.27-.02 4.529 0 6.799.05.3.15.43.4.4.75.03.35-.1.6-.4.75-2.67.07-5.33.07-8 0a.479.479 0 01-.35-.35c-.07-9.069-.07-18.127 0-27.196.07-.19.19-.32.35-.4z" fill="#35495D"/><path opacity=".96" fill-rule="evenodd" clip-rule="evenodd" d="M17.404 21.205c1.07-.02 2.13 0 3.2.05.18.05.3.17.35.35.07.27.07.53 0 .8-.05.18-.17.3-.35.35a24.4 24.4 0 01-3.2 0c-.3-.15-.43-.4-.4-.75-.02-.36.11-.63.4-.8zM23.404 21.205c1.07-.02 2.13 0 3.2.05.18.05.3.17.35.35.07.27.07.53 0 .8-.05.18-.17.3-.35.35a24.4 24.4 0 01-3.2 0c-.3-.15-.43-.4-.4-.75-.02-.36.11-.63.4-.8zM29.404 21.205c1.07-.02 2.13 0 3.2.05.18.05.3.17.35.35.07.27.07.53 0 .8-.05.18-.17.3-.35.35a24.4 24.4 0 01-3.2 0c-.3-.15-.43-.4-.4-.75-.02-.36.11-.63.4-.8zM17.404 24.405c1.07-.02 2.13 0 3.2.05.18.05.3.17.35.35.07.27.07.53 0 .8-.05.18-.17.3-.35.35a24.4 24.4 0 01-3.2 0c-.3-.15-.43-.4-.4-.75-.02-.36.11-.63.4-.8zM23.404 24.404c1.07-.02 2.13 0 3.2.05.18.05.3.17.35.35.07.27.07.53 0 .8-.05.18-.17.3-.35.35a24.4 24.4 0 01-3.2 0c-.3-.15-.43-.4-.4-.75-.02-.36.11-.63.4-.8zM29.404 24.405c1.07-.02 2.13 0 3.2.05.18.05.3.17.35.35.07.27.07.53 0 .8-.05.18-.17.3-.35.35a24.4 24.4 0 01-3.2 0c-.3-.15-.43-.4-.4-.75-.02-.36.11-.63.4-.8z" fill="#35495D"/><path opacity=".982" fill-rule="evenodd" clip-rule="evenodd" d="M7.006 26.004c1.33-.02 2.67 0 4 .05.09.04.18.09.25.15.15.32.18.65.1 1-.05.18-.17.3-.35.35-.93.05-1.87.07-2.8.05v3.2c.93-.02 1.87 0 2.8.05.18.05.3.17.35.35.07.27.07.53 0 .8-.05.18-.17.3-.35.35-1.33.07-2.67.07-4 0-.09-.04-.17-.09-.25-.15-.16-1.92-.2-3.86-.1-5.8.07-.19.19-.32.35-.4zM38.996 26.004c1.33-.02 2.67 0 4 .05.09.04.18.09.25.15.11.99.16 1.99.15 3a24.9 24.9 0 01-.15 3c-.08.06-.16.11-.25.15-1.33.07-2.67.07-4 0a.479.479 0 01-.35-.35c-.07-.27-.07-.53 0-.8.05-.18.17-.3.35-.35.93-.05 1.87-.07 2.8-.05v-3.2c-1.01.04-2.01-.01-3-.15-.19-.33-.24-.68-.15-1.05.07-.19.19-.32.35-.4z" fill="#35495D"/><path opacity=".993" fill-rule="evenodd" clip-rule="evenodd" d="M46.197 26.804c.27-.02.54 0 .8.05.18.05.3.17.35.35.07 6.929.07 13.868 0 20.797-.05.18-.17.3-.35.35-2.67.07-5.33.07-8 0-.3-.15-.429-.4-.399-.75-.03-.35.1-.6.4-.75 2.27-.05 4.53-.07 6.799-.05-.02-6.529 0-13.068.05-19.597.07-.19.19-.32.35-.4z" fill="#35495D"/><path opacity=".96" fill-rule="evenodd" clip-rule="evenodd" d="M17.404 27.604c1.07-.02 2.13 0 3.2.05.18.05.3.17.35.35.07.27.07.53 0 .8-.05.18-.17.3-.35.35a24.4 24.4 0 01-3.2 0c-.3-.15-.43-.4-.4-.75-.02-.36.11-.63.4-.8zM23.404 27.604c1.07-.02 2.13 0 3.2.05.18.05.3.17.35.35.07.27.07.53 0 .8-.05.18-.17.3-.35.35a24.4 24.4 0 01-3.2 0c-.3-.15-.43-.4-.4-.75-.02-.36.11-.63.4-.8zM29.404 27.604c1.07-.02 2.13 0 3.2.05.18.05.3.17.35.35.07.27.07.53 0 .8-.05.18-.17.3-.35.35a24.4 24.4 0 01-3.2 0c-.3-.15-.43-.4-.4-.75-.02-.36.11-.63.4-.8z" fill="#35495D"/><path opacity=".995" fill-rule="evenodd" clip-rule="evenodd" d="M19 32.404c4.08-.05 8.14 0 12.2.15.06.08.109.16.149.25.07 1.87.07 3.729 0 5.599-.05.18-.17.3-.35.35-.27.07-.53.07-.8 0a.479.479 0 01-.35-.35c-.05-1.47-.07-2.93-.05-4.4h-4v12.798h4c-.02-2 0-3.999.05-5.999.05-.18.17-.3.35-.35.27-.07.53-.07.8 0 .18.05.3.17.35.35.07 2.4.07 4.8 0 7.2-.04.09-.09.18-.15.25-2.06.12-4.12.17-6.199.15-2-.02-4-.03-6-.05-.09-.04-.18-.09-.25-.15-.17-5.12-.2-10.26-.1-15.398.07-.19.19-.32.35-.4zm1.2 1.6h4V46.8h-4V34.003z" fill="#35495D"/><path opacity=".982" fill-rule="evenodd" clip-rule="evenodd" d="M7.006 34.003c1.33-.02 2.67 0 4 .05.09.04.18.09.25.15.15.32.18.65.1 1-.05.18-.17.3-.35.35-.93.05-1.87.07-2.8.05v3.2c.93-.02 1.87 0 2.8.05.18.05.3.17.35.349.07.27.07.53 0 .8-.05.18-.17.3-.35.35-1.33.07-2.67.07-4 0-.09-.04-.17-.09-.25-.15-.16-1.92-.2-3.86-.1-5.8.07-.19.19-.32.35-.4z" fill="#35495D"/><path opacity=".988" fill-rule="evenodd" clip-rule="evenodd" d="M13.402 34.003c.27-.02.54 0 .8.05.18.05.3.17.35.35.05 4.13.07 8.269.05 12.398.67-.02 1.33 0 2 .05.3.15.43.4.4.75.03.35-.1.6-.4.75-1.07.07-2.13.07-3.2 0a.479.479 0 01-.35-.35c-.07-4.53-.07-9.069 0-13.598.07-.19.19-.32.35-.4z" fill="#35495D"/><path opacity=".982" fill-rule="evenodd" clip-rule="evenodd" d="M38.996 34.003c1.33-.02 2.67 0 4 .05.09.04.18.09.25.15.11.99.16 1.99.15 3 .01 1.01-.04 2.009-.15 2.999-.08.06-.16.11-.25.15-1.33.07-2.67.07-4 0a.479.479 0 01-.35-.35c-.07-.27-.07-.53 0-.8.05-.18.17-.3.35-.35.93-.05 1.87-.07 2.8-.05v-3.2c-1.01.04-2.01-.01-3-.15a1.38 1.38 0 01-.15-1.05c.07-.19.19-.32.35-.4z" fill="#35495D"/></svg><svg fill="none" viewBox="0 0 23 14" id="vk" xmlns="http://www.w3.org/2000/svg"><path d="M13.244 12.918V9.406c2.401.36 3.16 2.216 4.69 3.512h3.898a15.56 15.56 0 00-4.254-5.538c1.4-1.894 2.886-3.677 3.613-6.38h-3.543c-1.389 2.068-2.121 4.491-4.404 6.089V1H8.1L9.33 2.492v5.316C7.337 7.581 5.99 4 4.531 1H.832C2.178 5.052 5.01 13.944 13.244 12.918z" stroke="#35495D" stroke-linecap="round" stroke-linejoin="round"/></svg><svg fill="none" viewBox="0 0 24 25" id="vm-connect" xmlns="http://www.w3.org/2000/svg"><g clip-path="url(#ccclip0_1467_18751)" fill="#26599B"><path fill-rule="evenodd" clip-rule="evenodd" d="M2.25 3.5h19.5l.75.75v8.255a7.498 7.498 0 00-1.5-.875V5H3v13.5h7.5A7.5 7.5 0 0012 23H6v-1.5h4.5V20H2.25l-.75-.75v-15l.75-.75z"/><path d="M18 12.5a6 6 0 100 12 6 6 0 000-12zM18 23a4.5 4.5 0 110-9.002A4.5 4.5 0 0118 23z"/><path fill-rule="evenodd" clip-rule="evenodd" d="M18.2 17.652l2.154 2.154.646-.646-1.506-1.508L21 16.146l-.646-.645-2.154 2.152zm-1.694 1.601L15 17.747l.646-.646 2.154 2.152-2.154 2.154-.646-.646 1.506-1.508z"/><path d="M4.952 6.523h.64l1.63 4.058 1.627-4.058h.642L7.468 11.5h-.5L4.953 6.523zm-.208 0h.564L5.4 9.56V11.5h-.656V6.523zm4.388 0h.564V11.5H9.04V9.559l.092-3.036zm2.41 3.835l2.45-3.835h.66V11.5h-.66V7.662l-2.45 3.838h-.656V6.523h.656v3.835zm7.314-.44h.657a2.094 2.094 0 01-.27.844 1.579 1.579 0 01-.619.591c-.267.144-.6.215-.998.215-.292 0-.557-.054-.796-.164a1.77 1.77 0 01-.612-.464 2.175 2.175 0 01-.397-.729 3.105 3.105 0 01-.136-.95v-.495c0-.349.045-.665.136-.947.094-.285.227-.529.4-.732.176-.202.386-.358.633-.468.246-.11.523-.164.83-.164.376 0 .694.07.954.212.26.141.461.337.605.588.146.248.236.537.27.865h-.657a1.829 1.829 0 00-.177-.599.924.924 0 00-.37-.39c-.159-.09-.367-.136-.625-.136a1.29 1.29 0 00-.584.127 1.177 1.177 0 00-.42.358c-.113.155-.197.341-.254.558a2.832 2.832 0 00-.085.72v.503c0 .244.025.473.075.687.052.214.131.402.236.564.105.162.238.29.4.383.162.091.353.137.574.137.28 0 .504-.045.67-.134a.871.871 0 00.376-.382c.087-.167.148-.366.184-.599z"/></g><defs><clipPath id="ccclip0_1467_18751"><path fill="#fff" transform="translate(0 .5)" d="M0 0h24v24H0z"/></clipPath></defs></svg><svg fill="none" viewBox="0 0 50 50" id="_" xmlns="http://www.w3.org/2000/svg"><path d="M24.005 1.033c-2.121.27-4.232 1.08-5.873 2.231-.811.57-.981.921-.68 1.371.14.22.51.44.74.44.04 0 .38-.21.76-.46 2.602-1.71 5.363-2.351 8.205-1.89 4.773.77 8.585 4.612 9.306 9.355.08.52.15 1.19.15 1.48 0 .431.05.581.25.771.33.34.78.33 1.12-.01.251-.26.261-.28.201-1.28-.19-3.102-1.4-5.854-3.562-8.096-1.851-1.92-3.903-3.081-6.514-3.682-.84-.19-3.302-.33-4.103-.23zM15.54 5.776c-.29.12-1.16 1.43-1.69 2.542-.75 1.61-1.1 2.951-1.2 4.673-.071 1.06-.071 1.07.19 1.33.34.34.79.35 1.12.01.21-.2.25-.34.25-.82 0-1.941.73-4.193 1.981-6.074.28-.42.45-.8.45-.98 0-.51-.6-.891-1.1-.681z" fill="#35495D"/><path d="M26.532 9.949c-.11.1-.54.64-.95 1.19-.851 1.141-1.302 1.561-1.862 1.731-.26.07-1.551.11-3.902.11h-3.523l-.24.25c-.23.22-.25.32-.25 1.201v.95h-.91c-1.311 0-1.742.141-2.352.741-.59.59-.8 1.181-.71 1.962.07.6.25.96.69 1.39.57.57.82.65 2.091.69l1.161.04.06 1.172c.13 2.631 1.11 4.793 2.982 6.564.35.34.76.7.92.8l.27.2-2.1 3.503c-1.252 2.09-2.102 3.602-2.102 3.752 0 .44.26.68 1 .91l.691.23-.44.47c-.29.311-.45.571-.45.741 0 .14 1.13 2.502 2.501 5.254 1.931 3.862 2.562 5.033 2.742 5.123.28.12.68.05.9-.18.42-.41.4-.45-2.03-5.324l-2.322-4.642.65-.68c.73-.751.85-1.041.62-1.482-.13-.25-.29-.35-.98-.57-.46-.15-.84-.29-.86-.3-.01-.01.59-1.051 1.35-2.312l1.381-2.291.07.8c.08.96 3.992 16.61 4.203 16.82.26.27.72.281 1.02.02.25-.21.43-.85 2.272-8.184 1.11-4.403 2.03-8.285 2.071-8.696l.07-.74 1.3 2.181c.721 1.21 1.312 2.241 1.332 2.312.02.07-.3.23-.77.39-1.382.46-1.472.9-.401 2.001l.7.73-2.301 4.613c-1.27 2.532-2.311 4.723-2.311 4.863 0 .31.41.75.69.75.6 0 .63-.04 3.232-5.252 2.091-4.173 2.502-5.063 2.441-5.294-.04-.15-.24-.46-.46-.7l-.39-.42.69-.23c.73-.23 1.001-.47 1.001-.891 0-.13-.94-1.811-2.101-3.742-1.151-1.922-2.102-3.523-2.102-3.563 0-.04.19-.21.41-.37 1.131-.83 1.442-1.5.941-2.001-.39-.4-.64-.32-1.57.45-.921.78-2.282 1.511-3.283 1.771-.91.24-3.012.24-3.902 0-1.551-.43-3.192-1.48-4.193-2.691-.58-.71-1.32-2.122-1.58-3.032-.141-.51-.171-1.211-.211-4.523l-.03-3.923 3.282-.03 3.292-.03.77-.38c.751-.37.851-.46 1.902-1.72l.24-.291.21.4c.31.6 1.31 1.481 1.991 1.751.52.21.78.24 2.462.27l1.871.04v3.232c0 3.593-.07 4.393-.52 5.694-.33.98-.31 1.21.16 1.521.3.19.67.13.95-.15.42-.42 1.011-2.852 1.011-4.193v-.52h1.03c.811 0 1.111-.05 1.472-.21.96-.43 1.44-1.17 1.44-2.192 0-1.02-.48-1.76-1.44-2.191-.36-.16-.66-.21-1.471-.21h-1.031v-.86c0-.851-.09-1.181-.39-1.412-.11-.09-.78-.13-2.312-.13-3.012-.01-3.212-.1-4.142-1.88-.56-1.081-.79-1.322-1.251-1.322-.1 0-.28.08-.39.17zm-10.727 7.834v.8h-.95c-.881 0-.981-.02-1.201-.25a.78.78 0 01-.25-.55c0-.19.09-.4.25-.55.22-.23.32-.25 1.2-.25h.951v.8zm21.363-.55c.16.15.25.36.25.55 0 .19-.09.4-.25.55-.22.23-.32.25-1.2.25h-.951v-1.6h.95c.881 0 .981.02 1.201.25zm-9.165 17.28l-.61 2.482H23.43l-.61-2.451c-.551-2.191-.611-2.552-.611-3.462 0-1 0-1.01.23-.95 1.19.34 1.621.4 2.922.4 1.33.01 2.521-.17 3.052-.45.13-.06.15.07.18.94.03.96 0 1.15-.59 3.492zm-1.782 7.135c-.41 1.681-.78 3.052-.81 3.052-.03 0-.4-1.37-.81-3.052l-.761-3.052h3.142l-.76 3.052z" fill="#35495D"/><path d="M12.852 21.236l-.25.24v9.426l.25.24c.24.25.26.25 2.151.25 1.891 0 1.911 0 2.151-.25a.78.78 0 00.25-.55c0-.19-.09-.4-.25-.55-.23-.24-.29-.25-1.6-.25h-1.351V21.475l-.25-.24a.78.78 0 00-.55-.25c-.191 0-.401.09-.551.25zM36.874 21.236l-.25.24V29.79h-1.351c-1.31 0-1.37.01-1.601.25a.78.78 0 00-.25.55c0 .19.09.4.25.55.24.251.26.251 2.151.251 1.892 0 1.912 0 2.152-.25l.25-.24v-9.426l-.25-.24a.78.78 0 00-.55-.25c-.19 0-.4.09-.551.25zM12.804 34.584c-.36.16-1.281.59-2.052.96-1.25.601-1.48.751-2.101 1.392-.45.45-.82.95-1.02 1.37C7.03 39.517 7 39.817 7 44.38v4.133l.25.24c.29.3.74.32 1.06.06l.241-.19.05-4.343c.05-4.283.05-4.343.29-4.933.18-.44.42-.78.9-1.25.601-.601.811-.731 2.362-1.442 1.731-.79 2.152-1.09 2.152-1.51 0-.28-.36-.711-.65-.791-.11-.03-.491.08-.851.23zM36.967 34.414c-.49.29-.59.82-.22 1.21.12.14.99.601 1.921 1.031 1.541.71 1.761.84 2.362 1.441.48.47.72.81.9 1.251.24.59.24.64.29 4.933l.05 4.343.24.19c.321.26.771.24 1.061-.06l.25-.24V44.38c0-4.623-.03-4.893-.66-6.094-.75-1.42-1.45-1.99-3.832-3.102-1.881-.87-2.081-.94-2.362-.77z" fill="#35495D"/><path d="M13.255 40.448c-.21.2-.25.34-.25.8v.55h-1.15c-1.101 0-1.172.01-1.402.25-.25.24-.25.26-.25 2.152 0 1.891 0 1.911.25 2.151l.24.25h6.224l.24-.25c.25-.24.25-.26.25-2.15 0-1.892 0-1.912-.25-2.152-.23-.24-.3-.25-1.4-.25h-1.151v-.55c0-.671-.29-1.051-.8-1.051-.19 0-.4.09-.551.25zm2.552 3.752v.8h-4.002v-1.6h4.002v.8zM36.868 40.448c-.23.22-.25.32-.25 1.2v.951h-.95c-.881 0-.981.02-1.202.25-.33.32-.33.78 0 1.1.22.231.32.251 1.201.251h.95v.95c0 .881.02.981.25 1.201.151.16.361.25.551.25.19 0 .4-.09.55-.25.23-.22.25-.32.25-1.2v-.95h.951c.88 0 .981-.021 1.201-.251a.78.78 0 00.25-.55c0-.19-.09-.4-.25-.55-.22-.23-.32-.25-1.2-.25h-.951v-.952c0-.88-.02-.98-.25-1.2a.78.78 0 00-.55-.25c-.19 0-.401.09-.551.25z" fill="#35495D"/></svg></svg>